<?xml version="1.0" encoding="UTF-8" standalone="no"?><svg xmlns="http://www.w3.org/2000/svg" xmlns:xlink="http://www.w3.org/1999/xlink" contentScriptType="application/ecmascript" contentStyleType="text/css" height="349px" preserveAspectRatio="none" style="width:828px;height:349px;" version="1.1" viewBox="0 0 828 349" width="828px" zoomAndPan="magnify"><defs><filter height="300%" id="f1s51qwo3gibq8" width="300%" x="-1" y="-1"><feGaussianBlur result="blurOut" stdDeviation="2.0"/><feColorMatrix in="blurOut" result="blurOut2" type="matrix" values="0 0 0 0 0 0 0 0 0 0 0 0 0 0 0 0 0 0 .4 0"/><feOffset dx="4.0" dy="4.0" in="blurOut2" result="blurOut3"/><feBlend in="SourceGraphic" in2="blurOut3" mode="normal"/></filter></defs><g><!--class ReadOnlyConfigurationCollection`1--><rect fill="#FEFECE" filter="url(#f1s51qwo3gibq8)" height="222.2188" id="ReadOnlyConfigurationCollection`1" style="stroke: #A80036; stroke-width: 1.5;" width="808" x="6" y="116"/><ellipse cx="280.25" cy="136.0938" fill="#ADD1B2" rx="11" ry="11" style="stroke: #A80036; stroke-width: 1.0;"/><path d="M283.0156,131.9688 Q283.1719,131.75 283.3594,131.6406 Q283.5469,131.5313 283.7656,131.5313 Q284.1406,131.5313 284.375,131.7969 Q284.6094,132.0469 284.6094,132.6563 L284.6094,134.1094 Q284.6094,134.7188 284.375,134.9844 Q284.1406,135.25 283.7656,135.25 Q283.4219,135.25 283.2188,135.0469 Q283.0156,134.8594 282.9063,134.3438 Q282.8594,133.9844 282.6719,133.7969 Q282.3438,133.4219 281.7344,133.2031 Q281.125,132.9844 280.5,132.9844 Q279.7344,132.9844 279.0938,133.3125 Q278.4688,133.6406 277.9688,134.3906 Q277.4844,135.1406 277.4844,136.1719 L277.4844,137.2656 Q277.4844,138.5 278.375,139.3281 Q279.2656,140.1406 280.8594,140.1406 Q281.7969,140.1406 282.4531,139.8906 Q282.8438,139.7344 283.2656,139.2969 Q283.5313,139.0313 283.6719,138.9531 Q283.8281,138.875 284.0313,138.875 Q284.3594,138.875 284.6094,139.1406 Q284.875,139.3906 284.875,139.7344 Q284.875,140.0781 284.5313,140.4844 Q284.0313,141.0625 283.2344,141.3906 Q282.1563,141.8438 280.8594,141.8438 Q279.3438,141.8438 278.1406,141.2188 Q277.1563,140.7188 276.4688,139.6563 Q275.7813,138.5781 275.7813,137.2969 L275.7813,136.1406 Q275.7813,134.8125 276.3906,133.6719 Q277.0156,132.5156 278.1094,131.9063 Q279.2031,131.2813 280.4375,131.2813 Q281.1719,131.2813 281.8125,131.4531 Q282.4688,131.6094 283.0156,131.9688 Z "/><text fill="#000000" font-family="sans-serif" font-size="12" font-style="italic" lengthAdjust="spacingAndGlyphs" textLength="51" x="372.25" y="133.457">«sealed»</text><text fill="#000000" font-family="sans-serif" font-size="12" lengthAdjust="spacingAndGlyphs" textLength="194" x="300.75" y="148.5508">ReadOnlyConfigurationCollection`1</text><rect fill="#FFFFFF" height="17.0938" style="stroke: #000000; stroke-width: 1.0; stroke-dasharray: 2.0,2.0;" width="55" x="762" y="113"/><text fill="#000000" font-family="sans-serif" font-size="12" font-style="italic" lengthAdjust="spacingAndGlyphs" textLength="53" x="763" y="126.457">TElement</text><line style="stroke: #A80036; stroke-width: 1.5;" x1="7" x2="813" y1="156.1875" y2="156.1875"/><line style="stroke: #A80036; stroke-width: 1.5;" x1="7" x2="813" y1="164.1875" y2="164.1875"/><ellipse cx="17" cy="175.1875" fill="#84BE84" rx="3" ry="3" style="stroke: #038048; stroke-width: 1.0;"/><text fill="#000000" font-family="sans-serif" font-size="11" lengthAdjust="spacingAndGlyphs" textLength="782" x="26" y="179.6064">ReadOnlyConfigurationCollection(parent:IConfigurationParent?, propertyDef:IPropertyDef, configurationRoot:IConfigurationRoot, elements:IEnumerable&lt;TElement&gt;?)</text><ellipse cx="17" cy="189.0234" fill="#84BE84" rx="3" ry="3" style="stroke: #038048; stroke-width: 1.0;"/><text fill="#000000" font-family="sans-serif" font-size="11" lengthAdjust="spacingAndGlyphs" textLength="718" x="26" y="193.4424">ReadOnlyConfigurationCollection(parent:IConfigurationParent?, propertyDef:IPropertyDef, configurationRoot:IConfigurationRoot, elements:TElement[]?)</text><ellipse cx="17" cy="202.8594" fill="#84BE84" rx="3" ry="3" style="stroke: #038048; stroke-width: 1.0;"/><text fill="#000000" font-family="sans-serif" font-size="11" lengthAdjust="spacingAndGlyphs" textLength="122" x="26" y="207.2783">Add(item:TElement) : void</text><ellipse cx="17" cy="216.6953" fill="#84BE84" rx="3" ry="3" style="stroke: #038048; stroke-width: 1.0;"/><text fill="#000000" font-family="sans-serif" font-size="11" lengthAdjust="spacingAndGlyphs" textLength="177" x="26" y="221.1143">AddCopy(value:TElement) : TElement</text><ellipse cx="17" cy="230.5313" fill="#84BE84" rx="3" ry="3" style="stroke: #038048; stroke-width: 1.0;"/><text fill="#000000" font-family="sans-serif" font-size="11" lengthAdjust="spacingAndGlyphs" textLength="103" x="26" y="234.9502">AddNew() : TElement</text><ellipse cx="17" cy="244.3672" fill="#84BE84" rx="3" ry="3" style="stroke: #038048; stroke-width: 1.0;"/><text fill="#000000" font-family="sans-serif" font-size="11" lengthAdjust="spacingAndGlyphs" textLength="144" x="26" y="248.7861">Contains(item:TElement) : bool</text><ellipse cx="17" cy="258.2031" fill="#84BE84" rx="3" ry="3" style="stroke: #038048; stroke-width: 1.0;"/><text fill="#000000" font-family="sans-serif" font-size="11" lengthAdjust="spacingAndGlyphs" textLength="224" x="26" y="262.6221">CopyTo(array:TElement[], arrayIndex:int) : void</text><ellipse cx="17" cy="272.0391" fill="#84BE84" rx="3" ry="3" style="stroke: #038048; stroke-width: 1.0;"/><text fill="#000000" font-family="sans-serif" font-size="11" lengthAdjust="spacingAndGlyphs" textLength="201" x="26" y="276.458">GetEnumerator() : IEnumerator&lt;TElement&gt;</text><ellipse cx="17" cy="285.875" fill="#84BE84" rx="3" ry="3" style="stroke: #038048; stroke-width: 1.0;"/><text fill="#000000" font-family="sans-serif" font-size="11" lengthAdjust="spacingAndGlyphs" textLength="131" x="26" y="290.2939">IndexOf(item:TElement) : int</text><ellipse cx="17" cy="299.7109" fill="#84BE84" rx="3" ry="3" style="stroke: #038048; stroke-width: 1.0;"/><text fill="#000000" font-family="sans-serif" font-size="11" lengthAdjust="spacingAndGlyphs" textLength="175" x="26" y="304.1299">Insert(index:int, item:TElement) : void</text><ellipse cx="17" cy="313.5469" fill="#84BE84" rx="3" ry="3" style="stroke: #038048; stroke-width: 1.0;"/><text fill="#000000" font-family="sans-serif" font-size="11" lengthAdjust="spacingAndGlyphs" textLength="127" x="26" y="317.9658">RemoveAt(index:int) : void</text><text fill="#000000" font-family="sans-serif" font-size="11" lengthAdjust="spacingAndGlyphs" textLength="146" x="26" y="331.8018">GetEnumerator() : IEnumerator</text><!--class ConfigurationDictionaryBase`2--><rect fill="#FEFECE" filter="url(#f1s51qwo3gibq8)" height="48" id="ConfigurationDictionaryBase`2" style="stroke: #A80036; stroke-width: 1.5;" width="235" x="156.5" y="8"/><ellipse cx="171.5" cy="24" fill="#ADD1B2" rx="11" ry="11" style="stroke: #A80036; stroke-width: 1.0;"/><path d="M174.2656,19.875 Q174.4219,19.6563 174.6094,19.5469 Q174.7969,19.4375 175.0156,19.4375 Q175.3906,19.4375 175.625,19.7031 Q175.8594,19.9531 175.8594,20.5625 L175.8594,22.0156 Q175.8594,22.625 175.625,22.8906 Q175.3906,23.1563 175.0156,23.1563 Q174.6719,23.1563 174.4688,22.9531 Q174.2656,22.7656 174.1563,22.25 Q174.1094,21.8906 173.9219,21.7031 Q173.5938,21.3281 172.9844,21.1094 Q172.375,20.8906 171.75,20.8906 Q170.9844,20.8906 170.3438,21.2188 Q169.7188,21.5469 169.2188,22.2969 Q168.7344,23.0469 168.7344,24.0781 L168.7344,25.1719 Q168.7344,26.4063 169.625,27.2344 Q170.5156,28.0469 172.1094,28.0469 Q173.0469,28.0469 173.7031,27.7969 Q174.0938,27.6406 174.5156,27.2031 Q174.7813,26.9375 174.9219,26.8594 Q175.0781,26.7813 175.2813,26.7813 Q175.6094,26.7813 175.8594,27.0469 Q176.125,27.2969 176.125,27.6406 Q176.125,27.9844 175.7813,28.3906 Q175.2813,28.9688 174.4844,29.2969 Q173.4063,29.75 172.1094,29.75 Q170.5938,29.75 169.3906,29.125 Q168.4063,28.625 167.7188,27.5625 Q167.0313,26.4844 167.0313,25.2031 L167.0313,24.0469 Q167.0313,22.7188 167.6406,21.5781 Q168.2656,20.4219 169.3594,19.8125 Q170.4531,19.1875 171.6875,19.1875 Q172.4219,19.1875 173.0625,19.3594 Q173.7188,19.5156 174.2656,19.875 Z "/><text fill="#000000" font-family="sans-serif" font-size="12" lengthAdjust="spacingAndGlyphs" textLength="168" x="185.5" y="28.9102">ConfigurationDictionaryBase`2</text><rect fill="#FFFFFF" height="17.0938" style="stroke: #000000; stroke-width: 1.0; stroke-dasharray: 2.0,2.0;" width="33" x="361.5" y="5"/><text fill="#000000" font-family="sans-serif" font-size="12" font-style="italic" lengthAdjust="spacingAndGlyphs" textLength="31" x="362.5" y="18.457">T1,T2</text><line style="stroke: #A80036; stroke-width: 1.5;" x1="157.5" x2="390.5" y1="40" y2="40"/><line style="stroke: #A80036; stroke-width: 1.5;" x1="157.5" x2="390.5" y1="48" y2="48"/><!--class IReadOnlyConfigurationCollection`1--><rect fill="#FEFECE" filter="url(#f1s51qwo3gibq8)" height="48" id="IReadOnlyConfigurationCollection`1" style="stroke: #A80036; stroke-width: 1.5;" width="240" x="427" y="8"/><ellipse cx="442" cy="24" fill="#ADD1B2" rx="11" ry="11" style="stroke: #A80036; stroke-width: 1.0;"/><path d="M444.7656,19.875 Q444.9219,19.6563 445.1094,19.5469 Q445.2969,19.4375 445.5156,19.4375 Q445.8906,19.4375 446.125,19.7031 Q446.3594,19.9531 446.3594,20.5625 L446.3594,22.0156 Q446.3594,22.625 446.125,22.8906 Q445.8906,23.1563 445.5156,23.1563 Q445.1719,23.1563 444.9688,22.9531 Q444.7656,22.7656 444.6563,22.25 Q444.6094,21.8906 444.4219,21.7031 Q444.0938,21.3281 443.4844,21.1094 Q442.875,20.8906 442.25,20.8906 Q441.4844,20.8906 440.8438,21.2188 Q440.2188,21.5469 439.7188,22.2969 Q439.2344,23.0469 439.2344,24.0781 L439.2344,25.1719 Q439.2344,26.4063 440.125,27.2344 Q441.0156,28.0469 442.6094,28.0469 Q443.5469,28.0469 444.2031,27.7969 Q444.5938,27.6406 445.0156,27.2031 Q445.2813,26.9375 445.4219,26.8594 Q445.5781,26.7813 445.7813,26.7813 Q446.1094,26.7813 446.3594,27.0469 Q446.625,27.2969 446.625,27.6406 Q446.625,27.9844 446.2813,28.3906 Q445.7813,28.9688 444.9844,29.2969 Q443.9063,29.75 442.6094,29.75 Q441.0938,29.75 439.8906,29.125 Q438.9063,28.625 438.2188,27.5625 Q437.5313,26.4844 437.5313,25.2031 L437.5313,24.0469 Q437.5313,22.7188 438.1406,21.5781 Q438.7656,20.4219 439.8594,19.8125 Q440.9531,19.1875 442.1875,19.1875 Q442.9219,19.1875 443.5625,19.3594 Q444.2188,19.5156 444.7656,19.875 Z "/><text fill="#000000" font-family="sans-serif" font-size="12" lengthAdjust="spacingAndGlyphs" textLength="197" x="456" y="28.9102">IReadOnlyConfigurationCollection`1</text><rect fill="#FFFFFF" height="17.0938" style="stroke: #000000; stroke-width: 1.0; stroke-dasharray: 2.0,2.0;" width="9" x="661" y="5"/><text fill="#000000" font-family="sans-serif" font-size="12" font-style="italic" lengthAdjust="spacingAndGlyphs" textLength="7" x="662" y="18.457">T</text><line style="stroke: #A80036; stroke-width: 1.5;" x1="428" x2="666" y1="40" y2="40"/><line style="stroke: #A80036; stroke-width: 1.5;" x1="428" x2="666" y1="48" y2="48"/><!--class IList`1--><rect fill="#FEFECE" filter="url(#f1s51qwo3gibq8)" height="48" id="IList`1" style="stroke: #A80036; stroke-width: 1.5;" width="77" x="702.5" y="8"/><ellipse cx="717.5" cy="24" fill="#ADD1B2" rx="11" ry="11" style="stroke: #A80036; stroke-width: 1.0;"/><path d="M720.2656,19.875 Q720.4219,19.6563 720.6094,19.5469 Q720.7969,19.4375 721.0156,19.4375 Q721.3906,19.4375 721.625,19.7031 Q721.8594,19.9531 721.8594,20.5625 L721.8594,22.0156 Q721.8594,22.625 721.625,22.8906 Q721.3906,23.1563 721.0156,23.1563 Q720.6719,23.1563 720.4688,22.9531 Q720.2656,22.7656 720.1563,22.25 Q720.1094,21.8906 719.9219,21.7031 Q719.5938,21.3281 718.9844,21.1094 Q718.375,20.8906 717.75,20.8906 Q716.9844,20.8906 716.3438,21.2188 Q715.7188,21.5469 715.2188,22.2969 Q714.7344,23.0469 714.7344,24.0781 L714.7344,25.1719 Q714.7344,26.4063 715.625,27.2344 Q716.5156,28.0469 718.1094,28.0469 Q719.0469,28.0469 719.7031,27.7969 Q720.0938,27.6406 720.5156,27.2031 Q720.7813,26.9375 720.9219,26.8594 Q721.0781,26.7813 721.2813,26.7813 Q721.6094,26.7813 721.8594,27.0469 Q722.125,27.2969 722.125,27.6406 Q722.125,27.9844 721.7813,28.3906 Q721.2813,28.9688 720.4844,29.2969 Q719.4063,29.75 718.1094,29.75 Q716.5938,29.75 715.3906,29.125 Q714.4063,28.625 713.7188,27.5625 Q713.0313,26.4844 713.0313,25.2031 L713.0313,24.0469 Q713.0313,22.7188 713.6406,21.5781 Q714.2656,20.4219 715.3594,19.8125 Q716.4531,19.1875 717.6875,19.1875 Q718.4219,19.1875 719.0625,19.3594 Q719.7188,19.5156 720.2656,19.875 Z "/><text fill="#000000" font-family="sans-serif" font-size="12" lengthAdjust="spacingAndGlyphs" textLength="34" x="731.5" y="28.9102">IList`1</text><rect fill="#FFFFFF" height="17.0938" style="stroke: #000000; stroke-width: 1.0; stroke-dasharray: 2.0,2.0;" width="9" x="773.5" y="5"/><text fill="#000000" font-family="sans-serif" font-size="12" font-style="italic" lengthAdjust="spacingAndGlyphs" textLength="7" x="774.5" y="18.457">T</text><line style="stroke: #A80036; stroke-width: 1.5;" x1="703.5" x2="778.5" y1="40" y2="40"/><line style="stroke: #A80036; stroke-width: 1.5;" x1="703.5" x2="778.5" y1="48" y2="48"/><!--reverse link ConfigurationDictionaryBase`2 to ReadOnlyConfigurationCollection`1--><path d="M302.059,72.818 C311.067,85.602 321.524,100.442 332.313,115.753 " fill="none" id="ConfigurationDictionaryBase`2&lt;-ReadOnlyConfigurationCollection`1" style="stroke: #A80036; stroke-width: 1.0;"/><polygon fill="none" points="296.203,76.661,290.405,56.28,307.647,68.597,296.203,76.661" style="stroke: #A80036; stroke-width: 1.0;"/><text fill="#000000" font-family="sans-serif" font-size="13" lengthAdjust="spacingAndGlyphs" textLength="89" x="194.5568" y="77.6862">&lt;int,TElement&gt;</text><!--reverse link IReadOnlyConfigurationCollection`1 to ReadOnlyConfigurationCollection`1--><path d="M518.735,72.818 C509.661,85.602 499.127,100.442 488.258,115.753 " fill="none" id="IReadOnlyConfigurationCollection`1&lt;-ReadOnlyConfigurationCollection`1" style="stroke: #A80036; stroke-width: 1.0;"/><polygon fill="none" points="513.19,68.537,530.475,56.28,524.606,76.641,513.19,68.537" style="stroke: #A80036; stroke-width: 1.0;"/><text fill="#000000" font-family="sans-serif" font-size="13" lengthAdjust="spacingAndGlyphs" textLength="71" x="446.7939" y="77.6862">&lt;TElement&gt;</text><!--
@startuml
class "ReadOnlyConfigurationCollection`1"<TElement> <<sealed>> {
    + ReadOnlyConfigurationCollection(parent:IConfigurationParent?, propertyDef:IPropertyDef, configurationRoot:IConfigurationRoot, elements:IEnumerable<TElement>?)
    + ReadOnlyConfigurationCollection(parent:IConfigurationParent?, propertyDef:IPropertyDef, configurationRoot:IConfigurationRoot, elements:TElement[]?)
    + Add(item:TElement) : void
    + AddCopy(value:TElement) : TElement
    + AddNew() : TElement
    + Contains(item:TElement) : bool
    + CopyTo(array:TElement[], arrayIndex:int) : void
    + GetEnumerator() : IEnumerator<TElement>
    + IndexOf(item:TElement) : int
    + Insert(index:int, item:TElement) : void
    + RemoveAt(index:int) : void
    GetEnumerator() : IEnumerator
}
class "ConfigurationDictionaryBase`2"<T1,T2> {
}
class "IReadOnlyConfigurationCollection`1"<T> {
}
class "IList`1"<T> {
}
"ConfigurationDictionaryBase`2" "<int,TElement>" <|- - "ReadOnlyConfigurationCollection`1"
"IReadOnlyConfigurationCollection`1" "<TElement>" <|- - "ReadOnlyConfigurationCollection`1"
@enduml

PlantUML version 1.2019.09(Mon Aug 26 17:19:51 BST 2019)
(GPL source distribution)
Java Runtime: OpenJDK Runtime Environment
JVM: OpenJDK 64-Bit Server VM
Java Version: 13.0.2+8
Operating System: Windows 10
OS Version: 10.0
Default Encoding: Cp1252
Language: en
Country: GB
--></g></svg>