<?xml version="1.0" encoding="UTF-8" standalone="no"?><svg xmlns="http://www.w3.org/2000/svg" xmlns:xlink="http://www.w3.org/1999/xlink" contentScriptType="application/ecmascript" contentStyleType="text/css" height="94px" preserveAspectRatio="none" style="width:498px;height:94px;" version="1.1" viewBox="0 0 498 94" width="498px" zoomAndPan="magnify"><defs><filter height="300%" id="f1n35fc32imzim" width="300%" x="-1" y="-1"><feGaussianBlur result="blurOut" stdDeviation="2.0"/><feColorMatrix in="blurOut" result="blurOut2" type="matrix" values="0 0 0 0 0 0 0 0 0 0 0 0 0 0 0 0 0 0 .4 0"/><feOffset dx="4.0" dy="4.0" in="blurOut2" result="blurOut3"/><feBlend in="SourceGraphic" in2="blurOut3" mode="normal"/></filter></defs><g><!--class ConfigurationObjectTypeBuilder--><rect fill="#FEFECE" filter="url(#f1n35fc32imzim)" height="75.6719" id="ConfigurationObjectTypeBuilder" style="stroke: #A80036; stroke-width: 1.5;" width="481" x="6" y="8"/><ellipse cx="155.25" cy="24" fill="#ADD1B2" rx="11" ry="11" style="stroke: #A80036; stroke-width: 1.0;"/><path d="M158.0156,19.875 Q158.1719,19.6563 158.3594,19.5469 Q158.5469,19.4375 158.7656,19.4375 Q159.1406,19.4375 159.375,19.7031 Q159.6094,19.9531 159.6094,20.5625 L159.6094,22.0156 Q159.6094,22.625 159.375,22.8906 Q159.1406,23.1563 158.7656,23.1563 Q158.4219,23.1563 158.2188,22.9531 Q158.0156,22.7656 157.9063,22.25 Q157.8594,21.8906 157.6719,21.7031 Q157.3438,21.3281 156.7344,21.1094 Q156.125,20.8906 155.5,20.8906 Q154.7344,20.8906 154.0938,21.2188 Q153.4688,21.5469 152.9688,22.2969 Q152.4844,23.0469 152.4844,24.0781 L152.4844,25.1719 Q152.4844,26.4063 153.375,27.2344 Q154.2656,28.0469 155.8594,28.0469 Q156.7969,28.0469 157.4531,27.7969 Q157.8438,27.6406 158.2656,27.2031 Q158.5313,26.9375 158.6719,26.8594 Q158.8281,26.7813 159.0313,26.7813 Q159.3594,26.7813 159.6094,27.0469 Q159.875,27.2969 159.875,27.6406 Q159.875,27.9844 159.5313,28.3906 Q159.0313,28.9688 158.2344,29.2969 Q157.1563,29.75 155.8594,29.75 Q154.3438,29.75 153.1406,29.125 Q152.1563,28.625 151.4688,27.5625 Q150.7813,26.4844 150.7813,25.2031 L150.7813,24.0469 Q150.7813,22.7188 151.3906,21.5781 Q152.0156,20.4219 153.1094,19.8125 Q154.2031,19.1875 155.4375,19.1875 Q156.1719,19.1875 156.8125,19.3594 Q157.4688,19.5156 158.0156,19.875 Z "/><text fill="#000000" font-family="sans-serif" font-size="12" lengthAdjust="spacingAndGlyphs" textLength="174" x="175.75" y="28.9102">ConfigurationObjectTypeBuilder</text><line style="stroke: #A80036; stroke-width: 1.5;" x1="7" x2="486" y1="40" y2="40"/><line style="stroke: #A80036; stroke-width: 1.5;" x1="7" x2="486" y1="48" y2="48"/><ellipse cx="17" cy="59" fill="#84BE84" rx="3" ry="3" style="stroke: #038048; stroke-width: 1.0;"/><text fill="#000000" font-family="sans-serif" font-size="11" lengthAdjust="spacingAndGlyphs" textLength="455" x="26" y="63.4189">ConfigurationObjectTypeBuilder(interfaceType:Type, propertyDefs:IEnumerable&lt;PropertyDef&gt;)</text><ellipse cx="17" cy="72.8359" fill="#84BE84" rx="3" ry="3" style="stroke: #038048; stroke-width: 1.0;"/><text fill="#000000" font-family="sans-serif" font-size="11" lengthAdjust="spacingAndGlyphs" textLength="86" x="26" y="77.2549">Generate() : Type</text><!--
@startuml
class ConfigurationObjectTypeBuilder {
    + ConfigurationObjectTypeBuilder(interfaceType:Type, propertyDefs:IEnumerable<PropertyDef>)
    + Generate() : Type
}
@enduml

PlantUML version 1.2019.09(Mon Aug 26 17:19:51 BST 2019)
(GPL source distribution)
Java Runtime: OpenJDK Runtime Environment
JVM: OpenJDK 64-Bit Server VM
Java Version: 13.0.2+8
Operating System: Windows 10
OS Version: 10.0
Default Encoding: Cp1252
Language: en
Country: GB
--></g></svg>