<?xml version="1.0" encoding="UTF-8" standalone="no"?><svg xmlns="http://www.w3.org/2000/svg" xmlns:xlink="http://www.w3.org/1999/xlink" contentScriptType="application/ecmascript" contentStyleType="text/css" height="80px" preserveAspectRatio="none" style="width:163px;height:80px;" version="1.1" viewBox="0 0 163 80" width="163px" zoomAndPan="magnify"><defs><filter height="300%" id="frxlenqg7qjsm" width="300%" x="-1" y="-1"><feGaussianBlur result="blurOut" stdDeviation="2.0"/><feColorMatrix in="blurOut" result="blurOut2" type="matrix" values="0 0 0 0 0 0 0 0 0 0 0 0 0 0 0 0 0 0 .4 0"/><feOffset dx="4.0" dy="4.0" in="blurOut2" result="blurOut3"/><feBlend in="SourceGraphic" in2="blurOut3" mode="normal"/></filter></defs><g><!--class IPropertyValue--><rect fill="#FEFECE" filter="url(#frxlenqg7qjsm)" height="61.8359" id="IPropertyValue" style="stroke: #A80036; stroke-width: 1.5;" width="146" x="6" y="8"/><ellipse cx="35.4" cy="24" fill="#B4A7E5" rx="11" ry="11" style="stroke: #A80036; stroke-width: 1.0;"/><path d="M36.3531,20.6406 L36.3531,27.2969 L38.0719,27.2969 Q38.6813,27.2969 38.9469,27.5313 Q39.2125,27.7656 39.2125,28.1563 Q39.2125,28.5313 38.9469,28.7656 Q38.6813,29 38.0719,29 L32.9313,29 Q32.3219,29 32.0563,28.7656 Q31.7906,28.5313 31.7906,28.1406 Q31.7906,27.7656 32.0563,27.5313 Q32.3219,27.2969 32.9313,27.2969 L34.65,27.2969 L34.65,20.6406 L32.9313,20.6406 Q32.3219,20.6406 32.0563,20.4063 Q31.7906,20.1719 31.7906,19.7813 Q31.7906,19.4063 32.0563,19.1719 Q32.3219,18.9375 32.9313,18.9375 L38.0719,18.9375 Q38.6813,18.9375 38.9469,19.1719 Q39.2125,19.4063 39.2125,19.7813 Q39.2125,20.1719 38.9469,20.4063 Q38.6813,20.6406 38.0719,20.6406 L36.3531,20.6406 Z "/><text fill="#000000" font-family="sans-serif" font-size="12" font-style="italic" lengthAdjust="spacingAndGlyphs" textLength="82" x="52.6" y="28.9102">IPropertyValue</text><line style="stroke: #A80036; stroke-width: 1.5;" x1="7" x2="151" y1="40" y2="40"/><text fill="#000000" font-family="sans-serif" font-size="11" lengthAdjust="spacingAndGlyphs" textLength="134" x="12" y="55.4189">PropertyName : string «get»</text><line style="stroke: #A80036; stroke-width: 1.5;" x1="7" x2="151" y1="61.8359" y2="61.8359"/><!--
@startuml
interface IPropertyValue {
    PropertyName : string <<get>>
}
@enduml

PlantUML version 1.2019.09(Mon Aug 26 17:19:51 BST 2019)
(GPL source distribution)
Java Runtime: OpenJDK Runtime Environment
JVM: OpenJDK 64-Bit Server VM
Java Version: 13.0.2+8
Operating System: Windows 10
OS Version: 10.0
Default Encoding: Cp1252
Language: en
Country: GB
--></g></svg>