<?xml version="1.0" encoding="UTF-8" standalone="no"?><svg xmlns="http://www.w3.org/2000/svg" xmlns:xlink="http://www.w3.org/1999/xlink" contentScriptType="application/ecmascript" contentStyleType="text/css" height="89px" preserveAspectRatio="none" style="width:243px;height:89px;" version="1.1" viewBox="0 0 243 89" width="243px" zoomAndPan="magnify"><defs><filter height="300%" id="f1rbyjkodo8kv3" width="300%" x="-1" y="-1"><feGaussianBlur result="blurOut" stdDeviation="2.0"/><feColorMatrix in="blurOut" result="blurOut2" type="matrix" values="0 0 0 0 0 0 0 0 0 0 0 0 0 0 0 0 0 0 .4 0"/><feOffset dx="4.0" dy="4.0" in="blurOut2" result="blurOut3"/><feBlend in="SourceGraphic" in2="blurOut3" mode="normal"/></filter></defs><g><!--class UniversalComparer--><rect fill="#FEFECE" filter="url(#f1rbyjkodo8kv3)" height="70.0234" id="UniversalComparer" style="stroke: #A80036; stroke-width: 1.5;" width="226" x="6" y="8"/><ellipse cx="60.75" cy="28.0938" fill="#ADD1B2" rx="11" ry="11" style="stroke: #A80036; stroke-width: 1.0;"/><path d="M63.5156,23.9688 Q63.6719,23.75 63.8594,23.6406 Q64.0469,23.5313 64.2656,23.5313 Q64.6406,23.5313 64.875,23.7969 Q65.1094,24.0469 65.1094,24.6563 L65.1094,26.1094 Q65.1094,26.7188 64.875,26.9844 Q64.6406,27.25 64.2656,27.25 Q63.9219,27.25 63.7188,27.0469 Q63.5156,26.8594 63.4063,26.3438 Q63.3594,25.9844 63.1719,25.7969 Q62.8438,25.4219 62.2344,25.2031 Q61.625,24.9844 61,24.9844 Q60.2344,24.9844 59.5938,25.3125 Q58.9688,25.6406 58.4688,26.3906 Q57.9844,27.1406 57.9844,28.1719 L57.9844,29.2656 Q57.9844,30.5 58.875,31.3281 Q59.7656,32.1406 61.3594,32.1406 Q62.2969,32.1406 62.9531,31.8906 Q63.3438,31.7344 63.7656,31.2969 Q64.0313,31.0313 64.1719,30.9531 Q64.3281,30.875 64.5313,30.875 Q64.8594,30.875 65.1094,31.1406 Q65.375,31.3906 65.375,31.7344 Q65.375,32.0781 65.0313,32.4844 Q64.5313,33.0625 63.7344,33.3906 Q62.6563,33.8438 61.3594,33.8438 Q59.8438,33.8438 58.6406,33.2188 Q57.6563,32.7188 56.9688,31.6563 Q56.2813,30.5781 56.2813,29.2969 L56.2813,28.1406 Q56.2813,26.8125 56.8906,25.6719 Q57.5156,24.5156 58.6094,23.9063 Q59.7031,23.2813 60.9375,23.2813 Q61.6719,23.2813 62.3125,23.4531 Q62.9688,23.6094 63.5156,23.9688 Z "/><text fill="#000000" font-family="sans-serif" font-size="12" font-style="italic" lengthAdjust="spacingAndGlyphs" textLength="42" x="114.25" y="25.457">«static»</text><text fill="#000000" font-family="sans-serif" font-size="12" lengthAdjust="spacingAndGlyphs" textLength="108" x="81.25" y="40.5508">UniversalComparer</text><line style="stroke: #A80036; stroke-width: 1.5;" x1="7" x2="231" y1="48.1875" y2="48.1875"/><line style="stroke: #A80036; stroke-width: 1.5;" x1="7" x2="231" y1="56.1875" y2="56.1875"/><ellipse cx="17" cy="67.1875" fill="#84BE84" rx="3" ry="3" style="stroke: #038048; stroke-width: 1.0;"/><text fill="#000000" font-family="sans-serif" font-size="11" lengthAdjust="spacingAndGlyphs" text-decoration="underline" textLength="200" x="26" y="71.6064">«new» Equals(a:object?, b:object?) : bool</text><!--
@startuml
class UniversalComparer <<static>> {
    + <<new>> {static} Equals(a:object?, b:object?) : bool
}
@enduml

PlantUML version 1.2019.09(Mon Aug 26 17:19:51 BST 2019)
(GPL source distribution)
Java Runtime: OpenJDK Runtime Environment
JVM: OpenJDK 64-Bit Server VM
Java Version: 13.0.2+8
Operating System: Windows 10
OS Version: 10.0
Default Encoding: Cp1252
Language: en
Country: GB
--></g></svg>