<?xml version="1.0" encoding="UTF-8" standalone="no"?><svg xmlns="http://www.w3.org/2000/svg" xmlns:xlink="http://www.w3.org/1999/xlink" contentScriptType="application/ecmascript" contentStyleType="text/css" height="202px" preserveAspectRatio="none" style="width:387px;height:202px;" version="1.1" viewBox="0 0 387 202" width="387px" zoomAndPan="magnify"><defs><filter height="300%" id="f1rj9mw4xxle48" width="300%" x="-1" y="-1"><feGaussianBlur result="blurOut" stdDeviation="2.0"/><feColorMatrix in="blurOut" result="blurOut2" type="matrix" values="0 0 0 0 0 0 0 0 0 0 0 0 0 0 0 0 0 0 .4 0"/><feOffset dx="4.0" dy="4.0" in="blurOut2" result="blurOut3"/><feBlend in="SourceGraphic" in2="blurOut3" mode="normal"/></filter></defs><g><!--class ConfigurationObjectComparer--><rect fill="#FEFECE" filter="url(#f1rj9mw4xxle48)" height="75.6719" id="ConfigurationObjectComparer" style="stroke: #A80036; stroke-width: 1.5;" width="313" x="6" y="116"/><ellipse cx="75.75" cy="132" fill="#ADD1B2" rx="11" ry="11" style="stroke: #A80036; stroke-width: 1.0;"/><path d="M78.5156,127.875 Q78.6719,127.6563 78.8594,127.5469 Q79.0469,127.4375 79.2656,127.4375 Q79.6406,127.4375 79.875,127.7031 Q80.1094,127.9531 80.1094,128.5625 L80.1094,130.0156 Q80.1094,130.625 79.875,130.8906 Q79.6406,131.1563 79.2656,131.1563 Q78.9219,131.1563 78.7188,130.9531 Q78.5156,130.7656 78.4063,130.25 Q78.3594,129.8906 78.1719,129.7031 Q77.8438,129.3281 77.2344,129.1094 Q76.625,128.8906 76,128.8906 Q75.2344,128.8906 74.5938,129.2188 Q73.9688,129.5469 73.4688,130.2969 Q72.9844,131.0469 72.9844,132.0781 L72.9844,133.1719 Q72.9844,134.4063 73.875,135.2344 Q74.7656,136.0469 76.3594,136.0469 Q77.2969,136.0469 77.9531,135.7969 Q78.3438,135.6406 78.7656,135.2031 Q79.0313,134.9375 79.1719,134.8594 Q79.3281,134.7813 79.5313,134.7813 Q79.8594,134.7813 80.1094,135.0469 Q80.375,135.2969 80.375,135.6406 Q80.375,135.9844 80.0313,136.3906 Q79.5313,136.9688 78.7344,137.2969 Q77.6563,137.75 76.3594,137.75 Q74.8438,137.75 73.6406,137.125 Q72.6563,136.625 71.9688,135.5625 Q71.2813,134.4844 71.2813,133.2031 L71.2813,132.0469 Q71.2813,130.7188 71.8906,129.5781 Q72.5156,128.4219 73.6094,127.8125 Q74.7031,127.1875 75.9375,127.1875 Q76.6719,127.1875 77.3125,127.3594 Q77.9688,127.5156 78.5156,127.875 Z "/><text fill="#000000" font-family="sans-serif" font-size="12" lengthAdjust="spacingAndGlyphs" textLength="165" x="96.25" y="136.9102">ConfigurationObjectComparer</text><line style="stroke: #A80036; stroke-width: 1.5;" x1="7" x2="318" y1="148" y2="148"/><line style="stroke: #A80036; stroke-width: 1.5;" x1="7" x2="318" y1="156" y2="156"/><ellipse cx="17" cy="167" fill="#84BE84" rx="3" ry="3" style="stroke: #038048; stroke-width: 1.0;"/><text fill="#000000" font-family="sans-serif" font-size="11" lengthAdjust="spacingAndGlyphs" textLength="287" x="26" y="171.4189">Equals(x:IConfigurationObject, y:IConfigurationObject) : bool</text><ellipse cx="17" cy="180.8359" fill="#84BE84" rx="3" ry="3" style="stroke: #038048; stroke-width: 1.0;"/><text fill="#000000" font-family="sans-serif" font-size="11" lengthAdjust="spacingAndGlyphs" textLength="209" x="26" y="185.2549">GetHashCode(obj:IConfigurationObject) : int</text><!--class IEqualityComparer`1--><rect fill="#FEFECE" filter="url(#f1rj9mw4xxle48)" height="48" id="IEqualityComparer`1" style="stroke: #A80036; stroke-width: 1.5;" width="156" x="84.5" y="8"/><ellipse cx="99.5" cy="24" fill="#ADD1B2" rx="11" ry="11" style="stroke: #A80036; stroke-width: 1.0;"/><path d="M102.2656,19.875 Q102.4219,19.6563 102.6094,19.5469 Q102.7969,19.4375 103.0156,19.4375 Q103.3906,19.4375 103.625,19.7031 Q103.8594,19.9531 103.8594,20.5625 L103.8594,22.0156 Q103.8594,22.625 103.625,22.8906 Q103.3906,23.1563 103.0156,23.1563 Q102.6719,23.1563 102.4688,22.9531 Q102.2656,22.7656 102.1563,22.25 Q102.1094,21.8906 101.9219,21.7031 Q101.5938,21.3281 100.9844,21.1094 Q100.375,20.8906 99.75,20.8906 Q98.9844,20.8906 98.3438,21.2188 Q97.7188,21.5469 97.2188,22.2969 Q96.7344,23.0469 96.7344,24.0781 L96.7344,25.1719 Q96.7344,26.4063 97.625,27.2344 Q98.5156,28.0469 100.1094,28.0469 Q101.0469,28.0469 101.7031,27.7969 Q102.0938,27.6406 102.5156,27.2031 Q102.7813,26.9375 102.9219,26.8594 Q103.0781,26.7813 103.2813,26.7813 Q103.6094,26.7813 103.8594,27.0469 Q104.125,27.2969 104.125,27.6406 Q104.125,27.9844 103.7813,28.3906 Q103.2813,28.9688 102.4844,29.2969 Q101.4063,29.75 100.1094,29.75 Q98.5938,29.75 97.3906,29.125 Q96.4063,28.625 95.7188,27.5625 Q95.0313,26.4844 95.0313,25.2031 L95.0313,24.0469 Q95.0313,22.7188 95.6406,21.5781 Q96.2656,20.4219 97.3594,19.8125 Q98.4531,19.1875 99.6875,19.1875 Q100.4219,19.1875 101.0625,19.3594 Q101.7188,19.5156 102.2656,19.875 Z "/><text fill="#000000" font-family="sans-serif" font-size="12" lengthAdjust="spacingAndGlyphs" textLength="113" x="113.5" y="28.9102">IEqualityComparer`1</text><rect fill="#FFFFFF" height="17.0938" style="stroke: #000000; stroke-width: 1.0; stroke-dasharray: 2.0,2.0;" width="9" x="234.5" y="5"/><text fill="#000000" font-family="sans-serif" font-size="12" font-style="italic" lengthAdjust="spacingAndGlyphs" textLength="7" x="235.5" y="18.457">T</text><line style="stroke: #A80036; stroke-width: 1.5;" x1="85.5" x2="239.5" y1="40" y2="40"/><line style="stroke: #A80036; stroke-width: 1.5;" x1="85.5" x2="239.5" y1="48" y2="48"/><!--reverse link IEqualityComparer`1 to ConfigurationObjectComparer--><path d="M162.5,76.343 C162.5,89.255 162.5,103.2855 162.5,115.7711 " fill="none" id="IEqualityComparer`1&lt;-ConfigurationObjectComparer" style="stroke: #A80036; stroke-width: 1.0;"/><polygon fill="none" points="155.5,76.137,162.5,56.137,169.5,76.137,155.5,76.137" style="stroke: #A80036; stroke-width: 1.0;"/><text fill="#000000" font-family="sans-serif" font-size="13" lengthAdjust="spacingAndGlyphs" textLength="132" x="14.4125" y="77.5084">&lt;IConfigurationObject&gt;</text><!--link ConfigurationObjectComparer to ConfigurationObjectComparer--><path d="M330.8847,136.3133 C330.8847,136.3133 354,146.2135 354,154 C354,161.7865 345.679,167.5851 332.224,171.3959 " fill="none" id="ConfigurationObjectComparer-ConfigurationObjectComparer" style="stroke: #A80036; stroke-width: 1.0;"/><polygon fill="#A80036" points="319.158,174.2331,328.8018,176.2322,324.0441,173.1721,327.1043,168.4144,319.158,174.2331" style="stroke: #A80036; stroke-width: 1.0;"/><line style="stroke: #A80036; stroke-width: 1.0;" x1="324.0441" x2="331.8625" y1="173.1721" y2="171.4744"/><polygon fill="#FFFFFF" points="319.158,133.7669,324.1726,138.949,330.8847,136.3133,325.8701,131.1312,319.158,133.7669" style="stroke: #A80036; stroke-width: 1.0;"/><text fill="#000000" font-family="sans-serif" font-size="13" lengthAdjust="spacingAndGlyphs" textLength="49" x="326.8006" y="172.2586">Instance</text><!--
@startuml
class ConfigurationObjectComparer {
    + Equals(x:IConfigurationObject, y:IConfigurationObject) : bool
    + GetHashCode(obj:IConfigurationObject) : int
}
class "IEqualityComparer`1"<T> {
}
"IEqualityComparer`1" "<IConfigurationObject>" <|- - ConfigurationObjectComparer
ConfigurationObjectComparer o-> "Instance" ConfigurationObjectComparer
@enduml

PlantUML version 1.2019.09(Mon Aug 26 17:19:51 BST 2019)
(GPL source distribution)
Java Runtime: OpenJDK Runtime Environment
JVM: OpenJDK 64-Bit Server VM
Java Version: 13.0.2+8
Operating System: Windows 10
OS Version: 10.0
Default Encoding: Cp1252
Language: en
Country: GB
--></g></svg>