<?xml version="1.0" encoding="UTF-8" standalone="no"?><svg xmlns="http://www.w3.org/2000/svg" xmlns:xlink="http://www.w3.org/1999/xlink" contentScriptType="application/ecmascript" contentStyleType="text/css" height="239px" preserveAspectRatio="none" style="width:273px;height:239px;" version="1.1" viewBox="0 0 273 239" width="273px" zoomAndPan="magnify"><defs><filter height="300%" id="ffmbyb9lxo91m" width="300%" x="-1" y="-1"><feGaussianBlur result="blurOut" stdDeviation="2.0"/><feColorMatrix in="blurOut" result="blurOut2" type="matrix" values="0 0 0 0 0 0 0 0 0 0 0 0 0 0 0 0 0 0 .4 0"/><feOffset dx="4.0" dy="4.0" in="blurOut2" result="blurOut3"/><feBlend in="SourceGraphic" in2="blurOut3" mode="normal"/></filter></defs><g><!--class PathIs--><rect fill="#FEFECE" filter="url(#ffmbyb9lxo91m)" height="89.5078" id="PathIs" style="stroke: #A80036; stroke-width: 1.5;" width="76" x="6" y="8"/><ellipse cx="25.05" cy="24" fill="#EB937F" rx="11" ry="11" style="stroke: #A80036; stroke-width: 1.0;"/><path d="M23.9094,24.7969 L23.9094,27.2969 L28.2375,27.2969 L28.2375,26.375 Q28.2375,25.7656 28.4719,25.5 Q28.7219,25.2344 29.0969,25.2344 Q29.4719,25.2344 29.7063,25.5 Q29.9406,25.7656 29.9406,26.375 L29.9406,29 L21.9406,29 Q21.3156,29 21.05,28.7656 Q20.8,28.5313 20.8,28.1406 Q20.8,27.7656 21.0656,27.5313 Q21.3313,27.2969 21.9406,27.2969 L22.2063,27.2969 L22.2063,20.6406 L21.9406,20.6406 Q21.3156,20.6406 21.05,20.4063 Q20.8,20.1719 20.8,19.7813 Q20.8,19.4063 21.05,19.1719 Q21.3156,18.9375 21.9406,18.9375 L29.5656,18.9375 L29.5656,21.5313 Q29.5656,22.1406 29.3313,22.4063 Q29.1125,22.6563 28.7219,22.6563 Q28.3469,22.6563 28.1125,22.4063 Q27.8781,22.1406 27.8781,21.5313 L27.8781,20.6406 L23.9094,20.6406 L23.9094,23.0938 L25.3938,23.0938 Q25.3938,22.4375 25.5188,22.25 Q25.7844,21.8438 26.2531,21.8438 Q26.6281,21.8438 26.8625,22.1094 Q27.0969,22.3594 27.0969,22.9688 L27.0969,24.9375 Q27.0969,25.4844 26.9719,25.6719 Q26.7063,26.0625 26.2531,26.0625 Q25.7844,26.0625 25.5188,25.6563 Q25.3938,25.4688 25.3938,24.7969 L23.9094,24.7969 Z "/><text fill="#000000" font-family="sans-serif" font-size="12" lengthAdjust="spacingAndGlyphs" textLength="35" x="39.95" y="28.9102">PathIs</text><line style="stroke: #A80036; stroke-width: 1.5;" x1="7" x2="81" y1="40" y2="40"/><text fill="#000000" font-family="sans-serif" font-size="11" lengthAdjust="spacingAndGlyphs" textLength="64" x="12" y="55.4189">Unknown= 0,</text><text fill="#000000" font-family="sans-serif" font-size="11" lengthAdjust="spacingAndGlyphs" textLength="25" x="12" y="69.2549">Root,</text><text fill="#000000" font-family="sans-serif" font-size="11" lengthAdjust="spacingAndGlyphs" textLength="32" x="12" y="83.0908">Suffix,</text><line style="stroke: #A80036; stroke-width: 1.5;" x1="7" x2="81" y1="89.5078" y2="89.5078"/><!--class PathAttribute--><rect fill="#FEFECE" filter="url(#ffmbyb9lxo91m)" height="70.0234" id="PathAttribute" style="stroke: #A80036; stroke-width: 1.5;" width="215" x="47.5" y="158"/><ellipse cx="116.25" cy="178.0938" fill="#ADD1B2" rx="11" ry="11" style="stroke: #A80036; stroke-width: 1.0;"/><path d="M119.0156,173.9688 Q119.1719,173.75 119.3594,173.6406 Q119.5469,173.5313 119.7656,173.5313 Q120.1406,173.5313 120.375,173.7969 Q120.6094,174.0469 120.6094,174.6563 L120.6094,176.1094 Q120.6094,176.7188 120.375,176.9844 Q120.1406,177.25 119.7656,177.25 Q119.4219,177.25 119.2188,177.0469 Q119.0156,176.8594 118.9063,176.3438 Q118.8594,175.9844 118.6719,175.7969 Q118.3438,175.4219 117.7344,175.2031 Q117.125,174.9844 116.5,174.9844 Q115.7344,174.9844 115.0938,175.3125 Q114.4688,175.6406 113.9688,176.3906 Q113.4844,177.1406 113.4844,178.1719 L113.4844,179.2656 Q113.4844,180.5 114.375,181.3281 Q115.2656,182.1406 116.8594,182.1406 Q117.7969,182.1406 118.4531,181.8906 Q118.8438,181.7344 119.2656,181.2969 Q119.5313,181.0313 119.6719,180.9531 Q119.8281,180.875 120.0313,180.875 Q120.3594,180.875 120.6094,181.1406 Q120.875,181.3906 120.875,181.7344 Q120.875,182.0781 120.5313,182.4844 Q120.0313,183.0625 119.2344,183.3906 Q118.1563,183.8438 116.8594,183.8438 Q115.3438,183.8438 114.1406,183.2188 Q113.1563,182.7188 112.4688,181.6563 Q111.7813,180.5781 111.7813,179.2969 L111.7813,178.1406 Q111.7813,176.8125 112.3906,175.6719 Q113.0156,174.5156 114.1094,173.9063 Q115.2031,173.2813 116.4375,173.2813 Q117.1719,173.2813 117.8125,173.4531 Q118.4688,173.6094 119.0156,173.9688 Z "/><text fill="#000000" font-family="sans-serif" font-size="12" font-style="italic" lengthAdjust="spacingAndGlyphs" textLength="51" x="145.75" y="175.457">«sealed»</text><text fill="#000000" font-family="sans-serif" font-size="12" lengthAdjust="spacingAndGlyphs" textLength="69" x="136.75" y="190.5508">PathAttribute</text><line style="stroke: #A80036; stroke-width: 1.5;" x1="48.5" x2="261.5" y1="198.1875" y2="198.1875"/><line style="stroke: #A80036; stroke-width: 1.5;" x1="48.5" x2="261.5" y1="206.1875" y2="206.1875"/><ellipse cx="58.5" cy="217.1875" fill="#84BE84" rx="3" ry="3" style="stroke: #038048; stroke-width: 1.0;"/><text fill="#000000" font-family="sans-serif" font-size="11" lengthAdjust="spacingAndGlyphs" textLength="189" x="67.5" y="221.6064">PathAttribute(usage:PathIs, path:string)</text><!--class Attribute--><rect fill="#FEFECE" filter="url(#ffmbyb9lxo91m)" height="48" id="Attribute" style="stroke: #A80036; stroke-width: 1.5;" width="76" x="117" y="29"/><ellipse cx="132" cy="45" fill="#ADD1B2" rx="11" ry="11" style="stroke: #A80036; stroke-width: 1.0;"/><path d="M134.7656,40.875 Q134.9219,40.6563 135.1094,40.5469 Q135.2969,40.4375 135.5156,40.4375 Q135.8906,40.4375 136.125,40.7031 Q136.3594,40.9531 136.3594,41.5625 L136.3594,43.0156 Q136.3594,43.625 136.125,43.8906 Q135.8906,44.1563 135.5156,44.1563 Q135.1719,44.1563 134.9688,43.9531 Q134.7656,43.7656 134.6563,43.25 Q134.6094,42.8906 134.4219,42.7031 Q134.0938,42.3281 133.4844,42.1094 Q132.875,41.8906 132.25,41.8906 Q131.4844,41.8906 130.8438,42.2188 Q130.2188,42.5469 129.7188,43.2969 Q129.2344,44.0469 129.2344,45.0781 L129.2344,46.1719 Q129.2344,47.4063 130.125,48.2344 Q131.0156,49.0469 132.6094,49.0469 Q133.5469,49.0469 134.2031,48.7969 Q134.5938,48.6406 135.0156,48.2031 Q135.2813,47.9375 135.4219,47.8594 Q135.5781,47.7813 135.7813,47.7813 Q136.1094,47.7813 136.3594,48.0469 Q136.625,48.2969 136.625,48.6406 Q136.625,48.9844 136.2813,49.3906 Q135.7813,49.9688 134.9844,50.2969 Q133.9063,50.75 132.6094,50.75 Q131.0938,50.75 129.8906,50.125 Q128.9063,49.625 128.2188,48.5625 Q127.5313,47.4844 127.5313,46.2031 L127.5313,45.0469 Q127.5313,43.7188 128.1406,42.5781 Q128.7656,41.4219 129.8594,40.8125 Q130.9531,40.1875 132.1875,40.1875 Q132.9219,40.1875 133.5625,40.3594 Q134.2188,40.5156 134.7656,40.875 Z "/><text fill="#000000" font-family="sans-serif" font-size="12" lengthAdjust="spacingAndGlyphs" textLength="44" x="146" y="49.9102">Attribute</text><line style="stroke: #A80036; stroke-width: 1.5;" x1="118" x2="192" y1="61" y2="61"/><line style="stroke: #A80036; stroke-width: 1.5;" x1="118" x2="192" y1="69" y2="69"/><!--reverse link Attribute to PathAttribute--><path d="M155,97.396 C155,116.937 155,139.6704 155,157.954 " fill="none" id="Attribute&lt;-PathAttribute" style="stroke: #A80036; stroke-width: 1.0;"/><polygon fill="none" points="148,97.098,155,77.098,162,97.098,148,97.098" style="stroke: #A80036; stroke-width: 1.0;"/><!--
@startuml
enum PathIs {
    Unknown= 0,
    Root,
    Suffix,
}
class PathAttribute <<sealed>> {
    + PathAttribute(usage:PathIs, path:string)
}
Attribute <|- - PathAttribute
@enduml

PlantUML version 1.2019.09(Mon Aug 26 17:19:51 BST 2019)
(GPL source distribution)
Java Runtime: OpenJDK Runtime Environment
JVM: OpenJDK 64-Bit Server VM
Java Version: 13.0.2+8
Operating System: Windows 10
OS Version: 10.0
Default Encoding: Cp1252
Language: en
Country: GB
--></g></svg>