<?xml version="1.0" encoding="UTF-8" standalone="no"?><svg xmlns="http://www.w3.org/2000/svg" xmlns:xlink="http://www.w3.org/1999/xlink" contentScriptType="application/ecmascript" contentStyleType="text/css" height="271px" preserveAspectRatio="none" style="width:489px;height:271px;" version="1.1" viewBox="0 0 489 271" width="489px" zoomAndPan="magnify"><defs><filter height="300%" id="fdp55krn1zbth" width="300%" x="-1" y="-1"><feGaussianBlur result="blurOut" stdDeviation="2.0"/><feColorMatrix in="blurOut" result="blurOut2" type="matrix" values="0 0 0 0 0 0 0 0 0 0 0 0 0 0 0 0 0 0 .4 0"/><feOffset dx="4.0" dy="4.0" in="blurOut2" result="blurOut3"/><feBlend in="SourceGraphic" in2="blurOut3" mode="normal"/></filter></defs><g><!--class ConfigurationException--><rect fill="#FEFECE" filter="url(#fdp55krn1zbth)" height="144.8516" id="ConfigurationException" style="stroke: #A80036; stroke-width: 1.5;" width="472" x="6" y="116"/><ellipse cx="174.25" cy="132" fill="#ADD1B2" rx="11" ry="11" style="stroke: #A80036; stroke-width: 1.0;"/><path d="M177.0156,127.875 Q177.1719,127.6563 177.3594,127.5469 Q177.5469,127.4375 177.7656,127.4375 Q178.1406,127.4375 178.375,127.7031 Q178.6094,127.9531 178.6094,128.5625 L178.6094,130.0156 Q178.6094,130.625 178.375,130.8906 Q178.1406,131.1563 177.7656,131.1563 Q177.4219,131.1563 177.2188,130.9531 Q177.0156,130.7656 176.9063,130.25 Q176.8594,129.8906 176.6719,129.7031 Q176.3438,129.3281 175.7344,129.1094 Q175.125,128.8906 174.5,128.8906 Q173.7344,128.8906 173.0938,129.2188 Q172.4688,129.5469 171.9688,130.2969 Q171.4844,131.0469 171.4844,132.0781 L171.4844,133.1719 Q171.4844,134.4063 172.375,135.2344 Q173.2656,136.0469 174.8594,136.0469 Q175.7969,136.0469 176.4531,135.7969 Q176.8438,135.6406 177.2656,135.2031 Q177.5313,134.9375 177.6719,134.8594 Q177.8281,134.7813 178.0313,134.7813 Q178.3594,134.7813 178.6094,135.0469 Q178.875,135.2969 178.875,135.6406 Q178.875,135.9844 178.5313,136.3906 Q178.0313,136.9688 177.2344,137.2969 Q176.1563,137.75 174.8594,137.75 Q173.3438,137.75 172.1406,137.125 Q171.1563,136.625 170.4688,135.5625 Q169.7813,134.4844 169.7813,133.2031 L169.7813,132.0469 Q169.7813,130.7188 170.3906,129.5781 Q171.0156,128.4219 172.1094,127.8125 Q173.2031,127.1875 174.4375,127.1875 Q175.1719,127.1875 175.8125,127.3594 Q176.4688,127.5156 177.0156,127.875 Z "/><text fill="#000000" font-family="sans-serif" font-size="12" lengthAdjust="spacingAndGlyphs" textLength="127" x="194.75" y="136.9102">ConfigurationException</text><line style="stroke: #A80036; stroke-width: 1.5;" x1="7" x2="477" y1="148" y2="148"/><ellipse cx="17" cy="159" fill="none" rx="3" ry="3" style="stroke: #038048; stroke-width: 1.0;"/><text fill="#000000" font-family="sans-serif" font-size="11" lengthAdjust="spacingAndGlyphs" textLength="187" x="26" y="163.4189">ConfigurationPath : string? «get» «set»</text><line style="stroke: #A80036; stroke-width: 1.5;" x1="7" x2="477" y1="169.8359" y2="169.8359"/><ellipse cx="17" cy="180.8359" fill="#84BE84" rx="3" ry="3" style="stroke: #038048; stroke-width: 1.0;"/><text fill="#000000" font-family="sans-serif" font-size="11" lengthAdjust="spacingAndGlyphs" textLength="119" x="26" y="185.2549">ConfigurationException()</text><ellipse cx="17" cy="194.6719" fill="#84BE84" rx="3" ry="3" style="stroke: #038048; stroke-width: 1.0;"/><text fill="#000000" font-family="sans-serif" font-size="11" lengthAdjust="spacingAndGlyphs" textLength="193" x="26" y="199.0908">ConfigurationException(message:string)</text><ellipse cx="17" cy="208.5078" fill="#84BE84" rx="3" ry="3" style="stroke: #038048; stroke-width: 1.0;"/><text fill="#000000" font-family="sans-serif" font-size="11" lengthAdjust="spacingAndGlyphs" textLength="319" x="26" y="212.9268">ConfigurationException(configurationPath:string?, message:string)</text><ellipse cx="17" cy="222.3438" fill="#84BE84" rx="3" ry="3" style="stroke: #038048; stroke-width: 1.0;"/><text fill="#000000" font-family="sans-serif" font-size="11" lengthAdjust="spacingAndGlyphs" textLength="320" x="26" y="226.7627">ConfigurationException(message:string, innerException:Exception)</text><ellipse cx="17" cy="236.1797" fill="#84BE84" rx="3" ry="3" style="stroke: #038048; stroke-width: 1.0;"/><text fill="#000000" font-family="sans-serif" font-size="11" lengthAdjust="spacingAndGlyphs" textLength="446" x="26" y="240.5986">ConfigurationException(configurationPath:string?, message:string, innerException:Exception)</text><ellipse cx="17" cy="250.0156" fill="#84BE84" rx="3" ry="3" style="stroke: #038048; stroke-width: 1.0;"/><text fill="#000000" font-family="sans-serif" font-size="11" lengthAdjust="spacingAndGlyphs" textLength="389" x="26" y="254.4346">«override» GetObjectData(info:SerializationInfo, context:StreamingContext) : void</text><!--class Exception--><rect fill="#FEFECE" filter="url(#fdp55krn1zbth)" height="48" id="Exception" style="stroke: #A80036; stroke-width: 1.5;" width="85" x="199.5" y="8"/><ellipse cx="214.5" cy="24" fill="#ADD1B2" rx="11" ry="11" style="stroke: #A80036; stroke-width: 1.0;"/><path d="M217.2656,19.875 Q217.4219,19.6563 217.6094,19.5469 Q217.7969,19.4375 218.0156,19.4375 Q218.3906,19.4375 218.625,19.7031 Q218.8594,19.9531 218.8594,20.5625 L218.8594,22.0156 Q218.8594,22.625 218.625,22.8906 Q218.3906,23.1563 218.0156,23.1563 Q217.6719,23.1563 217.4688,22.9531 Q217.2656,22.7656 217.1563,22.25 Q217.1094,21.8906 216.9219,21.7031 Q216.5938,21.3281 215.9844,21.1094 Q215.375,20.8906 214.75,20.8906 Q213.9844,20.8906 213.3438,21.2188 Q212.7188,21.5469 212.2188,22.2969 Q211.7344,23.0469 211.7344,24.0781 L211.7344,25.1719 Q211.7344,26.4063 212.625,27.2344 Q213.5156,28.0469 215.1094,28.0469 Q216.0469,28.0469 216.7031,27.7969 Q217.0938,27.6406 217.5156,27.2031 Q217.7813,26.9375 217.9219,26.8594 Q218.0781,26.7813 218.2813,26.7813 Q218.6094,26.7813 218.8594,27.0469 Q219.125,27.2969 219.125,27.6406 Q219.125,27.9844 218.7813,28.3906 Q218.2813,28.9688 217.4844,29.2969 Q216.4063,29.75 215.1094,29.75 Q213.5938,29.75 212.3906,29.125 Q211.4063,28.625 210.7188,27.5625 Q210.0313,26.4844 210.0313,25.2031 L210.0313,24.0469 Q210.0313,22.7188 210.6406,21.5781 Q211.2656,20.4219 212.3594,19.8125 Q213.4531,19.1875 214.6875,19.1875 Q215.4219,19.1875 216.0625,19.3594 Q216.7188,19.5156 217.2656,19.875 Z "/><text fill="#000000" font-family="sans-serif" font-size="12" lengthAdjust="spacingAndGlyphs" textLength="53" x="228.5" y="28.9102">Exception</text><line style="stroke: #A80036; stroke-width: 1.5;" x1="200.5" x2="283.5" y1="40" y2="40"/><line style="stroke: #A80036; stroke-width: 1.5;" x1="200.5" x2="283.5" y1="48" y2="48"/><!--reverse link Exception to ConfigurationException--><path d="M242,76.388 C242,88.701 242,102.445 242,115.955 " fill="none" id="Exception&lt;-ConfigurationException" style="stroke: #A80036; stroke-width: 1.0;"/><polygon fill="none" points="235,76.13,242,56.13,249,76.13,235,76.13" style="stroke: #A80036; stroke-width: 1.0;"/><!--
@startuml
class ConfigurationException {
    + ConfigurationException()
    + ConfigurationException(message:string)
    + ConfigurationException(configurationPath:string?, message:string)
    + ConfigurationException(message:string, innerException:Exception)
    + ConfigurationException(configurationPath:string?, message:string, innerException:Exception)
    + ConfigurationPath : string? <<get>> <<set>>
    + <<override>> GetObjectData(info:SerializationInfo, context:StreamingContext) : void
}
Exception <|- - ConfigurationException
@enduml

PlantUML version 1.2019.09(Mon Aug 26 17:19:51 BST 2019)
(GPL source distribution)
Java Runtime: OpenJDK Runtime Environment
JVM: OpenJDK 64-Bit Server VM
Java Version: 13.0.2+8
Operating System: Windows 10
OS Version: 10.0
Default Encoding: Cp1252
Language: en
Country: GB
--></g></svg>