<?xml version="1.0" encoding="UTF-8" standalone="no"?><svg xmlns="http://www.w3.org/2000/svg" xmlns:xlink="http://www.w3.org/1999/xlink" contentScriptType="application/ecmascript" contentStyleType="text/css" height="80px" preserveAspectRatio="none" style="width:315px;height:80px;" version="1.1" viewBox="0 0 315 80" width="315px" zoomAndPan="magnify"><defs><filter height="300%" id="f15p8q6kv86q7y" width="300%" x="-1" y="-1"><feGaussianBlur result="blurOut" stdDeviation="2.0"/><feColorMatrix in="blurOut" result="blurOut2" type="matrix" values="0 0 0 0 0 0 0 0 0 0 0 0 0 0 0 0 0 0 .4 0"/><feOffset dx="4.0" dy="4.0" in="blurOut2" result="blurOut3"/><feBlend in="SourceGraphic" in2="blurOut3" mode="normal"/></filter></defs><g><!--class IValueChanged--><rect fill="#FEFECE" filter="url(#f15p8q6kv86q7y)" height="61.8359" id="IValueChanged" style="stroke: #A80036; stroke-width: 1.5;" width="298" x="6" y="8"/><ellipse cx="107.25" cy="24" fill="#B4A7E5" rx="11" ry="11" style="stroke: #A80036; stroke-width: 1.0;"/><path d="M108.2031,20.6406 L108.2031,27.2969 L109.9219,27.2969 Q110.5313,27.2969 110.7969,27.5313 Q111.0625,27.7656 111.0625,28.1563 Q111.0625,28.5313 110.7969,28.7656 Q110.5313,29 109.9219,29 L104.7813,29 Q104.1719,29 103.9063,28.7656 Q103.6406,28.5313 103.6406,28.1406 Q103.6406,27.7656 103.9063,27.5313 Q104.1719,27.2969 104.7813,27.2969 L106.5,27.2969 L106.5,20.6406 L104.7813,20.6406 Q104.1719,20.6406 103.9063,20.4063 Q103.6406,20.1719 103.6406,19.7813 Q103.6406,19.4063 103.9063,19.1719 Q104.1719,18.9375 104.7813,18.9375 L109.9219,18.9375 Q110.5313,18.9375 110.7969,19.1719 Q111.0625,19.4063 111.0625,19.7813 Q111.0625,20.1719 110.7969,20.4063 Q110.5313,20.6406 109.9219,20.6406 L108.2031,20.6406 Z "/><text fill="#000000" font-family="sans-serif" font-size="12" font-style="italic" lengthAdjust="spacingAndGlyphs" textLength="87" x="127.75" y="28.9102">IValueChanged</text><line style="stroke: #A80036; stroke-width: 1.5;" x1="7" x2="303" y1="40" y2="40"/><line style="stroke: #A80036; stroke-width: 1.5;" x1="7" x2="303" y1="48" y2="48"/><text fill="#000000" font-family="sans-serif" font-size="11" lengthAdjust="spacingAndGlyphs" textLength="286" x="12" y="63.4189">OnValueChanged(oldValue:IValue, newValue:IValue) : void</text><!--
@startuml
interface IValueChanged {
    OnValueChanged(oldValue:IValue, newValue:IValue) : void
}
@enduml

PlantUML version 1.2019.09(Mon Aug 26 17:19:51 BST 2019)
(GPL source distribution)
Java Runtime: OpenJDK Runtime Environment
JVM: OpenJDK 64-Bit Server VM
Java Version: 13.0.2+8
Operating System: Windows 10
OS Version: 10.0
Default Encoding: Cp1252
Language: en
Country: GB
--></g></svg>