<?xml version="1.0" encoding="UTF-8" standalone="no"?><svg xmlns="http://www.w3.org/2000/svg" xmlns:xlink="http://www.w3.org/1999/xlink" contentScriptType="application/ecmascript" contentStyleType="text/css" height="305px" preserveAspectRatio="none" style="width:297px;height:305px;" version="1.1" viewBox="0 0 297 305" width="297px" zoomAndPan="magnify"><defs><filter height="300%" id="f16wp2q2wx99vt" width="300%" x="-1" y="-1"><feGaussianBlur result="blurOut" stdDeviation="2.0"/><feColorMatrix in="blurOut" result="blurOut2" type="matrix" values="0 0 0 0 0 0 0 0 0 0 0 0 0 0 0 0 0 0 .4 0"/><feOffset dx="4.0" dy="4.0" in="blurOut2" result="blurOut3"/><feBlend in="SourceGraphic" in2="blurOut3" mode="normal"/></filter></defs><g><!--class Implementation--><rect fill="#FEFECE" filter="url(#f16wp2q2wx99vt)" height="70.0234" id="Implementation" style="stroke: #A80036; stroke-width: 1.5;" width="189" x="94.9828" y="116"/><ellipse cx="142.2328" cy="136.0938" fill="#ADD1B2" rx="11" ry="11" style="stroke: #A80036; stroke-width: 1.0;"/><path d="M144.9984,131.9688 Q145.1547,131.75 145.3422,131.6406 Q145.5297,131.5313 145.7484,131.5313 Q146.1234,131.5313 146.3578,131.7969 Q146.5922,132.0469 146.5922,132.6563 L146.5922,134.1094 Q146.5922,134.7188 146.3578,134.9844 Q146.1234,135.25 145.7484,135.25 Q145.4047,135.25 145.2016,135.0469 Q144.9984,134.8594 144.8891,134.3438 Q144.8422,133.9844 144.6547,133.7969 Q144.3266,133.4219 143.7172,133.2031 Q143.1078,132.9844 142.4828,132.9844 Q141.7172,132.9844 141.0766,133.3125 Q140.4516,133.6406 139.9516,134.3906 Q139.4672,135.1406 139.4672,136.1719 L139.4672,137.2656 Q139.4672,138.5 140.3578,139.3281 Q141.2484,140.1406 142.8422,140.1406 Q143.7797,140.1406 144.4359,139.8906 Q144.8266,139.7344 145.2484,139.2969 Q145.5141,139.0313 145.6547,138.9531 Q145.8109,138.875 146.0141,138.875 Q146.3422,138.875 146.5922,139.1406 Q146.8578,139.3906 146.8578,139.7344 Q146.8578,140.0781 146.5141,140.4844 Q146.0141,141.0625 145.2172,141.3906 Q144.1391,141.8438 142.8422,141.8438 Q141.3266,141.8438 140.1234,141.2188 Q139.1391,140.7188 138.4516,139.6563 Q137.7641,138.5781 137.7641,137.2969 L137.7641,136.1406 Q137.7641,134.8125 138.3734,133.6719 Q138.9984,132.5156 140.0922,131.9063 Q141.1859,131.2813 142.4203,131.2813 Q143.1547,131.2813 143.7953,131.4531 Q144.4516,131.6094 144.9984,131.9688 Z "/><text fill="#000000" font-family="sans-serif" font-size="12" font-style="italic" lengthAdjust="spacingAndGlyphs" textLength="51" x="180.2328" y="133.457">«sealed»</text><text fill="#000000" font-family="sans-serif" font-size="12" lengthAdjust="spacingAndGlyphs" textLength="86" x="162.7328" y="148.5508">Implementation</text><line style="stroke: #A80036; stroke-width: 1.5;" x1="95.9828" x2="282.9828" y1="156.1875" y2="156.1875"/><ellipse cx="105.9828" cy="167.1875" fill="none" rx="3" ry="3" style="stroke: #038048; stroke-width: 1.0;"/><text fill="#000000" font-family="sans-serif" font-size="11" lengthAdjust="spacingAndGlyphs" textLength="163" x="114.9828" y="171.6064">ImplementationType : Type? «get»</text><line style="stroke: #A80036; stroke-width: 1.5;" x1="95.9828" x2="282.9828" y1="178.0234" y2="178.0234"/><!--class IImplementation--><rect fill="#FEFECE" filter="url(#f16wp2q2wx99vt)" height="48" id="IImplementation" style="stroke: #A80036; stroke-width: 1.5;" width="121" x="128.983" y="8"/><ellipse cx="143.983" cy="24" fill="#ADD1B2" rx="11" ry="11" style="stroke: #A80036; stroke-width: 1.0;"/><path d="M146.7486,19.875 Q146.9049,19.6563 147.0924,19.5469 Q147.2799,19.4375 147.4986,19.4375 Q147.8736,19.4375 148.108,19.7031 Q148.3424,19.9531 148.3424,20.5625 L148.3424,22.0156 Q148.3424,22.625 148.108,22.8906 Q147.8736,23.1563 147.4986,23.1563 Q147.1549,23.1563 146.9518,22.9531 Q146.7486,22.7656 146.6393,22.25 Q146.5924,21.8906 146.4049,21.7031 Q146.0768,21.3281 145.4674,21.1094 Q144.858,20.8906 144.233,20.8906 Q143.4674,20.8906 142.8268,21.2188 Q142.2018,21.5469 141.7018,22.2969 Q141.2174,23.0469 141.2174,24.0781 L141.2174,25.1719 Q141.2174,26.4063 142.108,27.2344 Q142.9986,28.0469 144.5924,28.0469 Q145.5299,28.0469 146.1861,27.7969 Q146.5768,27.6406 146.9986,27.2031 Q147.2643,26.9375 147.4049,26.8594 Q147.5611,26.7813 147.7643,26.7813 Q148.0924,26.7813 148.3424,27.0469 Q148.608,27.2969 148.608,27.6406 Q148.608,27.9844 148.2643,28.3906 Q147.7643,28.9688 146.9674,29.2969 Q145.8893,29.75 144.5924,29.75 Q143.0768,29.75 141.8736,29.125 Q140.8893,28.625 140.2018,27.5625 Q139.5143,26.4844 139.5143,25.2031 L139.5143,24.0469 Q139.5143,22.7188 140.1236,21.5781 Q140.7486,20.4219 141.8424,19.8125 Q142.9361,19.1875 144.1705,19.1875 Q144.9049,19.1875 145.5455,19.3594 Q146.2018,19.5156 146.7486,19.875 Z "/><text fill="#000000" font-family="sans-serif" font-size="12" lengthAdjust="spacingAndGlyphs" textLength="89" x="157.983" y="28.9102">IImplementation</text><line style="stroke: #A80036; stroke-width: 1.5;" x1="129.983" x2="248.983" y1="40" y2="40"/><line style="stroke: #A80036; stroke-width: 1.5;" x1="129.983" x2="248.983" y1="48" y2="48"/><!--class ImplementationKind--><rect fill="#FEFECE" filter="url(#f16wp2q2wx99vt)" height="48" id="ImplementationKind" style="stroke: #A80036; stroke-width: 1.5;" width="143" x="49.9828" y="246"/><ellipse cx="64.9828" cy="262" fill="#ADD1B2" rx="11" ry="11" style="stroke: #A80036; stroke-width: 1.0;"/><path d="M67.7484,257.875 Q67.9047,257.6563 68.0922,257.5469 Q68.2797,257.4375 68.4984,257.4375 Q68.8734,257.4375 69.1078,257.7031 Q69.3422,257.9531 69.3422,258.5625 L69.3422,260.0156 Q69.3422,260.625 69.1078,260.8906 Q68.8734,261.1563 68.4984,261.1563 Q68.1547,261.1563 67.9516,260.9531 Q67.7484,260.7656 67.6391,260.25 Q67.5922,259.8906 67.4047,259.7031 Q67.0766,259.3281 66.4672,259.1094 Q65.8578,258.8906 65.2328,258.8906 Q64.4672,258.8906 63.8266,259.2188 Q63.2016,259.5469 62.7016,260.2969 Q62.2172,261.0469 62.2172,262.0781 L62.2172,263.1719 Q62.2172,264.4063 63.1078,265.2344 Q63.9984,266.0469 65.5922,266.0469 Q66.5297,266.0469 67.1859,265.7969 Q67.5766,265.6406 67.9984,265.2031 Q68.2641,264.9375 68.4047,264.8594 Q68.5609,264.7813 68.7641,264.7813 Q69.0922,264.7813 69.3422,265.0469 Q69.6078,265.2969 69.6078,265.6406 Q69.6078,265.9844 69.2641,266.3906 Q68.7641,266.9688 67.9672,267.2969 Q66.8891,267.75 65.5922,267.75 Q64.0766,267.75 62.8734,267.125 Q61.8891,266.625 61.2016,265.5625 Q60.5141,264.4844 60.5141,263.2031 L60.5141,262.0469 Q60.5141,260.7188 61.1234,259.5781 Q61.7484,258.4219 62.8422,257.8125 Q63.9359,257.1875 65.1703,257.1875 Q65.9047,257.1875 66.5453,257.3594 Q67.2016,257.5156 67.7484,257.875 Z "/><text fill="#000000" font-family="sans-serif" font-size="12" lengthAdjust="spacingAndGlyphs" textLength="111" x="78.9828" y="266.9102">ImplementationKind</text><line style="stroke: #A80036; stroke-width: 1.5;" x1="50.9828" x2="191.9828" y1="278" y2="278"/><line style="stroke: #A80036; stroke-width: 1.5;" x1="50.9828" x2="191.9828" y1="286" y2="286"/><!--class Type--><rect fill="#FEFECE" filter="url(#f16wp2q2wx99vt)" height="48" id="Type" style="stroke: #A80036; stroke-width: 1.5;" width="58" x="228.483" y="246"/><ellipse cx="243.483" cy="262" fill="#ADD1B2" rx="11" ry="11" style="stroke: #A80036; stroke-width: 1.0;"/><path d="M246.2486,257.875 Q246.4049,257.6563 246.5924,257.5469 Q246.7799,257.4375 246.9986,257.4375 Q247.3736,257.4375 247.608,257.7031 Q247.8424,257.9531 247.8424,258.5625 L247.8424,260.0156 Q247.8424,260.625 247.608,260.8906 Q247.3736,261.1563 246.9986,261.1563 Q246.6549,261.1563 246.4518,260.9531 Q246.2486,260.7656 246.1393,260.25 Q246.0924,259.8906 245.9049,259.7031 Q245.5768,259.3281 244.9674,259.1094 Q244.358,258.8906 243.733,258.8906 Q242.9674,258.8906 242.3268,259.2188 Q241.7018,259.5469 241.2018,260.2969 Q240.7174,261.0469 240.7174,262.0781 L240.7174,263.1719 Q240.7174,264.4063 241.608,265.2344 Q242.4986,266.0469 244.0924,266.0469 Q245.0299,266.0469 245.6861,265.7969 Q246.0768,265.6406 246.4986,265.2031 Q246.7643,264.9375 246.9049,264.8594 Q247.0611,264.7813 247.2643,264.7813 Q247.5924,264.7813 247.8424,265.0469 Q248.108,265.2969 248.108,265.6406 Q248.108,265.9844 247.7643,266.3906 Q247.2643,266.9688 246.4674,267.2969 Q245.3893,267.75 244.0924,267.75 Q242.5768,267.75 241.3736,267.125 Q240.3893,266.625 239.7018,265.5625 Q239.0143,264.4844 239.0143,263.2031 L239.0143,262.0469 Q239.0143,260.7188 239.6236,259.5781 Q240.2486,258.4219 241.3424,257.8125 Q242.4361,257.1875 243.6705,257.1875 Q244.4049,257.1875 245.0455,257.3594 Q245.7018,257.5156 246.2486,257.875 Z "/><text fill="#000000" font-family="sans-serif" font-size="12" lengthAdjust="spacingAndGlyphs" textLength="26" x="257.483" y="266.9102">Type</text><line style="stroke: #A80036; stroke-width: 1.5;" x1="229.483" x2="285.483" y1="278" y2="278"/><line style="stroke: #A80036; stroke-width: 1.5;" x1="229.483" x2="285.483" y1="286" y2="286"/><!--reverse link IImplementation to Implementation--><path d="M189.483,76.489 C189.483,89.484 189.483,103.538 189.483,115.844 " fill="none" id="IImplementation&lt;-Implementation" style="stroke: #A80036; stroke-width: 1.0;"/><polygon fill="none" points="182.483,76.115,189.483,56.115,196.483,76.115,182.483,76.115" style="stroke: #A80036; stroke-width: 1.0;"/><!--link Implementation to ImplementationKind--><path d="M169.632,186.156 C159.455,203.6652 147.22,224.7161 137.631,241.2161 " fill="none" id="Implementation-&gt;ImplementationKind" style="stroke: #A80036; stroke-width: 1.0;"/><polygon fill="#A80036" points="135,245.7425,142.9799,239.9701,137.5118,241.4192,136.0627,235.9511,135,245.7425" style="stroke: #A80036; stroke-width: 1.0;"/><text fill="#000000" font-family="sans-serif" font-size="13" lengthAdjust="spacingAndGlyphs" textLength="114" x="9.8575" y="235.0167">ImplementationKind</text><!--link Implementation to Type--><path d="M209.334,186.156 C219.51,203.6652 231.745,224.7161 241.335,241.2161 " fill="none" id="Implementation-&gt;Type" style="stroke: #A80036; stroke-width: 1.0;"/><polygon fill="#A80036" points="243.966,245.7425,242.9019,235.9513,241.4535,241.4196,235.9852,239.9712,243.966,245.7425" style="stroke: #A80036; stroke-width: 1.0;"/><text fill="#000000" font-family="sans-serif" font-size="13" lengthAdjust="spacingAndGlyphs" textLength="28" x="208.9148" y="235.0167">Type</text><!--
@startuml
class Implementation <<sealed>> {
    + ImplementationType : Type? <<get>>
}
IImplementation <|- - Implementation
Implementation - -> "ImplementationKind" ImplementationKind
Implementation - -> "Type" Type
@enduml

PlantUML version 1.2019.09(Mon Aug 26 17:19:51 BST 2019)
(GPL source distribution)
Java Runtime: OpenJDK Runtime Environment
JVM: OpenJDK 64-Bit Server VM
Java Version: 13.0.2+8
Operating System: Windows 10
OS Version: 10.0
Default Encoding: Cp1252
Language: en
Country: GB
--></g></svg>