<?xml version="1.0" encoding="UTF-8" standalone="no"?><svg xmlns="http://www.w3.org/2000/svg" xmlns:xlink="http://www.w3.org/1999/xlink" contentScriptType="application/ecmascript" contentStyleType="text/css" height="421px" preserveAspectRatio="none" style="width:860px;height:421px;" version="1.1" viewBox="0 0 860 421" width="860px" zoomAndPan="magnify"><defs><filter height="300%" id="f1vn1wlusuon3e" width="300%" x="-1" y="-1"><feGaussianBlur result="blurOut" stdDeviation="2.0"/><feColorMatrix in="blurOut" result="blurOut2" type="matrix" values="0 0 0 0 0 0 0 0 0 0 0 0 0 0 0 0 0 0 .4 0"/><feOffset dx="4.0" dy="4.0" in="blurOut2" result="blurOut3"/><feBlend in="SourceGraphic" in2="blurOut3" mode="normal"/></filter></defs><g><!--class ConfigurationObjectBase`1--><rect fill="#FEFECE" filter="url(#f1vn1wlusuon3e)" height="61.8359" id="ConfigurationObjectBase`1" style="stroke: #A80036; stroke-width: 1.5;" width="240" x="441" y="349"/><ellipse cx="456" cy="365" fill="#A9DCDF" rx="11" ry="11" style="stroke: #A80036; stroke-width: 1.0;"/><path d="M458.1875,366.7656 L454.0469,366.7656 L453.625,367.7969 L454.0469,367.7969 Q454.6563,367.7969 454.9219,368.0313 Q455.1875,368.2656 455.1875,368.6563 Q455.1875,369.0313 454.9219,369.2656 Q454.6563,369.5 454.0469,369.5 L451.75,369.5 Q451.1406,369.5 450.8906,369.2656 Q450.625,369.0313 450.625,368.6406 Q450.625,368.2656 450.9063,368.0313 Q451.1719,367.7813 451.7969,367.7969 L454.4688,361.1406 L453.3594,361.1406 Q452.75,361.1406 452.4844,360.9063 Q452.2188,360.6719 452.2188,360.2813 Q452.2188,359.9063 452.4844,359.6719 Q452.75,359.4375 453.3594,359.4375 L457.0313,359.4375 L460.4219,367.7969 Q461.0156,367.7969 461.2031,367.9375 Q461.5938,368.2031 461.5938,368.6563 Q461.5938,369.0313 461.3281,369.2656 Q461.0781,369.5 460.4688,369.5 L458.1719,369.5 Q457.5625,369.5 457.2969,369.2656 Q457.0313,369.0313 457.0313,368.6406 Q457.0313,368.2656 457.2969,368.0313 Q457.5625,367.7969 458.1719,367.7969 L458.5938,367.7969 L458.1875,366.7656 Z M457.4688,365.0625 L456.1094,361.6875 L454.7344,365.0625 L457.4688,365.0625 Z "/><text fill="#000000" font-family="sans-serif" font-size="12" font-style="italic" lengthAdjust="spacingAndGlyphs" textLength="149" x="470" y="369.9102">ConfigurationObjectBase`1</text><rect fill="#FFFFFF" height="17.0938" style="stroke: #000000; stroke-width: 1.0; stroke-dasharray: 2.0,2.0;" width="57" x="627" y="346"/><text fill="#000000" font-family="sans-serif" font-size="12" font-style="italic" lengthAdjust="spacingAndGlyphs" textLength="55" x="628" y="359.457">TInterface</text><line style="stroke: #A80036; stroke-width: 1.5;" x1="442" x2="680" y1="381" y2="381"/><line style="stroke: #A80036; stroke-width: 1.5;" x1="442" x2="680" y1="389" y2="389"/><ellipse cx="452" cy="400" fill="#84BE84" rx="3" ry="3" style="stroke: #038048; stroke-width: 1.0;"/><text fill="#000000" font-family="sans-serif" font-size="11" lengthAdjust="spacingAndGlyphs" textLength="146" x="461" y="404.4189">Equals(other:TInterface) : bool</text><!--class ConfigurationObjectBase--><rect fill="#FEFECE" filter="url(#f1vn1wlusuon3e)" height="172.5234" id="ConfigurationObjectBase" style="stroke: #A80036; stroke-width: 1.5;" width="312" x="281" y="116"/><ellipse cx="363.75" cy="132" fill="#A9DCDF" rx="11" ry="11" style="stroke: #A80036; stroke-width: 1.0;"/><path d="M365.9375,133.7656 L361.7969,133.7656 L361.375,134.7969 L361.7969,134.7969 Q362.4063,134.7969 362.6719,135.0313 Q362.9375,135.2656 362.9375,135.6563 Q362.9375,136.0313 362.6719,136.2656 Q362.4063,136.5 361.7969,136.5 L359.5,136.5 Q358.8906,136.5 358.6406,136.2656 Q358.375,136.0313 358.375,135.6406 Q358.375,135.2656 358.6563,135.0313 Q358.9219,134.7813 359.5469,134.7969 L362.2188,128.1406 L361.1094,128.1406 Q360.5,128.1406 360.2344,127.9063 Q359.9688,127.6719 359.9688,127.2813 Q359.9688,126.9063 360.2344,126.6719 Q360.5,126.4375 361.1094,126.4375 L364.7813,126.4375 L368.1719,134.7969 Q368.7656,134.7969 368.9531,134.9375 Q369.3438,135.2031 369.3438,135.6563 Q369.3438,136.0313 369.0781,136.2656 Q368.8281,136.5 368.2188,136.5 L365.9219,136.5 Q365.3125,136.5 365.0469,136.2656 Q364.7813,136.0313 364.7813,135.6406 Q364.7813,135.2656 365.0469,135.0313 Q365.3125,134.7969 365.9219,134.7969 L366.3438,134.7969 L365.9375,133.7656 Z M365.2188,132.0625 L363.8594,128.6875 L362.4844,132.0625 L365.2188,132.0625 Z "/><text fill="#000000" font-family="sans-serif" font-size="12" font-style="italic" lengthAdjust="spacingAndGlyphs" textLength="138" x="384.25" y="136.9102">ConfigurationObjectBase</text><line style="stroke: #A80036; stroke-width: 1.5;" x1="282" x2="592" y1="148" y2="148"/><ellipse cx="292" cy="159" fill="none" rx="3" ry="3" style="stroke: #038048; stroke-width: 1.0;"/><text fill="#000000" font-family="sans-serif" font-size="11" lengthAdjust="spacingAndGlyphs" textLength="89" x="301" y="163.4189">IsDirty : bool «get»</text><ellipse cx="292" cy="172.8359" fill="none" rx="3" ry="3" style="stroke: #038048; stroke-width: 1.0;"/><text fill="#000000" font-family="sans-serif" font-size="11" lengthAdjust="spacingAndGlyphs" textLength="114" x="301" y="177.2549">IsReadOnly : bool «get»</text><ellipse cx="292" cy="186.6719" fill="none" rx="3" ry="3" style="stroke: #038048; stroke-width: 1.0;"/><text fill="#000000" font-family="sans-serif" font-size="11" lengthAdjust="spacingAndGlyphs" textLength="163" x="301" y="191.0908">PropertyDef : IPropertyDef? «get»</text><line style="stroke: #A80036; stroke-width: 1.5;" x1="282" x2="592" y1="197.5078" y2="197.5078"/><ellipse cx="292" cy="208.5078" fill="#84BE84" rx="3" ry="3" style="stroke: #038048; stroke-width: 1.0;"/><text fill="#000000" font-family="sans-serif" font-size="11" lengthAdjust="spacingAndGlyphs" textLength="109" x="301" y="212.9268">CalculatePath() : string</text><ellipse cx="292" cy="222.3438" fill="#84BE84" rx="3" ry="3" style="stroke: #038048; stroke-width: 1.0;"/><text fill="#000000" font-family="sans-serif" font-size="11" lengthAdjust="spacingAndGlyphs" textLength="67" x="301" y="226.7627">Delete() : void</text><ellipse cx="292" cy="236.1797" fill="#84BE84" rx="3" ry="3" style="stroke: #038048; stroke-width: 1.0;"/><text fill="#000000" font-family="sans-serif" font-size="11" lengthAdjust="spacingAndGlyphs" textLength="61" x="301" y="240.5986">Load() : void</text><ellipse cx="292" cy="250.0156" fill="#84BE84" rx="3" ry="3" style="stroke: #038048; stroke-width: 1.0;"/><text fill="#000000" font-family="sans-serif" font-size="11" lengthAdjust="spacingAndGlyphs" textLength="286" x="301" y="254.4346">OnValueChanged(oldValue:IValue, newValue:IValue) : void</text><ellipse cx="292" cy="263.8516" fill="#84BE84" rx="3" ry="3" style="stroke: #038048; stroke-width: 1.0;"/><text fill="#000000" font-family="sans-serif" font-size="11" lengthAdjust="spacingAndGlyphs" textLength="62" x="301" y="268.2705">Save() : void</text><ellipse cx="292" cy="277.6875" fill="#84BE84" rx="3" ry="3" style="stroke: #038048; stroke-width: 1.0;"/><text fill="#000000" font-family="sans-serif" font-size="11" lengthAdjust="spacingAndGlyphs" textLength="221" x="301" y="282.1064">SetParent(parent:IConfigurationParent?) : void</text><!--class IEquatable`1--><rect fill="#FEFECE" filter="url(#f1vn1wlusuon3e)" height="48" id="IEquatable`1" style="stroke: #A80036; stroke-width: 1.5;" width="113" x="628.5" y="178.5"/><ellipse cx="643.5" cy="194.5" fill="#ADD1B2" rx="11" ry="11" style="stroke: #A80036; stroke-width: 1.0;"/><path d="M646.2656,190.375 Q646.4219,190.1563 646.6094,190.0469 Q646.7969,189.9375 647.0156,189.9375 Q647.3906,189.9375 647.625,190.2031 Q647.8594,190.4531 647.8594,191.0625 L647.8594,192.5156 Q647.8594,193.125 647.625,193.3906 Q647.3906,193.6563 647.0156,193.6563 Q646.6719,193.6563 646.4688,193.4531 Q646.2656,193.2656 646.1563,192.75 Q646.1094,192.3906 645.9219,192.2031 Q645.5938,191.8281 644.9844,191.6094 Q644.375,191.3906 643.75,191.3906 Q642.9844,191.3906 642.3438,191.7188 Q641.7188,192.0469 641.2188,192.7969 Q640.7344,193.5469 640.7344,194.5781 L640.7344,195.6719 Q640.7344,196.9063 641.625,197.7344 Q642.5156,198.5469 644.1094,198.5469 Q645.0469,198.5469 645.7031,198.2969 Q646.0938,198.1406 646.5156,197.7031 Q646.7813,197.4375 646.9219,197.3594 Q647.0781,197.2813 647.2813,197.2813 Q647.6094,197.2813 647.8594,197.5469 Q648.125,197.7969 648.125,198.1406 Q648.125,198.4844 647.7813,198.8906 Q647.2813,199.4688 646.4844,199.7969 Q645.4063,200.25 644.1094,200.25 Q642.5938,200.25 641.3906,199.625 Q640.4063,199.125 639.7188,198.0625 Q639.0313,196.9844 639.0313,195.7031 L639.0313,194.5469 Q639.0313,193.2188 639.6406,192.0781 Q640.2656,190.9219 641.3594,190.3125 Q642.4531,189.6875 643.6875,189.6875 Q644.4219,189.6875 645.0625,189.8594 Q645.7188,190.0156 646.2656,190.375 Z "/><text fill="#000000" font-family="sans-serif" font-size="12" lengthAdjust="spacingAndGlyphs" textLength="70" x="657.5" y="199.4102">IEquatable`1</text><rect fill="#FFFFFF" height="17.0938" style="stroke: #000000; stroke-width: 1.0; stroke-dasharray: 2.0,2.0;" width="9" x="735.5" y="175.5"/><text fill="#000000" font-family="sans-serif" font-size="12" font-style="italic" lengthAdjust="spacingAndGlyphs" textLength="7" x="736.5" y="188.957">T</text><line style="stroke: #A80036; stroke-width: 1.5;" x1="629.5" x2="740.5" y1="210.5" y2="210.5"/><line style="stroke: #A80036; stroke-width: 1.5;" x1="629.5" x2="740.5" y1="218.5" y2="218.5"/><!--class NotifyPropertyChanged--><rect fill="#FEFECE" filter="url(#f1vn1wlusuon3e)" height="48" id="NotifyPropertyChanged" style="stroke: #A80036; stroke-width: 1.5;" width="158" x="6" y="8"/><ellipse cx="21" cy="24" fill="#ADD1B2" rx="11" ry="11" style="stroke: #A80036; stroke-width: 1.0;"/><path d="M23.7656,19.875 Q23.9219,19.6563 24.1094,19.5469 Q24.2969,19.4375 24.5156,19.4375 Q24.8906,19.4375 25.125,19.7031 Q25.3594,19.9531 25.3594,20.5625 L25.3594,22.0156 Q25.3594,22.625 25.125,22.8906 Q24.8906,23.1563 24.5156,23.1563 Q24.1719,23.1563 23.9688,22.9531 Q23.7656,22.7656 23.6563,22.25 Q23.6094,21.8906 23.4219,21.7031 Q23.0938,21.3281 22.4844,21.1094 Q21.875,20.8906 21.25,20.8906 Q20.4844,20.8906 19.8438,21.2188 Q19.2188,21.5469 18.7188,22.2969 Q18.2344,23.0469 18.2344,24.0781 L18.2344,25.1719 Q18.2344,26.4063 19.125,27.2344 Q20.0156,28.0469 21.6094,28.0469 Q22.5469,28.0469 23.2031,27.7969 Q23.5938,27.6406 24.0156,27.2031 Q24.2813,26.9375 24.4219,26.8594 Q24.5781,26.7813 24.7813,26.7813 Q25.1094,26.7813 25.3594,27.0469 Q25.625,27.2969 25.625,27.6406 Q25.625,27.9844 25.2813,28.3906 Q24.7813,28.9688 23.9844,29.2969 Q22.9063,29.75 21.6094,29.75 Q20.0938,29.75 18.8906,29.125 Q17.9063,28.625 17.2188,27.5625 Q16.5313,26.4844 16.5313,25.2031 L16.5313,24.0469 Q16.5313,22.7188 17.1406,21.5781 Q17.7656,20.4219 18.8594,19.8125 Q19.9531,19.1875 21.1875,19.1875 Q21.9219,19.1875 22.5625,19.3594 Q23.2188,19.5156 23.7656,19.875 Z "/><text fill="#000000" font-family="sans-serif" font-size="12" lengthAdjust="spacingAndGlyphs" textLength="126" x="35" y="28.9102">NotifyPropertyChanged</text><line style="stroke: #A80036; stroke-width: 1.5;" x1="7" x2="163" y1="40" y2="40"/><line style="stroke: #A80036; stroke-width: 1.5;" x1="7" x2="163" y1="48" y2="48"/><!--class IConfigurationObject--><rect fill="#FEFECE" filter="url(#f1vn1wlusuon3e)" height="48" id="IConfigurationObject" style="stroke: #A80036; stroke-width: 1.5;" width="144" x="199" y="8"/><ellipse cx="214" cy="24" fill="#ADD1B2" rx="11" ry="11" style="stroke: #A80036; stroke-width: 1.0;"/><path d="M216.7656,19.875 Q216.9219,19.6563 217.1094,19.5469 Q217.2969,19.4375 217.5156,19.4375 Q217.8906,19.4375 218.125,19.7031 Q218.3594,19.9531 218.3594,20.5625 L218.3594,22.0156 Q218.3594,22.625 218.125,22.8906 Q217.8906,23.1563 217.5156,23.1563 Q217.1719,23.1563 216.9688,22.9531 Q216.7656,22.7656 216.6563,22.25 Q216.6094,21.8906 216.4219,21.7031 Q216.0938,21.3281 215.4844,21.1094 Q214.875,20.8906 214.25,20.8906 Q213.4844,20.8906 212.8438,21.2188 Q212.2188,21.5469 211.7188,22.2969 Q211.2344,23.0469 211.2344,24.0781 L211.2344,25.1719 Q211.2344,26.4063 212.125,27.2344 Q213.0156,28.0469 214.6094,28.0469 Q215.5469,28.0469 216.2031,27.7969 Q216.5938,27.6406 217.0156,27.2031 Q217.2813,26.9375 217.4219,26.8594 Q217.5781,26.7813 217.7813,26.7813 Q218.1094,26.7813 218.3594,27.0469 Q218.625,27.2969 218.625,27.6406 Q218.625,27.9844 218.2813,28.3906 Q217.7813,28.9688 216.9844,29.2969 Q215.9063,29.75 214.6094,29.75 Q213.0938,29.75 211.8906,29.125 Q210.9063,28.625 210.2188,27.5625 Q209.5313,26.4844 209.5313,25.2031 L209.5313,24.0469 Q209.5313,22.7188 210.1406,21.5781 Q210.7656,20.4219 211.8594,19.8125 Q212.9531,19.1875 214.1875,19.1875 Q214.9219,19.1875 215.5625,19.3594 Q216.2188,19.5156 216.7656,19.875 Z "/><text fill="#000000" font-family="sans-serif" font-size="12" lengthAdjust="spacingAndGlyphs" textLength="112" x="228" y="28.9102">IConfigurationObject</text><line style="stroke: #A80036; stroke-width: 1.5;" x1="200" x2="342" y1="40" y2="40"/><line style="stroke: #A80036; stroke-width: 1.5;" x1="200" x2="342" y1="48" y2="48"/><!--class IValueChanged--><rect fill="#FEFECE" filter="url(#f1vn1wlusuon3e)" height="48" id="IValueChanged" style="stroke: #A80036; stroke-width: 1.5;" width="117" x="378.5" y="8"/><ellipse cx="393.5" cy="24" fill="#ADD1B2" rx="11" ry="11" style="stroke: #A80036; stroke-width: 1.0;"/><path d="M396.2656,19.875 Q396.4219,19.6563 396.6094,19.5469 Q396.7969,19.4375 397.0156,19.4375 Q397.3906,19.4375 397.625,19.7031 Q397.8594,19.9531 397.8594,20.5625 L397.8594,22.0156 Q397.8594,22.625 397.625,22.8906 Q397.3906,23.1563 397.0156,23.1563 Q396.6719,23.1563 396.4688,22.9531 Q396.2656,22.7656 396.1563,22.25 Q396.1094,21.8906 395.9219,21.7031 Q395.5938,21.3281 394.9844,21.1094 Q394.375,20.8906 393.75,20.8906 Q392.9844,20.8906 392.3438,21.2188 Q391.7188,21.5469 391.2188,22.2969 Q390.7344,23.0469 390.7344,24.0781 L390.7344,25.1719 Q390.7344,26.4063 391.625,27.2344 Q392.5156,28.0469 394.1094,28.0469 Q395.0469,28.0469 395.7031,27.7969 Q396.0938,27.6406 396.5156,27.2031 Q396.7813,26.9375 396.9219,26.8594 Q397.0781,26.7813 397.2813,26.7813 Q397.6094,26.7813 397.8594,27.0469 Q398.125,27.2969 398.125,27.6406 Q398.125,27.9844 397.7813,28.3906 Q397.2813,28.9688 396.4844,29.2969 Q395.4063,29.75 394.1094,29.75 Q392.5938,29.75 391.3906,29.125 Q390.4063,28.625 389.7188,27.5625 Q389.0313,26.4844 389.0313,25.2031 L389.0313,24.0469 Q389.0313,22.7188 389.6406,21.5781 Q390.2656,20.4219 391.3594,19.8125 Q392.4531,19.1875 393.6875,19.1875 Q394.4219,19.1875 395.0625,19.3594 Q395.7188,19.5156 396.2656,19.875 Z "/><text fill="#000000" font-family="sans-serif" font-size="12" lengthAdjust="spacingAndGlyphs" textLength="85" x="407.5" y="28.9102">IValueChanged</text><line style="stroke: #A80036; stroke-width: 1.5;" x1="379.5" x2="494.5" y1="40" y2="40"/><line style="stroke: #A80036; stroke-width: 1.5;" x1="379.5" x2="494.5" y1="48" y2="48"/><!--class IConfigurationChild--><rect fill="#FEFECE" filter="url(#f1vn1wlusuon3e)" height="48" id="IConfigurationChild" style="stroke: #A80036; stroke-width: 1.5;" width="138" x="531" y="8"/><ellipse cx="546" cy="24" fill="#ADD1B2" rx="11" ry="11" style="stroke: #A80036; stroke-width: 1.0;"/><path d="M548.7656,19.875 Q548.9219,19.6563 549.1094,19.5469 Q549.2969,19.4375 549.5156,19.4375 Q549.8906,19.4375 550.125,19.7031 Q550.3594,19.9531 550.3594,20.5625 L550.3594,22.0156 Q550.3594,22.625 550.125,22.8906 Q549.8906,23.1563 549.5156,23.1563 Q549.1719,23.1563 548.9688,22.9531 Q548.7656,22.7656 548.6563,22.25 Q548.6094,21.8906 548.4219,21.7031 Q548.0938,21.3281 547.4844,21.1094 Q546.875,20.8906 546.25,20.8906 Q545.4844,20.8906 544.8438,21.2188 Q544.2188,21.5469 543.7188,22.2969 Q543.2344,23.0469 543.2344,24.0781 L543.2344,25.1719 Q543.2344,26.4063 544.125,27.2344 Q545.0156,28.0469 546.6094,28.0469 Q547.5469,28.0469 548.2031,27.7969 Q548.5938,27.6406 549.0156,27.2031 Q549.2813,26.9375 549.4219,26.8594 Q549.5781,26.7813 549.7813,26.7813 Q550.1094,26.7813 550.3594,27.0469 Q550.625,27.2969 550.625,27.6406 Q550.625,27.9844 550.2813,28.3906 Q549.7813,28.9688 548.9844,29.2969 Q547.9063,29.75 546.6094,29.75 Q545.0938,29.75 543.8906,29.125 Q542.9063,28.625 542.2188,27.5625 Q541.5313,26.4844 541.5313,25.2031 L541.5313,24.0469 Q541.5313,22.7188 542.1406,21.5781 Q542.7656,20.4219 543.8594,19.8125 Q544.9531,19.1875 546.1875,19.1875 Q546.9219,19.1875 547.5625,19.3594 Q548.2188,19.5156 548.7656,19.875 Z "/><text fill="#000000" font-family="sans-serif" font-size="12" lengthAdjust="spacingAndGlyphs" textLength="106" x="560" y="28.9102">IConfigurationChild</text><line style="stroke: #A80036; stroke-width: 1.5;" x1="532" x2="668" y1="40" y2="40"/><line style="stroke: #A80036; stroke-width: 1.5;" x1="532" x2="668" y1="48" y2="48"/><!--class IConfigurationParent--><rect fill="#FEFECE" filter="url(#f1vn1wlusuon3e)" height="48" id="IConfigurationParent" style="stroke: #A80036; stroke-width: 1.5;" width="145" x="704.5" y="8"/><ellipse cx="719.5" cy="24" fill="#ADD1B2" rx="11" ry="11" style="stroke: #A80036; stroke-width: 1.0;"/><path d="M722.2656,19.875 Q722.4219,19.6563 722.6094,19.5469 Q722.7969,19.4375 723.0156,19.4375 Q723.3906,19.4375 723.625,19.7031 Q723.8594,19.9531 723.8594,20.5625 L723.8594,22.0156 Q723.8594,22.625 723.625,22.8906 Q723.3906,23.1563 723.0156,23.1563 Q722.6719,23.1563 722.4688,22.9531 Q722.2656,22.7656 722.1563,22.25 Q722.1094,21.8906 721.9219,21.7031 Q721.5938,21.3281 720.9844,21.1094 Q720.375,20.8906 719.75,20.8906 Q718.9844,20.8906 718.3438,21.2188 Q717.7188,21.5469 717.2188,22.2969 Q716.7344,23.0469 716.7344,24.0781 L716.7344,25.1719 Q716.7344,26.4063 717.625,27.2344 Q718.5156,28.0469 720.1094,28.0469 Q721.0469,28.0469 721.7031,27.7969 Q722.0938,27.6406 722.5156,27.2031 Q722.7813,26.9375 722.9219,26.8594 Q723.0781,26.7813 723.2813,26.7813 Q723.6094,26.7813 723.8594,27.0469 Q724.125,27.2969 724.125,27.6406 Q724.125,27.9844 723.7813,28.3906 Q723.2813,28.9688 722.4844,29.2969 Q721.4063,29.75 720.1094,29.75 Q718.5938,29.75 717.3906,29.125 Q716.4063,28.625 715.7188,27.5625 Q715.0313,26.4844 715.0313,25.2031 L715.0313,24.0469 Q715.0313,22.7188 715.6406,21.5781 Q716.2656,20.4219 717.3594,19.8125 Q718.4531,19.1875 719.6875,19.1875 Q720.4219,19.1875 721.0625,19.3594 Q721.7188,19.5156 722.2656,19.875 Z "/><text fill="#000000" font-family="sans-serif" font-size="12" lengthAdjust="spacingAndGlyphs" textLength="113" x="733.5" y="28.9102">IConfigurationParent</text><line style="stroke: #A80036; stroke-width: 1.5;" x1="705.5" x2="848.5" y1="40" y2="40"/><line style="stroke: #A80036; stroke-width: 1.5;" x1="705.5" x2="848.5" y1="48" y2="48"/><!--reverse link ConfigurationObjectBase to ConfigurationObjectBase`1--><path d="M509.205,305.694 C520.296,321.3912 530.939,336.4544 539.662,348.7993 " fill="none" id="ConfigurationObjectBase&lt;-ConfigurationObjectBase`1" style="stroke: #A80036; stroke-width: 1.0;"/><polygon fill="none" points="503.371,309.567,497.547,289.194,514.805,301.488,503.371,309.567" style="stroke: #A80036; stroke-width: 1.0;"/><!--reverse link IEquatable`1 to ConfigurationObjectBase`1--><path d="M656.979,243.159 C634.338,275.203 602.95,319.6279 582.319,348.8266 " fill="none" id="IEquatable`1&lt;-ConfigurationObjectBase`1" style="stroke: #A80036; stroke-width: 1.0;"/><polygon fill="none" points="651.276,239.1,668.534,226.805,662.71,247.179,651.276,239.1" style="stroke: #A80036; stroke-width: 1.0;"/><text fill="#000000" font-family="sans-serif" font-size="13" lengthAdjust="spacingAndGlyphs" textLength="72" x="591.2409" y="247.9243">&lt;TInterface&gt;</text><!--reverse link NotifyPropertyChanged to ConfigurationObjectBase--><path d="M151.363,64.767 C188.049,82.329 235.298,104.947 280.765,126.711 " fill="none" id="NotifyPropertyChanged&lt;-ConfigurationObjectBase" style="stroke: #A80036; stroke-width: 1.0;"/><polygon fill="none" points="148.223,71.025,133.206,56.076,154.268,58.398,148.223,71.025" style="stroke: #A80036; stroke-width: 1.0;"/><!--reverse link IConfigurationObject to ConfigurationObjectBase--><path d="M308.162,70.722 C321.462,84.222 337.05,100.045 352.7,115.93 " fill="none" id="IConfigurationObject&lt;-ConfigurationObjectBase" style="stroke: #A80036; stroke-width: 1.0;"/><polygon fill="none" points="302.783,75.236,293.734,56.076,312.756,65.411,302.783,75.236" style="stroke: #A80036; stroke-width: 1.0;"/><!--reverse link IValueChanged to ConfigurationObjectBase--><path d="M437,76.118 C437,88.351 437,102.117 437,115.93 " fill="none" id="IValueChanged&lt;-ConfigurationObjectBase" style="stroke: #A80036; stroke-width: 1.0;"/><polygon fill="none" points="430,76.076,437,56.076,444,76.076,430,76.076" style="stroke: #A80036; stroke-width: 1.0;"/><!--reverse link IConfigurationChild to ConfigurationObjectBase--><path d="M563.509,70.722 C550.45,84.222 535.143,100.045 519.777,115.93 " fill="none" id="IConfigurationChild&lt;-ConfigurationObjectBase" style="stroke: #A80036; stroke-width: 1.0;"/><polygon fill="none" points="558.741,65.584,577.677,56.076,568.803,75.318,558.741,65.584" style="stroke: #A80036; stroke-width: 1.0;"/><!--reverse link IConfigurationParent to ConfigurationObjectBase--><path d="M712.123,65.152 C678.236,81.946 635.175,103.287 593.238,124.07 " fill="none" id="IConfigurationParent&lt;-ConfigurationObjectBase" style="stroke: #A80036; stroke-width: 1.0;"/><polygon fill="none" points="709.409,58.685,730.437,56.076,715.626,71.229,709.409,58.685" style="stroke: #A80036; stroke-width: 1.0;"/><!--
@startuml
abstract class "ConfigurationObjectBase`1"<TInterface> {
    + Equals(other:TInterface) : bool
}
abstract class ConfigurationObjectBase {
    + IsDirty : bool <<get>>
    + IsReadOnly : bool <<get>>
    + PropertyDef : IPropertyDef? <<get>>
    + CalculatePath() : string
    + Delete() : void
    + Load() : void
    + OnValueChanged(oldValue:IValue, newValue:IValue) : void
    + Save() : void
    + SetParent(parent:IConfigurationParent?) : void
}
class "IEquatable`1"<T> {
}
ConfigurationObjectBase <|- - "ConfigurationObjectBase`1"
"IEquatable`1" "<TInterface>" <|- - "ConfigurationObjectBase`1"
NotifyPropertyChanged <|- - ConfigurationObjectBase
IConfigurationObject <|- - ConfigurationObjectBase
IValueChanged <|- - ConfigurationObjectBase
IConfigurationChild <|- - ConfigurationObjectBase
IConfigurationParent <|- - ConfigurationObjectBase
@enduml

PlantUML version 1.2019.09(Mon Aug 26 17:19:51 BST 2019)
(GPL source distribution)
Java Runtime: OpenJDK Runtime Environment
JVM: OpenJDK 64-Bit Server VM
Java Version: 13.0.2+8
Operating System: Windows 10
OS Version: 10.0
Default Encoding: Cp1252
Language: en
Country: GB
--></g></svg>