<?xml version="1.0" encoding="UTF-8" standalone="no"?><svg xmlns="http://www.w3.org/2000/svg" xmlns:xlink="http://www.w3.org/1999/xlink" contentScriptType="application/ecmascript" contentStyleType="text/css" height="504px" preserveAspectRatio="none" style="width:317px;height:504px;" version="1.1" viewBox="0 0 317 504" width="317px" zoomAndPan="magnify"><defs><filter height="300%" id="f1xxcusbh0blk8" width="300%" x="-1" y="-1"><feGaussianBlur result="blurOut" stdDeviation="2.0"/><feColorMatrix in="blurOut" result="blurOut2" type="matrix" values="0 0 0 0 0 0 0 0 0 0 0 0 0 0 0 0 0 0 .4 0"/><feOffset dx="4.0" dy="4.0" in="blurOut2" result="blurOut3"/><feBlend in="SourceGraphic" in2="blurOut3" mode="normal"/></filter></defs><g><!--class ValueBase`2--><rect fill="#FEFECE" filter="url(#f1xxcusbh0blk8)" height="269.375" id="ValueBase`2" style="stroke: #A80036; stroke-width: 1.5;" width="297" x="6" y="116"/><ellipse cx="70.25" cy="132" fill="#A9DCDF" rx="11" ry="11" style="stroke: #A80036; stroke-width: 1.0;"/><path d="M72.4375,133.7656 L68.2969,133.7656 L67.875,134.7969 L68.2969,134.7969 Q68.9063,134.7969 69.1719,135.0313 Q69.4375,135.2656 69.4375,135.6563 Q69.4375,136.0313 69.1719,136.2656 Q68.9063,136.5 68.2969,136.5 L66,136.5 Q65.3906,136.5 65.1406,136.2656 Q64.875,136.0313 64.875,135.6406 Q64.875,135.2656 65.1563,135.0313 Q65.4219,134.7813 66.0469,134.7969 L68.7188,128.1406 L67.6094,128.1406 Q67,128.1406 66.7344,127.9063 Q66.4688,127.6719 66.4688,127.2813 Q66.4688,126.9063 66.7344,126.6719 Q67,126.4375 67.6094,126.4375 L71.2813,126.4375 L74.6719,134.7969 Q75.2656,134.7969 75.4531,134.9375 Q75.8438,135.2031 75.8438,135.6563 Q75.8438,136.0313 75.5781,136.2656 Q75.3281,136.5 74.7188,136.5 L72.4219,136.5 Q71.8125,136.5 71.5469,136.2656 Q71.2813,136.0313 71.2813,135.6406 Q71.2813,135.2656 71.5469,135.0313 Q71.8125,134.7969 72.4219,134.7969 L72.8438,134.7969 L72.4375,133.7656 Z M71.7188,132.0625 L70.3594,128.6875 L68.9844,132.0625 L71.7188,132.0625 Z "/><text fill="#000000" font-family="sans-serif" font-size="12" font-style="italic" lengthAdjust="spacingAndGlyphs" textLength="71" x="90.75" y="136.9102">ValueBase`2</text><rect fill="#FFFFFF" height="17.0938" style="stroke: #000000; stroke-width: 1.0; stroke-dasharray: 2.0,2.0;" width="87" x="219" y="113"/><text fill="#000000" font-family="sans-serif" font-size="12" font-style="italic" lengthAdjust="spacingAndGlyphs" textLength="85" x="220" y="126.457">TParent,TValue</text><line style="stroke: #A80036; stroke-width: 1.5;" x1="7" x2="302" y1="148" y2="148"/><ellipse cx="17" cy="159" fill="none" rx="3" ry="3" style="stroke: #038048; stroke-width: 1.0;"/><text fill="#000000" font-family="sans-serif" font-size="11" lengthAdjust="spacingAndGlyphs" textLength="89" x="26" y="163.4189">IsDirty : bool «get»</text><ellipse cx="17" cy="172.8359" fill="none" rx="3" ry="3" style="stroke: #038048; stroke-width: 1.0;"/><text fill="#000000" font-family="sans-serif" font-size="11" font-style="italic" lengthAdjust="spacingAndGlyphs" textLength="119" x="26" y="177.2549">IsReadOnly : bool «get»</text><ellipse cx="17" cy="186.6719" fill="none" rx="3" ry="3" style="stroke: #038048; stroke-width: 1.0;"/><text fill="#000000" font-family="sans-serif" font-size="11" lengthAdjust="spacingAndGlyphs" textLength="107" x="26" y="191.0908">Parent : TParent «get»</text><ellipse cx="17" cy="200.5078" fill="none" rx="3" ry="3" style="stroke: #038048; stroke-width: 1.0;"/><text fill="#000000" font-family="sans-serif" font-size="11" lengthAdjust="spacingAndGlyphs" textLength="87" x="26" y="204.9268">Path : string «get»</text><ellipse cx="17" cy="214.3438" fill="none" rx="3" ry="3" style="stroke: #038048; stroke-width: 1.0;"/><text fill="#000000" font-family="sans-serif" font-size="11" lengthAdjust="spacingAndGlyphs" textLength="131" x="26" y="218.7627">Value : TValue «get» «set»</text><text fill="#000000" font-family="sans-serif" font-size="11" lengthAdjust="spacingAndGlyphs" textLength="89" x="26" y="232.5986">IsDirty : bool «get»</text><text fill="#000000" font-family="sans-serif" font-size="11" lengthAdjust="spacingAndGlyphs" textLength="87" x="26" y="246.4346">Path : string «get»</text><text fill="#000000" font-family="sans-serif" font-size="11" lengthAdjust="spacingAndGlyphs" textLength="132" x="26" y="260.2705">Value : object? «get» «set»</text><line style="stroke: #A80036; stroke-width: 1.5;" x1="7" x2="302" y1="266.6875" y2="266.6875"/><ellipse cx="17" cy="277.6875" fill="#84BE84" rx="3" ry="3" style="stroke: #038048; stroke-width: 1.0;"/><text fill="#000000" font-family="sans-serif" font-size="11" font-style="italic" lengthAdjust="spacingAndGlyphs" textLength="114" x="26" y="282.1064">CalculatePath() : string</text><ellipse cx="17" cy="291.5234" fill="#84BE84" rx="3" ry="3" style="stroke: #038048; stroke-width: 1.0;"/><text fill="#000000" font-family="sans-serif" font-size="11" lengthAdjust="spacingAndGlyphs" textLength="271" x="26" y="295.9424">DeleteValue(configurationRoot:IConfigurationRoot) : void</text><ellipse cx="17" cy="305.3594" fill="#84BE84" rx="3" ry="3" style="stroke: #038048; stroke-width: 1.0;"/><text fill="#000000" font-family="sans-serif" font-size="11" lengthAdjust="spacingAndGlyphs" textLength="266" x="26" y="309.7783">ReadValue(configurationRoot:IConfigurationRoot) : void</text><ellipse cx="17" cy="319.1953" fill="#84BE84" rx="3" ry="3" style="stroke: #038048; stroke-width: 1.0;"/><text fill="#000000" font-family="sans-serif" font-size="11" lengthAdjust="spacingAndGlyphs" textLength="145" x="26" y="323.6143">SetValue(value:object?) : bool</text><ellipse cx="17" cy="333.0313" fill="#84BE84" rx="3" ry="3" style="stroke: #038048; stroke-width: 1.0;"/><text fill="#000000" font-family="sans-serif" font-size="11" lengthAdjust="spacingAndGlyphs" textLength="266" x="26" y="337.4502">WriteValue(configurationRoot:IConfigurationRoot) : void</text><text fill="#000000" font-family="sans-serif" font-size="11" lengthAdjust="spacingAndGlyphs" textLength="271" x="26" y="351.2861">DeleteValue(configurationRoot:IConfigurationRoot) : void</text><text fill="#000000" font-family="sans-serif" font-size="11" lengthAdjust="spacingAndGlyphs" textLength="266" x="26" y="365.1221">ReadValue(configurationRoot:IConfigurationRoot) : void</text><text fill="#000000" font-family="sans-serif" font-size="11" lengthAdjust="spacingAndGlyphs" textLength="266" x="26" y="378.958">WriteValue(configurationRoot:IConfigurationRoot) : void</text><!--class IValue--><rect fill="#FEFECE" filter="url(#f1xxcusbh0blk8)" height="48" id="IValue" style="stroke: #A80036; stroke-width: 1.5;" width="66" x="51.5" y="8"/><ellipse cx="66.5" cy="24" fill="#ADD1B2" rx="11" ry="11" style="stroke: #A80036; stroke-width: 1.0;"/><path d="M69.2656,19.875 Q69.4219,19.6563 69.6094,19.5469 Q69.7969,19.4375 70.0156,19.4375 Q70.3906,19.4375 70.625,19.7031 Q70.8594,19.9531 70.8594,20.5625 L70.8594,22.0156 Q70.8594,22.625 70.625,22.8906 Q70.3906,23.1563 70.0156,23.1563 Q69.6719,23.1563 69.4688,22.9531 Q69.2656,22.7656 69.1563,22.25 Q69.1094,21.8906 68.9219,21.7031 Q68.5938,21.3281 67.9844,21.1094 Q67.375,20.8906 66.75,20.8906 Q65.9844,20.8906 65.3438,21.2188 Q64.7188,21.5469 64.2188,22.2969 Q63.7344,23.0469 63.7344,24.0781 L63.7344,25.1719 Q63.7344,26.4063 64.625,27.2344 Q65.5156,28.0469 67.1094,28.0469 Q68.0469,28.0469 68.7031,27.7969 Q69.0938,27.6406 69.5156,27.2031 Q69.7813,26.9375 69.9219,26.8594 Q70.0781,26.7813 70.2813,26.7813 Q70.6094,26.7813 70.8594,27.0469 Q71.125,27.2969 71.125,27.6406 Q71.125,27.9844 70.7813,28.3906 Q70.2813,28.9688 69.4844,29.2969 Q68.4063,29.75 67.1094,29.75 Q65.5938,29.75 64.3906,29.125 Q63.4063,28.625 62.7188,27.5625 Q62.0313,26.4844 62.0313,25.2031 L62.0313,24.0469 Q62.0313,22.7188 62.6406,21.5781 Q63.2656,20.4219 64.3594,19.8125 Q65.4531,19.1875 66.6875,19.1875 Q67.4219,19.1875 68.0625,19.3594 Q68.7188,19.5156 69.2656,19.875 Z "/><text fill="#000000" font-family="sans-serif" font-size="12" lengthAdjust="spacingAndGlyphs" textLength="34" x="80.5" y="28.9102">IValue</text><line style="stroke: #A80036; stroke-width: 1.5;" x1="52.5" x2="116.5" y1="40" y2="40"/><line style="stroke: #A80036; stroke-width: 1.5;" x1="52.5" x2="116.5" y1="48" y2="48"/><!--class IConfigurationParent--><rect fill="#FEFECE" filter="url(#f1xxcusbh0blk8)" height="48" id="IConfigurationParent" style="stroke: #A80036; stroke-width: 1.5;" width="145" x="153" y="8"/><ellipse cx="168" cy="24" fill="#ADD1B2" rx="11" ry="11" style="stroke: #A80036; stroke-width: 1.0;"/><path d="M170.7656,19.875 Q170.9219,19.6563 171.1094,19.5469 Q171.2969,19.4375 171.5156,19.4375 Q171.8906,19.4375 172.125,19.7031 Q172.3594,19.9531 172.3594,20.5625 L172.3594,22.0156 Q172.3594,22.625 172.125,22.8906 Q171.8906,23.1563 171.5156,23.1563 Q171.1719,23.1563 170.9688,22.9531 Q170.7656,22.7656 170.6563,22.25 Q170.6094,21.8906 170.4219,21.7031 Q170.0938,21.3281 169.4844,21.1094 Q168.875,20.8906 168.25,20.8906 Q167.4844,20.8906 166.8438,21.2188 Q166.2188,21.5469 165.7188,22.2969 Q165.2344,23.0469 165.2344,24.0781 L165.2344,25.1719 Q165.2344,26.4063 166.125,27.2344 Q167.0156,28.0469 168.6094,28.0469 Q169.5469,28.0469 170.2031,27.7969 Q170.5938,27.6406 171.0156,27.2031 Q171.2813,26.9375 171.4219,26.8594 Q171.5781,26.7813 171.7813,26.7813 Q172.1094,26.7813 172.3594,27.0469 Q172.625,27.2969 172.625,27.6406 Q172.625,27.9844 172.2813,28.3906 Q171.7813,28.9688 170.9844,29.2969 Q169.9063,29.75 168.6094,29.75 Q167.0938,29.75 165.8906,29.125 Q164.9063,28.625 164.2188,27.5625 Q163.5313,26.4844 163.5313,25.2031 L163.5313,24.0469 Q163.5313,22.7188 164.1406,21.5781 Q164.7656,20.4219 165.8594,19.8125 Q166.9531,19.1875 168.1875,19.1875 Q168.9219,19.1875 169.5625,19.3594 Q170.2188,19.5156 170.7656,19.875 Z "/><text fill="#000000" font-family="sans-serif" font-size="12" lengthAdjust="spacingAndGlyphs" textLength="113" x="182" y="28.9102">IConfigurationParent</text><line style="stroke: #A80036; stroke-width: 1.5;" x1="154" x2="297" y1="40" y2="40"/><line style="stroke: #A80036; stroke-width: 1.5;" x1="154" x2="297" y1="48" y2="48"/><!--class IPropertyDef--><rect fill="#FEFECE" filter="url(#f1xxcusbh0blk8)" height="48" id="IPropertyDef" style="stroke: #A80036; stroke-width: 1.5;" width="99" x="34" y="445"/><ellipse cx="49" cy="461" fill="#ADD1B2" rx="11" ry="11" style="stroke: #A80036; stroke-width: 1.0;"/><path d="M51.7656,456.875 Q51.9219,456.6563 52.1094,456.5469 Q52.2969,456.4375 52.5156,456.4375 Q52.8906,456.4375 53.125,456.7031 Q53.3594,456.9531 53.3594,457.5625 L53.3594,459.0156 Q53.3594,459.625 53.125,459.8906 Q52.8906,460.1563 52.5156,460.1563 Q52.1719,460.1563 51.9688,459.9531 Q51.7656,459.7656 51.6563,459.25 Q51.6094,458.8906 51.4219,458.7031 Q51.0938,458.3281 50.4844,458.1094 Q49.875,457.8906 49.25,457.8906 Q48.4844,457.8906 47.8438,458.2188 Q47.2188,458.5469 46.7188,459.2969 Q46.2344,460.0469 46.2344,461.0781 L46.2344,462.1719 Q46.2344,463.4063 47.125,464.2344 Q48.0156,465.0469 49.6094,465.0469 Q50.5469,465.0469 51.2031,464.7969 Q51.5938,464.6406 52.0156,464.2031 Q52.2813,463.9375 52.4219,463.8594 Q52.5781,463.7813 52.7813,463.7813 Q53.1094,463.7813 53.3594,464.0469 Q53.625,464.2969 53.625,464.6406 Q53.625,464.9844 53.2813,465.3906 Q52.7813,465.9688 51.9844,466.2969 Q50.9063,466.75 49.6094,466.75 Q48.0938,466.75 46.8906,466.125 Q45.9063,465.625 45.2188,464.5625 Q44.5313,463.4844 44.5313,462.2031 L44.5313,461.0469 Q44.5313,459.7188 45.1406,458.5781 Q45.7656,457.4219 46.8594,456.8125 Q47.9531,456.1875 49.1875,456.1875 Q49.9219,456.1875 50.5625,456.3594 Q51.2188,456.5156 51.7656,456.875 Z "/><text fill="#000000" font-family="sans-serif" font-size="12" lengthAdjust="spacingAndGlyphs" textLength="67" x="63" y="465.9102">IPropertyDef</text><line style="stroke: #A80036; stroke-width: 1.5;" x1="35" x2="132" y1="477" y2="477"/><line style="stroke: #A80036; stroke-width: 1.5;" x1="35" x2="132" y1="485" y2="485"/><!--class IValueChanged--><rect fill="#FEFECE" filter="url(#f1xxcusbh0blk8)" height="48" id="IValueChanged" style="stroke: #A80036; stroke-width: 1.5;" width="117" x="168" y="445"/><ellipse cx="183" cy="461" fill="#ADD1B2" rx="11" ry="11" style="stroke: #A80036; stroke-width: 1.0;"/><path d="M185.7656,456.875 Q185.9219,456.6563 186.1094,456.5469 Q186.2969,456.4375 186.5156,456.4375 Q186.8906,456.4375 187.125,456.7031 Q187.3594,456.9531 187.3594,457.5625 L187.3594,459.0156 Q187.3594,459.625 187.125,459.8906 Q186.8906,460.1563 186.5156,460.1563 Q186.1719,460.1563 185.9688,459.9531 Q185.7656,459.7656 185.6563,459.25 Q185.6094,458.8906 185.4219,458.7031 Q185.0938,458.3281 184.4844,458.1094 Q183.875,457.8906 183.25,457.8906 Q182.4844,457.8906 181.8438,458.2188 Q181.2188,458.5469 180.7188,459.2969 Q180.2344,460.0469 180.2344,461.0781 L180.2344,462.1719 Q180.2344,463.4063 181.125,464.2344 Q182.0156,465.0469 183.6094,465.0469 Q184.5469,465.0469 185.2031,464.7969 Q185.5938,464.6406 186.0156,464.2031 Q186.2813,463.9375 186.4219,463.8594 Q186.5781,463.7813 186.7813,463.7813 Q187.1094,463.7813 187.3594,464.0469 Q187.625,464.2969 187.625,464.6406 Q187.625,464.9844 187.2813,465.3906 Q186.7813,465.9688 185.9844,466.2969 Q184.9063,466.75 183.6094,466.75 Q182.0938,466.75 180.8906,466.125 Q179.9063,465.625 179.2188,464.5625 Q178.5313,463.4844 178.5313,462.2031 L178.5313,461.0469 Q178.5313,459.7188 179.1406,458.5781 Q179.7656,457.4219 180.8594,456.8125 Q181.9531,456.1875 183.1875,456.1875 Q183.9219,456.1875 184.5625,456.3594 Q185.2188,456.5156 185.7656,456.875 Z "/><text fill="#000000" font-family="sans-serif" font-size="12" lengthAdjust="spacingAndGlyphs" textLength="85" x="197" y="465.9102">IValueChanged</text><line style="stroke: #A80036; stroke-width: 1.5;" x1="169" x2="284" y1="477" y2="477"/><line style="stroke: #A80036; stroke-width: 1.5;" x1="169" x2="284" y1="485" y2="485"/><!--reverse link IValue to ValueBase`2--><path d="M98.1569,75.239 C102.0751,87.357 106.57,101.261 111.276,115.815 " fill="none" id="IValue&lt;-ValueBase`2" style="stroke: #A80036; stroke-width: 1.0;"/><polygon fill="none" points="91.4837,77.353,91.9912,56.169,104.8047,73.046,91.4837,77.353" style="stroke: #A80036; stroke-width: 1.0;"/><!--reverse link IConfigurationParent to ValueBase`2--><path d="M211.648,75.239 C207.674,87.357 203.114,101.261 198.341,115.815 " fill="none" id="IConfigurationParent&lt;-ValueBase`2" style="stroke: #A80036; stroke-width: 1.0;"/><polygon fill="none" points="205.018,72.992,217.902,56.169,218.321,77.355,205.018,72.992" style="stroke: #A80036; stroke-width: 1.0;"/><!--link ValueBase`2 to IPropertyDef--><path d="M110.646,385.224 C103.8973,405.8027 97.5756,425.0793 92.7337,439.8438 " fill="none" id="ValueBase`2-&gt;IPropertyDef" style="stroke: #A80036; stroke-width: 1.0;"/><polygon fill="#A80036" points="91.1499,444.6733,97.7554,437.368,92.708,439.9223,90.1538,434.8749,91.1499,444.6733" style="stroke: #A80036; stroke-width: 1.0;"/><text fill="#000000" font-family="sans-serif" font-size="13" lengthAdjust="spacingAndGlyphs" textLength="68" x="16.7271" y="434.3316">PropertyDef</text><!--link ValueBase`2 to IValueChanged--><path d="M198.972,385.224 C205.815,405.8027 212.226,425.0793 217.136,439.8438 " fill="none" id="ValueBase`2-&gt;IValueChanged" style="stroke: #A80036; stroke-width: 1.0;"/><polygon fill="#A80036" points="218.742,444.6733,219.6973,434.8709,217.1641,439.9288,212.1061,437.3956,218.742,444.6733" style="stroke: #A80036; stroke-width: 1.0;"/><text fill="#000000" font-family="sans-serif" font-size="13" lengthAdjust="spacingAndGlyphs" textLength="38" x="174.2197" y="434.3316">Parent</text><!--
@startuml
abstract class "ValueBase`2"<TParent,TValue> {
    + IsDirty : bool <<get>>
    + {abstract} IsReadOnly : bool <<get>>
    + Parent : TParent <<get>>
    + Path : string <<get>>
    + Value : TValue <<get>> <<set>>
    IsDirty : bool <<get>>
    Path : string <<get>>
    Value : object? <<get>> <<set>>
    + {abstract} CalculatePath() : string
    + DeleteValue(configurationRoot:IConfigurationRoot) : void
    + ReadValue(configurationRoot:IConfigurationRoot) : void
    + SetValue(value:object?) : bool
    + WriteValue(configurationRoot:IConfigurationRoot) : void
    DeleteValue(configurationRoot:IConfigurationRoot) : void
    ReadValue(configurationRoot:IConfigurationRoot) : void
    WriteValue(configurationRoot:IConfigurationRoot) : void
}
IValue <|- - "ValueBase`2"
IConfigurationParent <|- - "ValueBase`2"
"ValueBase`2" - -> "PropertyDef" IPropertyDef
"ValueBase`2" - -> "Parent" IValueChanged
@enduml

PlantUML version 1.2019.09(Mon Aug 26 17:19:51 BST 2019)
(GPL source distribution)
Java Runtime: OpenJDK Runtime Environment
JVM: OpenJDK 64-Bit Server VM
Java Version: 13.0.2+8
Operating System: Windows 10
OS Version: 10.0
Default Encoding: Cp1252
Language: en
Country: GB
--></g></svg>