<?xml version="1.0" encoding="UTF-8" standalone="no"?><svg xmlns="http://www.w3.org/2000/svg" xmlns:xlink="http://www.w3.org/1999/xlink" contentScriptType="application/ecmascript" contentStyleType="text/css" height="197px" preserveAspectRatio="none" style="width:232px;height:197px;" version="1.1" viewBox="0 0 232 197" width="232px" zoomAndPan="magnify"><defs><filter height="300%" id="f1wbemvqmhaeet" width="300%" x="-1" y="-1"><feGaussianBlur result="blurOut" stdDeviation="2.0"/><feColorMatrix in="blurOut" result="blurOut2" type="matrix" values="0 0 0 0 0 0 0 0 0 0 0 0 0 0 0 0 0 0 .4 0"/><feOffset dx="4.0" dy="4.0" in="blurOut2" result="blurOut3"/><feBlend in="SourceGraphic" in2="blurOut3" mode="normal"/></filter></defs><g><!--class PathAttribute--><rect fill="#FEFECE" filter="url(#f1wbemvqmhaeet)" height="70.0234" id="PathAttribute" style="stroke: #A80036; stroke-width: 1.5;" width="215" x="6" y="116"/><ellipse cx="74.75" cy="136.0938" fill="#ADD1B2" rx="11" ry="11" style="stroke: #A80036; stroke-width: 1.0;"/><path d="M77.5156,131.9688 Q77.6719,131.75 77.8594,131.6406 Q78.0469,131.5313 78.2656,131.5313 Q78.6406,131.5313 78.875,131.7969 Q79.1094,132.0469 79.1094,132.6563 L79.1094,134.1094 Q79.1094,134.7188 78.875,134.9844 Q78.6406,135.25 78.2656,135.25 Q77.9219,135.25 77.7188,135.0469 Q77.5156,134.8594 77.4063,134.3438 Q77.3594,133.9844 77.1719,133.7969 Q76.8438,133.4219 76.2344,133.2031 Q75.625,132.9844 75,132.9844 Q74.2344,132.9844 73.5938,133.3125 Q72.9688,133.6406 72.4688,134.3906 Q71.9844,135.1406 71.9844,136.1719 L71.9844,137.2656 Q71.9844,138.5 72.875,139.3281 Q73.7656,140.1406 75.3594,140.1406 Q76.2969,140.1406 76.9531,139.8906 Q77.3438,139.7344 77.7656,139.2969 Q78.0313,139.0313 78.1719,138.9531 Q78.3281,138.875 78.5313,138.875 Q78.8594,138.875 79.1094,139.1406 Q79.375,139.3906 79.375,139.7344 Q79.375,140.0781 79.0313,140.4844 Q78.5313,141.0625 77.7344,141.3906 Q76.6563,141.8438 75.3594,141.8438 Q73.8438,141.8438 72.6406,141.2188 Q71.6563,140.7188 70.9688,139.6563 Q70.2813,138.5781 70.2813,137.2969 L70.2813,136.1406 Q70.2813,134.8125 70.8906,133.6719 Q71.5156,132.5156 72.6094,131.9063 Q73.7031,131.2813 74.9375,131.2813 Q75.6719,131.2813 76.3125,131.4531 Q76.9688,131.6094 77.5156,131.9688 Z "/><text fill="#000000" font-family="sans-serif" font-size="12" font-style="italic" lengthAdjust="spacingAndGlyphs" textLength="51" x="104.25" y="133.457">«sealed»</text><text fill="#000000" font-family="sans-serif" font-size="12" lengthAdjust="spacingAndGlyphs" textLength="69" x="95.25" y="148.5508">PathAttribute</text><line style="stroke: #A80036; stroke-width: 1.5;" x1="7" x2="220" y1="156.1875" y2="156.1875"/><line style="stroke: #A80036; stroke-width: 1.5;" x1="7" x2="220" y1="164.1875" y2="164.1875"/><ellipse cx="17" cy="175.1875" fill="#84BE84" rx="3" ry="3" style="stroke: #038048; stroke-width: 1.0;"/><text fill="#000000" font-family="sans-serif" font-size="11" lengthAdjust="spacingAndGlyphs" textLength="189" x="26" y="179.6064">PathAttribute(usage:PathIs, path:string)</text><!--class Attribute--><rect fill="#FEFECE" filter="url(#f1wbemvqmhaeet)" height="48" id="Attribute" style="stroke: #A80036; stroke-width: 1.5;" width="76" x="75.5" y="8"/><ellipse cx="90.5" cy="24" fill="#ADD1B2" rx="11" ry="11" style="stroke: #A80036; stroke-width: 1.0;"/><path d="M93.2656,19.875 Q93.4219,19.6563 93.6094,19.5469 Q93.7969,19.4375 94.0156,19.4375 Q94.3906,19.4375 94.625,19.7031 Q94.8594,19.9531 94.8594,20.5625 L94.8594,22.0156 Q94.8594,22.625 94.625,22.8906 Q94.3906,23.1563 94.0156,23.1563 Q93.6719,23.1563 93.4688,22.9531 Q93.2656,22.7656 93.1563,22.25 Q93.1094,21.8906 92.9219,21.7031 Q92.5938,21.3281 91.9844,21.1094 Q91.375,20.8906 90.75,20.8906 Q89.9844,20.8906 89.3438,21.2188 Q88.7188,21.5469 88.2188,22.2969 Q87.7344,23.0469 87.7344,24.0781 L87.7344,25.1719 Q87.7344,26.4063 88.625,27.2344 Q89.5156,28.0469 91.1094,28.0469 Q92.0469,28.0469 92.7031,27.7969 Q93.0938,27.6406 93.5156,27.2031 Q93.7813,26.9375 93.9219,26.8594 Q94.0781,26.7813 94.2813,26.7813 Q94.6094,26.7813 94.8594,27.0469 Q95.125,27.2969 95.125,27.6406 Q95.125,27.9844 94.7813,28.3906 Q94.2813,28.9688 93.4844,29.2969 Q92.4063,29.75 91.1094,29.75 Q89.5938,29.75 88.3906,29.125 Q87.4063,28.625 86.7188,27.5625 Q86.0313,26.4844 86.0313,25.2031 L86.0313,24.0469 Q86.0313,22.7188 86.6406,21.5781 Q87.2656,20.4219 88.3594,19.8125 Q89.4531,19.1875 90.6875,19.1875 Q91.4219,19.1875 92.0625,19.3594 Q92.7188,19.5156 93.2656,19.875 Z "/><text fill="#000000" font-family="sans-serif" font-size="12" lengthAdjust="spacingAndGlyphs" textLength="44" x="104.5" y="28.9102">Attribute</text><line style="stroke: #A80036; stroke-width: 1.5;" x1="76.5" x2="150.5" y1="40" y2="40"/><line style="stroke: #A80036; stroke-width: 1.5;" x1="76.5" x2="150.5" y1="48" y2="48"/><!--reverse link Attribute to PathAttribute--><path d="M113.5,76.489 C113.5,89.4835 113.5,103.5385 113.5,115.8442 " fill="none" id="Attribute&lt;-PathAttribute" style="stroke: #A80036; stroke-width: 1.0;"/><polygon fill="none" points="106.5,76.115,113.5,56.115,120.5,76.115,106.5,76.115" style="stroke: #A80036; stroke-width: 1.0;"/><!--
@startuml
class PathAttribute <<sealed>> {
    + PathAttribute(usage:PathIs, path:string)
}
Attribute <|- - PathAttribute
@enduml

PlantUML version 1.2019.09(Mon Aug 26 17:19:51 BST 2019)
(GPL source distribution)
Java Runtime: OpenJDK Runtime Environment
JVM: OpenJDK 64-Bit Server VM
Java Version: 13.0.2+8
Operating System: Windows 10
OS Version: 10.0
Default Encoding: Cp1252
Language: en
Country: GB
--></g></svg>