<?xml version="1.0" encoding="UTF-8" standalone="no"?><svg xmlns="http://www.w3.org/2000/svg" xmlns:xlink="http://www.w3.org/1999/xlink" contentScriptType="application/ecmascript" contentStyleType="text/css" height="188px" preserveAspectRatio="none" style="width:337px;height:188px;" version="1.1" viewBox="0 0 337 188" width="337px" zoomAndPan="magnify"><defs><filter height="300%" id="fr8ekazymc26o" width="300%" x="-1" y="-1"><feGaussianBlur result="blurOut" stdDeviation="2.0"/><feColorMatrix in="blurOut" result="blurOut2" type="matrix" values="0 0 0 0 0 0 0 0 0 0 0 0 0 0 0 0 0 0 .4 0"/><feOffset dx="4.0" dy="4.0" in="blurOut2" result="blurOut3"/><feBlend in="SourceGraphic" in2="blurOut3" mode="normal"/></filter></defs><g><!--class NotifyPropertyChanged--><rect fill="#FEFECE" filter="url(#fr8ekazymc26o)" height="61.8359" id="NotifyPropertyChanged" style="stroke: #A80036; stroke-width: 1.5;" width="315" x="6" y="116"/><ellipse cx="95.25" cy="132" fill="#A9DCDF" rx="11" ry="11" style="stroke: #A80036; stroke-width: 1.0;"/><path d="M97.4375,133.7656 L93.2969,133.7656 L92.875,134.7969 L93.2969,134.7969 Q93.9063,134.7969 94.1719,135.0313 Q94.4375,135.2656 94.4375,135.6563 Q94.4375,136.0313 94.1719,136.2656 Q93.9063,136.5 93.2969,136.5 L91,136.5 Q90.3906,136.5 90.1406,136.2656 Q89.875,136.0313 89.875,135.6406 Q89.875,135.2656 90.1563,135.0313 Q90.4219,134.7813 91.0469,134.7969 L93.7188,128.1406 L92.6094,128.1406 Q92,128.1406 91.7344,127.9063 Q91.4688,127.6719 91.4688,127.2813 Q91.4688,126.9063 91.7344,126.6719 Q92,126.4375 92.6094,126.4375 L96.2813,126.4375 L99.6719,134.7969 Q100.2656,134.7969 100.4531,134.9375 Q100.8438,135.2031 100.8438,135.6563 Q100.8438,136.0313 100.5781,136.2656 Q100.3281,136.5 99.7188,136.5 L97.4219,136.5 Q96.8125,136.5 96.5469,136.2656 Q96.2813,136.0313 96.2813,135.6406 Q96.2813,135.2656 96.5469,135.0313 Q96.8125,134.7969 97.4219,134.7969 L97.8438,134.7969 L97.4375,133.7656 Z M96.7188,132.0625 L95.3594,128.6875 L93.9844,132.0625 L96.7188,132.0625 Z "/><text fill="#000000" font-family="sans-serif" font-size="12" font-style="italic" lengthAdjust="spacingAndGlyphs" textLength="128" x="115.75" y="136.9102">NotifyPropertyChanged</text><line style="stroke: #A80036; stroke-width: 1.5;" x1="7" x2="320" y1="148" y2="148"/><ellipse cx="17" cy="159" fill="none" rx="3" ry="3" style="stroke: #038048; stroke-width: 1.0;"/><text fill="#000000" font-family="sans-serif" font-size="11" lengthAdjust="spacingAndGlyphs" textLength="289" x="26" y="163.4189">«event» PropertyChanged : PropertyChangedEventHandler?</text><line style="stroke: #A80036; stroke-width: 1.5;" x1="7" x2="320" y1="169.8359" y2="169.8359"/><!--class Disposable--><rect fill="#FEFECE" filter="url(#fr8ekazymc26o)" height="48" id="Disposable" style="stroke: #A80036; stroke-width: 1.5;" width="96" x="33.5" y="8"/><ellipse cx="48.5" cy="24" fill="#ADD1B2" rx="11" ry="11" style="stroke: #A80036; stroke-width: 1.0;"/><path d="M51.2656,19.875 Q51.4219,19.6563 51.6094,19.5469 Q51.7969,19.4375 52.0156,19.4375 Q52.3906,19.4375 52.625,19.7031 Q52.8594,19.9531 52.8594,20.5625 L52.8594,22.0156 Q52.8594,22.625 52.625,22.8906 Q52.3906,23.1563 52.0156,23.1563 Q51.6719,23.1563 51.4688,22.9531 Q51.2656,22.7656 51.1563,22.25 Q51.1094,21.8906 50.9219,21.7031 Q50.5938,21.3281 49.9844,21.1094 Q49.375,20.8906 48.75,20.8906 Q47.9844,20.8906 47.3438,21.2188 Q46.7188,21.5469 46.2188,22.2969 Q45.7344,23.0469 45.7344,24.0781 L45.7344,25.1719 Q45.7344,26.4063 46.625,27.2344 Q47.5156,28.0469 49.1094,28.0469 Q50.0469,28.0469 50.7031,27.7969 Q51.0938,27.6406 51.5156,27.2031 Q51.7813,26.9375 51.9219,26.8594 Q52.0781,26.7813 52.2813,26.7813 Q52.6094,26.7813 52.8594,27.0469 Q53.125,27.2969 53.125,27.6406 Q53.125,27.9844 52.7813,28.3906 Q52.2813,28.9688 51.4844,29.2969 Q50.4063,29.75 49.1094,29.75 Q47.5938,29.75 46.3906,29.125 Q45.4063,28.625 44.7188,27.5625 Q44.0313,26.4844 44.0313,25.2031 L44.0313,24.0469 Q44.0313,22.7188 44.6406,21.5781 Q45.2656,20.4219 46.3594,19.8125 Q47.4531,19.1875 48.6875,19.1875 Q49.4219,19.1875 50.0625,19.3594 Q50.7188,19.5156 51.2656,19.875 Z "/><text fill="#000000" font-family="sans-serif" font-size="12" lengthAdjust="spacingAndGlyphs" textLength="64" x="62.5" y="28.9102">Disposable</text><line style="stroke: #A80036; stroke-width: 1.5;" x1="34.5" x2="128.5" y1="40" y2="40"/><line style="stroke: #A80036; stroke-width: 1.5;" x1="34.5" x2="128.5" y1="48" y2="48"/><!--class INotifyPropertyChanged--><rect fill="#FEFECE" filter="url(#fr8ekazymc26o)" height="48" id="INotifyPropertyChanged" style="stroke: #A80036; stroke-width: 1.5;" width="161" x="165" y="8"/><ellipse cx="180" cy="24" fill="#ADD1B2" rx="11" ry="11" style="stroke: #A80036; stroke-width: 1.0;"/><path d="M182.7656,19.875 Q182.9219,19.6563 183.1094,19.5469 Q183.2969,19.4375 183.5156,19.4375 Q183.8906,19.4375 184.125,19.7031 Q184.3594,19.9531 184.3594,20.5625 L184.3594,22.0156 Q184.3594,22.625 184.125,22.8906 Q183.8906,23.1563 183.5156,23.1563 Q183.1719,23.1563 182.9688,22.9531 Q182.7656,22.7656 182.6563,22.25 Q182.6094,21.8906 182.4219,21.7031 Q182.0938,21.3281 181.4844,21.1094 Q180.875,20.8906 180.25,20.8906 Q179.4844,20.8906 178.8438,21.2188 Q178.2188,21.5469 177.7188,22.2969 Q177.2344,23.0469 177.2344,24.0781 L177.2344,25.1719 Q177.2344,26.4063 178.125,27.2344 Q179.0156,28.0469 180.6094,28.0469 Q181.5469,28.0469 182.2031,27.7969 Q182.5938,27.6406 183.0156,27.2031 Q183.2813,26.9375 183.4219,26.8594 Q183.5781,26.7813 183.7813,26.7813 Q184.1094,26.7813 184.3594,27.0469 Q184.625,27.2969 184.625,27.6406 Q184.625,27.9844 184.2813,28.3906 Q183.7813,28.9688 182.9844,29.2969 Q181.9063,29.75 180.6094,29.75 Q179.0938,29.75 177.8906,29.125 Q176.9063,28.625 176.2188,27.5625 Q175.5313,26.4844 175.5313,25.2031 L175.5313,24.0469 Q175.5313,22.7188 176.1406,21.5781 Q176.7656,20.4219 177.8594,19.8125 Q178.9531,19.1875 180.1875,19.1875 Q180.9219,19.1875 181.5625,19.3594 Q182.2188,19.5156 182.7656,19.875 Z "/><text fill="#000000" font-family="sans-serif" font-size="12" lengthAdjust="spacingAndGlyphs" textLength="129" x="194" y="28.9102">INotifyPropertyChanged</text><line style="stroke: #A80036; stroke-width: 1.5;" x1="166" x2="325" y1="40" y2="40"/><line style="stroke: #A80036; stroke-width: 1.5;" x1="166" x2="325" y1="48" y2="48"/><!--reverse link Disposable to NotifyPropertyChanged--><path d="M110.068,72.368 C120.353,86.5413 131.791,102.3036 141.437,115.5962 " fill="none" id="Disposable&lt;-NotifyPropertyChanged" style="stroke: #A80036; stroke-width: 1.0;"/><polygon fill="none" points="104.3727,76.438,98.2918,56.14,115.704,68.216,104.3727,76.438" style="stroke: #A80036; stroke-width: 1.0;"/><!--reverse link INotifyPropertyChanged to NotifyPropertyChanged--><path d="M216.932,72.368 C206.647,86.5413 195.209,102.3036 185.563,115.5962 " fill="none" id="INotifyPropertyChanged&lt;-NotifyPropertyChanged" style="stroke: #A80036; stroke-width: 1.0;"/><polygon fill="none" points="211.296,68.216,228.708,56.14,222.627,76.438,211.296,68.216" style="stroke: #A80036; stroke-width: 1.0;"/><!--
@startuml
abstract class NotifyPropertyChanged {
    +  <<event>> PropertyChanged : PropertyChangedEventHandler? 
}
Disposable <|- - NotifyPropertyChanged
INotifyPropertyChanged <|- - NotifyPropertyChanged
@enduml

PlantUML version 1.2019.09(Mon Aug 26 17:19:51 BST 2019)
(GPL source distribution)
Java Runtime: OpenJDK Runtime Environment
JVM: OpenJDK 64-Bit Server VM
Java Version: 13.0.2+8
Operating System: Windows 10
OS Version: 10.0
Default Encoding: Cp1252
Language: en
Country: GB
--></g></svg>