<?xml version="1.0" encoding="UTF-8" standalone="no"?><svg xmlns="http://www.w3.org/2000/svg" xmlns:xlink="http://www.w3.org/1999/xlink" contentScriptType="application/ecmascript" contentStyleType="text/css" height="202px" preserveAspectRatio="none" style="width:317px;height:202px;" version="1.1" viewBox="0 0 317 202" width="317px" zoomAndPan="magnify"><defs><filter height="300%" id="f15wfkd2n81qup" width="300%" x="-1" y="-1"><feGaussianBlur result="blurOut" stdDeviation="2.0"/><feColorMatrix in="blurOut" result="blurOut2" type="matrix" values="0 0 0 0 0 0 0 0 0 0 0 0 0 0 0 0 0 0 .4 0"/><feOffset dx="4.0" dy="4.0" in="blurOut2" result="blurOut3"/><feBlend in="SourceGraphic" in2="blurOut3" mode="normal"/></filter></defs><g><!--class IConfigurationCollection`1--><rect fill="#FEFECE" filter="url(#f15wfkd2n81qup)" height="75.6719" id="IConfigurationCollection`1" style="stroke: #A80036; stroke-width: 1.5;" width="233" x="24.268" y="116"/><ellipse cx="39.268" cy="132" fill="#B4A7E5" rx="11" ry="11" style="stroke: #A80036; stroke-width: 1.0;"/><path d="M40.2211,128.6406 L40.2211,135.2969 L41.9399,135.2969 Q42.5493,135.2969 42.8149,135.5313 Q43.0805,135.7656 43.0805,136.1563 Q43.0805,136.5313 42.8149,136.7656 Q42.5493,137 41.9399,137 L36.7993,137 Q36.1899,137 35.9243,136.7656 Q35.6586,136.5313 35.6586,136.1406 Q35.6586,135.7656 35.9243,135.5313 Q36.1899,135.2969 36.7993,135.2969 L38.518,135.2969 L38.518,128.6406 L36.7993,128.6406 Q36.1899,128.6406 35.9243,128.4063 Q35.6586,128.1719 35.6586,127.7813 Q35.6586,127.4063 35.9243,127.1719 Q36.1899,126.9375 36.7993,126.9375 L41.9399,126.9375 Q42.5493,126.9375 42.8149,127.1719 Q43.0805,127.4063 43.0805,127.7813 Q43.0805,128.1719 42.8149,128.4063 Q42.5493,128.6406 41.9399,128.6406 L40.2211,128.6406 Z "/><text fill="#000000" font-family="sans-serif" font-size="12" font-style="italic" lengthAdjust="spacingAndGlyphs" textLength="144" x="53.268" y="136.9102">IConfigurationCollection`1</text><rect fill="#FFFFFF" height="17.0938" style="stroke: #000000; stroke-width: 1.0; stroke-dasharray: 2.0,2.0;" width="55" x="205.268" y="113"/><text fill="#000000" font-family="sans-serif" font-size="12" font-style="italic" lengthAdjust="spacingAndGlyphs" textLength="53" x="206.268" y="126.457">TElement</text><line style="stroke: #A80036; stroke-width: 1.5;" x1="25.268" x2="256.268" y1="148" y2="148"/><line style="stroke: #A80036; stroke-width: 1.5;" x1="25.268" x2="256.268" y1="156" y2="156"/><text fill="#000000" font-family="sans-serif" font-size="11" lengthAdjust="spacingAndGlyphs" textLength="177" x="30.268" y="171.4189">AddCopy(value:TElement) : TElement</text><text fill="#000000" font-family="sans-serif" font-size="11" lengthAdjust="spacingAndGlyphs" textLength="103" x="30.268" y="185.2549">AddNew() : TElement</text><!--class IList`1--><rect fill="#FEFECE" filter="url(#f15wfkd2n81qup)" height="48" id="IList`1" style="stroke: #A80036; stroke-width: 1.5;" width="77" x="23.268" y="8"/><ellipse cx="38.268" cy="24" fill="#ADD1B2" rx="11" ry="11" style="stroke: #A80036; stroke-width: 1.0;"/><path d="M41.0336,19.875 Q41.1899,19.6563 41.3774,19.5469 Q41.5649,19.4375 41.7836,19.4375 Q42.1586,19.4375 42.393,19.7031 Q42.6274,19.9531 42.6274,20.5625 L42.6274,22.0156 Q42.6274,22.625 42.393,22.8906 Q42.1586,23.1563 41.7836,23.1563 Q41.4399,23.1563 41.2368,22.9531 Q41.0336,22.7656 40.9243,22.25 Q40.8774,21.8906 40.6899,21.7031 Q40.3618,21.3281 39.7524,21.1094 Q39.143,20.8906 38.518,20.8906 Q37.7524,20.8906 37.1118,21.2188 Q36.4868,21.5469 35.9868,22.2969 Q35.5024,23.0469 35.5024,24.0781 L35.5024,25.1719 Q35.5024,26.4063 36.393,27.2344 Q37.2836,28.0469 38.8774,28.0469 Q39.8149,28.0469 40.4711,27.7969 Q40.8618,27.6406 41.2836,27.2031 Q41.5493,26.9375 41.6899,26.8594 Q41.8461,26.7813 42.0493,26.7813 Q42.3774,26.7813 42.6274,27.0469 Q42.893,27.2969 42.893,27.6406 Q42.893,27.9844 42.5493,28.3906 Q42.0493,28.9688 41.2524,29.2969 Q40.1743,29.75 38.8774,29.75 Q37.3618,29.75 36.1586,29.125 Q35.1743,28.625 34.4868,27.5625 Q33.7993,26.4844 33.7993,25.2031 L33.7993,24.0469 Q33.7993,22.7188 34.4086,21.5781 Q35.0336,20.4219 36.1274,19.8125 Q37.2211,19.1875 38.4555,19.1875 Q39.1899,19.1875 39.8305,19.3594 Q40.4868,19.5156 41.0336,19.875 Z "/><text fill="#000000" font-family="sans-serif" font-size="12" lengthAdjust="spacingAndGlyphs" textLength="34" x="52.268" y="28.9102">IList`1</text><rect fill="#FFFFFF" height="17.0938" style="stroke: #000000; stroke-width: 1.0; stroke-dasharray: 2.0,2.0;" width="9" x="94.268" y="5"/><text fill="#000000" font-family="sans-serif" font-size="12" font-style="italic" lengthAdjust="spacingAndGlyphs" textLength="7" x="95.268" y="18.457">T</text><line style="stroke: #A80036; stroke-width: 1.5;" x1="24.268" x2="99.268" y1="40" y2="40"/><line style="stroke: #A80036; stroke-width: 1.5;" x1="24.268" x2="99.268" y1="48" y2="48"/><!--class INotifyCollectionChanged--><rect fill="#FEFECE" filter="url(#f15wfkd2n81qup)" height="48" id="INotifyCollectionChanged" style="stroke: #A80036; stroke-width: 1.5;" width="171" x="135.268" y="8"/><ellipse cx="150.268" cy="24" fill="#ADD1B2" rx="11" ry="11" style="stroke: #A80036; stroke-width: 1.0;"/><path d="M153.0336,19.875 Q153.1899,19.6563 153.3774,19.5469 Q153.5649,19.4375 153.7836,19.4375 Q154.1586,19.4375 154.393,19.7031 Q154.6274,19.9531 154.6274,20.5625 L154.6274,22.0156 Q154.6274,22.625 154.393,22.8906 Q154.1586,23.1563 153.7836,23.1563 Q153.4399,23.1563 153.2368,22.9531 Q153.0336,22.7656 152.9243,22.25 Q152.8774,21.8906 152.6899,21.7031 Q152.3618,21.3281 151.7524,21.1094 Q151.143,20.8906 150.518,20.8906 Q149.7524,20.8906 149.1118,21.2188 Q148.4868,21.5469 147.9868,22.2969 Q147.5024,23.0469 147.5024,24.0781 L147.5024,25.1719 Q147.5024,26.4063 148.393,27.2344 Q149.2836,28.0469 150.8774,28.0469 Q151.8149,28.0469 152.4711,27.7969 Q152.8618,27.6406 153.2836,27.2031 Q153.5493,26.9375 153.6899,26.8594 Q153.8461,26.7813 154.0493,26.7813 Q154.3774,26.7813 154.6274,27.0469 Q154.893,27.2969 154.893,27.6406 Q154.893,27.9844 154.5493,28.3906 Q154.0493,28.9688 153.2524,29.2969 Q152.1743,29.75 150.8774,29.75 Q149.3618,29.75 148.1586,29.125 Q147.1743,28.625 146.4868,27.5625 Q145.7993,26.4844 145.7993,25.2031 L145.7993,24.0469 Q145.7993,22.7188 146.4086,21.5781 Q147.0336,20.4219 148.1274,19.8125 Q149.2211,19.1875 150.4555,19.1875 Q151.1899,19.1875 151.8305,19.3594 Q152.4868,19.5156 153.0336,19.875 Z "/><text fill="#000000" font-family="sans-serif" font-size="12" lengthAdjust="spacingAndGlyphs" textLength="139" x="164.268" y="28.9102">INotifyCollectionChanged</text><line style="stroke: #A80036; stroke-width: 1.5;" x1="136.268" x2="305.268" y1="40" y2="40"/><line style="stroke: #A80036; stroke-width: 1.5;" x1="136.268" x2="305.268" y1="48" y2="48"/><!--reverse link IList`1 to IConfigurationCollection`1--><path d="M88.1421,73.062 C97.2182,86.848 107.338,102.2196 116.259,115.7711 " fill="none" id="IList`1&lt;-IConfigurationCollection`1" style="stroke: #A80036; stroke-width: 1.0;"/><polygon fill="none" points="82.1507,76.691,77,56.137,93.8442,68.993,82.1507,76.691" style="stroke: #A80036; stroke-width: 1.0;"/><text fill="#000000" font-family="sans-serif" font-size="13" lengthAdjust="spacingAndGlyphs" textLength="71" x="1.0597" y="77.5084">&lt;TElement&gt;</text><!--reverse link INotifyCollectionChanged to IConfigurationCollection`1--><path d="M194.06,73.062 C184.869,86.848 174.622,102.2196 165.587,115.7711 " fill="none" id="INotifyCollectionChanged&lt;-IConfigurationCollection`1" style="stroke: #A80036; stroke-width: 1.0;"/><polygon fill="none" points="188.425,68.895,205.343,56.137,200.074,76.661,188.425,68.895" style="stroke: #A80036; stroke-width: 1.0;"/><!--
@startuml
interface "IConfigurationCollection`1"<TElement> {
    AddCopy(value:TElement) : TElement
    AddNew() : TElement
}
class "IList`1"<T> {
}
"IList`1" "<TElement>" <|- - "IConfigurationCollection`1"
INotifyCollectionChanged <|- - "IConfigurationCollection`1"
@enduml

PlantUML version 1.2019.09(Mon Aug 26 17:19:51 BST 2019)
(GPL source distribution)
Java Runtime: OpenJDK Runtime Environment
JVM: OpenJDK 64-Bit Server VM
Java Version: 13.0.2+8
Operating System: Windows 10
OS Version: 10.0
Default Encoding: Cp1252
Language: en
Country: GB
--></g></svg>