<?xml version="1.0" encoding="UTF-8" standalone="no"?><svg xmlns="http://www.w3.org/2000/svg" xmlns:xlink="http://www.w3.org/1999/xlink" contentScriptType="application/ecmascript" contentStyleType="text/css" height="230px" preserveAspectRatio="none" style="width:312px;height:230px;" version="1.1" viewBox="0 0 312 230" width="312px" zoomAndPan="magnify"><defs><filter height="300%" id="f1l18eagjobkpw" width="300%" x="-1" y="-1"><feGaussianBlur result="blurOut" stdDeviation="2.0"/><feColorMatrix in="blurOut" result="blurOut2" type="matrix" values="0 0 0 0 0 0 0 0 0 0 0 0 0 0 0 0 0 0 .4 0"/><feOffset dx="4.0" dy="4.0" in="blurOut2" result="blurOut3"/><feBlend in="SourceGraphic" in2="blurOut3" mode="normal"/></filter></defs><g><!--class IConfigurationObject--><rect fill="#FEFECE" filter="url(#f1l18eagjobkpw)" height="103.3438" id="IConfigurationObject" style="stroke: #A80036; stroke-width: 1.5;" width="146" x="64.5" y="116"/><ellipse cx="79.5" cy="132" fill="#B4A7E5" rx="11" ry="11" style="stroke: #A80036; stroke-width: 1.0;"/><path d="M80.4531,128.6406 L80.4531,135.2969 L82.1719,135.2969 Q82.7813,135.2969 83.0469,135.5313 Q83.3125,135.7656 83.3125,136.1563 Q83.3125,136.5313 83.0469,136.7656 Q82.7813,137 82.1719,137 L77.0313,137 Q76.4219,137 76.1563,136.7656 Q75.8906,136.5313 75.8906,136.1406 Q75.8906,135.7656 76.1563,135.5313 Q76.4219,135.2969 77.0313,135.2969 L78.75,135.2969 L78.75,128.6406 L77.0313,128.6406 Q76.4219,128.6406 76.1563,128.4063 Q75.8906,128.1719 75.8906,127.7813 Q75.8906,127.4063 76.1563,127.1719 Q76.4219,126.9375 77.0313,126.9375 L82.1719,126.9375 Q82.7813,126.9375 83.0469,127.1719 Q83.3125,127.4063 83.3125,127.7813 Q83.3125,128.1719 83.0469,128.4063 Q82.7813,128.6406 82.1719,128.6406 L80.4531,128.6406 Z "/><text fill="#000000" font-family="sans-serif" font-size="12" font-style="italic" lengthAdjust="spacingAndGlyphs" textLength="114" x="93.5" y="136.9102">IConfigurationObject</text><line style="stroke: #A80036; stroke-width: 1.5;" x1="65.5" x2="209.5" y1="148" y2="148"/><text fill="#000000" font-family="sans-serif" font-size="11" lengthAdjust="spacingAndGlyphs" textLength="89" x="70.5" y="163.4189">IsDirty : bool «get»</text><line style="stroke: #A80036; stroke-width: 1.5;" x1="65.5" x2="209.5" y1="169.8359" y2="169.8359"/><text fill="#000000" font-family="sans-serif" font-size="11" lengthAdjust="spacingAndGlyphs" textLength="67" x="70.5" y="185.2549">Delete() : void</text><text fill="#000000" font-family="sans-serif" font-size="11" lengthAdjust="spacingAndGlyphs" textLength="61" x="70.5" y="199.0908">Load() : void</text><text fill="#000000" font-family="sans-serif" font-size="11" lengthAdjust="spacingAndGlyphs" textLength="62" x="70.5" y="212.9268">Save() : void</text><!--class IDisposable--><rect fill="#FEFECE" filter="url(#f1l18eagjobkpw)" height="48" id="IDisposable" style="stroke: #A80036; stroke-width: 1.5;" width="99" x="6" y="8"/><ellipse cx="21" cy="24" fill="#ADD1B2" rx="11" ry="11" style="stroke: #A80036; stroke-width: 1.0;"/><path d="M23.7656,19.875 Q23.9219,19.6563 24.1094,19.5469 Q24.2969,19.4375 24.5156,19.4375 Q24.8906,19.4375 25.125,19.7031 Q25.3594,19.9531 25.3594,20.5625 L25.3594,22.0156 Q25.3594,22.625 25.125,22.8906 Q24.8906,23.1563 24.5156,23.1563 Q24.1719,23.1563 23.9688,22.9531 Q23.7656,22.7656 23.6563,22.25 Q23.6094,21.8906 23.4219,21.7031 Q23.0938,21.3281 22.4844,21.1094 Q21.875,20.8906 21.25,20.8906 Q20.4844,20.8906 19.8438,21.2188 Q19.2188,21.5469 18.7188,22.2969 Q18.2344,23.0469 18.2344,24.0781 L18.2344,25.1719 Q18.2344,26.4063 19.125,27.2344 Q20.0156,28.0469 21.6094,28.0469 Q22.5469,28.0469 23.2031,27.7969 Q23.5938,27.6406 24.0156,27.2031 Q24.2813,26.9375 24.4219,26.8594 Q24.5781,26.7813 24.7813,26.7813 Q25.1094,26.7813 25.3594,27.0469 Q25.625,27.2969 25.625,27.6406 Q25.625,27.9844 25.2813,28.3906 Q24.7813,28.9688 23.9844,29.2969 Q22.9063,29.75 21.6094,29.75 Q20.0938,29.75 18.8906,29.125 Q17.9063,28.625 17.2188,27.5625 Q16.5313,26.4844 16.5313,25.2031 L16.5313,24.0469 Q16.5313,22.7188 17.1406,21.5781 Q17.7656,20.4219 18.8594,19.8125 Q19.9531,19.1875 21.1875,19.1875 Q21.9219,19.1875 22.5625,19.3594 Q23.2188,19.5156 23.7656,19.875 Z "/><text fill="#000000" font-family="sans-serif" font-size="12" lengthAdjust="spacingAndGlyphs" textLength="67" x="35" y="28.9102">IDisposable</text><line style="stroke: #A80036; stroke-width: 1.5;" x1="7" x2="104" y1="40" y2="40"/><line style="stroke: #A80036; stroke-width: 1.5;" x1="7" x2="104" y1="48" y2="48"/><!--class INotifyPropertyChanged--><rect fill="#FEFECE" filter="url(#f1l18eagjobkpw)" height="48" id="INotifyPropertyChanged" style="stroke: #A80036; stroke-width: 1.5;" width="161" x="140" y="8"/><ellipse cx="155" cy="24" fill="#ADD1B2" rx="11" ry="11" style="stroke: #A80036; stroke-width: 1.0;"/><path d="M157.7656,19.875 Q157.9219,19.6563 158.1094,19.5469 Q158.2969,19.4375 158.5156,19.4375 Q158.8906,19.4375 159.125,19.7031 Q159.3594,19.9531 159.3594,20.5625 L159.3594,22.0156 Q159.3594,22.625 159.125,22.8906 Q158.8906,23.1563 158.5156,23.1563 Q158.1719,23.1563 157.9688,22.9531 Q157.7656,22.7656 157.6563,22.25 Q157.6094,21.8906 157.4219,21.7031 Q157.0938,21.3281 156.4844,21.1094 Q155.875,20.8906 155.25,20.8906 Q154.4844,20.8906 153.8438,21.2188 Q153.2188,21.5469 152.7188,22.2969 Q152.2344,23.0469 152.2344,24.0781 L152.2344,25.1719 Q152.2344,26.4063 153.125,27.2344 Q154.0156,28.0469 155.6094,28.0469 Q156.5469,28.0469 157.2031,27.7969 Q157.5938,27.6406 158.0156,27.2031 Q158.2813,26.9375 158.4219,26.8594 Q158.5781,26.7813 158.7813,26.7813 Q159.1094,26.7813 159.3594,27.0469 Q159.625,27.2969 159.625,27.6406 Q159.625,27.9844 159.2813,28.3906 Q158.7813,28.9688 157.9844,29.2969 Q156.9063,29.75 155.6094,29.75 Q154.0938,29.75 152.8906,29.125 Q151.9063,28.625 151.2188,27.5625 Q150.5313,26.4844 150.5313,25.2031 L150.5313,24.0469 Q150.5313,22.7188 151.1406,21.5781 Q151.7656,20.4219 152.8594,19.8125 Q153.9531,19.1875 155.1875,19.1875 Q155.9219,19.1875 156.5625,19.3594 Q157.2188,19.5156 157.7656,19.875 Z "/><text fill="#000000" font-family="sans-serif" font-size="12" lengthAdjust="spacingAndGlyphs" textLength="129" x="169" y="28.9102">INotifyPropertyChanged</text><line style="stroke: #A80036; stroke-width: 1.5;" x1="141" x2="300" y1="40" y2="40"/><line style="stroke: #A80036; stroke-width: 1.5;" x1="141" x2="300" y1="48" y2="48"/><!--reverse link IDisposable to IConfigurationObject--><path d="M80.4926,73.689 C88.6611,86.988 97.8353,101.924 106.397,115.863 " fill="none" id="IDisposable&lt;-IConfigurationObject" style="stroke: #A80036; stroke-width: 1.0;"/><polygon fill="none" points="74.2864,76.96,69.7833,56.254,86.2157,69.632,74.2864,76.96" style="stroke: #A80036; stroke-width: 1.0;"/><!--reverse link INotifyPropertyChanged to IConfigurationObject--><path d="M195.203,73.689 C186.934,86.988 177.648,101.924 168.982,115.863 " fill="none" id="INotifyPropertyChanged&lt;-IConfigurationObject" style="stroke: #A80036; stroke-width: 1.0;"/><polygon fill="none" points="189.538,69.543,206.043,56.254,201.427,76.935,189.538,69.543" style="stroke: #A80036; stroke-width: 1.0;"/><!--
@startuml
interface IConfigurationObject {
    IsDirty : bool <<get>>
    Delete() : void
    Load() : void
    Save() : void
}
IDisposable <|- - IConfigurationObject
INotifyPropertyChanged <|- - IConfigurationObject
@enduml

PlantUML version 1.2019.09(Mon Aug 26 17:19:51 BST 2019)
(GPL source distribution)
Java Runtime: OpenJDK Runtime Environment
JVM: OpenJDK 64-Bit Server VM
Java Version: 13.0.2+8
Operating System: Windows 10
OS Version: 10.0
Default Encoding: Cp1252
Language: en
Country: GB
--></g></svg>