<?xml version="1.0" encoding="UTF-8" standalone="no"?><svg xmlns="http://www.w3.org/2000/svg" xmlns:xlink="http://www.w3.org/1999/xlink" contentScriptType="application/ecmascript" contentStyleType="text/css" height="300px" preserveAspectRatio="none" style="width:716px;height:300px;" version="1.1" viewBox="0 0 716 300" width="716px" zoomAndPan="magnify"><defs><filter height="300%" id="f1w3t8zxryrtm0" width="300%" x="-1" y="-1"><feGaussianBlur result="blurOut" stdDeviation="2.0"/><feColorMatrix in="blurOut" result="blurOut2" type="matrix" values="0 0 0 0 0 0 0 0 0 0 0 0 0 0 0 0 0 0 .4 0"/><feOffset dx="4.0" dy="4.0" in="blurOut2" result="blurOut3"/><feBlend in="SourceGraphic" in2="blurOut3" mode="normal"/></filter></defs><g><!--class IPropertyDef--><rect fill="#FEFECE" filter="url(#f1w3t8zxryrtm0)" height="172.5234" id="IPropertyDef" style="stroke: #A80036; stroke-width: 1.5;" width="681" x="24.7716" y="8"/><ellipse cx="326.5216" cy="24" fill="#B4A7E5" rx="11" ry="11" style="stroke: #A80036; stroke-width: 1.0;"/><path d="M327.4747,20.6406 L327.4747,27.2969 L329.1935,27.2969 Q329.8029,27.2969 330.0685,27.5313 Q330.3341,27.7656 330.3341,28.1563 Q330.3341,28.5313 330.0685,28.7656 Q329.8029,29 329.1935,29 L324.0529,29 Q323.4435,29 323.1779,28.7656 Q322.9122,28.5313 322.9122,28.1406 Q322.9122,27.7656 323.1779,27.5313 Q323.4435,27.2969 324.0529,27.2969 L325.7716,27.2969 L325.7716,20.6406 L324.0529,20.6406 Q323.4435,20.6406 323.1779,20.4063 Q322.9122,20.1719 322.9122,19.7813 Q322.9122,19.4063 323.1779,19.1719 Q323.4435,18.9375 324.0529,18.9375 L329.1935,18.9375 Q329.8029,18.9375 330.0685,19.1719 Q330.3341,19.4063 330.3341,19.7813 Q330.3341,20.1719 330.0685,20.4063 Q329.8029,20.6406 329.1935,20.6406 L327.4747,20.6406 Z "/><text fill="#000000" font-family="sans-serif" font-size="12" font-style="italic" lengthAdjust="spacingAndGlyphs" textLength="69" x="347.0216" y="28.9102">IPropertyDef</text><line style="stroke: #A80036; stroke-width: 1.5;" x1="25.7716" x2="704.7716" y1="40" y2="40"/><text fill="#000000" font-family="sans-serif" font-size="11" lengthAdjust="spacingAndGlyphs" textLength="136" x="30.7716" y="55.4189">DefaultValue : object? «get»</text><text fill="#000000" font-family="sans-serif" font-size="11" lengthAdjust="spacingAndGlyphs" textLength="224" x="30.7716" y="69.2549">ElementImplementation : IImplementation? «get»</text><text fill="#000000" font-family="sans-serif" font-size="11" lengthAdjust="spacingAndGlyphs" textLength="140" x="30.7716" y="83.0908">HasDefaultValue : bool «get»</text><text fill="#000000" font-family="sans-serif" font-size="11" lengthAdjust="spacingAndGlyphs" textLength="114" x="30.7716" y="96.9268">IsReadOnly : bool «get»</text><text fill="#000000" font-family="sans-serif" font-size="11" lengthAdjust="spacingAndGlyphs" textLength="134" x="30.7716" y="110.7627">PropertyName : string «get»</text><line style="stroke: #A80036; stroke-width: 1.5;" x1="25.7716" x2="704.7716" y1="117.1797" y2="117.1797"/><text fill="#000000" font-family="sans-serif" font-size="11" lengthAdjust="spacingAndGlyphs" textLength="246" x="44.7716" y="132.5986">CalculatePath(parent:IConfigurationParent?) : string</text><text fill="#000000" font-family="sans-serif" font-size="11" lengthAdjust="spacingAndGlyphs" textLength="351" x="44.7716" y="146.4346">ConvertStringToValue(path:string, stringRepresentation:string?) : object?</text><text fill="#000000" font-family="sans-serif" font-size="11" lengthAdjust="spacingAndGlyphs" textLength="220" x="44.7716" y="160.2705">ConvertValueToString(value:object?) : string?</text><ellipse cx="35.7716" cy="169.6875" fill="#84BE84" rx="3" ry="3" style="stroke: #038048; stroke-width: 1.0;"/><text fill="#000000" font-family="sans-serif" font-size="11" lengthAdjust="spacingAndGlyphs" textLength="655" x="44.7716" y="174.1064">CopyValue(implementation:IImplementation, value:TElement, parent:IConfigurationParent, configurationRoot:IConfigurationRoot) : TElement</text><!--class IImplementation--><rect fill="#FEFECE" filter="url(#f1w3t8zxryrtm0)" height="48" id="IImplementation" style="stroke: #A80036; stroke-width: 1.5;" width="121" x="7.7716" y="241"/><ellipse cx="22.7716" cy="257" fill="#ADD1B2" rx="11" ry="11" style="stroke: #A80036; stroke-width: 1.0;"/><path d="M25.5372,252.875 Q25.6935,252.6563 25.881,252.5469 Q26.0685,252.4375 26.2872,252.4375 Q26.6622,252.4375 26.8966,252.7031 Q27.131,252.9531 27.131,253.5625 L27.131,255.0156 Q27.131,255.625 26.8966,255.8906 Q26.6622,256.1563 26.2872,256.1563 Q25.9435,256.1563 25.7404,255.9531 Q25.5372,255.7656 25.4279,255.25 Q25.381,254.8906 25.1935,254.7031 Q24.8654,254.3281 24.256,254.1094 Q23.6466,253.8906 23.0216,253.8906 Q22.256,253.8906 21.6154,254.2188 Q20.9904,254.5469 20.4904,255.2969 Q20.006,256.0469 20.006,257.0781 L20.006,258.1719 Q20.006,259.4063 20.8966,260.2344 Q21.7872,261.0469 23.381,261.0469 Q24.3185,261.0469 24.9747,260.7969 Q25.3654,260.6406 25.7872,260.2031 Q26.0529,259.9375 26.1935,259.8594 Q26.3497,259.7813 26.5529,259.7813 Q26.881,259.7813 27.131,260.0469 Q27.3966,260.2969 27.3966,260.6406 Q27.3966,260.9844 27.0529,261.3906 Q26.5529,261.9688 25.756,262.2969 Q24.6779,262.75 23.381,262.75 Q21.8654,262.75 20.6622,262.125 Q19.6779,261.625 18.9904,260.5625 Q18.3029,259.4844 18.3029,258.2031 L18.3029,257.0469 Q18.3029,255.7188 18.9122,254.5781 Q19.5372,253.4219 20.631,252.8125 Q21.7247,252.1875 22.9591,252.1875 Q23.6935,252.1875 24.3341,252.3594 Q24.9904,252.5156 25.5372,252.875 Z "/><text fill="#000000" font-family="sans-serif" font-size="12" lengthAdjust="spacingAndGlyphs" textLength="89" x="36.7716" y="261.9102">IImplementation</text><line style="stroke: #A80036; stroke-width: 1.5;" x1="8.7716" x2="127.7716" y1="273" y2="273"/><line style="stroke: #A80036; stroke-width: 1.5;" x1="8.7716" x2="127.7716" y1="281" y2="281"/><!--class ConfigurationPersistenceActions--><rect fill="#FEFECE" filter="url(#f1w3t8zxryrtm0)" height="48" id="ConfigurationPersistenceActions" style="stroke: #A80036; stroke-width: 1.5;" width="212" x="164.2716" y="241"/><ellipse cx="179.2716" cy="257" fill="#ADD1B2" rx="11" ry="11" style="stroke: #A80036; stroke-width: 1.0;"/><path d="M182.0372,252.875 Q182.1935,252.6563 182.381,252.5469 Q182.5685,252.4375 182.7872,252.4375 Q183.1622,252.4375 183.3966,252.7031 Q183.631,252.9531 183.631,253.5625 L183.631,255.0156 Q183.631,255.625 183.3966,255.8906 Q183.1622,256.1563 182.7872,256.1563 Q182.4435,256.1563 182.2404,255.9531 Q182.0372,255.7656 181.9279,255.25 Q181.881,254.8906 181.6935,254.7031 Q181.3654,254.3281 180.756,254.1094 Q180.1466,253.8906 179.5216,253.8906 Q178.756,253.8906 178.1154,254.2188 Q177.4904,254.5469 176.9904,255.2969 Q176.506,256.0469 176.506,257.0781 L176.506,258.1719 Q176.506,259.4063 177.3966,260.2344 Q178.2872,261.0469 179.881,261.0469 Q180.8185,261.0469 181.4747,260.7969 Q181.8654,260.6406 182.2872,260.2031 Q182.5529,259.9375 182.6935,259.8594 Q182.8497,259.7813 183.0529,259.7813 Q183.381,259.7813 183.631,260.0469 Q183.8966,260.2969 183.8966,260.6406 Q183.8966,260.9844 183.5529,261.3906 Q183.0529,261.9688 182.256,262.2969 Q181.1779,262.75 179.881,262.75 Q178.3654,262.75 177.1622,262.125 Q176.1779,261.625 175.4904,260.5625 Q174.8029,259.4844 174.8029,258.2031 L174.8029,257.0469 Q174.8029,255.7188 175.4122,254.5781 Q176.0372,253.4219 177.131,252.8125 Q178.2247,252.1875 179.4591,252.1875 Q180.1935,252.1875 180.8341,252.3594 Q181.4904,252.5156 182.0372,252.875 Z "/><text fill="#000000" font-family="sans-serif" font-size="12" lengthAdjust="spacingAndGlyphs" textLength="180" x="193.2716" y="261.9102">ConfigurationPersistenceActions</text><line style="stroke: #A80036; stroke-width: 1.5;" x1="165.2716" x2="375.2716" y1="273" y2="273"/><line style="stroke: #A80036; stroke-width: 1.5;" x1="165.2716" x2="375.2716" y1="281" y2="281"/><!--class PropertyInfo--><rect fill="#FEFECE" filter="url(#f1w3t8zxryrtm0)" height="48" id="PropertyInfo" style="stroke: #A80036; stroke-width: 1.5;" width="97" x="411.7716" y="241"/><ellipse cx="426.7716" cy="257" fill="#ADD1B2" rx="11" ry="11" style="stroke: #A80036; stroke-width: 1.0;"/><path d="M429.5372,252.875 Q429.6935,252.6563 429.881,252.5469 Q430.0685,252.4375 430.2872,252.4375 Q430.6622,252.4375 430.8966,252.7031 Q431.131,252.9531 431.131,253.5625 L431.131,255.0156 Q431.131,255.625 430.8966,255.8906 Q430.6622,256.1563 430.2872,256.1563 Q429.9435,256.1563 429.7404,255.9531 Q429.5372,255.7656 429.4279,255.25 Q429.381,254.8906 429.1935,254.7031 Q428.8654,254.3281 428.256,254.1094 Q427.6466,253.8906 427.0216,253.8906 Q426.256,253.8906 425.6154,254.2188 Q424.9904,254.5469 424.4904,255.2969 Q424.006,256.0469 424.006,257.0781 L424.006,258.1719 Q424.006,259.4063 424.8966,260.2344 Q425.7872,261.0469 427.381,261.0469 Q428.3185,261.0469 428.9747,260.7969 Q429.3654,260.6406 429.7872,260.2031 Q430.0529,259.9375 430.1935,259.8594 Q430.3497,259.7813 430.5529,259.7813 Q430.881,259.7813 431.131,260.0469 Q431.3966,260.2969 431.3966,260.6406 Q431.3966,260.9844 431.0529,261.3906 Q430.5529,261.9688 429.756,262.2969 Q428.6779,262.75 427.381,262.75 Q425.8654,262.75 424.6622,262.125 Q423.6779,261.625 422.9904,260.5625 Q422.3029,259.4844 422.3029,258.2031 L422.3029,257.0469 Q422.3029,255.7188 422.9122,254.5781 Q423.5372,253.4219 424.631,252.8125 Q425.7247,252.1875 426.9591,252.1875 Q427.6935,252.1875 428.3341,252.3594 Q428.9904,252.5156 429.5372,252.875 Z "/><text fill="#000000" font-family="sans-serif" font-size="12" lengthAdjust="spacingAndGlyphs" textLength="65" x="440.7716" y="261.9102">PropertyInfo</text><line style="stroke: #A80036; stroke-width: 1.5;" x1="412.7716" x2="507.7716" y1="273" y2="273"/><line style="stroke: #A80036; stroke-width: 1.5;" x1="412.7716" x2="507.7716" y1="281" y2="281"/><!--class Type--><rect fill="#FEFECE" filter="url(#f1w3t8zxryrtm0)" height="48" id="Type" style="stroke: #A80036; stroke-width: 1.5;" width="58" x="544.2716" y="241"/><ellipse cx="559.2716" cy="257" fill="#ADD1B2" rx="11" ry="11" style="stroke: #A80036; stroke-width: 1.0;"/><path d="M562.0372,252.875 Q562.1935,252.6563 562.381,252.5469 Q562.5685,252.4375 562.7872,252.4375 Q563.1622,252.4375 563.3966,252.7031 Q563.631,252.9531 563.631,253.5625 L563.631,255.0156 Q563.631,255.625 563.3966,255.8906 Q563.1622,256.1563 562.7872,256.1563 Q562.4435,256.1563 562.2404,255.9531 Q562.0372,255.7656 561.9279,255.25 Q561.881,254.8906 561.6935,254.7031 Q561.3654,254.3281 560.756,254.1094 Q560.1466,253.8906 559.5216,253.8906 Q558.756,253.8906 558.1154,254.2188 Q557.4904,254.5469 556.9904,255.2969 Q556.506,256.0469 556.506,257.0781 L556.506,258.1719 Q556.506,259.4063 557.3966,260.2344 Q558.2872,261.0469 559.881,261.0469 Q560.8185,261.0469 561.4747,260.7969 Q561.8654,260.6406 562.2872,260.2031 Q562.5529,259.9375 562.6935,259.8594 Q562.8497,259.7813 563.0529,259.7813 Q563.381,259.7813 563.631,260.0469 Q563.8966,260.2969 563.8966,260.6406 Q563.8966,260.9844 563.5529,261.3906 Q563.0529,261.9688 562.256,262.2969 Q561.1779,262.75 559.881,262.75 Q558.3654,262.75 557.1622,262.125 Q556.1779,261.625 555.4904,260.5625 Q554.8029,259.4844 554.8029,258.2031 L554.8029,257.0469 Q554.8029,255.7188 555.4122,254.5781 Q556.0372,253.4219 557.131,252.8125 Q558.2247,252.1875 559.4591,252.1875 Q560.1935,252.1875 560.8341,252.3594 Q561.4904,252.5156 562.0372,252.875 Z "/><text fill="#000000" font-family="sans-serif" font-size="12" lengthAdjust="spacingAndGlyphs" textLength="26" x="573.2716" y="261.9102">Type</text><line style="stroke: #A80036; stroke-width: 1.5;" x1="545.2716" x2="601.2716" y1="273" y2="273"/><line style="stroke: #A80036; stroke-width: 1.5;" x1="545.2716" x2="601.2716" y1="281" y2="281"/><!--link IPropertyDef to IImplementation--><path d="M214.1616,181.231 C177.4506,202.0583 140.9526,222.765 113.6456,238.2577 " fill="none" id="IPropertyDef-&gt;IImplementation" style="stroke: #A80036; stroke-width: 1.0;"/><polygon fill="#A80036" points="108.9996,240.8931,118.8014,239.9313,113.3485,238.4259,114.8539,232.9731,108.9996,240.8931" style="stroke: #A80036; stroke-width: 1.0;"/><text fill="#000000" font-family="sans-serif" font-size="13" lengthAdjust="spacingAndGlyphs" textLength="88" x="20.1617" y="230.2059">Implementation</text><!--link IPropertyDef to ConfigurationPersistenceActions--><path d="M316.9366,181.231 C305.7206,201.124 294.5676,220.907 285.9776,236.1417 " fill="none" id="IPropertyDef-&gt;ConfigurationPersistenceActions" style="stroke: #A80036; stroke-width: 1.0;"/><polygon fill="#A80036" points="283.3976,240.7187,291.3019,234.8431,285.8531,236.3632,284.333,230.9144,283.3976,240.7187" style="stroke: #A80036; stroke-width: 1.0;"/><text fill="#000000" font-family="sans-serif" font-size="13" lengthAdjust="spacingAndGlyphs" textLength="69" x="208.9205" y="229.9868">Persistence</text><!--link IPropertyDef to PropertyInfo--><path d="M413.6066,181.231 C424.8226,201.124 435.9756,220.907 444.5656,236.1417 " fill="none" id="IPropertyDef-&gt;PropertyInfo" style="stroke: #A80036; stroke-width: 1.0;"/><polygon fill="#A80036" points="447.1456,240.7187,446.2102,230.9144,444.6901,236.3632,439.2413,234.8431,447.1456,240.7187" style="stroke: #A80036; stroke-width: 1.0;"/><text fill="#000000" font-family="sans-serif" font-size="13" lengthAdjust="spacingAndGlyphs" textLength="69" x="375.568" y="229.9582">PropertyInfo</text><!--link IPropertyDef to Type--><path d="M471.0996,181.231 C496.2916,201.6385 521.3396,221.9302 540.3306,237.3144 " fill="none" id="IPropertyDef-&gt;Type" style="stroke: #A80036; stroke-width: 1.0;"/><polygon fill="#A80036" points="544.5326,240.7187,540.0587,231.9446,540.648,237.5707,535.0219,238.16,544.5326,240.7187" style="stroke: #A80036; stroke-width: 1.0;"/><text fill="#000000" font-family="sans-serif" font-size="13" lengthAdjust="spacingAndGlyphs" textLength="28" x="508.115" y="231.4105">Type</text><!--
@startuml
interface IPropertyDef {
    DefaultValue : object? <<get>>
    ElementImplementation : IImplementation? <<get>>
    HasDefaultValue : bool <<get>>
    IsReadOnly : bool <<get>>
    PropertyName : string <<get>>
    CalculatePath(parent:IConfigurationParent?) : string
    ConvertStringToValue(path:string, stringRepresentation:string?) : object?
    ConvertValueToString(value:object?) : string?
    + CopyValue(implementation:IImplementation, value:TElement, parent:IConfigurationParent, configurationRoot:IConfigurationRoot) : TElement
}
IPropertyDef - -> "Implementation" IImplementation
IPropertyDef - -> "Persistence" ConfigurationPersistenceActions
IPropertyDef - -> "PropertyInfo" PropertyInfo
IPropertyDef - -> "Type" Type
@enduml

PlantUML version 1.2019.09(Mon Aug 26 17:19:51 BST 2019)
(GPL source distribution)
Java Runtime: OpenJDK Runtime Environment
JVM: OpenJDK 64-Bit Server VM
Java Version: 13.0.2+8
Operating System: Windows 10
OS Version: 10.0
Default Encoding: Cp1252
Language: en
Country: GB
--></g></svg>