<?xml version="1.0" encoding="UTF-8" standalone="no"?><svg xmlns="http://www.w3.org/2000/svg" xmlns:xlink="http://www.w3.org/1999/xlink" contentScriptType="application/ecmascript" contentStyleType="text/css" height="333px" preserveAspectRatio="none" style="width:946px;height:333px;" version="1.1" viewBox="0 0 946 333" width="946px" zoomAndPan="magnify"><defs><filter height="300%" id="fpg4r9k6998q" width="300%" x="-1" y="-1"><feGaussianBlur result="blurOut" stdDeviation="2.0"/><feColorMatrix in="blurOut" result="blurOut2" type="matrix" values="0 0 0 0 0 0 0 0 0 0 0 0 0 0 0 0 0 0 .4 0"/><feOffset dx="4.0" dy="4.0" in="blurOut2" result="blurOut3"/><feBlend in="SourceGraphic" in2="blurOut3" mode="normal"/></filter></defs><g><!--class ReadOnlyConfigurationDictionary`1--><rect fill="#FEFECE" filter="url(#fpg4r9k6998q)" height="97.6953" id="ReadOnlyConfigurationDictionary`1" style="stroke: #A80036; stroke-width: 1.5;" width="920" x="6" y="116"/><ellipse cx="336.75" cy="136.0938" fill="#ADD1B2" rx="11" ry="11" style="stroke: #A80036; stroke-width: 1.0;"/><path d="M339.5156,131.9688 Q339.6719,131.75 339.8594,131.6406 Q340.0469,131.5313 340.2656,131.5313 Q340.6406,131.5313 340.875,131.7969 Q341.1094,132.0469 341.1094,132.6563 L341.1094,134.1094 Q341.1094,134.7188 340.875,134.9844 Q340.6406,135.25 340.2656,135.25 Q339.9219,135.25 339.7188,135.0469 Q339.5156,134.8594 339.4063,134.3438 Q339.3594,133.9844 339.1719,133.7969 Q338.8438,133.4219 338.2344,133.2031 Q337.625,132.9844 337,132.9844 Q336.2344,132.9844 335.5938,133.3125 Q334.9688,133.6406 334.4688,134.3906 Q333.9844,135.1406 333.9844,136.1719 L333.9844,137.2656 Q333.9844,138.5 334.875,139.3281 Q335.7656,140.1406 337.3594,140.1406 Q338.2969,140.1406 338.9531,139.8906 Q339.3438,139.7344 339.7656,139.2969 Q340.0313,139.0313 340.1719,138.9531 Q340.3281,138.875 340.5313,138.875 Q340.8594,138.875 341.1094,139.1406 Q341.375,139.3906 341.375,139.7344 Q341.375,140.0781 341.0313,140.4844 Q340.5313,141.0625 339.7344,141.3906 Q338.6563,141.8438 337.3594,141.8438 Q335.8438,141.8438 334.6406,141.2188 Q333.6563,140.7188 332.9688,139.6563 Q332.2813,138.5781 332.2813,137.2969 L332.2813,136.1406 Q332.2813,134.8125 332.8906,133.6719 Q333.5156,132.5156 334.6094,131.9063 Q335.7031,131.2813 336.9375,131.2813 Q337.6719,131.2813 338.3125,131.4531 Q338.9688,131.6094 339.5156,131.9688 Z "/><text fill="#000000" font-family="sans-serif" font-size="12" font-style="italic" lengthAdjust="spacingAndGlyphs" textLength="51" x="428.25" y="133.457">«sealed»</text><text fill="#000000" font-family="sans-serif" font-size="12" lengthAdjust="spacingAndGlyphs" textLength="193" x="357.25" y="148.5508">ReadOnlyConfigurationDictionary`1</text><rect fill="#FFFFFF" height="17.0938" style="stroke: #000000; stroke-width: 1.0; stroke-dasharray: 2.0,2.0;" width="55" x="874" y="113"/><text fill="#000000" font-family="sans-serif" font-size="12" font-style="italic" lengthAdjust="spacingAndGlyphs" textLength="53" x="875" y="126.457">TElement</text><line style="stroke: #A80036; stroke-width: 1.5;" x1="7" x2="925" y1="156.1875" y2="156.1875"/><line style="stroke: #A80036; stroke-width: 1.5;" x1="7" x2="925" y1="164.1875" y2="164.1875"/><ellipse cx="17" cy="175.1875" fill="#84BE84" rx="3" ry="3" style="stroke: #038048; stroke-width: 1.0;"/><text fill="#000000" font-family="sans-serif" font-size="11" lengthAdjust="spacingAndGlyphs" textLength="894" x="26" y="179.6064">ReadOnlyConfigurationDictionary(parent:IConfigurationParent?, propertyDef:IPropertyDef, configurationRoot:IConfigurationRoot, elements:IEnumerable&lt;KeyValuePair&lt;string, TElement&gt;&gt;?)</text><ellipse cx="17" cy="189.0234" fill="#84BE84" rx="3" ry="3" style="stroke: #038048; stroke-width: 1.0;"/><text fill="#000000" font-family="sans-serif" font-size="11" lengthAdjust="spacingAndGlyphs" textLength="830" x="26" y="193.4424">ReadOnlyConfigurationDictionary(parent:IConfigurationParent?, propertyDef:IPropertyDef, configurationRoot:IConfigurationRoot, elements:KeyValuePair&lt;string, TElement&gt;[]?)</text><text fill="#000000" font-family="sans-serif" font-size="11" lengthAdjust="spacingAndGlyphs" textLength="146" x="26" y="207.2783">GetEnumerator() : IEnumerator</text><!--class ConfigurationDictionary`1--><rect fill="#FEFECE" filter="url(#fpg4r9k6998q)" height="48" id="ConfigurationDictionary`1" style="stroke: #A80036; stroke-width: 1.5;" width="182" x="252" y="8"/><ellipse cx="267" cy="24" fill="#ADD1B2" rx="11" ry="11" style="stroke: #A80036; stroke-width: 1.0;"/><path d="M269.7656,19.875 Q269.9219,19.6563 270.1094,19.5469 Q270.2969,19.4375 270.5156,19.4375 Q270.8906,19.4375 271.125,19.7031 Q271.3594,19.9531 271.3594,20.5625 L271.3594,22.0156 Q271.3594,22.625 271.125,22.8906 Q270.8906,23.1563 270.5156,23.1563 Q270.1719,23.1563 269.9688,22.9531 Q269.7656,22.7656 269.6563,22.25 Q269.6094,21.8906 269.4219,21.7031 Q269.0938,21.3281 268.4844,21.1094 Q267.875,20.8906 267.25,20.8906 Q266.4844,20.8906 265.8438,21.2188 Q265.2188,21.5469 264.7188,22.2969 Q264.2344,23.0469 264.2344,24.0781 L264.2344,25.1719 Q264.2344,26.4063 265.125,27.2344 Q266.0156,28.0469 267.6094,28.0469 Q268.5469,28.0469 269.2031,27.7969 Q269.5938,27.6406 270.0156,27.2031 Q270.2813,26.9375 270.4219,26.8594 Q270.5781,26.7813 270.7813,26.7813 Q271.1094,26.7813 271.3594,27.0469 Q271.625,27.2969 271.625,27.6406 Q271.625,27.9844 271.2813,28.3906 Q270.7813,28.9688 269.9844,29.2969 Q268.9063,29.75 267.6094,29.75 Q266.0938,29.75 264.8906,29.125 Q263.9063,28.625 263.2188,27.5625 Q262.5313,26.4844 262.5313,25.2031 L262.5313,24.0469 Q262.5313,22.7188 263.1406,21.5781 Q263.7656,20.4219 264.8594,19.8125 Q265.9531,19.1875 267.1875,19.1875 Q267.9219,19.1875 268.5625,19.3594 Q269.2188,19.5156 269.7656,19.875 Z "/><text fill="#000000" font-family="sans-serif" font-size="12" lengthAdjust="spacingAndGlyphs" textLength="139" x="281" y="28.9102">ConfigurationDictionary`1</text><rect fill="#FFFFFF" height="17.0938" style="stroke: #000000; stroke-width: 1.0; stroke-dasharray: 2.0,2.0;" width="9" x="428" y="5"/><text fill="#000000" font-family="sans-serif" font-size="12" font-style="italic" lengthAdjust="spacingAndGlyphs" textLength="7" x="429" y="18.457">T</text><line style="stroke: #A80036; stroke-width: 1.5;" x1="253" x2="433" y1="40" y2="40"/><line style="stroke: #A80036; stroke-width: 1.5;" x1="253" x2="433" y1="48" y2="48"/><!--class IReadOnlyConfigurationDictionary`1--><rect fill="#FEFECE" filter="url(#fpg4r9k6998q)" height="48" id="IReadOnlyConfigurationDictionary`1" style="stroke: #A80036; stroke-width: 1.5;" width="239" x="469.5" y="8"/><ellipse cx="484.5" cy="24" fill="#ADD1B2" rx="11" ry="11" style="stroke: #A80036; stroke-width: 1.0;"/><path d="M487.2656,19.875 Q487.4219,19.6563 487.6094,19.5469 Q487.7969,19.4375 488.0156,19.4375 Q488.3906,19.4375 488.625,19.7031 Q488.8594,19.9531 488.8594,20.5625 L488.8594,22.0156 Q488.8594,22.625 488.625,22.8906 Q488.3906,23.1563 488.0156,23.1563 Q487.6719,23.1563 487.4688,22.9531 Q487.2656,22.7656 487.1563,22.25 Q487.1094,21.8906 486.9219,21.7031 Q486.5938,21.3281 485.9844,21.1094 Q485.375,20.8906 484.75,20.8906 Q483.9844,20.8906 483.3438,21.2188 Q482.7188,21.5469 482.2188,22.2969 Q481.7344,23.0469 481.7344,24.0781 L481.7344,25.1719 Q481.7344,26.4063 482.625,27.2344 Q483.5156,28.0469 485.1094,28.0469 Q486.0469,28.0469 486.7031,27.7969 Q487.0938,27.6406 487.5156,27.2031 Q487.7813,26.9375 487.9219,26.8594 Q488.0781,26.7813 488.2813,26.7813 Q488.6094,26.7813 488.8594,27.0469 Q489.125,27.2969 489.125,27.6406 Q489.125,27.9844 488.7813,28.3906 Q488.2813,28.9688 487.4844,29.2969 Q486.4063,29.75 485.1094,29.75 Q483.5938,29.75 482.3906,29.125 Q481.4063,28.625 480.7188,27.5625 Q480.0313,26.4844 480.0313,25.2031 L480.0313,24.0469 Q480.0313,22.7188 480.6406,21.5781 Q481.2656,20.4219 482.3594,19.8125 Q483.4531,19.1875 484.6875,19.1875 Q485.4219,19.1875 486.0625,19.3594 Q486.7188,19.5156 487.2656,19.875 Z "/><text fill="#000000" font-family="sans-serif" font-size="12" lengthAdjust="spacingAndGlyphs" textLength="196" x="498.5" y="28.9102">IReadOnlyConfigurationDictionary`1</text><rect fill="#FFFFFF" height="17.0938" style="stroke: #000000; stroke-width: 1.0; stroke-dasharray: 2.0,2.0;" width="9" x="702.5" y="5"/><text fill="#000000" font-family="sans-serif" font-size="12" font-style="italic" lengthAdjust="spacingAndGlyphs" textLength="7" x="703.5" y="18.457">T</text><line style="stroke: #A80036; stroke-width: 1.5;" x1="470.5" x2="707.5" y1="40" y2="40"/><line style="stroke: #A80036; stroke-width: 1.5;" x1="470.5" x2="707.5" y1="48" y2="48"/><!--class IEnumerable`1--><rect fill="#FEFECE" filter="url(#fpg4r9k6998q)" height="48" id="IEnumerable`1" style="stroke: #A80036; stroke-width: 1.5;" width="125" x="403.5" y="274"/><ellipse cx="418.5" cy="290" fill="#ADD1B2" rx="11" ry="11" style="stroke: #A80036; stroke-width: 1.0;"/><path d="M421.2656,285.875 Q421.4219,285.6563 421.6094,285.5469 Q421.7969,285.4375 422.0156,285.4375 Q422.3906,285.4375 422.625,285.7031 Q422.8594,285.9531 422.8594,286.5625 L422.8594,288.0156 Q422.8594,288.625 422.625,288.8906 Q422.3906,289.1563 422.0156,289.1563 Q421.6719,289.1563 421.4688,288.9531 Q421.2656,288.7656 421.1563,288.25 Q421.1094,287.8906 420.9219,287.7031 Q420.5938,287.3281 419.9844,287.1094 Q419.375,286.8906 418.75,286.8906 Q417.9844,286.8906 417.3438,287.2188 Q416.7188,287.5469 416.2188,288.2969 Q415.7344,289.0469 415.7344,290.0781 L415.7344,291.1719 Q415.7344,292.4063 416.625,293.2344 Q417.5156,294.0469 419.1094,294.0469 Q420.0469,294.0469 420.7031,293.7969 Q421.0938,293.6406 421.5156,293.2031 Q421.7813,292.9375 421.9219,292.8594 Q422.0781,292.7813 422.2813,292.7813 Q422.6094,292.7813 422.8594,293.0469 Q423.125,293.2969 423.125,293.6406 Q423.125,293.9844 422.7813,294.3906 Q422.2813,294.9688 421.4844,295.2969 Q420.4063,295.75 419.1094,295.75 Q417.5938,295.75 416.3906,295.125 Q415.4063,294.625 414.7188,293.5625 Q414.0313,292.4844 414.0313,291.2031 L414.0313,290.0469 Q414.0313,288.7188 414.6406,287.5781 Q415.2656,286.4219 416.3594,285.8125 Q417.4531,285.1875 418.6875,285.1875 Q419.4219,285.1875 420.0625,285.3594 Q420.7188,285.5156 421.2656,285.875 Z "/><text fill="#000000" font-family="sans-serif" font-size="12" lengthAdjust="spacingAndGlyphs" textLength="82" x="432.5" y="294.9102">IEnumerable`1</text><rect fill="#FFFFFF" height="17.0938" style="stroke: #000000; stroke-width: 1.0; stroke-dasharray: 2.0,2.0;" width="9" x="522.5" y="271"/><text fill="#000000" font-family="sans-serif" font-size="12" font-style="italic" lengthAdjust="spacingAndGlyphs" textLength="7" x="523.5" y="284.457">T</text><line style="stroke: #A80036; stroke-width: 1.5;" x1="404.5" x2="527.5" y1="306" y2="306"/><line style="stroke: #A80036; stroke-width: 1.5;" x1="404.5" x2="527.5" y1="314" y2="314"/><!--class IReadOnlyDictionary`2--><rect fill="#FEFECE" filter="url(#fpg4r9k6998q)" height="48" id="IReadOnlyDictionary`2" style="stroke: #A80036; stroke-width: 1.5;" width="189" x="743.5" y="8"/><ellipse cx="758.5" cy="24" fill="#ADD1B2" rx="11" ry="11" style="stroke: #A80036; stroke-width: 1.0;"/><path d="M761.2656,19.875 Q761.4219,19.6563 761.6094,19.5469 Q761.7969,19.4375 762.0156,19.4375 Q762.3906,19.4375 762.625,19.7031 Q762.8594,19.9531 762.8594,20.5625 L762.8594,22.0156 Q762.8594,22.625 762.625,22.8906 Q762.3906,23.1563 762.0156,23.1563 Q761.6719,23.1563 761.4688,22.9531 Q761.2656,22.7656 761.1563,22.25 Q761.1094,21.8906 760.9219,21.7031 Q760.5938,21.3281 759.9844,21.1094 Q759.375,20.8906 758.75,20.8906 Q757.9844,20.8906 757.3438,21.2188 Q756.7188,21.5469 756.2188,22.2969 Q755.7344,23.0469 755.7344,24.0781 L755.7344,25.1719 Q755.7344,26.4063 756.625,27.2344 Q757.5156,28.0469 759.1094,28.0469 Q760.0469,28.0469 760.7031,27.7969 Q761.0938,27.6406 761.5156,27.2031 Q761.7813,26.9375 761.9219,26.8594 Q762.0781,26.7813 762.2813,26.7813 Q762.6094,26.7813 762.8594,27.0469 Q763.125,27.2969 763.125,27.6406 Q763.125,27.9844 762.7813,28.3906 Q762.2813,28.9688 761.4844,29.2969 Q760.4063,29.75 759.1094,29.75 Q757.5938,29.75 756.3906,29.125 Q755.4063,28.625 754.7188,27.5625 Q754.0313,26.4844 754.0313,25.2031 L754.0313,24.0469 Q754.0313,22.7188 754.6406,21.5781 Q755.2656,20.4219 756.3594,19.8125 Q757.4531,19.1875 758.6875,19.1875 Q759.4219,19.1875 760.0625,19.3594 Q760.7188,19.5156 761.2656,19.875 Z "/><text fill="#000000" font-family="sans-serif" font-size="12" lengthAdjust="spacingAndGlyphs" textLength="122" x="772.5" y="28.9102">IReadOnlyDictionary`2</text><rect fill="#FFFFFF" height="17.0938" style="stroke: #000000; stroke-width: 1.0; stroke-dasharray: 2.0,2.0;" width="33" x="902.5" y="5"/><text fill="#000000" font-family="sans-serif" font-size="12" font-style="italic" lengthAdjust="spacingAndGlyphs" textLength="31" x="903.5" y="18.457">T1,T2</text><line style="stroke: #A80036; stroke-width: 1.5;" x1="744.5" x2="931.5" y1="40" y2="40"/><line style="stroke: #A80036; stroke-width: 1.5;" x1="744.5" x2="931.5" y1="48" y2="48"/><!--reverse link ConfigurationDictionary`1 to ReadOnlyConfigurationDictionary`1--><path d="M378.597,70.912 C391.779,84.952 406.904,101.061 420.826,115.888 " fill="none" id="ConfigurationDictionary`1&lt;-ReadOnlyConfigurationDictionary`1" style="stroke: #A80036; stroke-width: 1.0;"/><polygon fill="none" points="373.294,75.49,364.707,56.119,383.5,65.907,373.294,75.49" style="stroke: #A80036; stroke-width: 1.0;"/><text fill="#000000" font-family="sans-serif" font-size="13" lengthAdjust="spacingAndGlyphs" textLength="71" x="290.345" y="77.486">&lt;TElement&gt;</text><!--reverse link IReadOnlyConfigurationDictionary`1 to ReadOnlyConfigurationDictionary`1--><path d="M553.403,70.912 C540.221,84.952 525.096,101.061 511.174,115.888 " fill="none" id="IReadOnlyConfigurationDictionary`1&lt;-ReadOnlyConfigurationDictionary`1" style="stroke: #A80036; stroke-width: 1.0;"/><polygon fill="none" points="548.5,65.907,567.293,56.119,558.706,75.49,548.5,65.907" style="stroke: #A80036; stroke-width: 1.0;"/><text fill="#000000" font-family="sans-serif" font-size="13" lengthAdjust="spacingAndGlyphs" textLength="71" x="482.3488" y="77.486">&lt;TElement&gt;</text><!--link ReadOnlyConfigurationDictionary`1 to IEnumerable`1--><path d="M453.662,214.036 C452.776,232.4053 453.319,252.752 455.289,268.6984 " fill="none" id="ReadOnlyConfigurationDictionary`1-&gt;IEnumerable`1" style="stroke: #A80036; stroke-width: 1.0;"/><polygon fill="#A80036" points="456.012,273.9284,458.7418,264.4654,455.3273,268.9755,450.8172,265.561,456.012,273.9284" style="stroke: #A80036; stroke-width: 1.0;"/><text fill="#000000" font-family="sans-serif" font-size="13" lengthAdjust="spacingAndGlyphs" textLength="78" x="365.4588" y="263.2502">Keys&lt;string&gt;</text><!--link ReadOnlyConfigurationDictionary`1 to IEnumerable`1--><path d="M479.064,214.036 C480.001,232.4053 479.427,252.752 477.341,268.6984 " fill="none" id="ReadOnlyConfigurationDictionary`1-&gt;IEnumerable`1-1" style="stroke: #A80036; stroke-width: 1.0;"/><polygon fill="#A80036" points="476.575,273.9284,481.8363,265.6026,477.2992,268.9811,473.9207,264.444,476.575,273.9284" style="stroke: #A80036; stroke-width: 1.0;"/><text fill="#000000" font-family="sans-serif" font-size="13" lengthAdjust="spacingAndGlyphs" textLength="111" x="493.5067" y="263.2502">Values&lt;TElement&gt;</text><!--
@startuml
class "ReadOnlyConfigurationDictionary`1"<TElement> <<sealed>> {
    + ReadOnlyConfigurationDictionary(parent:IConfigurationParent?, propertyDef:IPropertyDef, configurationRoot:IConfigurationRoot, elements:IEnumerable<KeyValuePair<string, TElement>>?)
    + ReadOnlyConfigurationDictionary(parent:IConfigurationParent?, propertyDef:IPropertyDef, configurationRoot:IConfigurationRoot, elements:KeyValuePair<string, TElement>[]?)
    GetEnumerator() : IEnumerator
}
class "ConfigurationDictionary`1"<T> {
}
class "IReadOnlyConfigurationDictionary`1"<T> {
}
class "IEnumerable`1"<T> {
}
class "IReadOnlyDictionary`2"<T1,T2> {
}
"ConfigurationDictionary`1" "<TElement>" <|- - "ReadOnlyConfigurationDictionary`1"
"IReadOnlyConfigurationDictionary`1" "<TElement>" <|- - "ReadOnlyConfigurationDictionary`1"
"ReadOnlyConfigurationDictionary`1" - -> "Keys<string>" "IEnumerable`1"
"ReadOnlyConfigurationDictionary`1" - -> "Values<TElement>" "IEnumerable`1"
@enduml

PlantUML version 1.2019.09(Mon Aug 26 17:19:51 BST 2019)
(GPL source distribution)
Java Runtime: OpenJDK Runtime Environment
JVM: OpenJDK 64-Bit Server VM
Java Version: 13.0.2+8
Operating System: Windows 10
OS Version: 10.0
Default Encoding: Cp1252
Language: en
Country: GB
--></g></svg>