<?xml version="1.0" encoding="UTF-8" standalone="no"?><svg xmlns="http://www.w3.org/2000/svg" xmlns:xlink="http://www.w3.org/1999/xlink" contentScriptType="application/ecmascript" contentStyleType="text/css" height="382px" preserveAspectRatio="none" style="width:781px;height:382px;" version="1.1" viewBox="0 0 781 382" width="781px" zoomAndPan="magnify"><defs><filter height="300%" id="fcc7ympjrha0f" width="300%" x="-1" y="-1"><feGaussianBlur result="blurOut" stdDeviation="2.0"/><feColorMatrix in="blurOut" result="blurOut2" type="matrix" values="0 0 0 0 0 0 0 0 0 0 0 0 0 0 0 0 0 0 .4 0"/><feOffset dx="4.0" dy="4.0" in="blurOut2" result="blurOut3"/><feBlend in="SourceGraphic" in2="blurOut3" mode="normal"/></filter></defs><g><!--class ConfigurationCollection`1--><rect fill="#FEFECE" filter="url(#fcc7ympjrha0f)" height="255.5391" id="ConfigurationCollection`1" style="stroke: #A80036; stroke-width: 1.5;" width="761" x="6" y="116"/><ellipse cx="283.75" cy="132" fill="#ADD1B2" rx="11" ry="11" style="stroke: #A80036; stroke-width: 1.0;"/><path d="M286.5156,127.875 Q286.6719,127.6563 286.8594,127.5469 Q287.0469,127.4375 287.2656,127.4375 Q287.6406,127.4375 287.875,127.7031 Q288.1094,127.9531 288.1094,128.5625 L288.1094,130.0156 Q288.1094,130.625 287.875,130.8906 Q287.6406,131.1563 287.2656,131.1563 Q286.9219,131.1563 286.7188,130.9531 Q286.5156,130.7656 286.4063,130.25 Q286.3594,129.8906 286.1719,129.7031 Q285.8438,129.3281 285.2344,129.1094 Q284.625,128.8906 284,128.8906 Q283.2344,128.8906 282.5938,129.2188 Q281.9688,129.5469 281.4688,130.2969 Q280.9844,131.0469 280.9844,132.0781 L280.9844,133.1719 Q280.9844,134.4063 281.875,135.2344 Q282.7656,136.0469 284.3594,136.0469 Q285.2969,136.0469 285.9531,135.7969 Q286.3438,135.6406 286.7656,135.2031 Q287.0313,134.9375 287.1719,134.8594 Q287.3281,134.7813 287.5313,134.7813 Q287.8594,134.7813 288.1094,135.0469 Q288.375,135.2969 288.375,135.6406 Q288.375,135.9844 288.0313,136.3906 Q287.5313,136.9688 286.7344,137.2969 Q285.6563,137.75 284.3594,137.75 Q282.8438,137.75 281.6406,137.125 Q280.6563,136.625 279.9688,135.5625 Q279.2813,134.4844 279.2813,133.2031 L279.2813,132.0469 Q279.2813,130.7188 279.8906,129.5781 Q280.5156,128.4219 281.6094,127.8125 Q282.7031,127.1875 283.9375,127.1875 Q284.6719,127.1875 285.3125,127.3594 Q285.9688,127.5156 286.5156,127.875 Z "/><text fill="#000000" font-family="sans-serif" font-size="12" lengthAdjust="spacingAndGlyphs" textLength="140" x="304.25" y="136.9102">ConfigurationCollection`1</text><rect fill="#FFFFFF" height="17.0938" style="stroke: #000000; stroke-width: 1.0; stroke-dasharray: 2.0,2.0;" width="55" x="715" y="113"/><text fill="#000000" font-family="sans-serif" font-size="12" font-style="italic" lengthAdjust="spacingAndGlyphs" textLength="53" x="716" y="126.457">TElement</text><line style="stroke: #A80036; stroke-width: 1.5;" x1="7" x2="766" y1="148" y2="148"/><line style="stroke: #A80036; stroke-width: 1.5;" x1="7" x2="766" y1="156" y2="156"/><ellipse cx="17" cy="167" fill="#84BE84" rx="3" ry="3" style="stroke: #038048; stroke-width: 1.0;"/><text fill="#000000" font-family="sans-serif" font-size="11" lengthAdjust="spacingAndGlyphs" textLength="735" x="26" y="171.4189">ConfigurationCollection(parent:IConfigurationParent?, propertyDef:IPropertyDef, configurationRoot:IConfigurationRoot, elements:IEnumerable&lt;TElement&gt;?)</text><ellipse cx="17" cy="180.8359" fill="#84BE84" rx="3" ry="3" style="stroke: #038048; stroke-width: 1.0;"/><text fill="#000000" font-family="sans-serif" font-size="11" lengthAdjust="spacingAndGlyphs" textLength="671" x="26" y="185.2549">ConfigurationCollection(parent:IConfigurationParent?, propertyDef:IPropertyDef, configurationRoot:IConfigurationRoot, elements:TElement[]?)</text><ellipse cx="17" cy="194.6719" fill="#84BE84" rx="3" ry="3" style="stroke: #038048; stroke-width: 1.0;"/><text fill="#000000" font-family="sans-serif" font-size="11" lengthAdjust="spacingAndGlyphs" textLength="122" x="26" y="199.0908">Add(item:TElement) : void</text><ellipse cx="17" cy="208.5078" fill="#84BE84" rx="3" ry="3" style="stroke: #038048; stroke-width: 1.0;"/><text fill="#000000" font-family="sans-serif" font-size="11" lengthAdjust="spacingAndGlyphs" textLength="177" x="26" y="212.9268">AddCopy(value:TElement) : TElement</text><ellipse cx="17" cy="222.3438" fill="#84BE84" rx="3" ry="3" style="stroke: #038048; stroke-width: 1.0;"/><text fill="#000000" font-family="sans-serif" font-size="11" lengthAdjust="spacingAndGlyphs" textLength="103" x="26" y="226.7627">AddNew() : TElement</text><ellipse cx="17" cy="236.1797" fill="#84BE84" rx="3" ry="3" style="stroke: #038048; stroke-width: 1.0;"/><text fill="#000000" font-family="sans-serif" font-size="11" lengthAdjust="spacingAndGlyphs" textLength="144" x="26" y="240.5986">Contains(item:TElement) : bool</text><ellipse cx="17" cy="250.0156" fill="#84BE84" rx="3" ry="3" style="stroke: #038048; stroke-width: 1.0;"/><text fill="#000000" font-family="sans-serif" font-size="11" lengthAdjust="spacingAndGlyphs" textLength="224" x="26" y="254.4346">CopyTo(array:TElement[], arrayIndex:int) : void</text><ellipse cx="17" cy="263.8516" fill="#84BE84" rx="3" ry="3" style="stroke: #038048; stroke-width: 1.0;"/><text fill="#000000" font-family="sans-serif" font-size="11" lengthAdjust="spacingAndGlyphs" textLength="201" x="26" y="268.2705">GetEnumerator() : IEnumerator&lt;TElement&gt;</text><ellipse cx="17" cy="277.6875" fill="#84BE84" rx="3" ry="3" style="stroke: #038048; stroke-width: 1.0;"/><text fill="#000000" font-family="sans-serif" font-size="11" lengthAdjust="spacingAndGlyphs" textLength="131" x="26" y="282.1064">IndexOf(item:TElement) : int</text><ellipse cx="17" cy="291.5234" fill="#84BE84" rx="3" ry="3" style="stroke: #038048; stroke-width: 1.0;"/><text fill="#000000" font-family="sans-serif" font-size="11" lengthAdjust="spacingAndGlyphs" textLength="175" x="26" y="295.9424">Insert(index:int, item:TElement) : void</text><ellipse cx="17" cy="305.3594" fill="#84BE84" rx="3" ry="3" style="stroke: #038048; stroke-width: 1.0;"/><text fill="#000000" font-family="sans-serif" font-size="11" lengthAdjust="spacingAndGlyphs" textLength="223" x="26" y="309.7783">InsertCopy(index:int, item:TElement) : TElement</text><ellipse cx="17" cy="319.1953" fill="#84BE84" rx="3" ry="3" style="stroke: #038048; stroke-width: 1.0;"/><text fill="#000000" font-family="sans-serif" font-size="11" lengthAdjust="spacingAndGlyphs" textLength="196" x="26" y="323.6143">«override» Remove(item:TElement) : bool</text><ellipse cx="17" cy="333.0313" fill="#84BE84" rx="3" ry="3" style="stroke: #038048; stroke-width: 1.0;"/><text fill="#000000" font-family="sans-serif" font-size="11" lengthAdjust="spacingAndGlyphs" textLength="171" x="26" y="337.4502">«override» Remove(index:int) : bool</text><ellipse cx="17" cy="346.8672" fill="#84BE84" rx="3" ry="3" style="stroke: #038048; stroke-width: 1.0;"/><text fill="#000000" font-family="sans-serif" font-size="11" lengthAdjust="spacingAndGlyphs" textLength="127" x="26" y="351.2861">RemoveAt(index:int) : void</text><text fill="#000000" font-family="sans-serif" font-size="11" lengthAdjust="spacingAndGlyphs" textLength="146" x="26" y="365.1221">GetEnumerator() : IEnumerator</text><!--class ConfigurationDictionaryBase`2--><rect fill="#FEFECE" filter="url(#fcc7ympjrha0f)" height="48" id="ConfigurationDictionaryBase`2" style="stroke: #A80036; stroke-width: 1.5;" width="235" x="146" y="8"/><ellipse cx="161" cy="24" fill="#ADD1B2" rx="11" ry="11" style="stroke: #A80036; stroke-width: 1.0;"/><path d="M163.7656,19.875 Q163.9219,19.6563 164.1094,19.5469 Q164.2969,19.4375 164.5156,19.4375 Q164.8906,19.4375 165.125,19.7031 Q165.3594,19.9531 165.3594,20.5625 L165.3594,22.0156 Q165.3594,22.625 165.125,22.8906 Q164.8906,23.1563 164.5156,23.1563 Q164.1719,23.1563 163.9688,22.9531 Q163.7656,22.7656 163.6563,22.25 Q163.6094,21.8906 163.4219,21.7031 Q163.0938,21.3281 162.4844,21.1094 Q161.875,20.8906 161.25,20.8906 Q160.4844,20.8906 159.8438,21.2188 Q159.2188,21.5469 158.7188,22.2969 Q158.2344,23.0469 158.2344,24.0781 L158.2344,25.1719 Q158.2344,26.4063 159.125,27.2344 Q160.0156,28.0469 161.6094,28.0469 Q162.5469,28.0469 163.2031,27.7969 Q163.5938,27.6406 164.0156,27.2031 Q164.2813,26.9375 164.4219,26.8594 Q164.5781,26.7813 164.7813,26.7813 Q165.1094,26.7813 165.3594,27.0469 Q165.625,27.2969 165.625,27.6406 Q165.625,27.9844 165.2813,28.3906 Q164.7813,28.9688 163.9844,29.2969 Q162.9063,29.75 161.6094,29.75 Q160.0938,29.75 158.8906,29.125 Q157.9063,28.625 157.2188,27.5625 Q156.5313,26.4844 156.5313,25.2031 L156.5313,24.0469 Q156.5313,22.7188 157.1406,21.5781 Q157.7656,20.4219 158.8594,19.8125 Q159.9531,19.1875 161.1875,19.1875 Q161.9219,19.1875 162.5625,19.3594 Q163.2188,19.5156 163.7656,19.875 Z "/><text fill="#000000" font-family="sans-serif" font-size="12" lengthAdjust="spacingAndGlyphs" textLength="168" x="175" y="28.9102">ConfigurationDictionaryBase`2</text><rect fill="#FFFFFF" height="17.0938" style="stroke: #000000; stroke-width: 1.0; stroke-dasharray: 2.0,2.0;" width="33" x="351" y="5"/><text fill="#000000" font-family="sans-serif" font-size="12" font-style="italic" lengthAdjust="spacingAndGlyphs" textLength="31" x="352" y="18.457">T1,T2</text><line style="stroke: #A80036; stroke-width: 1.5;" x1="147" x2="380" y1="40" y2="40"/><line style="stroke: #A80036; stroke-width: 1.5;" x1="147" x2="380" y1="48" y2="48"/><!--class IConfigurationCollection`1--><rect fill="#FEFECE" filter="url(#fcc7ympjrha0f)" height="48" id="IConfigurationCollection`1" style="stroke: #A80036; stroke-width: 1.5;" width="186" x="416.5" y="8"/><ellipse cx="431.5" cy="24" fill="#ADD1B2" rx="11" ry="11" style="stroke: #A80036; stroke-width: 1.0;"/><path d="M434.2656,19.875 Q434.4219,19.6563 434.6094,19.5469 Q434.7969,19.4375 435.0156,19.4375 Q435.3906,19.4375 435.625,19.7031 Q435.8594,19.9531 435.8594,20.5625 L435.8594,22.0156 Q435.8594,22.625 435.625,22.8906 Q435.3906,23.1563 435.0156,23.1563 Q434.6719,23.1563 434.4688,22.9531 Q434.2656,22.7656 434.1563,22.25 Q434.1094,21.8906 433.9219,21.7031 Q433.5938,21.3281 432.9844,21.1094 Q432.375,20.8906 431.75,20.8906 Q430.9844,20.8906 430.3438,21.2188 Q429.7188,21.5469 429.2188,22.2969 Q428.7344,23.0469 428.7344,24.0781 L428.7344,25.1719 Q428.7344,26.4063 429.625,27.2344 Q430.5156,28.0469 432.1094,28.0469 Q433.0469,28.0469 433.7031,27.7969 Q434.0938,27.6406 434.5156,27.2031 Q434.7813,26.9375 434.9219,26.8594 Q435.0781,26.7813 435.2813,26.7813 Q435.6094,26.7813 435.8594,27.0469 Q436.125,27.2969 436.125,27.6406 Q436.125,27.9844 435.7813,28.3906 Q435.2813,28.9688 434.4844,29.2969 Q433.4063,29.75 432.1094,29.75 Q430.5938,29.75 429.3906,29.125 Q428.4063,28.625 427.7188,27.5625 Q427.0313,26.4844 427.0313,25.2031 L427.0313,24.0469 Q427.0313,22.7188 427.6406,21.5781 Q428.2656,20.4219 429.3594,19.8125 Q430.4531,19.1875 431.6875,19.1875 Q432.4219,19.1875 433.0625,19.3594 Q433.7188,19.5156 434.2656,19.875 Z "/><text fill="#000000" font-family="sans-serif" font-size="12" lengthAdjust="spacingAndGlyphs" textLength="143" x="445.5" y="28.9102">IConfigurationCollection`1</text><rect fill="#FFFFFF" height="17.0938" style="stroke: #000000; stroke-width: 1.0; stroke-dasharray: 2.0,2.0;" width="9" x="596.5" y="5"/><text fill="#000000" font-family="sans-serif" font-size="12" font-style="italic" lengthAdjust="spacingAndGlyphs" textLength="7" x="597.5" y="18.457">T</text><line style="stroke: #A80036; stroke-width: 1.5;" x1="417.5" x2="601.5" y1="40" y2="40"/><line style="stroke: #A80036; stroke-width: 1.5;" x1="417.5" x2="601.5" y1="48" y2="48"/><!--reverse link ConfigurationDictionaryBase`2 to ConfigurationCollection`1--><path d="M287.243,73.537 C294.559,86.028 303.039,100.506 311.899,115.633 " fill="none" id="ConfigurationDictionaryBase`2&lt;-ConfigurationCollection`1" style="stroke: #A80036; stroke-width: 1.0;"/><polygon fill="none" points="281.201,77.072,277.133,56.276,293.281,69.996,281.201,77.072" style="stroke: #A80036; stroke-width: 1.0;"/><text fill="#000000" font-family="sans-serif" font-size="13" lengthAdjust="spacingAndGlyphs" textLength="89" x="180.6092" y="77.6812">&lt;int,TElement&gt;</text><!--reverse link IConfigurationCollection`1 to ConfigurationCollection`1--><path d="M485.757,73.537 C478.441,86.028 469.961,100.506 461.101,115.633 " fill="none" id="IConfigurationCollection`1&lt;-ConfigurationCollection`1" style="stroke: #A80036; stroke-width: 1.0;"/><polygon fill="none" points="479.719,69.996,495.867,56.276,491.799,77.072,479.719,69.996" style="stroke: #A80036; stroke-width: 1.0;"/><text fill="#000000" font-family="sans-serif" font-size="13" lengthAdjust="spacingAndGlyphs" textLength="71" x="412.8908" y="77.6812">&lt;TElement&gt;</text><!--
@startuml
class "ConfigurationCollection`1"<TElement> {
    + ConfigurationCollection(parent:IConfigurationParent?, propertyDef:IPropertyDef, configurationRoot:IConfigurationRoot, elements:IEnumerable<TElement>?)
    + ConfigurationCollection(parent:IConfigurationParent?, propertyDef:IPropertyDef, configurationRoot:IConfigurationRoot, elements:TElement[]?)
    + Add(item:TElement) : void
    + AddCopy(value:TElement) : TElement
    + AddNew() : TElement
    + Contains(item:TElement) : bool
    + CopyTo(array:TElement[], arrayIndex:int) : void
    + GetEnumerator() : IEnumerator<TElement>
    + IndexOf(item:TElement) : int
    + Insert(index:int, item:TElement) : void
    + InsertCopy(index:int, item:TElement) : TElement
    + <<override>> Remove(item:TElement) : bool
    + <<override>> Remove(index:int) : bool
    + RemoveAt(index:int) : void
    GetEnumerator() : IEnumerator
}
class "ConfigurationDictionaryBase`2"<T1,T2> {
}
class "IConfigurationCollection`1"<T> {
}
"ConfigurationDictionaryBase`2" "<int,TElement>" <|- - "ConfigurationCollection`1"
"IConfigurationCollection`1" "<TElement>" <|- - "ConfigurationCollection`1"
@enduml

PlantUML version 1.2019.09(Mon Aug 26 17:19:51 BST 2019)
(GPL source distribution)
Java Runtime: OpenJDK Runtime Environment
JVM: OpenJDK 64-Bit Server VM
Java Version: 13.0.2+8
Operating System: Windows 10
OS Version: 10.0
Default Encoding: Cp1252
Language: en
Country: GB
--></g></svg>