<?xml version="1.0" encoding="UTF-8" standalone="no"?><svg xmlns="http://www.w3.org/2000/svg" xmlns:xlink="http://www.w3.org/1999/xlink" contentScriptType="application/ecmascript" contentStyleType="text/css" height="188px" preserveAspectRatio="none" style="width:119px;height:188px;" version="1.1" viewBox="0 0 119 188" width="119px" zoomAndPan="magnify"><defs><filter height="300%" id="f13tdpi7bxeobu" width="300%" x="-1" y="-1"><feGaussianBlur result="blurOut" stdDeviation="2.0"/><feColorMatrix in="blurOut" result="blurOut2" type="matrix" values="0 0 0 0 0 0 0 0 0 0 0 0 0 0 0 0 0 0 .4 0"/><feOffset dx="4.0" dy="4.0" in="blurOut2" result="blurOut3"/><feBlend in="SourceGraphic" in2="blurOut3" mode="normal"/></filter></defs><g><!--class Disposable--><rect fill="#FEFECE" filter="url(#f13tdpi7bxeobu)" height="61.8359" id="Disposable" style="stroke: #A80036; stroke-width: 1.5;" width="102" x="6" y="116"/><ellipse cx="24.15" cy="132" fill="#A9DCDF" rx="11" ry="11" style="stroke: #A80036; stroke-width: 1.0;"/><path d="M26.3375,133.7656 L22.1969,133.7656 L21.775,134.7969 L22.1969,134.7969 Q22.8063,134.7969 23.0719,135.0313 Q23.3375,135.2656 23.3375,135.6563 Q23.3375,136.0313 23.0719,136.2656 Q22.8063,136.5 22.1969,136.5 L19.9,136.5 Q19.2906,136.5 19.0406,136.2656 Q18.775,136.0313 18.775,135.6406 Q18.775,135.2656 19.0563,135.0313 Q19.3219,134.7813 19.9469,134.7969 L22.6188,128.1406 L21.5094,128.1406 Q20.9,128.1406 20.6344,127.9063 Q20.3688,127.6719 20.3688,127.2813 Q20.3688,126.9063 20.6344,126.6719 Q20.9,126.4375 21.5094,126.4375 L25.1813,126.4375 L28.5719,134.7969 Q29.1656,134.7969 29.3531,134.9375 Q29.7438,135.2031 29.7438,135.6563 Q29.7438,136.0313 29.4781,136.2656 Q29.2281,136.5 28.6188,136.5 L26.3219,136.5 Q25.7125,136.5 25.4469,136.2656 Q25.1813,136.0313 25.1813,135.6406 Q25.1813,135.2656 25.4469,135.0313 Q25.7125,134.7969 26.3219,134.7969 L26.7438,134.7969 L26.3375,133.7656 Z M25.6188,132.0625 L24.2594,128.6875 L22.8844,132.0625 L25.6188,132.0625 Z "/><text fill="#000000" font-family="sans-serif" font-size="12" font-style="italic" lengthAdjust="spacingAndGlyphs" textLength="63" x="38.85" y="136.9102">Disposable</text><line style="stroke: #A80036; stroke-width: 1.5;" x1="7" x2="107" y1="148" y2="148"/><line style="stroke: #A80036; stroke-width: 1.5;" x1="7" x2="107" y1="156" y2="156"/><ellipse cx="17" cy="167" fill="#84BE84" rx="3" ry="3" style="stroke: #038048; stroke-width: 1.0;"/><text fill="#000000" font-family="sans-serif" font-size="11" lengthAdjust="spacingAndGlyphs" textLength="76" x="26" y="171.4189">Dispose() : void</text><!--class IDisposable--><rect fill="#FEFECE" filter="url(#f13tdpi7bxeobu)" height="48" id="IDisposable" style="stroke: #A80036; stroke-width: 1.5;" width="99" x="7.5" y="8"/><ellipse cx="22.5" cy="24" fill="#ADD1B2" rx="11" ry="11" style="stroke: #A80036; stroke-width: 1.0;"/><path d="M25.2656,19.875 Q25.4219,19.6563 25.6094,19.5469 Q25.7969,19.4375 26.0156,19.4375 Q26.3906,19.4375 26.625,19.7031 Q26.8594,19.9531 26.8594,20.5625 L26.8594,22.0156 Q26.8594,22.625 26.625,22.8906 Q26.3906,23.1563 26.0156,23.1563 Q25.6719,23.1563 25.4688,22.9531 Q25.2656,22.7656 25.1563,22.25 Q25.1094,21.8906 24.9219,21.7031 Q24.5938,21.3281 23.9844,21.1094 Q23.375,20.8906 22.75,20.8906 Q21.9844,20.8906 21.3438,21.2188 Q20.7188,21.5469 20.2188,22.2969 Q19.7344,23.0469 19.7344,24.0781 L19.7344,25.1719 Q19.7344,26.4063 20.625,27.2344 Q21.5156,28.0469 23.1094,28.0469 Q24.0469,28.0469 24.7031,27.7969 Q25.0938,27.6406 25.5156,27.2031 Q25.7813,26.9375 25.9219,26.8594 Q26.0781,26.7813 26.2813,26.7813 Q26.6094,26.7813 26.8594,27.0469 Q27.125,27.2969 27.125,27.6406 Q27.125,27.9844 26.7813,28.3906 Q26.2813,28.9688 25.4844,29.2969 Q24.4063,29.75 23.1094,29.75 Q21.5938,29.75 20.3906,29.125 Q19.4063,28.625 18.7188,27.5625 Q18.0313,26.4844 18.0313,25.2031 L18.0313,24.0469 Q18.0313,22.7188 18.6406,21.5781 Q19.2656,20.4219 20.3594,19.8125 Q21.4531,19.1875 22.6875,19.1875 Q23.4219,19.1875 24.0625,19.3594 Q24.7188,19.5156 25.2656,19.875 Z "/><text fill="#000000" font-family="sans-serif" font-size="12" lengthAdjust="spacingAndGlyphs" textLength="67" x="36.5" y="28.9102">IDisposable</text><line style="stroke: #A80036; stroke-width: 1.5;" x1="8.5" x2="105.5" y1="40" y2="40"/><line style="stroke: #A80036; stroke-width: 1.5;" x1="8.5" x2="105.5" y1="48" y2="48"/><!--reverse link IDisposable to Disposable--><path d="M57,76.14 C57,89.2936 57,103.4721 57,115.5962 " fill="none" id="IDisposable&lt;-Disposable" style="stroke: #A80036; stroke-width: 1.0;"/><polygon fill="none" points="50.0001,76.14,57,56.14,64.0001,76.14,50.0001,76.14" style="stroke: #A80036; stroke-width: 1.0;"/><!--
@startuml
abstract class Disposable {
    + Dispose() : void
}
IDisposable <|- - Disposable
@enduml

PlantUML version 1.2019.09(Mon Aug 26 17:19:51 BST 2019)
(GPL source distribution)
Java Runtime: OpenJDK Runtime Environment
JVM: OpenJDK 64-Bit Server VM
Java Version: 13.0.2+8
Operating System: Windows 10
OS Version: 10.0
Default Encoding: Cp1252
Language: en
Country: GB
--></g></svg>