<?xml version="1.0" encoding="UTF-8" standalone="no"?><svg xmlns="http://www.w3.org/2000/svg" xmlns:xlink="http://www.w3.org/1999/xlink" contentScriptType="application/ecmascript" contentStyleType="text/css" height="89px" preserveAspectRatio="none" style="width:369px;height:89px;" version="1.1" viewBox="0 0 369 89" width="369px" zoomAndPan="magnify"><defs><filter height="300%" id="f9w5huerkm3vp" width="300%" x="-1" y="-1"><feGaussianBlur result="blurOut" stdDeviation="2.0"/><feColorMatrix in="blurOut" result="blurOut2" type="matrix" values="0 0 0 0 0 0 0 0 0 0 0 0 0 0 0 0 0 0 .4 0"/><feOffset dx="4.0" dy="4.0" in="blurOut2" result="blurOut3"/><feBlend in="SourceGraphic" in2="blurOut3" mode="normal"/></filter></defs><g><!--class ServiceCollectionExtensions--><rect fill="#FEFECE" filter="url(#f9w5huerkm3vp)" height="70.0234" id="ServiceCollectionExtensions" style="stroke: #A80036; stroke-width: 1.5;" width="352" x="6" y="8"/><ellipse cx="99.75" cy="28.0938" fill="#ADD1B2" rx="11" ry="11" style="stroke: #A80036; stroke-width: 1.0;"/><path d="M102.5156,23.9688 Q102.6719,23.75 102.8594,23.6406 Q103.0469,23.5313 103.2656,23.5313 Q103.6406,23.5313 103.875,23.7969 Q104.1094,24.0469 104.1094,24.6563 L104.1094,26.1094 Q104.1094,26.7188 103.875,26.9844 Q103.6406,27.25 103.2656,27.25 Q102.9219,27.25 102.7188,27.0469 Q102.5156,26.8594 102.4063,26.3438 Q102.3594,25.9844 102.1719,25.7969 Q101.8438,25.4219 101.2344,25.2031 Q100.625,24.9844 100,24.9844 Q99.2344,24.9844 98.5938,25.3125 Q97.9688,25.6406 97.4688,26.3906 Q96.9844,27.1406 96.9844,28.1719 L96.9844,29.2656 Q96.9844,30.5 97.875,31.3281 Q98.7656,32.1406 100.3594,32.1406 Q101.2969,32.1406 101.9531,31.8906 Q102.3438,31.7344 102.7656,31.2969 Q103.0313,31.0313 103.1719,30.9531 Q103.3281,30.875 103.5313,30.875 Q103.8594,30.875 104.1094,31.1406 Q104.375,31.3906 104.375,31.7344 Q104.375,32.0781 104.0313,32.4844 Q103.5313,33.0625 102.7344,33.3906 Q101.6563,33.8438 100.3594,33.8438 Q98.8438,33.8438 97.6406,33.2188 Q96.6563,32.7188 95.9688,31.6563 Q95.2813,30.5781 95.2813,29.2969 L95.2813,28.1406 Q95.2813,26.8125 95.8906,25.6719 Q96.5156,24.5156 97.6094,23.9063 Q98.7031,23.2813 99.9375,23.2813 Q100.6719,23.2813 101.3125,23.4531 Q101.9688,23.6094 102.5156,23.9688 Z "/><text fill="#000000" font-family="sans-serif" font-size="12" font-style="italic" lengthAdjust="spacingAndGlyphs" textLength="42" x="177.25" y="25.457">«static»</text><text fill="#000000" font-family="sans-serif" font-size="12" lengthAdjust="spacingAndGlyphs" textLength="156" x="120.25" y="40.5508">ServiceCollectionExtensions</text><line style="stroke: #A80036; stroke-width: 1.5;" x1="7" x2="357" y1="48.1875" y2="48.1875"/><line style="stroke: #A80036; stroke-width: 1.5;" x1="7" x2="357" y1="56.1875" y2="56.1875"/><ellipse cx="17" cy="67.1875" fill="#84BE84" rx="3" ry="3" style="stroke: #038048; stroke-width: 1.0;"/><text fill="#000000" font-family="sans-serif" font-size="11" lengthAdjust="spacingAndGlyphs" text-decoration="underline" textLength="326" x="26" y="71.6064">AddConfigurationReader(serviceCollection:IServiceCollection) : void</text><!--
@startuml
class ServiceCollectionExtensions <<static>> {
    + {static} AddConfigurationReader(serviceCollection:IServiceCollection) : void
}
@enduml

PlantUML version 1.2019.09(Mon Aug 26 17:19:51 BST 2019)
(GPL source distribution)
Java Runtime: OpenJDK Runtime Environment
JVM: OpenJDK 64-Bit Server VM
Java Version: 13.0.2+8
Operating System: Windows 10
OS Version: 10.0
Default Encoding: Cp1252
Language: en
Country: GB
--></g></svg>