<?xml version="1.0" encoding="UTF-8" standalone="no"?><svg xmlns="http://www.w3.org/2000/svg" xmlns:xlink="http://www.w3.org/1999/xlink" contentScriptType="application/ecmascript" contentStyleType="text/css" height="319px" preserveAspectRatio="none" style="width:229px;height:319px;" version="1.1" viewBox="0 0 229 319" width="229px" zoomAndPan="magnify"><defs><filter height="300%" id="f3y5lojuplbma" width="300%" x="-1" y="-1"><feGaussianBlur result="blurOut" stdDeviation="2.0"/><feColorMatrix in="blurOut" result="blurOut2" type="matrix" values="0 0 0 0 0 0 0 0 0 0 0 0 0 0 0 0 0 0 .4 0"/><feOffset dx="4.0" dy="4.0" in="blurOut2" result="blurOut3"/><feBlend in="SourceGraphic" in2="blurOut3" mode="normal"/></filter></defs><g><!--class ConfigurationAttribute--><rect fill="#FEFECE" filter="url(#f3y5lojuplbma)" height="83.8594" id="ConfigurationAttribute" style="stroke: #A80036; stroke-width: 1.5;" width="192" x="16" y="116"/><ellipse cx="49.9" cy="136.0938" fill="#ADD1B2" rx="11" ry="11" style="stroke: #A80036; stroke-width: 1.0;"/><path d="M52.6656,131.9688 Q52.8219,131.75 53.0094,131.6406 Q53.1969,131.5313 53.4156,131.5313 Q53.7906,131.5313 54.025,131.7969 Q54.2594,132.0469 54.2594,132.6563 L54.2594,134.1094 Q54.2594,134.7188 54.025,134.9844 Q53.7906,135.25 53.4156,135.25 Q53.0719,135.25 52.8688,135.0469 Q52.6656,134.8594 52.5563,134.3438 Q52.5094,133.9844 52.3219,133.7969 Q51.9938,133.4219 51.3844,133.2031 Q50.775,132.9844 50.15,132.9844 Q49.3844,132.9844 48.7438,133.3125 Q48.1188,133.6406 47.6188,134.3906 Q47.1344,135.1406 47.1344,136.1719 L47.1344,137.2656 Q47.1344,138.5 48.025,139.3281 Q48.9156,140.1406 50.5094,140.1406 Q51.4469,140.1406 52.1031,139.8906 Q52.4938,139.7344 52.9156,139.2969 Q53.1813,139.0313 53.3219,138.9531 Q53.4781,138.875 53.6813,138.875 Q54.0094,138.875 54.2594,139.1406 Q54.525,139.3906 54.525,139.7344 Q54.525,140.0781 54.1813,140.4844 Q53.6813,141.0625 52.8844,141.3906 Q51.8063,141.8438 50.5094,141.8438 Q48.9938,141.8438 47.7906,141.2188 Q46.8063,140.7188 46.1188,139.6563 Q45.4313,138.5781 45.4313,137.2969 L45.4313,136.1406 Q45.4313,134.8125 46.0406,133.6719 Q46.6656,132.5156 47.7594,131.9063 Q48.8531,131.2813 50.0875,131.2813 Q50.8219,131.2813 51.4625,131.4531 Q52.1188,131.6094 52.6656,131.9688 Z "/><text fill="#000000" font-family="sans-serif" font-size="12" font-style="italic" lengthAdjust="spacingAndGlyphs" textLength="51" x="101.6" y="133.457">«sealed»</text><text fill="#000000" font-family="sans-serif" font-size="12" lengthAdjust="spacingAndGlyphs" textLength="118" x="68.1" y="148.5508">ConfigurationAttribute</text><line style="stroke: #A80036; stroke-width: 1.5;" x1="17" x2="207" y1="156.1875" y2="156.1875"/><ellipse cx="27" cy="167.1875" fill="none" rx="3" ry="3" style="stroke: #038048; stroke-width: 1.0;"/><text fill="#000000" font-family="sans-serif" font-size="11" lengthAdjust="spacingAndGlyphs" textLength="166" x="36" y="171.6064">DefaultValue : object? «get» «set»</text><line style="stroke: #A80036; stroke-width: 1.5;" x1="17" x2="207" y1="178.0234" y2="178.0234"/><ellipse cx="27" cy="189.0234" fill="#84BE84" rx="3" ry="3" style="stroke: #038048; stroke-width: 1.0;"/><text fill="#000000" font-family="sans-serif" font-size="11" lengthAdjust="spacingAndGlyphs" textLength="113" x="36" y="193.4424">ConfigurationAttribute()</text><!--class Attribute--><rect fill="#FEFECE" filter="url(#f3y5lojuplbma)" height="48" id="Attribute" style="stroke: #A80036; stroke-width: 1.5;" width="76" x="74" y="8"/><ellipse cx="89" cy="24" fill="#ADD1B2" rx="11" ry="11" style="stroke: #A80036; stroke-width: 1.0;"/><path d="M91.7656,19.875 Q91.9219,19.6563 92.1094,19.5469 Q92.2969,19.4375 92.5156,19.4375 Q92.8906,19.4375 93.125,19.7031 Q93.3594,19.9531 93.3594,20.5625 L93.3594,22.0156 Q93.3594,22.625 93.125,22.8906 Q92.8906,23.1563 92.5156,23.1563 Q92.1719,23.1563 91.9688,22.9531 Q91.7656,22.7656 91.6563,22.25 Q91.6094,21.8906 91.4219,21.7031 Q91.0938,21.3281 90.4844,21.1094 Q89.875,20.8906 89.25,20.8906 Q88.4844,20.8906 87.8438,21.2188 Q87.2188,21.5469 86.7188,22.2969 Q86.2344,23.0469 86.2344,24.0781 L86.2344,25.1719 Q86.2344,26.4063 87.125,27.2344 Q88.0156,28.0469 89.6094,28.0469 Q90.5469,28.0469 91.2031,27.7969 Q91.5938,27.6406 92.0156,27.2031 Q92.2813,26.9375 92.4219,26.8594 Q92.5781,26.7813 92.7813,26.7813 Q93.1094,26.7813 93.3594,27.0469 Q93.625,27.2969 93.625,27.6406 Q93.625,27.9844 93.2813,28.3906 Q92.7813,28.9688 91.9844,29.2969 Q90.9063,29.75 89.6094,29.75 Q88.0938,29.75 86.8906,29.125 Q85.9063,28.625 85.2188,27.5625 Q84.5313,26.4844 84.5313,25.2031 L84.5313,24.0469 Q84.5313,22.7188 85.1406,21.5781 Q85.7656,20.4219 86.8594,19.8125 Q87.9531,19.1875 89.1875,19.1875 Q89.9219,19.1875 90.5625,19.3594 Q91.2188,19.5156 91.7656,19.875 Z "/><text fill="#000000" font-family="sans-serif" font-size="12" lengthAdjust="spacingAndGlyphs" textLength="44" x="103" y="28.9102">Attribute</text><line style="stroke: #A80036; stroke-width: 1.5;" x1="75" x2="149" y1="40" y2="40"/><line style="stroke: #A80036; stroke-width: 1.5;" x1="75" x2="149" y1="48" y2="48"/><!--class ConfigurationPersistenceActions--><rect fill="#FEFECE" filter="url(#f3y5lojuplbma)" height="48" id="ConfigurationPersistenceActions" style="stroke: #A80036; stroke-width: 1.5;" width="212" x="6" y="260"/><ellipse cx="21" cy="276" fill="#ADD1B2" rx="11" ry="11" style="stroke: #A80036; stroke-width: 1.0;"/><path d="M23.7656,271.875 Q23.9219,271.6563 24.1094,271.5469 Q24.2969,271.4375 24.5156,271.4375 Q24.8906,271.4375 25.125,271.7031 Q25.3594,271.9531 25.3594,272.5625 L25.3594,274.0156 Q25.3594,274.625 25.125,274.8906 Q24.8906,275.1563 24.5156,275.1563 Q24.1719,275.1563 23.9688,274.9531 Q23.7656,274.7656 23.6563,274.25 Q23.6094,273.8906 23.4219,273.7031 Q23.0938,273.3281 22.4844,273.1094 Q21.875,272.8906 21.25,272.8906 Q20.4844,272.8906 19.8438,273.2188 Q19.2188,273.5469 18.7188,274.2969 Q18.2344,275.0469 18.2344,276.0781 L18.2344,277.1719 Q18.2344,278.4063 19.125,279.2344 Q20.0156,280.0469 21.6094,280.0469 Q22.5469,280.0469 23.2031,279.7969 Q23.5938,279.6406 24.0156,279.2031 Q24.2813,278.9375 24.4219,278.8594 Q24.5781,278.7813 24.7813,278.7813 Q25.1094,278.7813 25.3594,279.0469 Q25.625,279.2969 25.625,279.6406 Q25.625,279.9844 25.2813,280.3906 Q24.7813,280.9688 23.9844,281.2969 Q22.9063,281.75 21.6094,281.75 Q20.0938,281.75 18.8906,281.125 Q17.9063,280.625 17.2188,279.5625 Q16.5313,278.4844 16.5313,277.2031 L16.5313,276.0469 Q16.5313,274.7188 17.1406,273.5781 Q17.7656,272.4219 18.8594,271.8125 Q19.9531,271.1875 21.1875,271.1875 Q21.9219,271.1875 22.5625,271.3594 Q23.2188,271.5156 23.7656,271.875 Z "/><text fill="#000000" font-family="sans-serif" font-size="12" lengthAdjust="spacingAndGlyphs" textLength="180" x="35" y="280.9102">ConfigurationPersistenceActions</text><line style="stroke: #A80036; stroke-width: 1.5;" x1="7" x2="217" y1="292" y2="292"/><line style="stroke: #A80036; stroke-width: 1.5;" x1="7" x2="217" y1="300" y2="300"/><!--reverse link Attribute to ConfigurationAttribute--><path d="M112,76.104 C112,88.968 112,103.032 112,115.772 " fill="none" id="Attribute&lt;-ConfigurationAttribute" style="stroke: #A80036; stroke-width: 1.0;"/><polygon fill="none" points="105.0001,76.033,112,56.033,119,76.033,105.0001,76.033" style="stroke: #A80036; stroke-width: 1.0;"/><!--link ConfigurationAttribute to ConfigurationPersistenceActions--><path d="M112,200.29 C112,218.14 112,238.5772 112,254.6702 " fill="none" id="ConfigurationAttribute-&gt;ConfigurationPersistenceActions" style="stroke: #A80036; stroke-width: 1.0;"/><polygon fill="#A80036" points="112,259.9513,116,250.9513,112,254.9513,108,250.9513,112,259.9513" style="stroke: #A80036; stroke-width: 1.0;"/><text fill="#000000" font-family="sans-serif" font-size="13" lengthAdjust="spacingAndGlyphs" textLength="69" x="34.1594" y="249.279">Persistence</text><!--
@startuml
class ConfigurationAttribute <<sealed>> {
    + ConfigurationAttribute()
    + DefaultValue : object? <<get>> <<set>>
}
Attribute <|- - ConfigurationAttribute
ConfigurationAttribute - -> "Persistence" ConfigurationPersistenceActions
@enduml

PlantUML version 1.2019.09(Mon Aug 26 17:19:51 BST 2019)
(GPL source distribution)
Java Runtime: OpenJDK Runtime Environment
JVM: OpenJDK 64-Bit Server VM
Java Version: 13.0.2+8
Operating System: Windows 10
OS Version: 10.0
Default Encoding: Cp1252
Language: en
Country: GB
--></g></svg>