<?xml version="1.0" encoding="UTF-8" standalone="no"?><svg xmlns="http://www.w3.org/2000/svg" xmlns:xlink="http://www.w3.org/1999/xlink" contentScriptType="application/ecmascript" contentStyleType="text/css" height="189px" preserveAspectRatio="none" style="width:297px;height:189px;" version="1.1" viewBox="0 0 297 189" width="297px" zoomAndPan="magnify"><defs><filter height="300%" id="f43rvdj6152z0" width="300%" x="-1" y="-1"><feGaussianBlur result="blurOut" stdDeviation="2.0"/><feColorMatrix in="blurOut" result="blurOut2" type="matrix" values="0 0 0 0 0 0 0 0 0 0 0 0 0 0 0 0 0 0 .4 0"/><feOffset dx="4.0" dy="4.0" in="blurOut2" result="blurOut3"/><feBlend in="SourceGraphic" in2="blurOut3" mode="normal"/></filter></defs><g><!--class IImplementation--><rect fill="#FEFECE" filter="url(#f43rvdj6152z0)" height="61.8359" id="IImplementation" style="stroke: #A80036; stroke-width: 1.5;" width="175" x="101.543" y="8"/><ellipse cx="139.943" cy="24" fill="#B4A7E5" rx="11" ry="11" style="stroke: #A80036; stroke-width: 1.0;"/><path d="M140.8961,20.6406 L140.8961,27.2969 L142.6149,27.2969 Q143.2243,27.2969 143.4899,27.5313 Q143.7555,27.7656 143.7555,28.1563 Q143.7555,28.5313 143.4899,28.7656 Q143.2243,29 142.6149,29 L137.4743,29 Q136.8649,29 136.5993,28.7656 Q136.3336,28.5313 136.3336,28.1406 Q136.3336,27.7656 136.5993,27.5313 Q136.8649,27.2969 137.4743,27.2969 L139.193,27.2969 L139.193,20.6406 L137.4743,20.6406 Q136.8649,20.6406 136.5993,20.4063 Q136.3336,20.1719 136.3336,19.7813 Q136.3336,19.4063 136.5993,19.1719 Q136.8649,18.9375 137.4743,18.9375 L142.6149,18.9375 Q143.2243,18.9375 143.4899,19.1719 Q143.7555,19.4063 143.7555,19.7813 Q143.7555,20.1719 143.4899,20.4063 Q143.2243,20.6406 142.6149,20.6406 L140.8961,20.6406 Z "/><text fill="#000000" font-family="sans-serif" font-size="12" font-style="italic" lengthAdjust="spacingAndGlyphs" textLength="91" x="159.143" y="28.9102">IImplementation</text><line style="stroke: #A80036; stroke-width: 1.5;" x1="102.543" x2="275.543" y1="40" y2="40"/><text fill="#000000" font-family="sans-serif" font-size="11" lengthAdjust="spacingAndGlyphs" textLength="163" x="107.543" y="55.4189">ImplementationType : Type? «get»</text><line style="stroke: #A80036; stroke-width: 1.5;" x1="102.543" x2="275.543" y1="61.8359" y2="61.8359"/><!--class ImplementationKind--><rect fill="#FEFECE" filter="url(#f43rvdj6152z0)" height="48" id="ImplementationKind" style="stroke: #A80036; stroke-width: 1.5;" width="143" x="49.543" y="130"/><ellipse cx="64.543" cy="146" fill="#ADD1B2" rx="11" ry="11" style="stroke: #A80036; stroke-width: 1.0;"/><path d="M67.3086,141.875 Q67.4649,141.6563 67.6524,141.5469 Q67.8399,141.4375 68.0586,141.4375 Q68.4336,141.4375 68.668,141.7031 Q68.9024,141.9531 68.9024,142.5625 L68.9024,144.0156 Q68.9024,144.625 68.668,144.8906 Q68.4336,145.1563 68.0586,145.1563 Q67.7149,145.1563 67.5118,144.9531 Q67.3086,144.7656 67.1993,144.25 Q67.1524,143.8906 66.9649,143.7031 Q66.6368,143.3281 66.0274,143.1094 Q65.418,142.8906 64.793,142.8906 Q64.0274,142.8906 63.3868,143.2188 Q62.7618,143.5469 62.2618,144.2969 Q61.7774,145.0469 61.7774,146.0781 L61.7774,147.1719 Q61.7774,148.4063 62.668,149.2344 Q63.5586,150.0469 65.1524,150.0469 Q66.0899,150.0469 66.7461,149.7969 Q67.1368,149.6406 67.5586,149.2031 Q67.8243,148.9375 67.9649,148.8594 Q68.1211,148.7813 68.3243,148.7813 Q68.6524,148.7813 68.9024,149.0469 Q69.168,149.2969 69.168,149.6406 Q69.168,149.9844 68.8243,150.3906 Q68.3243,150.9688 67.5274,151.2969 Q66.4493,151.75 65.1524,151.75 Q63.6368,151.75 62.4336,151.125 Q61.4493,150.625 60.7618,149.5625 Q60.0743,148.4844 60.0743,147.2031 L60.0743,146.0469 Q60.0743,144.7188 60.6836,143.5781 Q61.3086,142.4219 62.4024,141.8125 Q63.4961,141.1875 64.7305,141.1875 Q65.4649,141.1875 66.1055,141.3594 Q66.7618,141.5156 67.3086,141.875 Z "/><text fill="#000000" font-family="sans-serif" font-size="12" lengthAdjust="spacingAndGlyphs" textLength="111" x="78.543" y="150.9102">ImplementationKind</text><line style="stroke: #A80036; stroke-width: 1.5;" x1="50.543" x2="191.543" y1="162" y2="162"/><line style="stroke: #A80036; stroke-width: 1.5;" x1="50.543" x2="191.543" y1="170" y2="170"/><!--class Type--><rect fill="#FEFECE" filter="url(#f43rvdj6152z0)" height="48" id="Type" style="stroke: #A80036; stroke-width: 1.5;" width="58" x="228.043" y="130"/><ellipse cx="243.043" cy="146" fill="#ADD1B2" rx="11" ry="11" style="stroke: #A80036; stroke-width: 1.0;"/><path d="M245.8086,141.875 Q245.9649,141.6563 246.1524,141.5469 Q246.3399,141.4375 246.5586,141.4375 Q246.9336,141.4375 247.168,141.7031 Q247.4024,141.9531 247.4024,142.5625 L247.4024,144.0156 Q247.4024,144.625 247.168,144.8906 Q246.9336,145.1563 246.5586,145.1563 Q246.2149,145.1563 246.0118,144.9531 Q245.8086,144.7656 245.6993,144.25 Q245.6524,143.8906 245.4649,143.7031 Q245.1368,143.3281 244.5274,143.1094 Q243.918,142.8906 243.293,142.8906 Q242.5274,142.8906 241.8868,143.2188 Q241.2618,143.5469 240.7618,144.2969 Q240.2774,145.0469 240.2774,146.0781 L240.2774,147.1719 Q240.2774,148.4063 241.168,149.2344 Q242.0586,150.0469 243.6524,150.0469 Q244.5899,150.0469 245.2461,149.7969 Q245.6368,149.6406 246.0586,149.2031 Q246.3243,148.9375 246.4649,148.8594 Q246.6211,148.7813 246.8243,148.7813 Q247.1524,148.7813 247.4024,149.0469 Q247.668,149.2969 247.668,149.6406 Q247.668,149.9844 247.3243,150.3906 Q246.8243,150.9688 246.0274,151.2969 Q244.9493,151.75 243.6524,151.75 Q242.1368,151.75 240.9336,151.125 Q239.9493,150.625 239.2618,149.5625 Q238.5743,148.4844 238.5743,147.2031 L238.5743,146.0469 Q238.5743,144.7188 239.1836,143.5781 Q239.8086,142.4219 240.9024,141.8125 Q241.9961,141.1875 243.2305,141.1875 Q243.9649,141.1875 244.6055,141.3594 Q245.2618,141.5156 245.8086,141.875 Z "/><text fill="#000000" font-family="sans-serif" font-size="12" lengthAdjust="spacingAndGlyphs" textLength="26" x="257.043" y="150.9102">Type</text><line style="stroke: #A80036; stroke-width: 1.5;" x1="229.043" x2="285.043" y1="162" y2="162"/><line style="stroke: #A80036; stroke-width: 1.5;" x1="229.043" x2="285.043" y1="170" y2="170"/><!--link IImplementation to ImplementationKind--><path d="M170.82,70.282 C160.536,87.3724 147.777,108.5751 137.751,125.2353 " fill="none" id="IImplementation-&gt;ImplementationKind" style="stroke: #A80036; stroke-width: 1.0;"/><polygon fill="#A80036" points="135,129.8067,143.0678,124.1577,137.578,125.5226,136.2132,120.0328,135,129.8067" style="stroke: #A80036; stroke-width: 1.0;"/><text fill="#000000" font-family="sans-serif" font-size="13" lengthAdjust="spacingAndGlyphs" textLength="114" x="9.9702" y="119.0973">ImplementationKind</text><!--link IImplementation to Type--><path d="M207.266,70.282 C217.55,87.3724 230.309,108.5751 240.335,125.2353 " fill="none" id="IImplementation-&gt;Type" style="stroke: #A80036; stroke-width: 1.0;"/><polygon fill="#A80036" points="243.086,129.8067,241.8728,120.0328,240.508,125.5226,235.0182,124.1577,243.086,129.8067" style="stroke: #A80036; stroke-width: 1.0;"/><text fill="#000000" font-family="sans-serif" font-size="13" lengthAdjust="spacingAndGlyphs" textLength="28" x="207.922" y="119.0973">Type</text><!--
@startuml
interface IImplementation {
    ImplementationType : Type? <<get>>
}
IImplementation - -> "ImplementationKind" ImplementationKind
IImplementation - -> "Type" Type
@enduml

PlantUML version 1.2019.09(Mon Aug 26 17:19:51 BST 2019)
(GPL source distribution)
Java Runtime: OpenJDK Runtime Environment
JVM: OpenJDK 64-Bit Server VM
Java Version: 13.0.2+8
Operating System: Windows 10
OS Version: 10.0
Default Encoding: Cp1252
Language: en
Country: GB
--></g></svg>