<?xml version="1.0" encoding="UTF-8" standalone="no"?><svg xmlns="http://www.w3.org/2000/svg" xmlns:xlink="http://www.w3.org/1999/xlink" contentScriptType="application/ecmascript" contentStyleType="text/css" height="108px" preserveAspectRatio="none" style="width:192px;height:108px;" version="1.1" viewBox="0 0 192 108" width="192px" zoomAndPan="magnify"><defs><filter height="300%" id="f9pad9rcysyrm" width="300%" x="-1" y="-1"><feGaussianBlur result="blurOut" stdDeviation="2.0"/><feColorMatrix in="blurOut" result="blurOut2" type="matrix" values="0 0 0 0 0 0 0 0 0 0 0 0 0 0 0 0 0 0 .4 0"/><feOffset dx="4.0" dy="4.0" in="blurOut2" result="blurOut3"/><feBlend in="SourceGraphic" in2="blurOut3" mode="normal"/></filter></defs><g><!--class IConfigurationParent--><rect fill="#FEFECE" filter="url(#f9pad9rcysyrm)" height="89.5078" id="IConfigurationParent" style="stroke: #A80036; stroke-width: 1.5;" width="175" x="6" y="8"/><ellipse cx="34.05" cy="24" fill="#B4A7E5" rx="11" ry="11" style="stroke: #A80036; stroke-width: 1.0;"/><path d="M35.0031,20.6406 L35.0031,27.2969 L36.7219,27.2969 Q37.3313,27.2969 37.5969,27.5313 Q37.8625,27.7656 37.8625,28.1563 Q37.8625,28.5313 37.5969,28.7656 Q37.3313,29 36.7219,29 L31.5812,29 Q30.9719,29 30.7062,28.7656 Q30.4406,28.5313 30.4406,28.1406 Q30.4406,27.7656 30.7062,27.5313 Q30.9719,27.2969 31.5812,27.2969 L33.3,27.2969 L33.3,20.6406 L31.5812,20.6406 Q30.9719,20.6406 30.7062,20.4063 Q30.4406,20.1719 30.4406,19.7813 Q30.4406,19.4063 30.7062,19.1719 Q30.9719,18.9375 31.5812,18.9375 L36.7219,18.9375 Q37.3313,18.9375 37.5969,19.1719 Q37.8625,19.4063 37.8625,19.7813 Q37.8625,20.1719 37.5969,20.4063 Q37.3313,20.6406 36.7219,20.6406 L35.0031,20.6406 Z "/><text fill="#000000" font-family="sans-serif" font-size="12" font-style="italic" lengthAdjust="spacingAndGlyphs" textLength="114" x="50.95" y="28.9102">IConfigurationParent</text><line style="stroke: #A80036; stroke-width: 1.5;" x1="7" x2="180" y1="40" y2="40"/><text fill="#000000" font-family="sans-serif" font-size="11" lengthAdjust="spacingAndGlyphs" textLength="114" x="12" y="55.4189">IsReadOnly : bool «get»</text><text fill="#000000" font-family="sans-serif" font-size="11" lengthAdjust="spacingAndGlyphs" textLength="163" x="12" y="69.2549">PropertyDef : IPropertyDef? «get»</text><line style="stroke: #A80036; stroke-width: 1.5;" x1="7" x2="180" y1="75.6719" y2="75.6719"/><text fill="#000000" font-family="sans-serif" font-size="11" lengthAdjust="spacingAndGlyphs" textLength="109" x="12" y="91.0908">CalculatePath() : string</text><!--
@startuml
interface IConfigurationParent {
    IsReadOnly : bool <<get>>
    PropertyDef : IPropertyDef? <<get>>
    CalculatePath() : string
}
@enduml

PlantUML version 1.2019.09(Mon Aug 26 17:19:51 BST 2019)
(GPL source distribution)
Java Runtime: OpenJDK Runtime Environment
JVM: OpenJDK 64-Bit Server VM
Java Version: 13.0.2+8
Operating System: Windows 10
OS Version: 10.0
Default Encoding: Cp1252
Language: en
Country: GB
--></g></svg>