<?xml version="1.0" encoding="UTF-8" standalone="no"?><svg xmlns="http://www.w3.org/2000/svg" xmlns:xlink="http://www.w3.org/1999/xlink" contentScriptType="application/ecmascript" contentStyleType="text/css" height="80px" preserveAspectRatio="none" style="width:250px;height:80px;" version="1.1" viewBox="0 0 250 80" width="250px" zoomAndPan="magnify"><defs><filter height="300%" id="f13gulcvqghjg4" width="300%" x="-1" y="-1"><feGaussianBlur result="blurOut" stdDeviation="2.0"/><feColorMatrix in="blurOut" result="blurOut2" type="matrix" values="0 0 0 0 0 0 0 0 0 0 0 0 0 0 0 0 0 0 .4 0"/><feOffset dx="4.0" dy="4.0" in="blurOut2" result="blurOut3"/><feBlend in="SourceGraphic" in2="blurOut3" mode="normal"/></filter></defs><g><!--class IConfigurationChild--><rect fill="#FEFECE" filter="url(#f13gulcvqghjg4)" height="61.8359" id="IConfigurationChild" style="stroke: #A80036; stroke-width: 1.5;" width="233" x="6" y="8"/><ellipse cx="64.75" cy="24" fill="#B4A7E5" rx="11" ry="11" style="stroke: #A80036; stroke-width: 1.0;"/><path d="M65.7031,20.6406 L65.7031,27.2969 L67.4219,27.2969 Q68.0313,27.2969 68.2969,27.5313 Q68.5625,27.7656 68.5625,28.1563 Q68.5625,28.5313 68.2969,28.7656 Q68.0313,29 67.4219,29 L62.2813,29 Q61.6719,29 61.4063,28.7656 Q61.1406,28.5313 61.1406,28.1406 Q61.1406,27.7656 61.4063,27.5313 Q61.6719,27.2969 62.2813,27.2969 L64,27.2969 L64,20.6406 L62.2813,20.6406 Q61.6719,20.6406 61.4063,20.4063 Q61.1406,20.1719 61.1406,19.7813 Q61.1406,19.4063 61.4063,19.1719 Q61.6719,18.9375 62.2813,18.9375 L67.4219,18.9375 Q68.0313,18.9375 68.2969,19.1719 Q68.5625,19.4063 68.5625,19.7813 Q68.5625,20.1719 68.2969,20.4063 Q68.0313,20.6406 67.4219,20.6406 L65.7031,20.6406 Z "/><text fill="#000000" font-family="sans-serif" font-size="12" font-style="italic" lengthAdjust="spacingAndGlyphs" textLength="107" x="85.25" y="28.9102">IConfigurationChild</text><line style="stroke: #A80036; stroke-width: 1.5;" x1="7" x2="238" y1="40" y2="40"/><line style="stroke: #A80036; stroke-width: 1.5;" x1="7" x2="238" y1="48" y2="48"/><text fill="#000000" font-family="sans-serif" font-size="11" lengthAdjust="spacingAndGlyphs" textLength="221" x="12" y="63.4189">SetParent(parent:IConfigurationParent?) : void</text><!--
@startuml
interface IConfigurationChild {
    SetParent(parent:IConfigurationParent?) : void
}
@enduml

PlantUML version 1.2019.09(Mon Aug 26 17:19:51 BST 2019)
(GPL source distribution)
Java Runtime: OpenJDK Runtime Environment
JVM: OpenJDK 64-Bit Server VM
Java Version: 13.0.2+8
Operating System: Windows 10
OS Version: 10.0
Default Encoding: Cp1252
Language: en
Country: GB
--></g></svg>