<?xml version="1.0" encoding="UTF-8" standalone="no"?><svg xmlns="http://www.w3.org/2000/svg" xmlns:xlink="http://www.w3.org/1999/xlink" contentScriptType="application/ecmascript" contentStyleType="text/css" height="354px" preserveAspectRatio="none" style="width:893px;height:354px;" version="1.1" viewBox="0 0 893 354" width="893px" zoomAndPan="magnify"><defs><filter height="300%" id="fj213xlsgd2gl" width="300%" x="-1" y="-1"><feGaussianBlur result="blurOut" stdDeviation="2.0"/><feColorMatrix in="blurOut" result="blurOut2" type="matrix" values="0 0 0 0 0 0 0 0 0 0 0 0 0 0 0 0 0 0 .4 0"/><feOffset dx="4.0" dy="4.0" in="blurOut2" result="blurOut3"/><feBlend in="SourceGraphic" in2="blurOut3" mode="normal"/></filter></defs><g><!--class ConfigurationDictionary`1--><rect fill="#FEFECE" filter="url(#fj213xlsgd2gl)" height="227.8672" id="ConfigurationDictionary`1" style="stroke: #A80036; stroke-width: 1.5;" width="873" x="6" y="116"/><ellipse cx="340.25" cy="132" fill="#ADD1B2" rx="11" ry="11" style="stroke: #A80036; stroke-width: 1.0;"/><path d="M343.0156,127.875 Q343.1719,127.6563 343.3594,127.5469 Q343.5469,127.4375 343.7656,127.4375 Q344.1406,127.4375 344.375,127.7031 Q344.6094,127.9531 344.6094,128.5625 L344.6094,130.0156 Q344.6094,130.625 344.375,130.8906 Q344.1406,131.1563 343.7656,131.1563 Q343.4219,131.1563 343.2188,130.9531 Q343.0156,130.7656 342.9063,130.25 Q342.8594,129.8906 342.6719,129.7031 Q342.3438,129.3281 341.7344,129.1094 Q341.125,128.8906 340.5,128.8906 Q339.7344,128.8906 339.0938,129.2188 Q338.4688,129.5469 337.9688,130.2969 Q337.4844,131.0469 337.4844,132.0781 L337.4844,133.1719 Q337.4844,134.4063 338.375,135.2344 Q339.2656,136.0469 340.8594,136.0469 Q341.7969,136.0469 342.4531,135.7969 Q342.8438,135.6406 343.2656,135.2031 Q343.5313,134.9375 343.6719,134.8594 Q343.8281,134.7813 344.0313,134.7813 Q344.3594,134.7813 344.6094,135.0469 Q344.875,135.2969 344.875,135.6406 Q344.875,135.9844 344.5313,136.3906 Q344.0313,136.9688 343.2344,137.2969 Q342.1563,137.75 340.8594,137.75 Q339.3438,137.75 338.1406,137.125 Q337.1563,136.625 336.4688,135.5625 Q335.7813,134.4844 335.7813,133.2031 L335.7813,132.0469 Q335.7813,130.7188 336.3906,129.5781 Q337.0156,128.4219 338.1094,127.8125 Q339.2031,127.1875 340.4375,127.1875 Q341.1719,127.1875 341.8125,127.3594 Q342.4688,127.5156 343.0156,127.875 Z "/><text fill="#000000" font-family="sans-serif" font-size="12" lengthAdjust="spacingAndGlyphs" textLength="139" x="360.75" y="136.9102">ConfigurationDictionary`1</text><rect fill="#FFFFFF" height="17.0938" style="stroke: #000000; stroke-width: 1.0; stroke-dasharray: 2.0,2.0;" width="55" x="827" y="113"/><text fill="#000000" font-family="sans-serif" font-size="12" font-style="italic" lengthAdjust="spacingAndGlyphs" textLength="53" x="828" y="126.457">TElement</text><line style="stroke: #A80036; stroke-width: 1.5;" x1="7" x2="878" y1="148" y2="148"/><line style="stroke: #A80036; stroke-width: 1.5;" x1="7" x2="878" y1="156" y2="156"/><ellipse cx="17" cy="167" fill="#84BE84" rx="3" ry="3" style="stroke: #038048; stroke-width: 1.0;"/><text fill="#000000" font-family="sans-serif" font-size="11" lengthAdjust="spacingAndGlyphs" textLength="847" x="26" y="171.4189">ConfigurationDictionary(parent:IConfigurationParent?, propertyDef:IPropertyDef, configurationRoot:IConfigurationRoot, elements:IEnumerable&lt;KeyValuePair&lt;string, TElement&gt;&gt;?)</text><ellipse cx="17" cy="180.8359" fill="#84BE84" rx="3" ry="3" style="stroke: #038048; stroke-width: 1.0;"/><text fill="#000000" font-family="sans-serif" font-size="11" lengthAdjust="spacingAndGlyphs" textLength="783" x="26" y="185.2549">ConfigurationDictionary(parent:IConfigurationParent?, propertyDef:IPropertyDef, configurationRoot:IConfigurationRoot, elements:KeyValuePair&lt;string, TElement&gt;[]?)</text><ellipse cx="17" cy="194.6719" fill="#84BE84" rx="3" ry="3" style="stroke: #038048; stroke-width: 1.0;"/><text fill="#000000" font-family="sans-serif" font-size="11" lengthAdjust="spacingAndGlyphs" textLength="232" x="26" y="199.0908">Add(item:KeyValuePair&lt;string, TElement&gt;) : void</text><ellipse cx="17" cy="208.5078" fill="#84BE84" rx="3" ry="3" style="stroke: #038048; stroke-width: 1.0;"/><text fill="#000000" font-family="sans-serif" font-size="11" lengthAdjust="spacingAndGlyphs" textLength="230" x="26" y="212.9268">«new» Add(key:string, element:TElement) : void</text><ellipse cx="17" cy="222.3438" fill="#84BE84" rx="3" ry="3" style="stroke: #038048; stroke-width: 1.0;"/><text fill="#000000" font-family="sans-serif" font-size="11" lengthAdjust="spacingAndGlyphs" textLength="257" x="26" y="226.7627">AddCopy(item:KeyValuePair&lt;string, TElement&gt;) : void</text><ellipse cx="17" cy="236.1797" fill="#84BE84" rx="3" ry="3" style="stroke: #038048; stroke-width: 1.0;"/><text fill="#000000" font-family="sans-serif" font-size="11" lengthAdjust="spacingAndGlyphs" textLength="162" x="26" y="240.5986">Contains(element:TElement) : bool</text><ellipse cx="17" cy="250.0156" fill="#84BE84" rx="3" ry="3" style="stroke: #038048; stroke-width: 1.0;"/><text fill="#000000" font-family="sans-serif" font-size="11" lengthAdjust="spacingAndGlyphs" textLength="334" x="26" y="254.4346">CopyTo(array:KeyValuePair&lt;string, TElement&gt;[], arrayIndex:int) : void</text><ellipse cx="17" cy="263.8516" fill="#84BE84" rx="3" ry="3" style="stroke: #038048; stroke-width: 1.0;"/><text fill="#000000" font-family="sans-serif" font-size="11" lengthAdjust="spacingAndGlyphs" textLength="311" x="26" y="268.2705">GetEnumerator() : IEnumerator&lt;KeyValuePair&lt;string, TElement&gt;&gt;</text><ellipse cx="17" cy="277.6875" fill="#84BE84" rx="3" ry="3" style="stroke: #038048; stroke-width: 1.0;"/><text fill="#000000" font-family="sans-serif" font-size="11" lengthAdjust="spacingAndGlyphs" textLength="251" x="26" y="282.1064">Remove(item:KeyValuePair&lt;string, TElement&gt;) : bool</text><text fill="#000000" font-family="sans-serif" font-size="11" lengthAdjust="spacingAndGlyphs" textLength="182" x="26" y="295.9424">Add(key:string, value:TElement) : void</text><text fill="#000000" font-family="sans-serif" font-size="11" lengthAdjust="spacingAndGlyphs" textLength="150" x="26" y="309.7783">AddNew(key:string) : TElement</text><text fill="#000000" font-family="sans-serif" font-size="11" lengthAdjust="spacingAndGlyphs" textLength="254" x="26" y="323.6143">Contains(item:KeyValuePair&lt;string, TElement&gt;) : bool</text><text fill="#000000" font-family="sans-serif" font-size="11" lengthAdjust="spacingAndGlyphs" textLength="146" x="26" y="337.4502">GetEnumerator() : IEnumerator</text><!--class ConfigurationDictionaryBase`2--><rect fill="#FEFECE" filter="url(#fj213xlsgd2gl)" height="48" id="ConfigurationDictionaryBase`2" style="stroke: #A80036; stroke-width: 1.5;" width="235" x="203" y="8"/><ellipse cx="218" cy="24" fill="#ADD1B2" rx="11" ry="11" style="stroke: #A80036; stroke-width: 1.0;"/><path d="M220.7656,19.875 Q220.9219,19.6563 221.1094,19.5469 Q221.2969,19.4375 221.5156,19.4375 Q221.8906,19.4375 222.125,19.7031 Q222.3594,19.9531 222.3594,20.5625 L222.3594,22.0156 Q222.3594,22.625 222.125,22.8906 Q221.8906,23.1563 221.5156,23.1563 Q221.1719,23.1563 220.9688,22.9531 Q220.7656,22.7656 220.6563,22.25 Q220.6094,21.8906 220.4219,21.7031 Q220.0938,21.3281 219.4844,21.1094 Q218.875,20.8906 218.25,20.8906 Q217.4844,20.8906 216.8438,21.2188 Q216.2188,21.5469 215.7188,22.2969 Q215.2344,23.0469 215.2344,24.0781 L215.2344,25.1719 Q215.2344,26.4063 216.125,27.2344 Q217.0156,28.0469 218.6094,28.0469 Q219.5469,28.0469 220.2031,27.7969 Q220.5938,27.6406 221.0156,27.2031 Q221.2813,26.9375 221.4219,26.8594 Q221.5781,26.7813 221.7813,26.7813 Q222.1094,26.7813 222.3594,27.0469 Q222.625,27.2969 222.625,27.6406 Q222.625,27.9844 222.2813,28.3906 Q221.7813,28.9688 220.9844,29.2969 Q219.9063,29.75 218.6094,29.75 Q217.0938,29.75 215.8906,29.125 Q214.9063,28.625 214.2188,27.5625 Q213.5313,26.4844 213.5313,25.2031 L213.5313,24.0469 Q213.5313,22.7188 214.1406,21.5781 Q214.7656,20.4219 215.8594,19.8125 Q216.9531,19.1875 218.1875,19.1875 Q218.9219,19.1875 219.5625,19.3594 Q220.2188,19.5156 220.7656,19.875 Z "/><text fill="#000000" font-family="sans-serif" font-size="12" lengthAdjust="spacingAndGlyphs" textLength="168" x="232" y="28.9102">ConfigurationDictionaryBase`2</text><rect fill="#FFFFFF" height="17.0938" style="stroke: #000000; stroke-width: 1.0; stroke-dasharray: 2.0,2.0;" width="33" x="408" y="5"/><text fill="#000000" font-family="sans-serif" font-size="12" font-style="italic" lengthAdjust="spacingAndGlyphs" textLength="31" x="409" y="18.457">T1,T2</text><line style="stroke: #A80036; stroke-width: 1.5;" x1="204" x2="437" y1="40" y2="40"/><line style="stroke: #A80036; stroke-width: 1.5;" x1="204" x2="437" y1="48" y2="48"/><!--class IConfigurationDictionary`1--><rect fill="#FEFECE" filter="url(#fj213xlsgd2gl)" height="48" id="IConfigurationDictionary`1" style="stroke: #A80036; stroke-width: 1.5;" width="185" x="473" y="8"/><ellipse cx="488" cy="24" fill="#ADD1B2" rx="11" ry="11" style="stroke: #A80036; stroke-width: 1.0;"/><path d="M490.7656,19.875 Q490.9219,19.6563 491.1094,19.5469 Q491.2969,19.4375 491.5156,19.4375 Q491.8906,19.4375 492.125,19.7031 Q492.3594,19.9531 492.3594,20.5625 L492.3594,22.0156 Q492.3594,22.625 492.125,22.8906 Q491.8906,23.1563 491.5156,23.1563 Q491.1719,23.1563 490.9688,22.9531 Q490.7656,22.7656 490.6563,22.25 Q490.6094,21.8906 490.4219,21.7031 Q490.0938,21.3281 489.4844,21.1094 Q488.875,20.8906 488.25,20.8906 Q487.4844,20.8906 486.8438,21.2188 Q486.2188,21.5469 485.7188,22.2969 Q485.2344,23.0469 485.2344,24.0781 L485.2344,25.1719 Q485.2344,26.4063 486.125,27.2344 Q487.0156,28.0469 488.6094,28.0469 Q489.5469,28.0469 490.2031,27.7969 Q490.5938,27.6406 491.0156,27.2031 Q491.2813,26.9375 491.4219,26.8594 Q491.5781,26.7813 491.7813,26.7813 Q492.1094,26.7813 492.3594,27.0469 Q492.625,27.2969 492.625,27.6406 Q492.625,27.9844 492.2813,28.3906 Q491.7813,28.9688 490.9844,29.2969 Q489.9063,29.75 488.6094,29.75 Q487.0938,29.75 485.8906,29.125 Q484.9063,28.625 484.2188,27.5625 Q483.5313,26.4844 483.5313,25.2031 L483.5313,24.0469 Q483.5313,22.7188 484.1406,21.5781 Q484.7656,20.4219 485.8594,19.8125 Q486.9531,19.1875 488.1875,19.1875 Q488.9219,19.1875 489.5625,19.3594 Q490.2188,19.5156 490.7656,19.875 Z "/><text fill="#000000" font-family="sans-serif" font-size="12" lengthAdjust="spacingAndGlyphs" textLength="142" x="502" y="28.9102">IConfigurationDictionary`1</text><rect fill="#FFFFFF" height="17.0938" style="stroke: #000000; stroke-width: 1.0; stroke-dasharray: 2.0,2.0;" width="9" x="652" y="5"/><text fill="#000000" font-family="sans-serif" font-size="12" font-style="italic" lengthAdjust="spacingAndGlyphs" textLength="7" x="653" y="18.457">T</text><line style="stroke: #A80036; stroke-width: 1.5;" x1="474" x2="657" y1="40" y2="40"/><line style="stroke: #A80036; stroke-width: 1.5;" x1="474" x2="657" y1="48" y2="48"/><!--class IDictionary`2--><rect fill="#FEFECE" filter="url(#fj213xlsgd2gl)" height="48" id="IDictionary`2" style="stroke: #A80036; stroke-width: 1.5;" width="135" x="693" y="8"/><ellipse cx="708" cy="24" fill="#ADD1B2" rx="11" ry="11" style="stroke: #A80036; stroke-width: 1.0;"/><path d="M710.7656,19.875 Q710.9219,19.6563 711.1094,19.5469 Q711.2969,19.4375 711.5156,19.4375 Q711.8906,19.4375 712.125,19.7031 Q712.3594,19.9531 712.3594,20.5625 L712.3594,22.0156 Q712.3594,22.625 712.125,22.8906 Q711.8906,23.1563 711.5156,23.1563 Q711.1719,23.1563 710.9688,22.9531 Q710.7656,22.7656 710.6563,22.25 Q710.6094,21.8906 710.4219,21.7031 Q710.0938,21.3281 709.4844,21.1094 Q708.875,20.8906 708.25,20.8906 Q707.4844,20.8906 706.8438,21.2188 Q706.2188,21.5469 705.7188,22.2969 Q705.2344,23.0469 705.2344,24.0781 L705.2344,25.1719 Q705.2344,26.4063 706.125,27.2344 Q707.0156,28.0469 708.6094,28.0469 Q709.5469,28.0469 710.2031,27.7969 Q710.5938,27.6406 711.0156,27.2031 Q711.2813,26.9375 711.4219,26.8594 Q711.5781,26.7813 711.7813,26.7813 Q712.1094,26.7813 712.3594,27.0469 Q712.625,27.2969 712.625,27.6406 Q712.625,27.9844 712.2813,28.3906 Q711.7813,28.9688 710.9844,29.2969 Q709.9063,29.75 708.6094,29.75 Q707.0938,29.75 705.8906,29.125 Q704.9063,28.625 704.2188,27.5625 Q703.5313,26.4844 703.5313,25.2031 L703.5313,24.0469 Q703.5313,22.7188 704.1406,21.5781 Q704.7656,20.4219 705.8594,19.8125 Q706.9531,19.1875 708.1875,19.1875 Q708.9219,19.1875 709.5625,19.3594 Q710.2188,19.5156 710.7656,19.875 Z "/><text fill="#000000" font-family="sans-serif" font-size="12" lengthAdjust="spacingAndGlyphs" textLength="68" x="722" y="28.9102">IDictionary`2</text><rect fill="#FFFFFF" height="17.0938" style="stroke: #000000; stroke-width: 1.0; stroke-dasharray: 2.0,2.0;" width="33" x="798" y="5"/><text fill="#000000" font-family="sans-serif" font-size="12" font-style="italic" lengthAdjust="spacingAndGlyphs" textLength="31" x="799" y="18.457">T1,T2</text><line style="stroke: #A80036; stroke-width: 1.5;" x1="694" x2="827" y1="40" y2="40"/><line style="stroke: #A80036; stroke-width: 1.5;" x1="694" x2="827" y1="48" y2="48"/><!--reverse link ConfigurationDictionaryBase`2 to ConfigurationDictionary`1--><path d="M345.806,73.655 C353.632,86.228 362.667,100.744 372.007,115.749 " fill="none" id="ConfigurationDictionaryBase`2&lt;-ConfigurationDictionary`1" style="stroke: #A80036; stroke-width: 1.0;"/><polygon fill="none" points="339.6,76.932,334.974,56.253,351.486,69.534,339.6,76.932" style="stroke: #A80036; stroke-width: 1.0;"/><text fill="#000000" font-family="sans-serif" font-size="13" lengthAdjust="spacingAndGlyphs" textLength="107" x="218.4614" y="77.6526">&lt;string,TElement&gt;</text><!--reverse link IConfigurationDictionary`1 to ConfigurationDictionary`1--><path d="M540.265,73.212 C532.311,85.887 523.098,100.567 513.571,115.749 " fill="none" id="IConfigurationDictionary`1&lt;-ConfigurationDictionary`1" style="stroke: #A80036; stroke-width: 1.0;"/><polygon fill="none" points="534.347,69.473,550.907,56.253,546.205,76.915,534.347,69.473" style="stroke: #A80036; stroke-width: 1.0;"/><text fill="#000000" font-family="sans-serif" font-size="13" lengthAdjust="spacingAndGlyphs" textLength="71" x="467.6968" y="77.6526">&lt;TElement&gt;</text><!--
@startuml
class "ConfigurationDictionary`1"<TElement> {
    + ConfigurationDictionary(parent:IConfigurationParent?, propertyDef:IPropertyDef, configurationRoot:IConfigurationRoot, elements:IEnumerable<KeyValuePair<string, TElement>>?)
    + ConfigurationDictionary(parent:IConfigurationParent?, propertyDef:IPropertyDef, configurationRoot:IConfigurationRoot, elements:KeyValuePair<string, TElement>[]?)
    + Add(item:KeyValuePair<string, TElement>) : void
    + <<new>> Add(key:string, element:TElement) : void
    + AddCopy(item:KeyValuePair<string, TElement>) : void
    + Contains(element:TElement) : bool
    + CopyTo(array:KeyValuePair<string, TElement>[], arrayIndex:int) : void
    + GetEnumerator() : IEnumerator<KeyValuePair<string, TElement>>
    + Remove(item:KeyValuePair<string, TElement>) : bool
    Add(key:string, value:TElement) : void
    AddNew(key:string) : TElement
    Contains(item:KeyValuePair<string, TElement>) : bool
    GetEnumerator() : IEnumerator
}
class "ConfigurationDictionaryBase`2"<T1,T2> {
}
class "IConfigurationDictionary`1"<T> {
}
class "IDictionary`2"<T1,T2> {
}
"ConfigurationDictionaryBase`2" "<string,TElement>" <|- - "ConfigurationDictionary`1"
"IConfigurationDictionary`1" "<TElement>" <|- - "ConfigurationDictionary`1"
@enduml

PlantUML version 1.2019.09(Mon Aug 26 17:19:51 BST 2019)
(GPL source distribution)
Java Runtime: OpenJDK Runtime Environment
JVM: OpenJDK 64-Bit Server VM
Java Version: 13.0.2+8
Operating System: Windows 10
OS Version: 10.0
Default Encoding: Cp1252
Language: en
Country: GB
--></g></svg>