<?xml version="1.0" encoding="UTF-8" standalone="no"?><svg xmlns="http://www.w3.org/2000/svg" xmlns:xlink="http://www.w3.org/1999/xlink" contentScriptType="application/ecmascript" contentStyleType="text/css" height="271px" preserveAspectRatio="none" style="width:480px;height:271px;" version="1.1" viewBox="0 0 480 271" width="480px" zoomAndPan="magnify"><defs><filter height="300%" id="fl0urpfmmp74m" width="300%" x="-1" y="-1"><feGaussianBlur result="blurOut" stdDeviation="2.0"/><feColorMatrix in="blurOut" result="blurOut2" type="matrix" values="0 0 0 0 0 0 0 0 0 0 0 0 0 0 0 0 0 0 .4 0"/><feOffset dx="4.0" dy="4.0" in="blurOut2" result="blurOut3"/><feBlend in="SourceGraphic" in2="blurOut3" mode="normal"/></filter></defs><g><!--class InvalidPropertyException--><rect fill="#FEFECE" filter="url(#fl0urpfmmp74m)" height="144.8516" id="InvalidPropertyException" style="stroke: #A80036; stroke-width: 1.5;" width="463" x="6" y="116"/><ellipse cx="166.75" cy="132" fill="#ADD1B2" rx="11" ry="11" style="stroke: #A80036; stroke-width: 1.0;"/><path d="M169.5156,127.875 Q169.6719,127.6563 169.8594,127.5469 Q170.0469,127.4375 170.2656,127.4375 Q170.6406,127.4375 170.875,127.7031 Q171.1094,127.9531 171.1094,128.5625 L171.1094,130.0156 Q171.1094,130.625 170.875,130.8906 Q170.6406,131.1563 170.2656,131.1563 Q169.9219,131.1563 169.7188,130.9531 Q169.5156,130.7656 169.4063,130.25 Q169.3594,129.8906 169.1719,129.7031 Q168.8438,129.3281 168.2344,129.1094 Q167.625,128.8906 167,128.8906 Q166.2344,128.8906 165.5938,129.2188 Q164.9688,129.5469 164.4688,130.2969 Q163.9844,131.0469 163.9844,132.0781 L163.9844,133.1719 Q163.9844,134.4063 164.875,135.2344 Q165.7656,136.0469 167.3594,136.0469 Q168.2969,136.0469 168.9531,135.7969 Q169.3438,135.6406 169.7656,135.2031 Q170.0313,134.9375 170.1719,134.8594 Q170.3281,134.7813 170.5313,134.7813 Q170.8594,134.7813 171.1094,135.0469 Q171.375,135.2969 171.375,135.6406 Q171.375,135.9844 171.0313,136.3906 Q170.5313,136.9688 169.7344,137.2969 Q168.6563,137.75 167.3594,137.75 Q165.8438,137.75 164.6406,137.125 Q163.6563,136.625 162.9688,135.5625 Q162.2813,134.4844 162.2813,133.2031 L162.2813,132.0469 Q162.2813,130.7188 162.8906,129.5781 Q163.5156,128.4219 164.6094,127.8125 Q165.7031,127.1875 166.9375,127.1875 Q167.6719,127.1875 168.3125,127.3594 Q168.9688,127.5156 169.5156,127.875 Z "/><text fill="#000000" font-family="sans-serif" font-size="12" lengthAdjust="spacingAndGlyphs" textLength="133" x="187.25" y="136.9102">InvalidPropertyException</text><line style="stroke: #A80036; stroke-width: 1.5;" x1="7" x2="468" y1="148" y2="148"/><ellipse cx="17" cy="159" fill="none" rx="3" ry="3" style="stroke: #038048; stroke-width: 1.0;"/><text fill="#000000" font-family="sans-serif" font-size="11" lengthAdjust="spacingAndGlyphs" textLength="170" x="26" y="163.4189">PropertyName : string? «get» «set»</text><line style="stroke: #A80036; stroke-width: 1.5;" x1="7" x2="468" y1="169.8359" y2="169.8359"/><ellipse cx="17" cy="180.8359" fill="#84BE84" rx="3" ry="3" style="stroke: #038048; stroke-width: 1.0;"/><text fill="#000000" font-family="sans-serif" font-size="11" lengthAdjust="spacingAndGlyphs" textLength="126" x="26" y="185.2549">InvalidPropertyException()</text><ellipse cx="17" cy="194.6719" fill="#84BE84" rx="3" ry="3" style="stroke: #038048; stroke-width: 1.0;"/><text fill="#000000" font-family="sans-serif" font-size="11" lengthAdjust="spacingAndGlyphs" textLength="200" x="26" y="199.0908">InvalidPropertyException(message:string)</text><ellipse cx="17" cy="208.5078" fill="#84BE84" rx="3" ry="3" style="stroke: #038048; stroke-width: 1.0;"/><text fill="#000000" font-family="sans-serif" font-size="11" lengthAdjust="spacingAndGlyphs" textLength="310" x="26" y="212.9268">InvalidPropertyException(propertyName:string?, message:string)</text><ellipse cx="17" cy="222.3438" fill="#84BE84" rx="3" ry="3" style="stroke: #038048; stroke-width: 1.0;"/><text fill="#000000" font-family="sans-serif" font-size="11" lengthAdjust="spacingAndGlyphs" textLength="327" x="26" y="226.7627">InvalidPropertyException(message:string, innerException:Exception)</text><ellipse cx="17" cy="236.1797" fill="#84BE84" rx="3" ry="3" style="stroke: #038048; stroke-width: 1.0;"/><text fill="#000000" font-family="sans-serif" font-size="11" lengthAdjust="spacingAndGlyphs" textLength="437" x="26" y="240.5986">InvalidPropertyException(propertyName:string?, message:string, innerException:Exception)</text><ellipse cx="17" cy="250.0156" fill="#84BE84" rx="3" ry="3" style="stroke: #038048; stroke-width: 1.0;"/><text fill="#000000" font-family="sans-serif" font-size="11" lengthAdjust="spacingAndGlyphs" textLength="389" x="26" y="254.4346">«override» GetObjectData(info:SerializationInfo, context:StreamingContext) : void</text><!--class Exception--><rect fill="#FEFECE" filter="url(#fl0urpfmmp74m)" height="48" id="Exception" style="stroke: #A80036; stroke-width: 1.5;" width="85" x="195" y="8"/><ellipse cx="210" cy="24" fill="#ADD1B2" rx="11" ry="11" style="stroke: #A80036; stroke-width: 1.0;"/><path d="M212.7656,19.875 Q212.9219,19.6563 213.1094,19.5469 Q213.2969,19.4375 213.5156,19.4375 Q213.8906,19.4375 214.125,19.7031 Q214.3594,19.9531 214.3594,20.5625 L214.3594,22.0156 Q214.3594,22.625 214.125,22.8906 Q213.8906,23.1563 213.5156,23.1563 Q213.1719,23.1563 212.9688,22.9531 Q212.7656,22.7656 212.6563,22.25 Q212.6094,21.8906 212.4219,21.7031 Q212.0938,21.3281 211.4844,21.1094 Q210.875,20.8906 210.25,20.8906 Q209.4844,20.8906 208.8438,21.2188 Q208.2188,21.5469 207.7188,22.2969 Q207.2344,23.0469 207.2344,24.0781 L207.2344,25.1719 Q207.2344,26.4063 208.125,27.2344 Q209.0156,28.0469 210.6094,28.0469 Q211.5469,28.0469 212.2031,27.7969 Q212.5938,27.6406 213.0156,27.2031 Q213.2813,26.9375 213.4219,26.8594 Q213.5781,26.7813 213.7813,26.7813 Q214.1094,26.7813 214.3594,27.0469 Q214.625,27.2969 214.625,27.6406 Q214.625,27.9844 214.2813,28.3906 Q213.7813,28.9688 212.9844,29.2969 Q211.9063,29.75 210.6094,29.75 Q209.0938,29.75 207.8906,29.125 Q206.9063,28.625 206.2188,27.5625 Q205.5313,26.4844 205.5313,25.2031 L205.5313,24.0469 Q205.5313,22.7188 206.1406,21.5781 Q206.7656,20.4219 207.8594,19.8125 Q208.9531,19.1875 210.1875,19.1875 Q210.9219,19.1875 211.5625,19.3594 Q212.2188,19.5156 212.7656,19.875 Z "/><text fill="#000000" font-family="sans-serif" font-size="12" lengthAdjust="spacingAndGlyphs" textLength="53" x="224" y="28.9102">Exception</text><line style="stroke: #A80036; stroke-width: 1.5;" x1="196" x2="279" y1="40" y2="40"/><line style="stroke: #A80036; stroke-width: 1.5;" x1="196" x2="279" y1="48" y2="48"/><!--reverse link Exception to InvalidPropertyException--><path d="M237.5,76.388 C237.5,88.701 237.5,102.445 237.5,115.955 " fill="none" id="Exception&lt;-InvalidPropertyException" style="stroke: #A80036; stroke-width: 1.0;"/><polygon fill="none" points="230.5,76.13,237.5,56.13,244.5,76.13,230.5,76.13" style="stroke: #A80036; stroke-width: 1.0;"/><!--
@startuml
class InvalidPropertyException {
    + InvalidPropertyException()
    + InvalidPropertyException(message:string)
    + InvalidPropertyException(propertyName:string?, message:string)
    + InvalidPropertyException(message:string, innerException:Exception)
    + InvalidPropertyException(propertyName:string?, message:string, innerException:Exception)
    + PropertyName : string? <<get>> <<set>>
    + <<override>> GetObjectData(info:SerializationInfo, context:StreamingContext) : void
}
Exception <|- - InvalidPropertyException
@enduml

PlantUML version 1.2019.09(Mon Aug 26 17:19:51 BST 2019)
(GPL source distribution)
Java Runtime: OpenJDK Runtime Environment
JVM: OpenJDK 64-Bit Server VM
Java Version: 13.0.2+8
Operating System: Windows 10
OS Version: 10.0
Default Encoding: Cp1252
Language: en
Country: GB
--></g></svg>