<?xml version="1.0" encoding="UTF-8" standalone="no"?><svg xmlns="http://www.w3.org/2000/svg" xmlns:xlink="http://www.w3.org/1999/xlink" contentScriptType="application/ecmascript" contentStyleType="text/css" height="238px" preserveAspectRatio="none" style="width:480px;height:238px;" version="1.1" viewBox="0 0 480 238" width="480px" zoomAndPan="magnify"><defs><filter height="300%" id="fvq9oizl5tjxm" width="300%" x="-1" y="-1"><feGaussianBlur result="blurOut" stdDeviation="2.0"/><feColorMatrix in="blurOut" result="blurOut2" type="matrix" values="0 0 0 0 0 0 0 0 0 0 0 0 0 0 0 0 0 0 .4 0"/><feOffset dx="4.0" dy="4.0" in="blurOut2" result="blurOut3"/><feBlend in="SourceGraphic" in2="blurOut3" mode="normal"/></filter></defs><g><!--class PropertyValue`1--><rect fill="#FEFECE" filter="url(#fvq9oizl5tjxm)" height="111.5313" id="PropertyValue`1" style="stroke: #A80036; stroke-width: 1.5;" width="382" x="84.6098" y="116"/><ellipse cx="206.3598" cy="136.0938" fill="#ADD1B2" rx="11" ry="11" style="stroke: #A80036; stroke-width: 1.0;"/><path d="M209.1254,131.9688 Q209.2817,131.75 209.4692,131.6406 Q209.6567,131.5313 209.8754,131.5313 Q210.2504,131.5313 210.4848,131.7969 Q210.7192,132.0469 210.7192,132.6563 L210.7192,134.1094 Q210.7192,134.7188 210.4848,134.9844 Q210.2504,135.25 209.8754,135.25 Q209.5317,135.25 209.3286,135.0469 Q209.1254,134.8594 209.0161,134.3438 Q208.9692,133.9844 208.7817,133.7969 Q208.4536,133.4219 207.8442,133.2031 Q207.2348,132.9844 206.6098,132.9844 Q205.8442,132.9844 205.2036,133.3125 Q204.5786,133.6406 204.0786,134.3906 Q203.5942,135.1406 203.5942,136.1719 L203.5942,137.2656 Q203.5942,138.5 204.4848,139.3281 Q205.3754,140.1406 206.9692,140.1406 Q207.9067,140.1406 208.5629,139.8906 Q208.9536,139.7344 209.3754,139.2969 Q209.6411,139.0313 209.7817,138.9531 Q209.9379,138.875 210.1411,138.875 Q210.4692,138.875 210.7192,139.1406 Q210.9848,139.3906 210.9848,139.7344 Q210.9848,140.0781 210.6411,140.4844 Q210.1411,141.0625 209.3442,141.3906 Q208.2661,141.8438 206.9692,141.8438 Q205.4536,141.8438 204.2504,141.2188 Q203.2661,140.7188 202.5786,139.6563 Q201.8911,138.5781 201.8911,137.2969 L201.8911,136.1406 Q201.8911,134.8125 202.5004,133.6719 Q203.1254,132.5156 204.2192,131.9063 Q205.3129,131.2813 206.5473,131.2813 Q207.2817,131.2813 207.9223,131.4531 Q208.5786,131.6094 209.1254,131.9688 Z "/><text fill="#000000" font-family="sans-serif" font-size="12" font-style="italic" lengthAdjust="spacingAndGlyphs" textLength="51" x="244.8598" y="133.457">«sealed»</text><text fill="#000000" font-family="sans-serif" font-size="12" lengthAdjust="spacingAndGlyphs" textLength="87" x="226.8598" y="148.5508">PropertyValue`1</text><rect fill="#FFFFFF" height="17.0938" style="stroke: #000000; stroke-width: 1.0; stroke-dasharray: 2.0,2.0;" width="41" x="428.6098" y="113"/><text fill="#000000" font-family="sans-serif" font-size="12" font-style="italic" lengthAdjust="spacingAndGlyphs" textLength="39" x="429.6098" y="126.457">TValue</text><line style="stroke: #A80036; stroke-width: 1.5;" x1="85.6098" x2="465.6098" y1="156.1875" y2="156.1875"/><ellipse cx="95.6098" cy="167.1875" fill="none" rx="3" ry="3" style="stroke: #038048; stroke-width: 1.0;"/><text fill="#000000" font-family="sans-serif" font-size="11" lengthAdjust="spacingAndGlyphs" textLength="169" x="104.6098" y="171.6064">«override» IsReadOnly : bool «get»</text><ellipse cx="95.6098" cy="181.0234" fill="none" rx="3" ry="3" style="stroke: #038048; stroke-width: 1.0;"/><text fill="#000000" font-family="sans-serif" font-size="11" lengthAdjust="spacingAndGlyphs" textLength="134" x="104.6098" y="185.4424">PropertyName : string «get»</text><line style="stroke: #A80036; stroke-width: 1.5;" x1="85.6098" x2="465.6098" y1="191.8594" y2="191.8594"/><ellipse cx="95.6098" cy="202.8594" fill="#84BE84" rx="3" ry="3" style="stroke: #038048; stroke-width: 1.0;"/><text fill="#000000" font-family="sans-serif" font-size="11" lengthAdjust="spacingAndGlyphs" textLength="356" x="104.6098" y="207.2783">PropertyValue(propertyDef:PropertyDef, parent:ConfigurationObjectBase)</text><ellipse cx="95.6098" cy="216.6953" fill="#84BE84" rx="3" ry="3" style="stroke: #038048; stroke-width: 1.0;"/><text fill="#000000" font-family="sans-serif" font-size="11" lengthAdjust="spacingAndGlyphs" textLength="164" x="104.6098" y="221.1143">«override» CalculatePath() : string</text><!--class ValueBase`2--><rect fill="#FEFECE" filter="url(#fvq9oizl5tjxm)" height="48" id="ValueBase`2" style="stroke: #A80036; stroke-width: 1.5;" width="138" x="126.61" y="8"/><ellipse cx="141.61" cy="24" fill="#ADD1B2" rx="11" ry="11" style="stroke: #A80036; stroke-width: 1.0;"/><path d="M144.3756,19.875 Q144.5319,19.6563 144.7194,19.5469 Q144.9069,19.4375 145.1256,19.4375 Q145.5006,19.4375 145.735,19.7031 Q145.9694,19.9531 145.9694,20.5625 L145.9694,22.0156 Q145.9694,22.625 145.735,22.8906 Q145.5006,23.1563 145.1256,23.1563 Q144.7819,23.1563 144.5788,22.9531 Q144.3756,22.7656 144.2663,22.25 Q144.2194,21.8906 144.0319,21.7031 Q143.7038,21.3281 143.0944,21.1094 Q142.485,20.8906 141.86,20.8906 Q141.0944,20.8906 140.4538,21.2188 Q139.8288,21.5469 139.3288,22.2969 Q138.8444,23.0469 138.8444,24.0781 L138.8444,25.1719 Q138.8444,26.4063 139.735,27.2344 Q140.6256,28.0469 142.2194,28.0469 Q143.1569,28.0469 143.8131,27.7969 Q144.2038,27.6406 144.6256,27.2031 Q144.8913,26.9375 145.0319,26.8594 Q145.1881,26.7813 145.3913,26.7813 Q145.7194,26.7813 145.9694,27.0469 Q146.235,27.2969 146.235,27.6406 Q146.235,27.9844 145.8913,28.3906 Q145.3913,28.9688 144.5944,29.2969 Q143.5163,29.75 142.2194,29.75 Q140.7038,29.75 139.5006,29.125 Q138.5163,28.625 137.8288,27.5625 Q137.1413,26.4844 137.1413,25.2031 L137.1413,24.0469 Q137.1413,22.7188 137.7506,21.5781 Q138.3756,20.4219 139.4694,19.8125 Q140.5631,19.1875 141.7975,19.1875 Q142.5319,19.1875 143.1725,19.3594 Q143.8288,19.5156 144.3756,19.875 Z "/><text fill="#000000" font-family="sans-serif" font-size="12" lengthAdjust="spacingAndGlyphs" textLength="71" x="155.61" y="28.9102">ValueBase`2</text><rect fill="#FFFFFF" height="17.0938" style="stroke: #000000; stroke-width: 1.0; stroke-dasharray: 2.0,2.0;" width="33" x="234.61" y="5"/><text fill="#000000" font-family="sans-serif" font-size="12" font-style="italic" lengthAdjust="spacingAndGlyphs" textLength="31" x="235.61" y="18.457">T1,T2</text><line style="stroke: #A80036; stroke-width: 1.5;" x1="127.61" x2="263.61" y1="40" y2="40"/><line style="stroke: #A80036; stroke-width: 1.5;" x1="127.61" x2="263.61" y1="48" y2="48"/><!--class IPropertyValue--><rect fill="#FEFECE" filter="url(#fvq9oizl5tjxm)" height="48" id="IPropertyValue" style="stroke: #A80036; stroke-width: 1.5;" width="111" x="300.11" y="8"/><ellipse cx="315.11" cy="24" fill="#ADD1B2" rx="11" ry="11" style="stroke: #A80036; stroke-width: 1.0;"/><path d="M317.8756,19.875 Q318.0319,19.6563 318.2194,19.5469 Q318.4069,19.4375 318.6256,19.4375 Q319.0006,19.4375 319.235,19.7031 Q319.4694,19.9531 319.4694,20.5625 L319.4694,22.0156 Q319.4694,22.625 319.235,22.8906 Q319.0006,23.1563 318.6256,23.1563 Q318.2819,23.1563 318.0788,22.9531 Q317.8756,22.7656 317.7663,22.25 Q317.7194,21.8906 317.5319,21.7031 Q317.2038,21.3281 316.5944,21.1094 Q315.985,20.8906 315.36,20.8906 Q314.5944,20.8906 313.9538,21.2188 Q313.3288,21.5469 312.8288,22.2969 Q312.3444,23.0469 312.3444,24.0781 L312.3444,25.1719 Q312.3444,26.4063 313.235,27.2344 Q314.1256,28.0469 315.7194,28.0469 Q316.6569,28.0469 317.3131,27.7969 Q317.7038,27.6406 318.1256,27.2031 Q318.3913,26.9375 318.5319,26.8594 Q318.6881,26.7813 318.8913,26.7813 Q319.2194,26.7813 319.4694,27.0469 Q319.735,27.2969 319.735,27.6406 Q319.735,27.9844 319.3913,28.3906 Q318.8913,28.9688 318.0944,29.2969 Q317.0163,29.75 315.7194,29.75 Q314.2038,29.75 313.0006,29.125 Q312.0163,28.625 311.3288,27.5625 Q310.6413,26.4844 310.6413,25.2031 L310.6413,24.0469 Q310.6413,22.7188 311.2506,21.5781 Q311.8756,20.4219 312.9694,19.8125 Q314.0631,19.1875 315.2975,19.1875 Q316.0319,19.1875 316.6725,19.3594 Q317.3288,19.5156 317.8756,19.875 Z "/><text fill="#000000" font-family="sans-serif" font-size="12" lengthAdjust="spacingAndGlyphs" textLength="79" x="329.11" y="28.9102">IPropertyValue</text><line style="stroke: #A80036; stroke-width: 1.5;" x1="301.11" x2="410.11" y1="40" y2="40"/><line style="stroke: #A80036; stroke-width: 1.5;" x1="301.11" x2="410.11" y1="48" y2="48"/><!--reverse link ValueBase`2 to PropertyValue`1--><path d="M219.073,73.473 C226.774,86.758 235.467,101.754 243.686,115.931 " fill="none" id="ValueBase`2&lt;-PropertyValue`1" style="stroke: #A80036; stroke-width: 1.0;"/><polygon fill="none" points="212.975,76.912,209,56.098,225.087,69.89,212.975,76.912" style="stroke: #A80036; stroke-width: 1.0;"/><text fill="#000000" font-family="sans-serif" font-size="13" lengthAdjust="spacingAndGlyphs" textLength="203" x="-15.4768" y="77.4599">&lt;ConfigurationObjectBase,TValue&gt;</text><!--reverse link IPropertyValue to PropertyValue`1--><path d="M332.147,73.473 C324.446,86.758 315.753,101.754 307.534,115.931 " fill="none" id="IPropertyValue&lt;-PropertyValue`1" style="stroke: #A80036; stroke-width: 1.0;"/><polygon fill="none" points="326.133,69.89,342.22,56.098,338.245,76.912,326.133,69.89" style="stroke: #A80036; stroke-width: 1.0;"/><!--
@startuml
class "PropertyValue`1"<TValue> <<sealed>> {
    + PropertyValue(propertyDef:PropertyDef, parent:ConfigurationObjectBase)
    + <<override>> IsReadOnly : bool <<get>>
    + PropertyName : string <<get>>
    + <<override>> CalculatePath() : string
}
class "ValueBase`2"<T1,T2> {
}
"ValueBase`2" "<ConfigurationObjectBase,TValue>" <|- - "PropertyValue`1"
IPropertyValue <|- - "PropertyValue`1"
@enduml

PlantUML version 1.2019.09(Mon Aug 26 17:19:51 BST 2019)
(GPL source distribution)
Java Runtime: OpenJDK Runtime Environment
JVM: OpenJDK 64-Bit Server VM
Java Version: 13.0.2+8
Operating System: Windows 10
OS Version: 10.0
Default Encoding: Cp1252
Language: en
Country: GB
--></g></svg>