<?xml version="1.0" encoding="UTF-8" standalone="no"?><svg xmlns="http://www.w3.org/2000/svg" xmlns:xlink="http://www.w3.org/1999/xlink" contentScriptType="application/ecmascript" contentStyleType="text/css" height="175px" preserveAspectRatio="none" style="width:429px;height:175px;" version="1.1" viewBox="0 0 429 175" width="429px" zoomAndPan="magnify"><defs><filter height="300%" id="f2ven1a25uj3h" width="300%" x="-1" y="-1"><feGaussianBlur result="blurOut" stdDeviation="2.0"/><feColorMatrix in="blurOut" result="blurOut2" type="matrix" values="0 0 0 0 0 0 0 0 0 0 0 0 0 0 0 0 0 0 .4 0"/><feOffset dx="4.0" dy="4.0" in="blurOut2" result="blurOut3"/><feBlend in="SourceGraphic" in2="blurOut3" mode="normal"/></filter></defs><g><!--class IReadOnlyConfigurationDictionary`1--><rect fill="#FEFECE" filter="url(#f2ven1a25uj3h)" height="48" id="IReadOnlyConfigurationDictionary`1" style="stroke: #A80036; stroke-width: 1.5;" width="288" x="65.5" y="116"/><ellipse cx="80.5" cy="132" fill="#B4A7E5" rx="11" ry="11" style="stroke: #A80036; stroke-width: 1.0;"/><path d="M81.4531,128.6406 L81.4531,135.2969 L83.1719,135.2969 Q83.7813,135.2969 84.0469,135.5313 Q84.3125,135.7656 84.3125,136.1563 Q84.3125,136.5313 84.0469,136.7656 Q83.7813,137 83.1719,137 L78.0313,137 Q77.4219,137 77.1563,136.7656 Q76.8906,136.5313 76.8906,136.1406 Q76.8906,135.7656 77.1563,135.5313 Q77.4219,135.2969 78.0313,135.2969 L79.75,135.2969 L79.75,128.6406 L78.0313,128.6406 Q77.4219,128.6406 77.1563,128.4063 Q76.8906,128.1719 76.8906,127.7813 Q76.8906,127.4063 77.1563,127.1719 Q77.4219,126.9375 78.0313,126.9375 L83.1719,126.9375 Q83.7813,126.9375 84.0469,127.1719 Q84.3125,127.4063 84.3125,127.7813 Q84.3125,128.1719 84.0469,128.4063 Q83.7813,128.6406 83.1719,128.6406 L81.4531,128.6406 Z "/><text fill="#000000" font-family="sans-serif" font-size="12" font-style="italic" lengthAdjust="spacingAndGlyphs" textLength="199" x="94.5" y="136.9102">IReadOnlyConfigurationDictionary`1</text><rect fill="#FFFFFF" height="17.0938" style="stroke: #000000; stroke-width: 1.0; stroke-dasharray: 2.0,2.0;" width="55" x="301.5" y="113"/><text fill="#000000" font-family="sans-serif" font-size="12" font-style="italic" lengthAdjust="spacingAndGlyphs" textLength="53" x="302.5" y="126.457">TElement</text><line style="stroke: #A80036; stroke-width: 1.5;" x1="66.5" x2="352.5" y1="148" y2="148"/><line style="stroke: #A80036; stroke-width: 1.5;" x1="66.5" x2="352.5" y1="156" y2="156"/><!--class IConfigurationDictionary`1--><rect fill="#FEFECE" filter="url(#f2ven1a25uj3h)" height="48" id="IConfigurationDictionary`1" style="stroke: #A80036; stroke-width: 1.5;" width="185" x="6" y="8"/><ellipse cx="21" cy="24" fill="#ADD1B2" rx="11" ry="11" style="stroke: #A80036; stroke-width: 1.0;"/><path d="M23.7656,19.875 Q23.9219,19.6563 24.1094,19.5469 Q24.2969,19.4375 24.5156,19.4375 Q24.8906,19.4375 25.125,19.7031 Q25.3594,19.9531 25.3594,20.5625 L25.3594,22.0156 Q25.3594,22.625 25.125,22.8906 Q24.8906,23.1563 24.5156,23.1563 Q24.1719,23.1563 23.9688,22.9531 Q23.7656,22.7656 23.6563,22.25 Q23.6094,21.8906 23.4219,21.7031 Q23.0938,21.3281 22.4844,21.1094 Q21.875,20.8906 21.25,20.8906 Q20.4844,20.8906 19.8438,21.2188 Q19.2188,21.5469 18.7188,22.2969 Q18.2344,23.0469 18.2344,24.0781 L18.2344,25.1719 Q18.2344,26.4063 19.125,27.2344 Q20.0156,28.0469 21.6094,28.0469 Q22.5469,28.0469 23.2031,27.7969 Q23.5938,27.6406 24.0156,27.2031 Q24.2813,26.9375 24.4219,26.8594 Q24.5781,26.7813 24.7813,26.7813 Q25.1094,26.7813 25.3594,27.0469 Q25.625,27.2969 25.625,27.6406 Q25.625,27.9844 25.2813,28.3906 Q24.7813,28.9688 23.9844,29.2969 Q22.9063,29.75 21.6094,29.75 Q20.0938,29.75 18.8906,29.125 Q17.9063,28.625 17.2188,27.5625 Q16.5313,26.4844 16.5313,25.2031 L16.5313,24.0469 Q16.5313,22.7188 17.1406,21.5781 Q17.7656,20.4219 18.8594,19.8125 Q19.9531,19.1875 21.1875,19.1875 Q21.9219,19.1875 22.5625,19.3594 Q23.2188,19.5156 23.7656,19.875 Z "/><text fill="#000000" font-family="sans-serif" font-size="12" lengthAdjust="spacingAndGlyphs" textLength="142" x="35" y="28.9102">IConfigurationDictionary`1</text><rect fill="#FFFFFF" height="17.0938" style="stroke: #000000; stroke-width: 1.0; stroke-dasharray: 2.0,2.0;" width="9" x="185" y="5"/><text fill="#000000" font-family="sans-serif" font-size="12" font-style="italic" lengthAdjust="spacingAndGlyphs" textLength="7" x="186" y="18.457">T</text><line style="stroke: #A80036; stroke-width: 1.5;" x1="7" x2="190" y1="40" y2="40"/><line style="stroke: #A80036; stroke-width: 1.5;" x1="7" x2="190" y1="48" y2="48"/><!--class IReadOnlyDictionary`2--><rect fill="#FEFECE" filter="url(#f2ven1a25uj3h)" height="48" id="IReadOnlyDictionary`2" style="stroke: #A80036; stroke-width: 1.5;" width="189" x="226" y="8"/><ellipse cx="241" cy="24" fill="#ADD1B2" rx="11" ry="11" style="stroke: #A80036; stroke-width: 1.0;"/><path d="M243.7656,19.875 Q243.9219,19.6563 244.1094,19.5469 Q244.2969,19.4375 244.5156,19.4375 Q244.8906,19.4375 245.125,19.7031 Q245.3594,19.9531 245.3594,20.5625 L245.3594,22.0156 Q245.3594,22.625 245.125,22.8906 Q244.8906,23.1563 244.5156,23.1563 Q244.1719,23.1563 243.9688,22.9531 Q243.7656,22.7656 243.6563,22.25 Q243.6094,21.8906 243.4219,21.7031 Q243.0938,21.3281 242.4844,21.1094 Q241.875,20.8906 241.25,20.8906 Q240.4844,20.8906 239.8438,21.2188 Q239.2188,21.5469 238.7188,22.2969 Q238.2344,23.0469 238.2344,24.0781 L238.2344,25.1719 Q238.2344,26.4063 239.125,27.2344 Q240.0156,28.0469 241.6094,28.0469 Q242.5469,28.0469 243.2031,27.7969 Q243.5938,27.6406 244.0156,27.2031 Q244.2813,26.9375 244.4219,26.8594 Q244.5781,26.7813 244.7813,26.7813 Q245.1094,26.7813 245.3594,27.0469 Q245.625,27.2969 245.625,27.6406 Q245.625,27.9844 245.2813,28.3906 Q244.7813,28.9688 243.9844,29.2969 Q242.9063,29.75 241.6094,29.75 Q240.0938,29.75 238.8906,29.125 Q237.9063,28.625 237.2188,27.5625 Q236.5313,26.4844 236.5313,25.2031 L236.5313,24.0469 Q236.5313,22.7188 237.1406,21.5781 Q237.7656,20.4219 238.8594,19.8125 Q239.9531,19.1875 241.1875,19.1875 Q241.9219,19.1875 242.5625,19.3594 Q243.2188,19.5156 243.7656,19.875 Z "/><text fill="#000000" font-family="sans-serif" font-size="12" lengthAdjust="spacingAndGlyphs" textLength="122" x="255" y="28.9102">IReadOnlyDictionary`2</text><rect fill="#FFFFFF" height="17.0938" style="stroke: #000000; stroke-width: 1.0; stroke-dasharray: 2.0,2.0;" width="33" x="385" y="5"/><text fill="#000000" font-family="sans-serif" font-size="12" font-style="italic" lengthAdjust="spacingAndGlyphs" textLength="31" x="386" y="18.457">T1,T2</text><line style="stroke: #A80036; stroke-width: 1.5;" x1="227" x2="414" y1="40" y2="40"/><line style="stroke: #A80036; stroke-width: 1.5;" x1="227" x2="414" y1="48" y2="48"/><!--reverse link IConfigurationDictionary`1 to IReadOnlyConfigurationDictionary`1--><path d="M137.539,70.2802 C153.362,85.3905 171.148,102.3752 185.078,115.6784 " fill="none" id="IConfigurationDictionary`1&lt;-IReadOnlyConfigurationDictionary`1" style="stroke: #A80036; stroke-width: 1.0;"/><polygon fill="none" points="132.215,74.8755,122.585,56,141.884,64.7506,132.215,74.8755" style="stroke: #A80036; stroke-width: 1.0;"/><text fill="#000000" font-family="sans-serif" font-size="13" lengthAdjust="spacingAndGlyphs" textLength="71" x="48.803" y="77.338">&lt;TElement&gt;</text><!--reverse link IReadOnlyDictionary`2 to IReadOnlyConfigurationDictionary`1--><path d="M281.461,70.2802 C265.638,85.3905 247.852,102.3752 233.922,115.6784 " fill="none" id="IReadOnlyDictionary`2&lt;-IReadOnlyConfigurationDictionary`1" style="stroke: #A80036; stroke-width: 1.0;"/><polygon fill="none" points="277.116,64.7506,296.415,56,286.785,74.8755,277.116,64.7506" style="stroke: #A80036; stroke-width: 1.0;"/><text fill="#000000" font-family="sans-serif" font-size="13" lengthAdjust="spacingAndGlyphs" textLength="107" x="187.4506" y="77.5587">&lt;string,TElement&gt;</text><!--
@startuml
interface "IReadOnlyConfigurationDictionary`1"<TElement> {
}
class "IConfigurationDictionary`1"<T> {
}
class "IReadOnlyDictionary`2"<T1,T2> {
}
"IConfigurationDictionary`1" "<TElement>" <|- - "IReadOnlyConfigurationDictionary`1"
"IReadOnlyDictionary`2" "<string,TElement>" <|- - "IReadOnlyConfigurationDictionary`1"
@enduml

PlantUML version 1.2019.09(Mon Aug 26 17:19:51 BST 2019)
(GPL source distribution)
Java Runtime: OpenJDK Runtime Environment
JVM: OpenJDK 64-Bit Server VM
Java Version: 13.0.2+8
Operating System: Windows 10
OS Version: 10.0
Default Encoding: Cp1252
Language: en
Country: GB
--></g></svg>