<?xml version="1.0" encoding="UTF-8" standalone="no"?><svg xmlns="http://www.w3.org/2000/svg" xmlns:xlink="http://www.w3.org/1999/xlink" contentScriptType="application/ecmascript" contentStyleType="text/css" height="175px" preserveAspectRatio="none" style="width:407px;height:175px;" version="1.1" viewBox="0 0 407 175" width="407px" zoomAndPan="magnify"><defs><filter height="300%" id="f1e00rqly2153r" width="300%" x="-1" y="-1"><feGaussianBlur result="blurOut" stdDeviation="2.0"/><feColorMatrix in="blurOut" result="blurOut2" type="matrix" values="0 0 0 0 0 0 0 0 0 0 0 0 0 0 0 0 0 0 .4 0"/><feOffset dx="4.0" dy="4.0" in="blurOut2" result="blurOut3"/><feBlend in="SourceGraphic" in2="blurOut3" mode="normal"/></filter></defs><g><!--class IReadOnlyConfigurationCollection`1--><rect fill="#FEFECE" filter="url(#f1e00rqly2153r)" height="48" id="IReadOnlyConfigurationCollection`1" style="stroke: #A80036; stroke-width: 1.5;" width="288" x="60" y="116"/><ellipse cx="75" cy="132" fill="#B4A7E5" rx="11" ry="11" style="stroke: #A80036; stroke-width: 1.0;"/><path d="M75.9531,128.6406 L75.9531,135.2969 L77.6719,135.2969 Q78.2813,135.2969 78.5469,135.5313 Q78.8125,135.7656 78.8125,136.1563 Q78.8125,136.5313 78.5469,136.7656 Q78.2813,137 77.6719,137 L72.5313,137 Q71.9219,137 71.6563,136.7656 Q71.3906,136.5313 71.3906,136.1406 Q71.3906,135.7656 71.6563,135.5313 Q71.9219,135.2969 72.5313,135.2969 L74.25,135.2969 L74.25,128.6406 L72.5313,128.6406 Q71.9219,128.6406 71.6563,128.4063 Q71.3906,128.1719 71.3906,127.7813 Q71.3906,127.4063 71.6563,127.1719 Q71.9219,126.9375 72.5313,126.9375 L77.6719,126.9375 Q78.2813,126.9375 78.5469,127.1719 Q78.8125,127.4063 78.8125,127.7813 Q78.8125,128.1719 78.5469,128.4063 Q78.2813,128.6406 77.6719,128.6406 L75.9531,128.6406 Z "/><text fill="#000000" font-family="sans-serif" font-size="12" font-style="italic" lengthAdjust="spacingAndGlyphs" textLength="199" x="89" y="136.9102">IReadOnlyConfigurationCollection`1</text><rect fill="#FFFFFF" height="17.0938" style="stroke: #000000; stroke-width: 1.0; stroke-dasharray: 2.0,2.0;" width="55" x="296" y="113"/><text fill="#000000" font-family="sans-serif" font-size="12" font-style="italic" lengthAdjust="spacingAndGlyphs" textLength="53" x="297" y="126.457">TElement</text><line style="stroke: #A80036; stroke-width: 1.5;" x1="61" x2="347" y1="148" y2="148"/><line style="stroke: #A80036; stroke-width: 1.5;" x1="61" x2="347" y1="156" y2="156"/><!--class IConfigurationCollection`1--><rect fill="#FEFECE" filter="url(#f1e00rqly2153r)" height="48" id="IConfigurationCollection`1" style="stroke: #A80036; stroke-width: 1.5;" width="186" x="6" y="8"/><ellipse cx="21" cy="24" fill="#ADD1B2" rx="11" ry="11" style="stroke: #A80036; stroke-width: 1.0;"/><path d="M23.7656,19.875 Q23.9219,19.6563 24.1094,19.5469 Q24.2969,19.4375 24.5156,19.4375 Q24.8906,19.4375 25.125,19.7031 Q25.3594,19.9531 25.3594,20.5625 L25.3594,22.0156 Q25.3594,22.625 25.125,22.8906 Q24.8906,23.1563 24.5156,23.1563 Q24.1719,23.1563 23.9688,22.9531 Q23.7656,22.7656 23.6563,22.25 Q23.6094,21.8906 23.4219,21.7031 Q23.0938,21.3281 22.4844,21.1094 Q21.875,20.8906 21.25,20.8906 Q20.4844,20.8906 19.8438,21.2188 Q19.2188,21.5469 18.7188,22.2969 Q18.2344,23.0469 18.2344,24.0781 L18.2344,25.1719 Q18.2344,26.4063 19.125,27.2344 Q20.0156,28.0469 21.6094,28.0469 Q22.5469,28.0469 23.2031,27.7969 Q23.5938,27.6406 24.0156,27.2031 Q24.2813,26.9375 24.4219,26.8594 Q24.5781,26.7813 24.7813,26.7813 Q25.1094,26.7813 25.3594,27.0469 Q25.625,27.2969 25.625,27.6406 Q25.625,27.9844 25.2813,28.3906 Q24.7813,28.9688 23.9844,29.2969 Q22.9063,29.75 21.6094,29.75 Q20.0938,29.75 18.8906,29.125 Q17.9063,28.625 17.2188,27.5625 Q16.5313,26.4844 16.5313,25.2031 L16.5313,24.0469 Q16.5313,22.7188 17.1406,21.5781 Q17.7656,20.4219 18.8594,19.8125 Q19.9531,19.1875 21.1875,19.1875 Q21.9219,19.1875 22.5625,19.3594 Q23.2188,19.5156 23.7656,19.875 Z "/><text fill="#000000" font-family="sans-serif" font-size="12" lengthAdjust="spacingAndGlyphs" textLength="143" x="35" y="28.9102">IConfigurationCollection`1</text><rect fill="#FFFFFF" height="17.0938" style="stroke: #000000; stroke-width: 1.0; stroke-dasharray: 2.0,2.0;" width="9" x="186" y="5"/><text fill="#000000" font-family="sans-serif" font-size="12" font-style="italic" lengthAdjust="spacingAndGlyphs" textLength="7" x="187" y="18.457">T</text><line style="stroke: #A80036; stroke-width: 1.5;" x1="7" x2="191" y1="40" y2="40"/><line style="stroke: #A80036; stroke-width: 1.5;" x1="7" x2="191" y1="48" y2="48"/><!--class IReadOnlyCollection`1--><rect fill="#FEFECE" filter="url(#f1e00rqly2153r)" height="48" id="IReadOnlyCollection`1" style="stroke: #A80036; stroke-width: 1.5;" width="166" x="227" y="8"/><ellipse cx="242" cy="24" fill="#ADD1B2" rx="11" ry="11" style="stroke: #A80036; stroke-width: 1.0;"/><path d="M244.7656,19.875 Q244.9219,19.6563 245.1094,19.5469 Q245.2969,19.4375 245.5156,19.4375 Q245.8906,19.4375 246.125,19.7031 Q246.3594,19.9531 246.3594,20.5625 L246.3594,22.0156 Q246.3594,22.625 246.125,22.8906 Q245.8906,23.1563 245.5156,23.1563 Q245.1719,23.1563 244.9688,22.9531 Q244.7656,22.7656 244.6563,22.25 Q244.6094,21.8906 244.4219,21.7031 Q244.0938,21.3281 243.4844,21.1094 Q242.875,20.8906 242.25,20.8906 Q241.4844,20.8906 240.8438,21.2188 Q240.2188,21.5469 239.7188,22.2969 Q239.2344,23.0469 239.2344,24.0781 L239.2344,25.1719 Q239.2344,26.4063 240.125,27.2344 Q241.0156,28.0469 242.6094,28.0469 Q243.5469,28.0469 244.2031,27.7969 Q244.5938,27.6406 245.0156,27.2031 Q245.2813,26.9375 245.4219,26.8594 Q245.5781,26.7813 245.7813,26.7813 Q246.1094,26.7813 246.3594,27.0469 Q246.625,27.2969 246.625,27.6406 Q246.625,27.9844 246.2813,28.3906 Q245.7813,28.9688 244.9844,29.2969 Q243.9063,29.75 242.6094,29.75 Q241.0938,29.75 239.8906,29.125 Q238.9063,28.625 238.2188,27.5625 Q237.5313,26.4844 237.5313,25.2031 L237.5313,24.0469 Q237.5313,22.7188 238.1406,21.5781 Q238.7656,20.4219 239.8594,19.8125 Q240.9531,19.1875 242.1875,19.1875 Q242.9219,19.1875 243.5625,19.3594 Q244.2188,19.5156 244.7656,19.875 Z "/><text fill="#000000" font-family="sans-serif" font-size="12" lengthAdjust="spacingAndGlyphs" textLength="123" x="256" y="28.9102">IReadOnlyCollection`1</text><rect fill="#FFFFFF" height="17.0938" style="stroke: #000000; stroke-width: 1.0; stroke-dasharray: 2.0,2.0;" width="9" x="387" y="5"/><text fill="#000000" font-family="sans-serif" font-size="12" font-style="italic" lengthAdjust="spacingAndGlyphs" textLength="7" x="388" y="18.457">T</text><line style="stroke: #A80036; stroke-width: 1.5;" x1="228" x2="392" y1="40" y2="40"/><line style="stroke: #A80036; stroke-width: 1.5;" x1="228" x2="392" y1="48" y2="48"/><!--reverse link IConfigurationCollection`1 to IReadOnlyConfigurationCollection`1--><path d="M135.929,70.2802 C150.896,85.3905 167.721,102.3752 180.898,115.6784 " fill="none" id="IConfigurationCollection`1&lt;-IReadOnlyConfigurationCollection`1" style="stroke: #A80036; stroke-width: 1.0;"/><polygon fill="none" points="130.885,75.1357,121.783,56,140.832,65.2832,130.885,75.1357" style="stroke: #A80036; stroke-width: 1.0;"/><text fill="#000000" font-family="sans-serif" font-size="13" lengthAdjust="spacingAndGlyphs" textLength="71" x="47.6837" y="77.338">&lt;TElement&gt;</text><!--reverse link IReadOnlyCollection`1 to IReadOnlyConfigurationCollection`1--><path d="M272.72,70.2802 C257.609,85.3905 240.625,102.3752 227.322,115.6784 " fill="none" id="IReadOnlyCollection`1&lt;-IReadOnlyConfigurationCollection`1" style="stroke: #A80036; stroke-width: 1.0;"/><polygon fill="none" points="267.908,65.1928,287,56,277.807,75.0923,267.908,65.1928" style="stroke: #A80036; stroke-width: 1.0;"/><text fill="#000000" font-family="sans-serif" font-size="13" lengthAdjust="spacingAndGlyphs" textLength="71" x="201.7406" y="77.338">&lt;TElement&gt;</text><!--
@startuml
interface "IReadOnlyConfigurationCollection`1"<TElement> {
}
class "IConfigurationCollection`1"<T> {
}
class "IReadOnlyCollection`1"<T> {
}
"IConfigurationCollection`1" "<TElement>" <|- - "IReadOnlyConfigurationCollection`1"
"IReadOnlyCollection`1" "<TElement>" <|- - "IReadOnlyConfigurationCollection`1"
@enduml

PlantUML version 1.2019.09(Mon Aug 26 17:19:51 BST 2019)
(GPL source distribution)
Java Runtime: OpenJDK Runtime Environment
JVM: OpenJDK 64-Bit Server VM
Java Version: 13.0.2+8
Operating System: Windows 10
OS Version: 10.0
Default Encoding: Cp1252
Language: en
Country: GB
--></g></svg>