<?xml version="1.0" encoding="UTF-8" standalone="no"?>
<!DOCTYPE svg PUBLIC "-//W3C//DTD SVG 1.0//EN" "http://www.w3.org/TR/2001/PR-SVG-20010719/DTD/svg10.dtd">
<svg width="66cm" height="15cm" viewBox="-187 179 1303 299" xmlns="http://www.w3.org/2000/svg" xmlns:xlink="http://www.w3.org/1999/xlink">
  <g>
    <rect style="fill: #ffffff" x="572" y="328" width="200.85" height="28"/>
    <rect style="fill: none; fill-opacity:0; stroke-width: 2; stroke: #000000" x="572" y="328" width="200.85" height="28"/>
    <text font-size="16" style="fill: #000000;text-anchor:middle;font-family:sans-serif;font-style:normal;font-weight:normal" x="672.425" y="348">ValueBase</text>
    <rect style="fill: #ffffff" x="572" y="356" width="200.85" height="68"/>
    <rect style="fill: none; fill-opacity:0; stroke-width: 2; stroke: #000000" x="572" y="356" width="200.85" height="68"/>
    <text font-size="12.8" style="fill: #000000;text-anchor:start;font-family:sans-serif;font-style:normal;font-weight:normal" x="575" y="370.8">+Property Definition: PropertyDef</text>
    <text font-size="12.8" style="fill: #000000;text-anchor:start;font-family:sans-serif;font-style:normal;font-weight:normal" x="575" y="386.8">+Path</text>
    <text font-size="12.8" style="fill: #000000;text-anchor:start;font-family:sans-serif;font-style:normal;font-weight:normal" x="575" y="402.8">+Value</text>
    <text font-size="12.8" style="fill: #000000;text-anchor:start;font-family:sans-serif;font-style:normal;font-weight:normal" x="575" y="418.8">+IsDirty</text>
    <rect style="fill: #ffffff" x="572" y="424" width="200.85" height="52"/>
    <rect style="fill: none; fill-opacity:0; stroke-width: 2; stroke: #000000" x="572" y="424" width="200.85" height="52"/>
    <text font-size="12.8" style="fill: #000000;text-anchor:start;font-family:sans-serif;font-style:normal;font-weight:normal" x="575" y="438.8">+Load()</text>
    <text font-size="12.8" style="fill: #000000;text-anchor:start;font-family:sans-serif;font-style:normal;font-weight:normal" x="575" y="454.8">+Save()</text>
    <text font-size="12.8" style="fill: #000000;text-anchor:start;font-family:sans-serif;font-style:normal;font-weight:normal" x="575" y="470.8">+Delete()</text>
  </g>
  <g>
    <rect style="fill: #ffffff" x="964" y="348" width="151.85" height="28"/>
    <rect style="fill: none; fill-opacity:0; stroke-width: 2; stroke: #000000" x="964" y="348" width="151.85" height="28"/>
    <text font-size="16" style="fill: #000000;text-anchor:middle;font-family:sans-serif;font-style:normal;font-weight:700" x="1039.93" y="368">PropertyDef</text>
    <rect style="fill: #ffffff" x="964" y="376" width="151.85" height="52"/>
    <rect style="fill: none; fill-opacity:0; stroke-width: 2; stroke: #000000" x="964" y="376" width="151.85" height="52"/>
    <text font-size="12.8" style="fill: #000000;text-anchor:start;font-family:sans-serif;font-style:normal;font-weight:normal" x="967" y="390.8">+Name</text>
    <text font-size="12.8" style="fill: #000000;text-anchor:start;font-family:sans-serif;font-style:normal;font-weight:normal" x="967" y="406.8">+Type</text>
    <text font-size="12.8" style="fill: #000000;text-anchor:start;font-family:sans-serif;font-style:normal;font-weight:normal" x="967" y="422.8">+Path</text>
    <rect style="fill: #ffffff" x="964" y="428" width="151.85" height="36"/>
    <rect style="fill: none; fill-opacity:0; stroke-width: 2; stroke: #000000" x="964" y="428" width="151.85" height="36"/>
    <text font-size="12.8" style="fill: #000000;text-anchor:start;font-family:sans-serif;font-style:normal;font-weight:normal" x="967" y="442.8">+ConvertValueToString()</text>
    <text font-size="12.8" style="fill: #000000;text-anchor:start;font-family:sans-serif;font-style:normal;font-weight:normal" x="967" y="458.8">+ConvertStringToValue()</text>
  </g>
  <g>
    <polyline style="fill: none; fill-opacity:0; stroke-width: 2; stroke: #000000" points="773.857,402 901,402 901,402 964,402 "/>
    <text font-size="12.7998" style="fill: #000000;text-anchor:middle;font-family:monospace;font-style:normal;font-weight:normal" x="901" y="398">PropertyDef</text>
    <polygon style="fill: #000000" points="945.35,398 945.35,390 953.35,394 "/>
  </g>
  <g>
    <rect style="fill: #ffffff" x="551" y="224" width="241.45" height="28"/>
    <rect style="fill: none; fill-opacity:0; stroke-width: 2; stroke: #000000" x="551" y="224" width="241.45" height="28"/>
    <text font-size="16" style="fill: #000000;text-anchor:middle;font-family:sans-serif;font-style:normal;font-weight:700" x="671.725" y="244">ConfigurationDictionaryBase</text>
    <rect style="fill: #ffffff" x="551" y="252" width="241.45" height="8"/>
    <rect style="fill: none; fill-opacity:0; stroke-width: 2; stroke: #000000" x="551" y="252" width="241.45" height="8"/>
    <rect style="fill: #ffffff" x="551" y="260" width="241.45" height="8"/>
    <rect style="fill: none; fill-opacity:0; stroke-width: 2; stroke: #000000" x="551" y="260" width="241.45" height="8"/>
  </g>
  <g>
    <rect style="fill: #ffffff" x="143" y="180" width="203.1" height="28"/>
    <rect style="fill: none; fill-opacity:0; stroke-width: 2; stroke: #000000" x="143" y="180" width="203.1" height="28"/>
    <text font-size="16" style="fill: #000000;text-anchor:middle;font-family:sans-serif;font-style:normal;font-weight:700" x="244.55" y="200">ConfigurationDictionary</text>
    <rect style="fill: #ffffff" x="143" y="208" width="203.1" height="8"/>
    <rect style="fill: none; fill-opacity:0; stroke-width: 2; stroke: #000000" x="143" y="208" width="203.1" height="8"/>
    <rect style="fill: #ffffff" x="143" y="216" width="203.1" height="8"/>
    <rect style="fill: none; fill-opacity:0; stroke-width: 2; stroke: #000000" x="143" y="216" width="203.1" height="8"/>
  </g>
  <g>
    <rect style="fill: #ffffff" x="141" y="281" width="200.2" height="28"/>
    <rect style="fill: none; fill-opacity:0; stroke-width: 2; stroke: #000000" x="141" y="281" width="200.2" height="28"/>
    <text font-size="16" style="fill: #000000;text-anchor:middle;font-family:sans-serif;font-style:normal;font-weight:700" x="241.1" y="301">ConfigurationCollection</text>
    <rect style="fill: #ffffff" x="141" y="309" width="200.2" height="8"/>
    <rect style="fill: none; fill-opacity:0; stroke-width: 2; stroke: #000000" x="141" y="309" width="200.2" height="8"/>
    <rect style="fill: #ffffff" x="141" y="317" width="200.2" height="8"/>
    <rect style="fill: none; fill-opacity:0; stroke-width: 2; stroke: #000000" x="141" y="317" width="200.2" height="8"/>
  </g>
  <g>
    <polyline style="fill: none; fill-opacity:0; stroke-width: 2; stroke: #000000" points="531.762,246 438,246 438,202 347.096,202 "/>
    <polygon style="fill: #ffffff" points="531.762,254 547.762,246 531.762,238 "/>
    <polygon style="fill: none; fill-opacity:0; stroke-width: 2; stroke: #000000" points="531.762,254 547.762,246 531.762,238 "/>
  </g>
  <g>
    <polyline style="fill: none; fill-opacity:0; stroke-width: 2; stroke: #000000" points="531.757,246 438.099,246 438.099,303 342.206,303 "/>
    <polygon style="fill: #ffffff" points="531.757,254 547.757,246 531.757,238 "/>
    <polygon style="fill: none; fill-opacity:0; stroke-width: 2; stroke: #000000" points="531.757,254 547.757,246 531.757,238 "/>
  </g>
  <g>
    <polyline style="fill: none; fill-opacity:0; stroke-width: 2; stroke: #000000" points="671.725,269.006 671.725,297.998 672.425,297.998 672.425,326.991 "/>
    <text font-size="12.7998" style="fill: #000000;text-anchor:middle;font-family:monospace;font-style:normal;font-weight:normal" x="672.075" y="293.998">Contains</text>
    <polygon style="fill: #000000" points="704.875,293.998 704.875,285.998 712.875,289.998 "/>
    <text font-size="12.7998" style="fill: #000000;text-anchor:start;font-family:monospace;font-style:normal;font-weight:normal" x="675.725" y="281.006">1</text>
    <text font-size="12.7998" style="fill: #000000;text-anchor:start;font-family:monospace;font-style:normal;font-weight:normal" x="676.425" y="322.991">*</text>
  </g>
  <g>
    <rect style="fill: #ffffff" x="143" y="380" width="173.1" height="28"/>
    <rect style="fill: none; fill-opacity:0; stroke-width: 2; stroke: #000000" x="143" y="380" width="173.1" height="28"/>
    <text font-size="16" style="fill: #000000;text-anchor:middle;font-family:sans-serif;font-style:normal;font-weight:700" x="229.55" y="400">ConfigurationObject</text>
    <rect style="fill: #ffffff" x="143" y="408" width="173.1" height="8"/>
    <rect style="fill: none; fill-opacity:0; stroke-width: 2; stroke: #000000" x="143" y="408" width="173.1" height="8"/>
    <rect style="fill: #ffffff" x="143" y="416" width="173.1" height="8"/>
    <rect style="fill: none; fill-opacity:0; stroke-width: 2; stroke: #000000" x="143" y="416" width="173.1" height="8"/>
  </g>
  <g>
    <rect style="fill: #ffffff" x="-185" y="254" width="156.2" height="28"/>
    <rect style="fill: none; fill-opacity:0; stroke-width: 2; stroke: #000000" x="-185" y="254" width="156.2" height="28"/>
    <text font-size="16" style="fill: #000000;text-anchor:middle;font-family:sans-serif;font-style:normal;font-weight:normal" x="-106.9" y="274">IConfigurationObject</text>
    <rect style="fill: #ffffff" x="-185" y="282" width="156.2" height="20"/>
    <rect style="fill: none; fill-opacity:0; stroke-width: 2; stroke: #000000" x="-185" y="282" width="156.2" height="20"/>
    <text font-size="12.8" style="fill: #000000;text-anchor:start;font-family:monospace;font-style:normal;font-weight:normal" x="-182" y="295.2">+IsDirty</text>
    <rect style="fill: #ffffff" x="-185" y="302" width="156.2" height="52"/>
    <rect style="fill: none; fill-opacity:0; stroke-width: 2; stroke: #000000" x="-185" y="302" width="156.2" height="52"/>
    <text font-size="12.8" style="fill: #000000;text-anchor:start;font-family:monospace;font-style:normal;font-weight:normal" x="-182" y="315.2">+Load()</text>
    <text font-size="12.8" style="fill: #000000;text-anchor:start;font-family:monospace;font-style:normal;font-weight:normal" x="-182" y="331.2">+Save()</text>
    <text font-size="12.8" style="fill: #000000;text-anchor:start;font-family:monospace;font-style:normal;font-weight:normal" x="-182" y="347.2">+Delete()</text>
  </g>
  <g>
    <polyline style="fill: none; fill-opacity:0; stroke-width: 2; stroke-dasharray: 8; stroke: #000000" points="-9.55428,304 65.1017,304 65.1017,202 141.994,202 "/>
    <polygon style="fill: #ffffff" points="-9.55428,296 -25.5543,304 -9.55428,312 "/>
    <polygon style="fill: none; fill-opacity:0; stroke-width: 2; stroke: #000000" points="-9.55428,296 -25.5543,304 -9.55428,312 "/>
  </g>
  <g>
    <polyline style="fill: none; fill-opacity:0; stroke-width: 2; stroke-dasharray: 8; stroke: #000000" points="-9.55428,304 64.1017,304 64.1017,303 139.994,303 "/>
    <polygon style="fill: #ffffff" points="-9.55428,296 -25.5543,304 -9.55428,312 "/>
    <polygon style="fill: none; fill-opacity:0; stroke-width: 2; stroke: #000000" points="-9.55428,296 -25.5543,304 -9.55428,312 "/>
  </g>
  <g>
    <polyline style="fill: none; fill-opacity:0; stroke-width: 2; stroke-dasharray: 8; stroke: #000000" points="-9.55428,304 65.1022,304 65.1022,402 141.995,402 "/>
    <polygon style="fill: #ffffff" points="-9.55428,296 -25.5543,304 -9.55428,312 "/>
    <polygon style="fill: none; fill-opacity:0; stroke-width: 2; stroke: #000000" points="-9.55428,296 -25.5543,304 -9.55428,312 "/>
  </g>
  <g>
    <polyline style="fill: none; fill-opacity:0; stroke-width: 2; stroke: #000000" points="317.105,402 318.105,402 569.994,402 570.994,402 "/>
    <text font-size="12.7998" style="fill: #000000;text-anchor:middle;font-family:monospace;font-style:normal;font-weight:normal" x="444.05" y="402">Contains</text>
    <polygon style="fill: #000000" points="476.85,402 476.85,394 484.85,398 "/>
    <text font-size="12.7998" style="fill: #000000;text-anchor:start;font-family:monospace;font-style:normal;font-weight:normal" x="321.105" y="398">1</text>
    <text font-size="12.7998" style="fill: #000000;text-anchor:end;font-family:monospace;font-style:normal;font-weight:normal" x="566.994" y="398">*</text>
  </g>
</svg>
