<?xml version="1.0" encoding="UTF-8" standalone="no"?><svg xmlns="http://www.w3.org/2000/svg" xmlns:xlink="http://www.w3.org/1999/xlink" contentScriptType="application/ecmascript" contentStyleType="text/css" height="504px" preserveAspectRatio="none" style="width:1023px;height:504px;" version="1.1" viewBox="0 0 1023 504" width="1023px" zoomAndPan="magnify"><defs><filter height="300%" id="f13gv2s5r8t60q" width="300%" x="-1" y="-1"><feGaussianBlur result="blurOut" stdDeviation="2.0"/><feColorMatrix in="blurOut" result="blurOut2" type="matrix" values="0 0 0 0 0 0 0 0 0 0 0 0 0 0 0 0 0 0 .4 0"/><feOffset dx="4.0" dy="4.0" in="blurOut2" result="blurOut3"/><feBlend in="SourceGraphic" in2="blurOut3" mode="normal"/></filter></defs><g><!--class ConfigurationDictionaryBase`2--><rect fill="#FEFECE" filter="url(#f13gv2s5r8t60q)" height="269.375" id="ConfigurationDictionaryBase`2" style="stroke: #A80036; stroke-width: 1.5;" width="353" x="260.5" y="116"/><ellipse cx="304.75" cy="132" fill="#A9DCDF" rx="11" ry="11" style="stroke: #A80036; stroke-width: 1.0;"/><path d="M306.9375,133.7656 L302.7969,133.7656 L302.375,134.7969 L302.7969,134.7969 Q303.4063,134.7969 303.6719,135.0313 Q303.9375,135.2656 303.9375,135.6563 Q303.9375,136.0313 303.6719,136.2656 Q303.4063,136.5 302.7969,136.5 L300.5,136.5 Q299.8906,136.5 299.6406,136.2656 Q299.375,136.0313 299.375,135.6406 Q299.375,135.2656 299.6563,135.0313 Q299.9219,134.7813 300.5469,134.7969 L303.2188,128.1406 L302.1094,128.1406 Q301.5,128.1406 301.2344,127.9063 Q300.9688,127.6719 300.9688,127.2813 Q300.9688,126.9063 301.2344,126.6719 Q301.5,126.4375 302.1094,126.4375 L305.7813,126.4375 L309.1719,134.7969 Q309.7656,134.7969 309.9531,134.9375 Q310.3438,135.2031 310.3438,135.6563 Q310.3438,136.0313 310.0781,136.2656 Q309.8281,136.5 309.2188,136.5 L306.9219,136.5 Q306.3125,136.5 306.0469,136.2656 Q305.7813,136.0313 305.7813,135.6406 Q305.7813,135.2656 306.0469,135.0313 Q306.3125,134.7969 306.9219,134.7969 L307.3438,134.7969 L306.9375,133.7656 Z M306.2188,132.0625 L304.8594,128.6875 L303.4844,132.0625 L306.2188,132.0625 Z "/><text fill="#000000" font-family="sans-serif" font-size="12" font-style="italic" lengthAdjust="spacingAndGlyphs" textLength="168" x="325.25" y="136.9102">ConfigurationDictionaryBase`2</text><rect fill="#FFFFFF" height="17.0938" style="stroke: #000000; stroke-width: 1.0; stroke-dasharray: 2.0,2.0;" width="86" x="530.5" y="113"/><text fill="#000000" font-family="sans-serif" font-size="12" font-style="italic" lengthAdjust="spacingAndGlyphs" textLength="84" x="531.5" y="126.457">TKey,TElement</text><line style="stroke: #A80036; stroke-width: 1.5;" x1="261.5" x2="612.5" y1="148" y2="148"/><ellipse cx="271.5" cy="159" fill="none" rx="3" ry="3" style="stroke: #038048; stroke-width: 1.0;"/><text fill="#000000" font-family="sans-serif" font-size="11" lengthAdjust="spacingAndGlyphs" textLength="327" x="280.5" y="163.4189">«event» CollectionChanged : NotifyCollectionChangedEventHandler?</text><ellipse cx="271.5" cy="172.8359" fill="none" rx="3" ry="3" style="stroke: #038048; stroke-width: 1.0;"/><text fill="#000000" font-family="sans-serif" font-size="11" lengthAdjust="spacingAndGlyphs" textLength="78" x="280.5" y="177.2549">Count : int «get»</text><ellipse cx="271.5" cy="186.6719" fill="none" rx="3" ry="3" style="stroke: #038048; stroke-width: 1.0;"/><text fill="#000000" font-family="sans-serif" font-size="11" lengthAdjust="spacingAndGlyphs" textLength="89" x="280.5" y="191.0908">IsDirty : bool «get»</text><ellipse cx="271.5" cy="200.5078" fill="none" rx="3" ry="3" style="stroke: #038048; stroke-width: 1.0;"/><text fill="#000000" font-family="sans-serif" font-size="11" lengthAdjust="spacingAndGlyphs" textLength="114" x="280.5" y="204.9268">IsReadOnly : bool «get»</text><line style="stroke: #A80036; stroke-width: 1.5;" x1="261.5" x2="612.5" y1="211.3438" y2="211.3438"/><ellipse cx="271.5" cy="222.3438" fill="#84BE84" rx="3" ry="3" style="stroke: #038048; stroke-width: 1.0;"/><text fill="#000000" font-family="sans-serif" font-size="11" lengthAdjust="spacingAndGlyphs" textLength="228" x="280.5" y="226.7627">AddCopy(key:TKey, value:TElement) : TElement</text><ellipse cx="271.5" cy="236.1797" fill="#84BE84" rx="3" ry="3" style="stroke: #038048; stroke-width: 1.0;"/><text fill="#000000" font-family="sans-serif" font-size="11" lengthAdjust="spacingAndGlyphs" textLength="109" x="280.5" y="240.5986">CalculatePath() : string</text><ellipse cx="271.5" cy="250.0156" fill="#84BE84" rx="3" ry="3" style="stroke: #038048; stroke-width: 1.0;"/><text fill="#000000" font-family="sans-serif" font-size="11" lengthAdjust="spacingAndGlyphs" textLength="62" x="280.5" y="254.4346">Clear() : void</text><ellipse cx="271.5" cy="263.8516" fill="#84BE84" rx="3" ry="3" style="stroke: #038048; stroke-width: 1.0;"/><text fill="#000000" font-family="sans-serif" font-size="11" lengthAdjust="spacingAndGlyphs" textLength="143" x="280.5" y="268.2705">ContainsKey(key:TKey) : bool</text><ellipse cx="271.5" cy="277.6875" fill="#84BE84" rx="3" ry="3" style="stroke: #038048; stroke-width: 1.0;"/><text fill="#000000" font-family="sans-serif" font-size="11" lengthAdjust="spacingAndGlyphs" textLength="67" x="280.5" y="282.1064">Delete() : void</text><ellipse cx="271.5" cy="291.5234" fill="#84BE84" rx="3" ry="3" style="stroke: #038048; stroke-width: 1.0;"/><text fill="#000000" font-family="sans-serif" font-size="11" lengthAdjust="spacingAndGlyphs" textLength="61" x="280.5" y="295.9424">Load() : void</text><ellipse cx="271.5" cy="305.3594" fill="#84BE84" rx="3" ry="3" style="stroke: #038048; stroke-width: 1.0;"/><text fill="#000000" font-family="sans-serif" font-size="11" lengthAdjust="spacingAndGlyphs" textLength="286" x="280.5" y="309.7783">OnValueChanged(oldValue:IValue, newValue:IValue) : void</text><ellipse cx="271.5" cy="319.1953" fill="#84BE84" rx="3" ry="3" style="stroke: #038048; stroke-width: 1.0;"/><text fill="#000000" font-family="sans-serif" font-size="11" lengthAdjust="spacingAndGlyphs" textLength="165" x="280.5" y="323.6143">«virtual» Remove(key:TKey) : bool</text><ellipse cx="271.5" cy="333.0313" fill="#84BE84" rx="3" ry="3" style="stroke: #038048; stroke-width: 1.0;"/><text fill="#000000" font-family="sans-serif" font-size="11" lengthAdjust="spacingAndGlyphs" textLength="185" x="280.5" y="337.4502">«virtual» Remove(item:TElement) : bool</text><ellipse cx="271.5" cy="346.8672" fill="#84BE84" rx="3" ry="3" style="stroke: #038048; stroke-width: 1.0;"/><text fill="#000000" font-family="sans-serif" font-size="11" lengthAdjust="spacingAndGlyphs" textLength="62" x="280.5" y="351.2861">Save() : void</text><ellipse cx="271.5" cy="360.7031" fill="#84BE84" rx="3" ry="3" style="stroke: #038048; stroke-width: 1.0;"/><text fill="#000000" font-family="sans-serif" font-size="11" lengthAdjust="spacingAndGlyphs" textLength="221" x="280.5" y="365.1221">SetParent(parent:IConfigurationParent?) : void</text><ellipse cx="271.5" cy="374.5391" fill="#84BE84" rx="3" ry="3" style="stroke: #038048; stroke-width: 1.0;"/><text fill="#000000" font-family="sans-serif" font-size="11" lengthAdjust="spacingAndGlyphs" textLength="221" x="280.5" y="378.958">TryGetValue(key:TKey, value:TElement) : bool</text><!--class ICollection`1--><rect fill="#FEFECE" filter="url(#f13gv2s5r8t60q)" height="48" id="ICollection`1" style="stroke: #A80036; stroke-width: 1.5;" width="112" x="381" y="445"/><ellipse cx="396" cy="461" fill="#ADD1B2" rx="11" ry="11" style="stroke: #A80036; stroke-width: 1.0;"/><path d="M398.7656,456.875 Q398.9219,456.6563 399.1094,456.5469 Q399.2969,456.4375 399.5156,456.4375 Q399.8906,456.4375 400.125,456.7031 Q400.3594,456.9531 400.3594,457.5625 L400.3594,459.0156 Q400.3594,459.625 400.125,459.8906 Q399.8906,460.1563 399.5156,460.1563 Q399.1719,460.1563 398.9688,459.9531 Q398.7656,459.7656 398.6563,459.25 Q398.6094,458.8906 398.4219,458.7031 Q398.0938,458.3281 397.4844,458.1094 Q396.875,457.8906 396.25,457.8906 Q395.4844,457.8906 394.8438,458.2188 Q394.2188,458.5469 393.7188,459.2969 Q393.2344,460.0469 393.2344,461.0781 L393.2344,462.1719 Q393.2344,463.4063 394.125,464.2344 Q395.0156,465.0469 396.6094,465.0469 Q397.5469,465.0469 398.2031,464.7969 Q398.5938,464.6406 399.0156,464.2031 Q399.2813,463.9375 399.4219,463.8594 Q399.5781,463.7813 399.7813,463.7813 Q400.1094,463.7813 400.3594,464.0469 Q400.625,464.2969 400.625,464.6406 Q400.625,464.9844 400.2813,465.3906 Q399.7813,465.9688 398.9844,466.2969 Q397.9063,466.75 396.6094,466.75 Q395.0938,466.75 393.8906,466.125 Q392.9063,465.625 392.2188,464.5625 Q391.5313,463.4844 391.5313,462.2031 L391.5313,461.0469 Q391.5313,459.7188 392.1406,458.5781 Q392.7656,457.4219 393.8594,456.8125 Q394.9531,456.1875 396.1875,456.1875 Q396.9219,456.1875 397.5625,456.3594 Q398.2188,456.5156 398.7656,456.875 Z "/><text fill="#000000" font-family="sans-serif" font-size="12" lengthAdjust="spacingAndGlyphs" textLength="69" x="410" y="465.9102">ICollection`1</text><rect fill="#FFFFFF" height="17.0938" style="stroke: #000000; stroke-width: 1.0; stroke-dasharray: 2.0,2.0;" width="9" x="487" y="442"/><text fill="#000000" font-family="sans-serif" font-size="12" font-style="italic" lengthAdjust="spacingAndGlyphs" textLength="7" x="488" y="455.457">T</text><line style="stroke: #A80036; stroke-width: 1.5;" x1="382" x2="492" y1="477" y2="477"/><line style="stroke: #A80036; stroke-width: 1.5;" x1="382" x2="492" y1="485" y2="485"/><!--class Element`2--><rect fill="#FEFECE" filter="url(#f13gv2s5r8t60q)" height="48" id="Element`2" style="stroke: #A80036; stroke-width: 1.5;" width="124" x="885" y="8"/><ellipse cx="900" cy="24" fill="#ADD1B2" rx="11" ry="11" style="stroke: #A80036; stroke-width: 1.0;"/><path d="M902.7656,19.875 Q902.9219,19.6563 903.1094,19.5469 Q903.2969,19.4375 903.5156,19.4375 Q903.8906,19.4375 904.125,19.7031 Q904.3594,19.9531 904.3594,20.5625 L904.3594,22.0156 Q904.3594,22.625 904.125,22.8906 Q903.8906,23.1563 903.5156,23.1563 Q903.1719,23.1563 902.9688,22.9531 Q902.7656,22.7656 902.6563,22.25 Q902.6094,21.8906 902.4219,21.7031 Q902.0938,21.3281 901.4844,21.1094 Q900.875,20.8906 900.25,20.8906 Q899.4844,20.8906 898.8438,21.2188 Q898.2188,21.5469 897.7188,22.2969 Q897.2344,23.0469 897.2344,24.0781 L897.2344,25.1719 Q897.2344,26.4063 898.125,27.2344 Q899.0156,28.0469 900.6094,28.0469 Q901.5469,28.0469 902.2031,27.7969 Q902.5938,27.6406 903.0156,27.2031 Q903.2813,26.9375 903.4219,26.8594 Q903.5781,26.7813 903.7813,26.7813 Q904.1094,26.7813 904.3594,27.0469 Q904.625,27.2969 904.625,27.6406 Q904.625,27.9844 904.2813,28.3906 Q903.7813,28.9688 902.9844,29.2969 Q901.9063,29.75 900.6094,29.75 Q899.0938,29.75 897.8906,29.125 Q896.9063,28.625 896.2188,27.5625 Q895.5313,26.4844 895.5313,25.2031 L895.5313,24.0469 Q895.5313,22.7188 896.1406,21.5781 Q896.7656,20.4219 897.8594,19.8125 Q898.9531,19.1875 900.1875,19.1875 Q900.9219,19.1875 901.5625,19.3594 Q902.2188,19.5156 902.7656,19.875 Z "/><text fill="#000000" font-family="sans-serif" font-size="12" lengthAdjust="spacingAndGlyphs" textLength="57" x="914" y="28.9102">Element`2</text><rect fill="#FFFFFF" height="17.0938" style="stroke: #000000; stroke-width: 1.0; stroke-dasharray: 2.0,2.0;" width="33" x="979" y="5"/><text fill="#000000" font-family="sans-serif" font-size="12" font-style="italic" lengthAdjust="spacingAndGlyphs" textLength="31" x="980" y="18.457">T1,T2</text><line style="stroke: #A80036; stroke-width: 1.5;" x1="886" x2="1008" y1="40" y2="40"/><line style="stroke: #A80036; stroke-width: 1.5;" x1="886" x2="1008" y1="48" y2="48"/><!--class NotifyPropertyChanged--><rect fill="#FEFECE" filter="url(#f13gv2s5r8t60q)" height="48" id="NotifyPropertyChanged" style="stroke: #A80036; stroke-width: 1.5;" width="158" x="6" y="8"/><ellipse cx="21" cy="24" fill="#ADD1B2" rx="11" ry="11" style="stroke: #A80036; stroke-width: 1.0;"/><path d="M23.7656,19.875 Q23.9219,19.6563 24.1094,19.5469 Q24.2969,19.4375 24.5156,19.4375 Q24.8906,19.4375 25.125,19.7031 Q25.3594,19.9531 25.3594,20.5625 L25.3594,22.0156 Q25.3594,22.625 25.125,22.8906 Q24.8906,23.1563 24.5156,23.1563 Q24.1719,23.1563 23.9688,22.9531 Q23.7656,22.7656 23.6563,22.25 Q23.6094,21.8906 23.4219,21.7031 Q23.0938,21.3281 22.4844,21.1094 Q21.875,20.8906 21.25,20.8906 Q20.4844,20.8906 19.8438,21.2188 Q19.2188,21.5469 18.7188,22.2969 Q18.2344,23.0469 18.2344,24.0781 L18.2344,25.1719 Q18.2344,26.4063 19.125,27.2344 Q20.0156,28.0469 21.6094,28.0469 Q22.5469,28.0469 23.2031,27.7969 Q23.5938,27.6406 24.0156,27.2031 Q24.2813,26.9375 24.4219,26.8594 Q24.5781,26.7813 24.7813,26.7813 Q25.1094,26.7813 25.3594,27.0469 Q25.625,27.2969 25.625,27.6406 Q25.625,27.9844 25.2813,28.3906 Q24.7813,28.9688 23.9844,29.2969 Q22.9063,29.75 21.6094,29.75 Q20.0938,29.75 18.8906,29.125 Q17.9063,28.625 17.2188,27.5625 Q16.5313,26.4844 16.5313,25.2031 L16.5313,24.0469 Q16.5313,22.7188 17.1406,21.5781 Q17.7656,20.4219 18.8594,19.8125 Q19.9531,19.1875 21.1875,19.1875 Q21.9219,19.1875 22.5625,19.3594 Q23.2188,19.5156 23.7656,19.875 Z "/><text fill="#000000" font-family="sans-serif" font-size="12" lengthAdjust="spacingAndGlyphs" textLength="126" x="35" y="28.9102">NotifyPropertyChanged</text><line style="stroke: #A80036; stroke-width: 1.5;" x1="7" x2="163" y1="40" y2="40"/><line style="stroke: #A80036; stroke-width: 1.5;" x1="7" x2="163" y1="48" y2="48"/><!--class IConfigurationObject--><rect fill="#FEFECE" filter="url(#f13gv2s5r8t60q)" height="48" id="IConfigurationObject" style="stroke: #A80036; stroke-width: 1.5;" width="144" x="199" y="8"/><ellipse cx="214" cy="24" fill="#ADD1B2" rx="11" ry="11" style="stroke: #A80036; stroke-width: 1.0;"/><path d="M216.7656,19.875 Q216.9219,19.6563 217.1094,19.5469 Q217.2969,19.4375 217.5156,19.4375 Q217.8906,19.4375 218.125,19.7031 Q218.3594,19.9531 218.3594,20.5625 L218.3594,22.0156 Q218.3594,22.625 218.125,22.8906 Q217.8906,23.1563 217.5156,23.1563 Q217.1719,23.1563 216.9688,22.9531 Q216.7656,22.7656 216.6563,22.25 Q216.6094,21.8906 216.4219,21.7031 Q216.0938,21.3281 215.4844,21.1094 Q214.875,20.8906 214.25,20.8906 Q213.4844,20.8906 212.8438,21.2188 Q212.2188,21.5469 211.7188,22.2969 Q211.2344,23.0469 211.2344,24.0781 L211.2344,25.1719 Q211.2344,26.4063 212.125,27.2344 Q213.0156,28.0469 214.6094,28.0469 Q215.5469,28.0469 216.2031,27.7969 Q216.5938,27.6406 217.0156,27.2031 Q217.2813,26.9375 217.4219,26.8594 Q217.5781,26.7813 217.7813,26.7813 Q218.1094,26.7813 218.3594,27.0469 Q218.625,27.2969 218.625,27.6406 Q218.625,27.9844 218.2813,28.3906 Q217.7813,28.9688 216.9844,29.2969 Q215.9063,29.75 214.6094,29.75 Q213.0938,29.75 211.8906,29.125 Q210.9063,28.625 210.2188,27.5625 Q209.5313,26.4844 209.5313,25.2031 L209.5313,24.0469 Q209.5313,22.7188 210.1406,21.5781 Q210.7656,20.4219 211.8594,19.8125 Q212.9531,19.1875 214.1875,19.1875 Q214.9219,19.1875 215.5625,19.3594 Q216.2188,19.5156 216.7656,19.875 Z "/><text fill="#000000" font-family="sans-serif" font-size="12" lengthAdjust="spacingAndGlyphs" textLength="112" x="228" y="28.9102">IConfigurationObject</text><line style="stroke: #A80036; stroke-width: 1.5;" x1="200" x2="342" y1="40" y2="40"/><line style="stroke: #A80036; stroke-width: 1.5;" x1="200" x2="342" y1="48" y2="48"/><!--class IValueChanged--><rect fill="#FEFECE" filter="url(#f13gv2s5r8t60q)" height="48" id="IValueChanged" style="stroke: #A80036; stroke-width: 1.5;" width="117" x="378.5" y="8"/><ellipse cx="393.5" cy="24" fill="#ADD1B2" rx="11" ry="11" style="stroke: #A80036; stroke-width: 1.0;"/><path d="M396.2656,19.875 Q396.4219,19.6563 396.6094,19.5469 Q396.7969,19.4375 397.0156,19.4375 Q397.3906,19.4375 397.625,19.7031 Q397.8594,19.9531 397.8594,20.5625 L397.8594,22.0156 Q397.8594,22.625 397.625,22.8906 Q397.3906,23.1563 397.0156,23.1563 Q396.6719,23.1563 396.4688,22.9531 Q396.2656,22.7656 396.1563,22.25 Q396.1094,21.8906 395.9219,21.7031 Q395.5938,21.3281 394.9844,21.1094 Q394.375,20.8906 393.75,20.8906 Q392.9844,20.8906 392.3438,21.2188 Q391.7188,21.5469 391.2188,22.2969 Q390.7344,23.0469 390.7344,24.0781 L390.7344,25.1719 Q390.7344,26.4063 391.625,27.2344 Q392.5156,28.0469 394.1094,28.0469 Q395.0469,28.0469 395.7031,27.7969 Q396.0938,27.6406 396.5156,27.2031 Q396.7813,26.9375 396.9219,26.8594 Q397.0781,26.7813 397.2813,26.7813 Q397.6094,26.7813 397.8594,27.0469 Q398.125,27.2969 398.125,27.6406 Q398.125,27.9844 397.7813,28.3906 Q397.2813,28.9688 396.4844,29.2969 Q395.4063,29.75 394.1094,29.75 Q392.5938,29.75 391.3906,29.125 Q390.4063,28.625 389.7188,27.5625 Q389.0313,26.4844 389.0313,25.2031 L389.0313,24.0469 Q389.0313,22.7188 389.6406,21.5781 Q390.2656,20.4219 391.3594,19.8125 Q392.4531,19.1875 393.6875,19.1875 Q394.4219,19.1875 395.0625,19.3594 Q395.7188,19.5156 396.2656,19.875 Z "/><text fill="#000000" font-family="sans-serif" font-size="12" lengthAdjust="spacingAndGlyphs" textLength="85" x="407.5" y="28.9102">IValueChanged</text><line style="stroke: #A80036; stroke-width: 1.5;" x1="379.5" x2="494.5" y1="40" y2="40"/><line style="stroke: #A80036; stroke-width: 1.5;" x1="379.5" x2="494.5" y1="48" y2="48"/><!--class IConfigurationChild--><rect fill="#FEFECE" filter="url(#f13gv2s5r8t60q)" height="48" id="IConfigurationChild" style="stroke: #A80036; stroke-width: 1.5;" width="138" x="531" y="8"/><ellipse cx="546" cy="24" fill="#ADD1B2" rx="11" ry="11" style="stroke: #A80036; stroke-width: 1.0;"/><path d="M548.7656,19.875 Q548.9219,19.6563 549.1094,19.5469 Q549.2969,19.4375 549.5156,19.4375 Q549.8906,19.4375 550.125,19.7031 Q550.3594,19.9531 550.3594,20.5625 L550.3594,22.0156 Q550.3594,22.625 550.125,22.8906 Q549.8906,23.1563 549.5156,23.1563 Q549.1719,23.1563 548.9688,22.9531 Q548.7656,22.7656 548.6563,22.25 Q548.6094,21.8906 548.4219,21.7031 Q548.0938,21.3281 547.4844,21.1094 Q546.875,20.8906 546.25,20.8906 Q545.4844,20.8906 544.8438,21.2188 Q544.2188,21.5469 543.7188,22.2969 Q543.2344,23.0469 543.2344,24.0781 L543.2344,25.1719 Q543.2344,26.4063 544.125,27.2344 Q545.0156,28.0469 546.6094,28.0469 Q547.5469,28.0469 548.2031,27.7969 Q548.5938,27.6406 549.0156,27.2031 Q549.2813,26.9375 549.4219,26.8594 Q549.5781,26.7813 549.7813,26.7813 Q550.1094,26.7813 550.3594,27.0469 Q550.625,27.2969 550.625,27.6406 Q550.625,27.9844 550.2813,28.3906 Q549.7813,28.9688 548.9844,29.2969 Q547.9063,29.75 546.6094,29.75 Q545.0938,29.75 543.8906,29.125 Q542.9063,28.625 542.2188,27.5625 Q541.5313,26.4844 541.5313,25.2031 L541.5313,24.0469 Q541.5313,22.7188 542.1406,21.5781 Q542.7656,20.4219 543.8594,19.8125 Q544.9531,19.1875 546.1875,19.1875 Q546.9219,19.1875 547.5625,19.3594 Q548.2188,19.5156 548.7656,19.875 Z "/><text fill="#000000" font-family="sans-serif" font-size="12" lengthAdjust="spacingAndGlyphs" textLength="106" x="560" y="28.9102">IConfigurationChild</text><line style="stroke: #A80036; stroke-width: 1.5;" x1="532" x2="668" y1="40" y2="40"/><line style="stroke: #A80036; stroke-width: 1.5;" x1="532" x2="668" y1="48" y2="48"/><!--class IConfigurationParent--><rect fill="#FEFECE" filter="url(#f13gv2s5r8t60q)" height="48" id="IConfigurationParent" style="stroke: #A80036; stroke-width: 1.5;" width="145" x="704.5" y="8"/><ellipse cx="719.5" cy="24" fill="#ADD1B2" rx="11" ry="11" style="stroke: #A80036; stroke-width: 1.0;"/><path d="M722.2656,19.875 Q722.4219,19.6563 722.6094,19.5469 Q722.7969,19.4375 723.0156,19.4375 Q723.3906,19.4375 723.625,19.7031 Q723.8594,19.9531 723.8594,20.5625 L723.8594,22.0156 Q723.8594,22.625 723.625,22.8906 Q723.3906,23.1563 723.0156,23.1563 Q722.6719,23.1563 722.4688,22.9531 Q722.2656,22.7656 722.1563,22.25 Q722.1094,21.8906 721.9219,21.7031 Q721.5938,21.3281 720.9844,21.1094 Q720.375,20.8906 719.75,20.8906 Q718.9844,20.8906 718.3438,21.2188 Q717.7188,21.5469 717.2188,22.2969 Q716.7344,23.0469 716.7344,24.0781 L716.7344,25.1719 Q716.7344,26.4063 717.625,27.2344 Q718.5156,28.0469 720.1094,28.0469 Q721.0469,28.0469 721.7031,27.7969 Q722.0938,27.6406 722.5156,27.2031 Q722.7813,26.9375 722.9219,26.8594 Q723.0781,26.7813 723.2813,26.7813 Q723.6094,26.7813 723.8594,27.0469 Q724.125,27.2969 724.125,27.6406 Q724.125,27.9844 723.7813,28.3906 Q723.2813,28.9688 722.4844,29.2969 Q721.4063,29.75 720.1094,29.75 Q718.5938,29.75 717.3906,29.125 Q716.4063,28.625 715.7188,27.5625 Q715.0313,26.4844 715.0313,25.2031 L715.0313,24.0469 Q715.0313,22.7188 715.6406,21.5781 Q716.2656,20.4219 717.3594,19.8125 Q718.4531,19.1875 719.6875,19.1875 Q720.4219,19.1875 721.0625,19.3594 Q721.7188,19.5156 722.2656,19.875 Z "/><text fill="#000000" font-family="sans-serif" font-size="12" lengthAdjust="spacingAndGlyphs" textLength="113" x="733.5" y="28.9102">IConfigurationParent</text><line style="stroke: #A80036; stroke-width: 1.5;" x1="705.5" x2="848.5" y1="40" y2="40"/><line style="stroke: #A80036; stroke-width: 1.5;" x1="705.5" x2="848.5" y1="48" y2="48"/><!--class IPropertyDef--><rect fill="#FEFECE" filter="url(#f13gv2s5r8t60q)" height="48" id="IPropertyDef" style="stroke: #A80036; stroke-width: 1.5;" width="99" x="528.5" y="445"/><ellipse cx="543.5" cy="461" fill="#ADD1B2" rx="11" ry="11" style="stroke: #A80036; stroke-width: 1.0;"/><path d="M546.2656,456.875 Q546.4219,456.6563 546.6094,456.5469 Q546.7969,456.4375 547.0156,456.4375 Q547.3906,456.4375 547.625,456.7031 Q547.8594,456.9531 547.8594,457.5625 L547.8594,459.0156 Q547.8594,459.625 547.625,459.8906 Q547.3906,460.1563 547.0156,460.1563 Q546.6719,460.1563 546.4688,459.9531 Q546.2656,459.7656 546.1563,459.25 Q546.1094,458.8906 545.9219,458.7031 Q545.5938,458.3281 544.9844,458.1094 Q544.375,457.8906 543.75,457.8906 Q542.9844,457.8906 542.3438,458.2188 Q541.7188,458.5469 541.2188,459.2969 Q540.7344,460.0469 540.7344,461.0781 L540.7344,462.1719 Q540.7344,463.4063 541.625,464.2344 Q542.5156,465.0469 544.1094,465.0469 Q545.0469,465.0469 545.7031,464.7969 Q546.0938,464.6406 546.5156,464.2031 Q546.7813,463.9375 546.9219,463.8594 Q547.0781,463.7813 547.2813,463.7813 Q547.6094,463.7813 547.8594,464.0469 Q548.125,464.2969 548.125,464.6406 Q548.125,464.9844 547.7813,465.3906 Q547.2813,465.9688 546.4844,466.2969 Q545.4063,466.75 544.1094,466.75 Q542.5938,466.75 541.3906,466.125 Q540.4063,465.625 539.7188,464.5625 Q539.0313,463.4844 539.0313,462.2031 L539.0313,461.0469 Q539.0313,459.7188 539.6406,458.5781 Q540.2656,457.4219 541.3594,456.8125 Q542.4531,456.1875 543.6875,456.1875 Q544.4219,456.1875 545.0625,456.3594 Q545.7188,456.5156 546.2656,456.875 Z "/><text fill="#000000" font-family="sans-serif" font-size="12" lengthAdjust="spacingAndGlyphs" textLength="67" x="557.5" y="465.9102">IPropertyDef</text><line style="stroke: #A80036; stroke-width: 1.5;" x1="529.5" x2="626.5" y1="477" y2="477"/><line style="stroke: #A80036; stroke-width: 1.5;" x1="529.5" x2="626.5" y1="485" y2="485"/><!--reverse link NotifyPropertyChanged to ConfigurationDictionaryBase`2--><path d="M139.735,66.665 C172.612,86.886 216.474,113.864 260.388,140.873 " fill="none" id="NotifyPropertyChanged&lt;-ConfigurationDictionaryBase`2" style="stroke: #A80036; stroke-width: 1.0;"/><polygon fill="none" points="136.039,72.61,122.67,56.169,143.373,60.685,136.039,72.61" style="stroke: #A80036; stroke-width: 1.0;"/><!--reverse link IConfigurationObject to ConfigurationDictionaryBase`2--><path d="M301.009,72.138 C310.839,84.959 322.374,100.003 334.498,115.815 " fill="none" id="IConfigurationObject&lt;-ConfigurationDictionaryBase`2" style="stroke: #A80036; stroke-width: 1.0;"/><polygon fill="none" points="295.379,76.3,288.765,56.169,306.489,67.782,295.379,76.3" style="stroke: #A80036; stroke-width: 1.0;"/><!--reverse link IValueChanged to ConfigurationDictionaryBase`2--><path d="M437,76.593 C437,88.388 437,101.8 437,115.815 " fill="none" id="IValueChanged&lt;-ConfigurationDictionaryBase`2" style="stroke: #A80036; stroke-width: 1.0;"/><polygon fill="none" points="430,76.169,437,56.169,444,76.169,430,76.169" style="stroke: #A80036; stroke-width: 1.0;"/><!--reverse link IConfigurationChild to ConfigurationDictionaryBase`2--><path d="M570.204,72.576 C560.623,85.301 549.419,100.183 537.65,115.815 " fill="none" id="IConfigurationChild&lt;-ConfigurationDictionaryBase`2" style="stroke: #A80036; stroke-width: 1.0;"/><polygon fill="none" points="564.934,67.937,582.556,56.169,576.119,76.357,564.934,67.937" style="stroke: #A80036; stroke-width: 1.0;"/><!--reverse link IConfigurationParent to ConfigurationDictionaryBase`2--><path d="M723.555,67.032 C693.356,86.262 653.693,111.517 613.543,137.084 " fill="none" id="IConfigurationParent&lt;-ConfigurationDictionaryBase`2" style="stroke: #A80036; stroke-width: 1.0;"/><polygon fill="none" points="719.984,61.007,740.614,56.169,727.504,72.816,719.984,61.007" style="stroke: #A80036; stroke-width: 1.0;"/><!--link ConfigurationDictionaryBase`2 to ICollection`1--><path d="M424.569,385.224 C425.089,405.6237 426.244,424.7439 428.034,439.4576 " fill="none" id="ConfigurationDictionaryBase`2-&gt;ICollection`1" style="stroke: #A80036; stroke-width: 1.0;"/><polygon fill="#A80036" points="428.722,444.6733,431.5102,435.2273,428.0679,439.7163,423.5789,436.274,428.722,444.6733" style="stroke: #A80036; stroke-width: 1.0;"/><text fill="#000000" font-family="sans-serif" font-size="13" lengthAdjust="spacingAndGlyphs" textLength="76" x="341.4417" y="434.3316">Keys&lt;TKey&gt;</text><!--link ConfigurationDictionaryBase`2 to ICollection`1--><path d="M450.162,385.224 C449.612,405.6237 448.389,424.7439 446.493,439.4576 " fill="none" id="ConfigurationDictionaryBase`2-&gt;ICollection`1-1" style="stroke: #A80036; stroke-width: 1.0;"/><polygon fill="#A80036" points="445.765,444.6733,450.9719,436.3134,446.4569,439.7214,443.0488,435.2064,445.765,444.6733" style="stroke: #A80036; stroke-width: 1.0;"/><text fill="#000000" font-family="sans-serif" font-size="13" lengthAdjust="spacingAndGlyphs" textLength="111" x="461.1433" y="434.1442">Values&lt;TElement&gt;</text><!--link ConfigurationDictionaryBase`2 to IPropertyDef--><path d="M524.09,385.224 C537.609,405.9816 550.265,425.4144 559.913,440.2279 " fill="none" id="ConfigurationDictionaryBase`2-&gt;IPropertyDef" style="stroke: #A80036; stroke-width: 1.0;"/><polygon fill="#A80036" points="562.808,444.6733,561.2484,434.9487,560.0794,440.4835,554.5446,439.3145,562.808,444.6733" style="stroke: #A80036; stroke-width: 1.0;"/><text fill="#000000" font-family="sans-serif" font-size="13" lengthAdjust="spacingAndGlyphs" textLength="68" x="567.3924" y="434.3316">PropertyDef</text><!--
@startuml
abstract class "ConfigurationDictionaryBase`2"<TKey,TElement> {
    +  <<event>> CollectionChanged : NotifyCollectionChangedEventHandler? 
    + Count : int <<get>>
    + IsDirty : bool <<get>>
    + IsReadOnly : bool <<get>>
    + AddCopy(key:TKey, value:TElement) : TElement
    + CalculatePath() : string
    + Clear() : void
    + ContainsKey(key:TKey) : bool
    + Delete() : void
    + Load() : void
    + OnValueChanged(oldValue:IValue, newValue:IValue) : void
    + <<virtual>> Remove(key:TKey) : bool
    + <<virtual>> Remove(item:TElement) : bool
    + Save() : void
    + SetParent(parent:IConfigurationParent?) : void
    + TryGetValue(key:TKey, value:TElement) : bool
}
class "ICollection`1"<T> {
}
class "Element`2"<T1,T2> {
}
NotifyPropertyChanged <|- - "ConfigurationDictionaryBase`2"
IConfigurationObject <|- - "ConfigurationDictionaryBase`2"
IValueChanged <|- - "ConfigurationDictionaryBase`2"
IConfigurationChild <|- - "ConfigurationDictionaryBase`2"
IConfigurationParent <|- - "ConfigurationDictionaryBase`2"
"ConfigurationDictionaryBase`2" - -> "Keys<TKey>" "ICollection`1"
"ConfigurationDictionaryBase`2" - -> "PropertyDef" IPropertyDef
"ConfigurationDictionaryBase`2" - -> "Values<TElement>" "ICollection`1"
@enduml

PlantUML version 1.2019.09(Mon Aug 26 17:19:51 BST 2019)
(GPL source distribution)
Java Runtime: OpenJDK Runtime Environment
JVM: OpenJDK 64-Bit Server VM
Java Version: 13.0.2+8
Operating System: Windows 10
OS Version: 10.0
Default Encoding: Cp1252
Language: en
Country: GB
--></g></svg>