<?xml version="1.0" encoding="UTF-8" standalone="no"?><svg xmlns="http://www.w3.org/2000/svg" xmlns:xlink="http://www.w3.org/1999/xlink" contentScriptType="application/ecmascript" contentStyleType="text/css" height="108px" preserveAspectRatio="none" style="width:93px;height:108px;" version="1.1" viewBox="0 0 93 108" width="93px" zoomAndPan="magnify"><defs><filter height="300%" id="f1e8738b4ot7w7" width="300%" x="-1" y="-1"><feGaussianBlur result="blurOut" stdDeviation="2.0"/><feColorMatrix in="blurOut" result="blurOut2" type="matrix" values="0 0 0 0 0 0 0 0 0 0 0 0 0 0 0 0 0 0 .4 0"/><feOffset dx="4.0" dy="4.0" in="blurOut2" result="blurOut3"/><feBlend in="SourceGraphic" in2="blurOut3" mode="normal"/></filter></defs><g><!--class PathIs--><rect fill="#FEFECE" filter="url(#f1e8738b4ot7w7)" height="89.5078" id="PathIs" style="stroke: #A80036; stroke-width: 1.5;" width="76" x="6" y="8"/><ellipse cx="25.05" cy="24" fill="#EB937F" rx="11" ry="11" style="stroke: #A80036; stroke-width: 1.0;"/><path d="M23.9094,24.7969 L23.9094,27.2969 L28.2375,27.2969 L28.2375,26.375 Q28.2375,25.7656 28.4719,25.5 Q28.7219,25.2344 29.0969,25.2344 Q29.4719,25.2344 29.7063,25.5 Q29.9406,25.7656 29.9406,26.375 L29.9406,29 L21.9406,29 Q21.3156,29 21.05,28.7656 Q20.8,28.5313 20.8,28.1406 Q20.8,27.7656 21.0656,27.5313 Q21.3313,27.2969 21.9406,27.2969 L22.2063,27.2969 L22.2063,20.6406 L21.9406,20.6406 Q21.3156,20.6406 21.05,20.4063 Q20.8,20.1719 20.8,19.7813 Q20.8,19.4063 21.05,19.1719 Q21.3156,18.9375 21.9406,18.9375 L29.5656,18.9375 L29.5656,21.5313 Q29.5656,22.1406 29.3313,22.4063 Q29.1125,22.6563 28.7219,22.6563 Q28.3469,22.6563 28.1125,22.4063 Q27.8781,22.1406 27.8781,21.5313 L27.8781,20.6406 L23.9094,20.6406 L23.9094,23.0938 L25.3938,23.0938 Q25.3938,22.4375 25.5188,22.25 Q25.7844,21.8438 26.2531,21.8438 Q26.6281,21.8438 26.8625,22.1094 Q27.0969,22.3594 27.0969,22.9688 L27.0969,24.9375 Q27.0969,25.4844 26.9719,25.6719 Q26.7063,26.0625 26.2531,26.0625 Q25.7844,26.0625 25.5188,25.6563 Q25.3938,25.4688 25.3938,24.7969 L23.9094,24.7969 Z "/><text fill="#000000" font-family="sans-serif" font-size="12" lengthAdjust="spacingAndGlyphs" textLength="35" x="39.95" y="28.9102">PathIs</text><line style="stroke: #A80036; stroke-width: 1.5;" x1="7" x2="81" y1="40" y2="40"/><text fill="#000000" font-family="sans-serif" font-size="11" lengthAdjust="spacingAndGlyphs" textLength="64" x="12" y="55.4189">Unknown= 0,</text><text fill="#000000" font-family="sans-serif" font-size="11" lengthAdjust="spacingAndGlyphs" textLength="25" x="12" y="69.2549">Root,</text><text fill="#000000" font-family="sans-serif" font-size="11" lengthAdjust="spacingAndGlyphs" textLength="32" x="12" y="83.0908">Suffix,</text><line style="stroke: #A80036; stroke-width: 1.5;" x1="7" x2="81" y1="89.5078" y2="89.5078"/><!--
@startuml
enum PathIs {
    Unknown= 0,
    Root,
    Suffix,
}
@enduml

PlantUML version 1.2019.09(Mon Aug 26 17:19:51 BST 2019)
(GPL source distribution)
Java Runtime: OpenJDK Runtime Environment
JVM: OpenJDK 64-Bit Server VM
Java Version: 13.0.2+8
Operating System: Windows 10
OS Version: 10.0
Default Encoding: Cp1252
Language: en
Country: GB
--></g></svg>