<?xml version="1.0" encoding="UTF-8" standalone="no"?><svg xmlns="http://www.w3.org/2000/svg" xmlns:xlink="http://www.w3.org/1999/xlink" contentScriptType="application/ecmascript" contentStyleType="text/css" height="266px" preserveAspectRatio="none" style="width:645px;height:266px;" version="1.1" viewBox="0 0 645 266" width="645px" zoomAndPan="magnify"><defs><filter height="300%" id="f1ijvm7khkxymi" width="300%" x="-1" y="-1"><feGaussianBlur result="blurOut" stdDeviation="2.0"/><feColorMatrix in="blurOut" result="blurOut2" type="matrix" values="0 0 0 0 0 0 0 0 0 0 0 0 0 0 0 0 0 0 .4 0"/><feOffset dx="4.0" dy="4.0" in="blurOut2" result="blurOut3"/><feBlend in="SourceGraphic" in2="blurOut3" mode="normal"/></filter></defs><g><!--class Element`2--><rect fill="#FEFECE" filter="url(#f1ijvm7khkxymi)" height="139.2031" id="Element`2" style="stroke: #A80036; stroke-width: 1.5;" width="237" x="272.35" y="116"/><ellipse cx="321.1" cy="136.0938" fill="#ADD1B2" rx="11" ry="11" style="stroke: #A80036; stroke-width: 1.0;"/><path d="M323.8656,131.9688 Q324.0219,131.75 324.2094,131.6406 Q324.3969,131.5313 324.6156,131.5313 Q324.9906,131.5313 325.225,131.7969 Q325.4594,132.0469 325.4594,132.6563 L325.4594,134.1094 Q325.4594,134.7188 325.225,134.9844 Q324.9906,135.25 324.6156,135.25 Q324.2719,135.25 324.0688,135.0469 Q323.8656,134.8594 323.7563,134.3438 Q323.7094,133.9844 323.5219,133.7969 Q323.1938,133.4219 322.5844,133.2031 Q321.975,132.9844 321.35,132.9844 Q320.5844,132.9844 319.9438,133.3125 Q319.3188,133.6406 318.8188,134.3906 Q318.3344,135.1406 318.3344,136.1719 L318.3344,137.2656 Q318.3344,138.5 319.225,139.3281 Q320.1156,140.1406 321.7094,140.1406 Q322.6469,140.1406 323.3031,139.8906 Q323.6938,139.7344 324.1156,139.2969 Q324.3813,139.0313 324.5219,138.9531 Q324.6781,138.875 324.8813,138.875 Q325.2094,138.875 325.4594,139.1406 Q325.725,139.3906 325.725,139.7344 Q325.725,140.0781 325.3813,140.4844 Q324.8813,141.0625 324.0844,141.3906 Q323.0063,141.8438 321.7094,141.8438 Q320.1938,141.8438 318.9906,141.2188 Q318.0063,140.7188 317.3188,139.6563 Q316.6313,138.5781 316.6313,137.2969 L316.6313,136.1406 Q316.6313,134.8125 317.2406,133.6719 Q317.8656,132.5156 318.9594,131.9063 Q320.0531,131.2813 321.2875,131.2813 Q322.0219,131.2813 322.6625,131.4531 Q323.3188,131.6094 323.8656,131.9688 Z "/><text fill="#000000" font-family="sans-serif" font-size="12" font-style="italic" lengthAdjust="spacingAndGlyphs" textLength="51" x="344.6" y="133.457">«sealed»</text><text fill="#000000" font-family="sans-serif" font-size="12" lengthAdjust="spacingAndGlyphs" textLength="57" x="341.6" y="148.5508">Element`2</text><rect fill="#FFFFFF" height="17.0938" style="stroke: #000000; stroke-width: 1.0; stroke-dasharray: 2.0,2.0;" width="72" x="440.35" y="113"/><text fill="#000000" font-family="sans-serif" font-size="12" font-style="italic" lengthAdjust="spacingAndGlyphs" textLength="70" x="441.35" y="126.457">TKey,TValue</text><line style="stroke: #A80036; stroke-width: 1.5;" x1="273.35" x2="508.35" y1="156.1875" y2="156.1875"/><ellipse cx="283.35" cy="167.1875" fill="none" rx="3" ry="3" style="stroke: #038048; stroke-width: 1.0;"/><text fill="#000000" font-family="sans-serif" font-size="11" lengthAdjust="spacingAndGlyphs" textLength="151" x="292.35" y="171.6064">Key : TKey «get» «internal set»</text><ellipse cx="283.35" cy="181.0234" fill="none" rx="3" ry="3" style="stroke: #038048; stroke-width: 1.0;"/><text fill="#000000" font-family="sans-serif" font-size="11" lengthAdjust="spacingAndGlyphs" textLength="169" x="292.35" y="185.4424">«override» IsReadOnly : bool «get»</text><line style="stroke: #A80036; stroke-width: 1.5;" x1="273.35" x2="508.35" y1="191.8594" y2="191.8594"/><ellipse cx="283.35" cy="202.8594" fill="#84BE84" rx="3" ry="3" style="stroke: #038048; stroke-width: 1.0;"/><text fill="#000000" font-family="sans-serif" font-size="11" lengthAdjust="spacingAndGlyphs" textLength="164" x="292.35" y="207.2783">«override» CalculatePath() : string</text><ellipse cx="283.35" cy="216.6953" fill="#84BE84" rx="3" ry="3" style="stroke: #038048; stroke-width: 1.0;"/><text fill="#000000" font-family="sans-serif" font-size="11" lengthAdjust="spacingAndGlyphs" textLength="211" x="292.35" y="221.1143">Equals(other:Element&lt;TKey, TValue&gt;) : bool</text><ellipse cx="283.35" cy="230.5313" fill="#84BE84" rx="3" ry="3" style="stroke: #038048; stroke-width: 1.0;"/><text fill="#000000" font-family="sans-serif" font-size="11" lengthAdjust="spacingAndGlyphs" textLength="170" x="292.35" y="234.9502">«override» Equals(obj:object) : bool</text><ellipse cx="283.35" cy="244.3672" fill="#84BE84" rx="3" ry="3" style="stroke: #038048; stroke-width: 1.0;"/><text fill="#000000" font-family="sans-serif" font-size="11" lengthAdjust="spacingAndGlyphs" textLength="150" x="292.35" y="248.7861">«override» GetHashCode() : int</text><!--class ValueBase`2--><rect fill="#FEFECE" filter="url(#f1ijvm7khkxymi)" height="48" id="ValueBase`2" style="stroke: #A80036; stroke-width: 1.5;" width="138" x="241.85" y="8"/><ellipse cx="256.85" cy="24" fill="#ADD1B2" rx="11" ry="11" style="stroke: #A80036; stroke-width: 1.0;"/><path d="M259.6156,19.875 Q259.7719,19.6563 259.9594,19.5469 Q260.1469,19.4375 260.3656,19.4375 Q260.7406,19.4375 260.975,19.7031 Q261.2094,19.9531 261.2094,20.5625 L261.2094,22.0156 Q261.2094,22.625 260.975,22.8906 Q260.7406,23.1563 260.3656,23.1563 Q260.0219,23.1563 259.8188,22.9531 Q259.6156,22.7656 259.5063,22.25 Q259.4594,21.8906 259.2719,21.7031 Q258.9438,21.3281 258.3344,21.1094 Q257.725,20.8906 257.1,20.8906 Q256.3344,20.8906 255.6938,21.2188 Q255.0688,21.5469 254.5688,22.2969 Q254.0844,23.0469 254.0844,24.0781 L254.0844,25.1719 Q254.0844,26.4063 254.975,27.2344 Q255.8656,28.0469 257.4594,28.0469 Q258.3969,28.0469 259.0531,27.7969 Q259.4438,27.6406 259.8656,27.2031 Q260.1313,26.9375 260.2719,26.8594 Q260.4281,26.7813 260.6313,26.7813 Q260.9594,26.7813 261.2094,27.0469 Q261.475,27.2969 261.475,27.6406 Q261.475,27.9844 261.1313,28.3906 Q260.6313,28.9688 259.8344,29.2969 Q258.7563,29.75 257.4594,29.75 Q255.9438,29.75 254.7406,29.125 Q253.7563,28.625 253.0688,27.5625 Q252.3813,26.4844 252.3813,25.2031 L252.3813,24.0469 Q252.3813,22.7188 252.9906,21.5781 Q253.6156,20.4219 254.7094,19.8125 Q255.8031,19.1875 257.0375,19.1875 Q257.7719,19.1875 258.4125,19.3594 Q259.0688,19.5156 259.6156,19.875 Z "/><text fill="#000000" font-family="sans-serif" font-size="12" lengthAdjust="spacingAndGlyphs" textLength="71" x="270.85" y="28.9102">ValueBase`2</text><rect fill="#FFFFFF" height="17.0938" style="stroke: #000000; stroke-width: 1.0; stroke-dasharray: 2.0,2.0;" width="33" x="349.85" y="5"/><text fill="#000000" font-family="sans-serif" font-size="12" font-style="italic" lengthAdjust="spacingAndGlyphs" textLength="31" x="350.85" y="18.457">T1,T2</text><line style="stroke: #A80036; stroke-width: 1.5;" x1="242.85" x2="378.85" y1="40" y2="40"/><line style="stroke: #A80036; stroke-width: 1.5;" x1="242.85" x2="378.85" y1="48" y2="48"/><!--class IEquatable`1--><rect fill="#FEFECE" filter="url(#f1ijvm7khkxymi)" height="48" id="IEquatable`1" style="stroke: #A80036; stroke-width: 1.5;" width="113" x="415.35" y="8"/><ellipse cx="430.35" cy="24" fill="#ADD1B2" rx="11" ry="11" style="stroke: #A80036; stroke-width: 1.0;"/><path d="M433.1156,19.875 Q433.2719,19.6563 433.4594,19.5469 Q433.6469,19.4375 433.8656,19.4375 Q434.2406,19.4375 434.475,19.7031 Q434.7094,19.9531 434.7094,20.5625 L434.7094,22.0156 Q434.7094,22.625 434.475,22.8906 Q434.2406,23.1563 433.8656,23.1563 Q433.5219,23.1563 433.3188,22.9531 Q433.1156,22.7656 433.0063,22.25 Q432.9594,21.8906 432.7719,21.7031 Q432.4438,21.3281 431.8344,21.1094 Q431.225,20.8906 430.6,20.8906 Q429.8344,20.8906 429.1938,21.2188 Q428.5688,21.5469 428.0688,22.2969 Q427.5844,23.0469 427.5844,24.0781 L427.5844,25.1719 Q427.5844,26.4063 428.475,27.2344 Q429.3656,28.0469 430.9594,28.0469 Q431.8969,28.0469 432.5531,27.7969 Q432.9438,27.6406 433.3656,27.2031 Q433.6313,26.9375 433.7719,26.8594 Q433.9281,26.7813 434.1313,26.7813 Q434.4594,26.7813 434.7094,27.0469 Q434.975,27.2969 434.975,27.6406 Q434.975,27.9844 434.6313,28.3906 Q434.1313,28.9688 433.3344,29.2969 Q432.2563,29.75 430.9594,29.75 Q429.4438,29.75 428.2406,29.125 Q427.2563,28.625 426.5688,27.5625 Q425.8813,26.4844 425.8813,25.2031 L425.8813,24.0469 Q425.8813,22.7188 426.4906,21.5781 Q427.1156,20.4219 428.2094,19.8125 Q429.3031,19.1875 430.5375,19.1875 Q431.2719,19.1875 431.9125,19.3594 Q432.5688,19.5156 433.1156,19.875 Z "/><text fill="#000000" font-family="sans-serif" font-size="12" lengthAdjust="spacingAndGlyphs" textLength="70" x="444.35" y="28.9102">IEquatable`1</text><rect fill="#FFFFFF" height="17.0938" style="stroke: #000000; stroke-width: 1.0; stroke-dasharray: 2.0,2.0;" width="9" x="522.35" y="5"/><text fill="#000000" font-family="sans-serif" font-size="12" font-style="italic" lengthAdjust="spacingAndGlyphs" textLength="7" x="523.35" y="18.457">T</text><line style="stroke: #A80036; stroke-width: 1.5;" x1="416.35" x2="527.35" y1="40" y2="40"/><line style="stroke: #A80036; stroke-width: 1.5;" x1="416.35" x2="527.35" y1="48" y2="48"/><!--reverse link ValueBase`2 to Element`2--><path d="M332.527,74.051 C339.358,86.987 347.098,101.645 354.655,115.956 " fill="none" id="ValueBase`2&lt;-Element`2" style="stroke: #A80036; stroke-width: 1.0;"/><polygon fill="none" points="326.149,76.964,323,56.01,338.529,70.427,326.149,76.964" style="stroke: #A80036; stroke-width: 1.0;"/><text fill="#000000" font-family="sans-serif" font-size="13" lengthAdjust="spacingAndGlyphs" textLength="317" x="-29.6728" y="77.3504">&lt;ConfigurationDictionaryBase&lt;TKey, TValue&gt;,TValue&gt;</text><!--reverse link IEquatable`1 to Element`2--><path d="M449.901,74.051 C442.985,86.987 435.149,101.645 427.497,115.956 " fill="none" id="IEquatable`1&lt;-Element`2" style="stroke: #A80036; stroke-width: 1.0;"/><polygon fill="none" points="443.945,70.347,459.548,56.01,456.291,76.947,443.945,70.347" style="stroke: #A80036; stroke-width: 1.0;"/><text fill="#000000" font-family="sans-serif" font-size="13" lengthAdjust="spacingAndGlyphs" textLength="158" x="475.8056" y="77.3504">&lt;Element&lt;TKey, TValue&gt;&gt;</text><!--
@startuml
class "Element`2"<TKey,TValue> <<sealed>> {
    + Key : TKey <<get>> <<internal set>>
    + <<override>> IsReadOnly : bool <<get>>
    + <<override>> CalculatePath() : string
    + Equals(other:Element<TKey, TValue>) : bool
    + <<override>> Equals(obj:object) : bool
    + <<override>> GetHashCode() : int
}
class "ValueBase`2"<T1,T2> {
}
class "IEquatable`1"<T> {
}
"ValueBase`2" "<ConfigurationDictionaryBase<TKey, TValue>,TValue>" <|- - "Element`2"
"IEquatable`1" "<Element<TKey, TValue>>" <|- - "Element`2"
@enduml

PlantUML version 1.2019.09(Mon Aug 26 17:19:51 BST 2019)
(GPL source distribution)
Java Runtime: OpenJDK Runtime Environment
JVM: OpenJDK 64-Bit Server VM
Java Version: 13.0.2+8
Operating System: Windows 10
OS Version: 10.0
Default Encoding: Cp1252
Language: en
Country: GB
--></g></svg>