<?xml version="1.0" encoding="UTF-8" standalone="no"?><svg xmlns="http://www.w3.org/2000/svg" xmlns:xlink="http://www.w3.org/1999/xlink" contentScriptType="application/ecmascript" contentStyleType="text/css" height="272px" preserveAspectRatio="none" style="width:300px;height:272px;" version="1.1" viewBox="0 0 300 272" width="300px" zoomAndPan="magnify"><defs><filter height="300%" id="f1wphpz7i7j6t2" width="300%" x="-1" y="-1"><feGaussianBlur result="blurOut" stdDeviation="2.0"/><feColorMatrix in="blurOut" result="blurOut2" type="matrix" values="0 0 0 0 0 0 0 0 0 0 0 0 0 0 0 0 0 0 .4 0"/><feOffset dx="4.0" dy="4.0" in="blurOut2" result="blurOut3"/><feBlend in="SourceGraphic" in2="blurOut3" mode="normal"/></filter></defs><g><!--class IValue--><rect fill="#FEFECE" filter="url(#f1wphpz7i7j6t2)" height="144.8516" id="IValue" style="stroke: #A80036; stroke-width: 1.5;" width="283" x="6" y="8"/><ellipse cx="125.25" cy="24" fill="#B4A7E5" rx="11" ry="11" style="stroke: #A80036; stroke-width: 1.0;"/><path d="M126.2031,20.6406 L126.2031,27.2969 L127.9219,27.2969 Q128.5313,27.2969 128.7969,27.5313 Q129.0625,27.7656 129.0625,28.1563 Q129.0625,28.5313 128.7969,28.7656 Q128.5313,29 127.9219,29 L122.7813,29 Q122.1719,29 121.9063,28.7656 Q121.6406,28.5313 121.6406,28.1406 Q121.6406,27.7656 121.9063,27.5313 Q122.1719,27.2969 122.7813,27.2969 L124.5,27.2969 L124.5,20.6406 L122.7813,20.6406 Q122.1719,20.6406 121.9063,20.4063 Q121.6406,20.1719 121.6406,19.7813 Q121.6406,19.4063 121.9063,19.1719 Q122.1719,18.9375 122.7813,18.9375 L127.9219,18.9375 Q128.5313,18.9375 128.7969,19.1719 Q129.0625,19.4063 129.0625,19.7813 Q129.0625,20.1719 128.7969,20.4063 Q128.5313,20.6406 127.9219,20.6406 L126.2031,20.6406 Z "/><text fill="#000000" font-family="sans-serif" font-size="12" font-style="italic" lengthAdjust="spacingAndGlyphs" textLength="36" x="145.75" y="28.9102">IValue</text><line style="stroke: #A80036; stroke-width: 1.5;" x1="7" x2="288" y1="40" y2="40"/><text fill="#000000" font-family="sans-serif" font-size="11" lengthAdjust="spacingAndGlyphs" textLength="89" x="12" y="55.4189">IsDirty : bool «get»</text><text fill="#000000" font-family="sans-serif" font-size="11" lengthAdjust="spacingAndGlyphs" textLength="87" x="12" y="69.2549">Path : string «get»</text><text fill="#000000" font-family="sans-serif" font-size="11" lengthAdjust="spacingAndGlyphs" textLength="132" x="12" y="83.0908">Value : object? «get» «set»</text><line style="stroke: #A80036; stroke-width: 1.5;" x1="7" x2="288" y1="89.5078" y2="89.5078"/><text fill="#000000" font-family="sans-serif" font-size="11" lengthAdjust="spacingAndGlyphs" textLength="271" x="12" y="104.9268">DeleteValue(configurationRoot:IConfigurationRoot) : void</text><text fill="#000000" font-family="sans-serif" font-size="11" lengthAdjust="spacingAndGlyphs" textLength="266" x="12" y="118.7627">ReadValue(configurationRoot:IConfigurationRoot) : void</text><text fill="#000000" font-family="sans-serif" font-size="11" lengthAdjust="spacingAndGlyphs" textLength="145" x="12" y="132.5986">SetValue(value:object?) : bool</text><text fill="#000000" font-family="sans-serif" font-size="11" lengthAdjust="spacingAndGlyphs" textLength="266" x="12" y="146.4346">WriteValue(configurationRoot:IConfigurationRoot) : void</text><!--class IValueChanged--><rect fill="#FEFECE" filter="url(#f1wphpz7i7j6t2)" height="48" id="IValueChanged" style="stroke: #A80036; stroke-width: 1.5;" width="117" x="18" y="213"/><ellipse cx="33" cy="229" fill="#ADD1B2" rx="11" ry="11" style="stroke: #A80036; stroke-width: 1.0;"/><path d="M35.7656,224.875 Q35.9219,224.6563 36.1094,224.5469 Q36.2969,224.4375 36.5156,224.4375 Q36.8906,224.4375 37.125,224.7031 Q37.3594,224.9531 37.3594,225.5625 L37.3594,227.0156 Q37.3594,227.625 37.125,227.8906 Q36.8906,228.1563 36.5156,228.1563 Q36.1719,228.1563 35.9688,227.9531 Q35.7656,227.7656 35.6563,227.25 Q35.6094,226.8906 35.4219,226.7031 Q35.0938,226.3281 34.4844,226.1094 Q33.875,225.8906 33.25,225.8906 Q32.4844,225.8906 31.8438,226.2188 Q31.2188,226.5469 30.7188,227.2969 Q30.2344,228.0469 30.2344,229.0781 L30.2344,230.1719 Q30.2344,231.4063 31.125,232.2344 Q32.0156,233.0469 33.6094,233.0469 Q34.5469,233.0469 35.2031,232.7969 Q35.5938,232.6406 36.0156,232.2031 Q36.2813,231.9375 36.4219,231.8594 Q36.5781,231.7813 36.7813,231.7813 Q37.1094,231.7813 37.3594,232.0469 Q37.625,232.2969 37.625,232.6406 Q37.625,232.9844 37.2813,233.3906 Q36.7813,233.9688 35.9844,234.2969 Q34.9063,234.75 33.6094,234.75 Q32.0938,234.75 30.8906,234.125 Q29.9063,233.625 29.2188,232.5625 Q28.5313,231.4844 28.5313,230.2031 L28.5313,229.0469 Q28.5313,227.7188 29.1406,226.5781 Q29.7656,225.4219 30.8594,224.8125 Q31.9531,224.1875 33.1875,224.1875 Q33.9219,224.1875 34.5625,224.3594 Q35.2188,224.5156 35.7656,224.875 Z "/><text fill="#000000" font-family="sans-serif" font-size="12" lengthAdjust="spacingAndGlyphs" textLength="85" x="47" y="233.9102">IValueChanged</text><line style="stroke: #A80036; stroke-width: 1.5;" x1="19" x2="134" y1="245" y2="245"/><line style="stroke: #A80036; stroke-width: 1.5;" x1="19" x2="134" y1="253" y2="253"/><!--class IPropertyDef--><rect fill="#FEFECE" filter="url(#f1wphpz7i7j6t2)" height="48" id="IPropertyDef" style="stroke: #A80036; stroke-width: 1.5;" width="99" x="170" y="213"/><ellipse cx="185" cy="229" fill="#ADD1B2" rx="11" ry="11" style="stroke: #A80036; stroke-width: 1.0;"/><path d="M187.7656,224.875 Q187.9219,224.6563 188.1094,224.5469 Q188.2969,224.4375 188.5156,224.4375 Q188.8906,224.4375 189.125,224.7031 Q189.3594,224.9531 189.3594,225.5625 L189.3594,227.0156 Q189.3594,227.625 189.125,227.8906 Q188.8906,228.1563 188.5156,228.1563 Q188.1719,228.1563 187.9688,227.9531 Q187.7656,227.7656 187.6563,227.25 Q187.6094,226.8906 187.4219,226.7031 Q187.0938,226.3281 186.4844,226.1094 Q185.875,225.8906 185.25,225.8906 Q184.4844,225.8906 183.8438,226.2188 Q183.2188,226.5469 182.7188,227.2969 Q182.2344,228.0469 182.2344,229.0781 L182.2344,230.1719 Q182.2344,231.4063 183.125,232.2344 Q184.0156,233.0469 185.6094,233.0469 Q186.5469,233.0469 187.2031,232.7969 Q187.5938,232.6406 188.0156,232.2031 Q188.2813,231.9375 188.4219,231.8594 Q188.5781,231.7813 188.7813,231.7813 Q189.1094,231.7813 189.3594,232.0469 Q189.625,232.2969 189.625,232.6406 Q189.625,232.9844 189.2813,233.3906 Q188.7813,233.9688 187.9844,234.2969 Q186.9063,234.75 185.6094,234.75 Q184.0938,234.75 182.8906,234.125 Q181.9063,233.625 181.2188,232.5625 Q180.5313,231.4844 180.5313,230.2031 L180.5313,229.0469 Q180.5313,227.7188 181.1406,226.5781 Q181.7656,225.4219 182.8594,224.8125 Q183.9531,224.1875 185.1875,224.1875 Q185.9219,224.1875 186.5625,224.3594 Q187.2188,224.5156 187.7656,224.875 Z "/><text fill="#000000" font-family="sans-serif" font-size="12" lengthAdjust="spacingAndGlyphs" textLength="67" x="199" y="233.9102">IPropertyDef</text><line style="stroke: #A80036; stroke-width: 1.5;" x1="171" x2="268" y1="245" y2="245"/><line style="stroke: #A80036; stroke-width: 1.5;" x1="171" x2="268" y1="253" y2="253"/><!--link IValue to IValueChanged--><path d="M114.494,153.322 C105.5677,172.7471 96.4298,192.6317 89.3531,208.031 " fill="none" id="IValue-&gt;IValueChanged" style="stroke: #A80036; stroke-width: 1.0;"/><polygon fill="#A80036" points="87.2255,212.6606,94.6182,206.153,89.3133,208.1174,87.349,202.8125,87.2255,212.6606" style="stroke: #A80036; stroke-width: 1.0;"/><text fill="#000000" font-family="sans-serif" font-size="13" lengthAdjust="spacingAndGlyphs" textLength="38" x="47.2086" y="202.3158">Parent</text><!--link IValue to IPropertyDef--><path d="M180.971,153.322 C190.023,172.7471 199.29,192.6317 206.466,208.031 " fill="none" id="IValue-&gt;IPropertyDef" style="stroke: #A80036; stroke-width: 1.0;"/><polygon fill="#A80036" points="208.623,212.6606,208.4475,202.8133,206.5112,208.1285,201.196,206.1922,208.623,212.6606" style="stroke: #A80036; stroke-width: 1.0;"/><text fill="#000000" font-family="sans-serif" font-size="13" lengthAdjust="spacingAndGlyphs" textLength="68" x="133.609" y="202.2012">PropertyDef</text><!--
@startuml
interface IValue {
    IsDirty : bool <<get>>
    Path : string <<get>>
    Value : object? <<get>> <<set>>
    DeleteValue(configurationRoot:IConfigurationRoot) : void
    ReadValue(configurationRoot:IConfigurationRoot) : void
    SetValue(value:object?) : bool
    WriteValue(configurationRoot:IConfigurationRoot) : void
}
IValue - -> "Parent" IValueChanged
IValue - -> "PropertyDef" IPropertyDef
@enduml

PlantUML version 1.2019.09(Mon Aug 26 17:19:51 BST 2019)
(GPL source distribution)
Java Runtime: OpenJDK Runtime Environment
JVM: OpenJDK 64-Bit Server VM
Java Version: 13.0.2+8
Operating System: Windows 10
OS Version: 10.0
Default Encoding: Cp1252
Language: en
Country: GB
--></g></svg>