<?xml version="1.0" encoding="UTF-8" standalone="no"?><svg xmlns="http://www.w3.org/2000/svg" xmlns:xlink="http://www.w3.org/1999/xlink" contentScriptType="application/ecmascript" contentStyleType="text/css" height="435px" preserveAspectRatio="none" style="width:817px;height:435px;" version="1.1" viewBox="0 0 817 435" width="817px" zoomAndPan="magnify"><defs><filter height="300%" id="f1gjfj6ocgc8a9" width="300%" x="-1" y="-1"><feGaussianBlur result="blurOut" stdDeviation="2.0"/><feColorMatrix in="blurOut" result="blurOut2" type="matrix" values="0 0 0 0 0 0 0 0 0 0 0 0 0 0 0 0 0 0 .4 0"/><feOffset dx="4.0" dy="4.0" in="blurOut2" result="blurOut3"/><feBlend in="SourceGraphic" in2="blurOut3" mode="normal"/></filter></defs><g><!--class PropertyDef--><rect fill="#FEFECE" filter="url(#f1gjfj6ocgc8a9)" height="200.1953" id="PropertyDef" style="stroke: #A80036; stroke-width: 1.5;" width="681" x="125" y="116"/><ellipse cx="429.25" cy="132" fill="#ADD1B2" rx="11" ry="11" style="stroke: #A80036; stroke-width: 1.0;"/><path d="M432.0156,127.875 Q432.1719,127.6563 432.3594,127.5469 Q432.5469,127.4375 432.7656,127.4375 Q433.1406,127.4375 433.375,127.7031 Q433.6094,127.9531 433.6094,128.5625 L433.6094,130.0156 Q433.6094,130.625 433.375,130.8906 Q433.1406,131.1563 432.7656,131.1563 Q432.4219,131.1563 432.2188,130.9531 Q432.0156,130.7656 431.9063,130.25 Q431.8594,129.8906 431.6719,129.7031 Q431.3438,129.3281 430.7344,129.1094 Q430.125,128.8906 429.5,128.8906 Q428.7344,128.8906 428.0938,129.2188 Q427.4688,129.5469 426.9688,130.2969 Q426.4844,131.0469 426.4844,132.0781 L426.4844,133.1719 Q426.4844,134.4063 427.375,135.2344 Q428.2656,136.0469 429.8594,136.0469 Q430.7969,136.0469 431.4531,135.7969 Q431.8438,135.6406 432.2656,135.2031 Q432.5313,134.9375 432.6719,134.8594 Q432.8281,134.7813 433.0313,134.7813 Q433.3594,134.7813 433.6094,135.0469 Q433.875,135.2969 433.875,135.6406 Q433.875,135.9844 433.5313,136.3906 Q433.0313,136.9688 432.2344,137.2969 Q431.1563,137.75 429.8594,137.75 Q428.3438,137.75 427.1406,137.125 Q426.1563,136.625 425.4688,135.5625 Q424.7813,134.4844 424.7813,133.2031 L424.7813,132.0469 Q424.7813,130.7188 425.3906,129.5781 Q426.0156,128.4219 427.1094,127.8125 Q428.2031,127.1875 429.4375,127.1875 Q430.1719,127.1875 430.8125,127.3594 Q431.4688,127.5156 432.0156,127.875 Z "/><text fill="#000000" font-family="sans-serif" font-size="12" lengthAdjust="spacingAndGlyphs" textLength="64" x="449.75" y="136.9102">PropertyDef</text><line style="stroke: #A80036; stroke-width: 1.5;" x1="126" x2="805" y1="148" y2="148"/><ellipse cx="136" cy="159" fill="none" rx="3" ry="3" style="stroke: #038048; stroke-width: 1.0;"/><text fill="#000000" font-family="sans-serif" font-size="11" lengthAdjust="spacingAndGlyphs" textLength="136" x="145" y="163.4189">DefaultValue : object? «get»</text><ellipse cx="136" cy="172.8359" fill="none" rx="3" ry="3" style="stroke: #038048; stroke-width: 1.0;"/><text fill="#000000" font-family="sans-serif" font-size="11" lengthAdjust="spacingAndGlyphs" textLength="224" x="145" y="177.2549">ElementImplementation : IImplementation? «get»</text><ellipse cx="136" cy="186.6719" fill="none" rx="3" ry="3" style="stroke: #038048; stroke-width: 1.0;"/><text fill="#000000" font-family="sans-serif" font-size="11" lengthAdjust="spacingAndGlyphs" textLength="140" x="145" y="191.0908">HasDefaultValue : bool «get»</text><ellipse cx="136" cy="200.5078" fill="none" rx="3" ry="3" style="stroke: #038048; stroke-width: 1.0;"/><text fill="#000000" font-family="sans-serif" font-size="11" lengthAdjust="spacingAndGlyphs" textLength="114" x="145" y="204.9268">IsReadOnly : bool «get»</text><ellipse cx="136" cy="214.3438" fill="none" rx="3" ry="3" style="stroke: #038048; stroke-width: 1.0;"/><text fill="#000000" font-family="sans-serif" font-size="11" lengthAdjust="spacingAndGlyphs" textLength="123" x="145" y="218.7627">PathSection : string «get»</text><ellipse cx="136" cy="228.1797" fill="none" rx="3" ry="3" style="stroke: #038048; stroke-width: 1.0;"/><text fill="#000000" font-family="sans-serif" font-size="11" lengthAdjust="spacingAndGlyphs" textLength="134" x="145" y="232.5986">PropertyName : string «get»</text><line style="stroke: #A80036; stroke-width: 1.5;" x1="126" x2="805" y1="239.0156" y2="239.0156"/><ellipse cx="136" cy="250.0156" fill="#84BE84" rx="3" ry="3" style="stroke: #038048; stroke-width: 1.0;"/><text fill="#000000" font-family="sans-serif" font-size="11" lengthAdjust="spacingAndGlyphs" text-decoration="underline" textLength="181" x="145" y="254.4346">GetUnderlyingType(type:Type) : Type</text><ellipse cx="136" cy="263.8516" fill="#84BE84" rx="3" ry="3" style="stroke: #038048; stroke-width: 1.0;"/><text fill="#000000" font-family="sans-serif" font-size="11" lengthAdjust="spacingAndGlyphs" textLength="246" x="145" y="268.2705">CalculatePath(parent:IConfigurationParent?) : string</text><ellipse cx="136" cy="277.6875" fill="#84BE84" rx="3" ry="3" style="stroke: #038048; stroke-width: 1.0;"/><text fill="#000000" font-family="sans-serif" font-size="11" lengthAdjust="spacingAndGlyphs" textLength="351" x="145" y="282.1064">ConvertStringToValue(path:string, stringRepresentation:string?) : object?</text><ellipse cx="136" cy="291.5234" fill="#84BE84" rx="3" ry="3" style="stroke: #038048; stroke-width: 1.0;"/><text fill="#000000" font-family="sans-serif" font-size="11" lengthAdjust="spacingAndGlyphs" textLength="220" x="145" y="295.9424">ConvertValueToString(value:object?) : string?</text><ellipse cx="136" cy="305.3594" fill="#84BE84" rx="3" ry="3" style="stroke: #038048; stroke-width: 1.0;"/><text fill="#000000" font-family="sans-serif" font-size="11" lengthAdjust="spacingAndGlyphs" textLength="655" x="145" y="309.7783">CopyValue(implementation:IImplementation, value:TElement, parent:IConfigurationParent, configurationRoot:IConfigurationRoot) : TElement</text><!--class IPropertyDef--><rect fill="#FEFECE" filter="url(#f1gjfj6ocgc8a9)" height="48" id="IPropertyDef" style="stroke: #A80036; stroke-width: 1.5;" width="99" x="416" y="8"/><ellipse cx="431" cy="24" fill="#ADD1B2" rx="11" ry="11" style="stroke: #A80036; stroke-width: 1.0;"/><path d="M433.7656,19.875 Q433.9219,19.6563 434.1094,19.5469 Q434.2969,19.4375 434.5156,19.4375 Q434.8906,19.4375 435.125,19.7031 Q435.3594,19.9531 435.3594,20.5625 L435.3594,22.0156 Q435.3594,22.625 435.125,22.8906 Q434.8906,23.1563 434.5156,23.1563 Q434.1719,23.1563 433.9688,22.9531 Q433.7656,22.7656 433.6563,22.25 Q433.6094,21.8906 433.4219,21.7031 Q433.0938,21.3281 432.4844,21.1094 Q431.875,20.8906 431.25,20.8906 Q430.4844,20.8906 429.8438,21.2188 Q429.2188,21.5469 428.7188,22.2969 Q428.2344,23.0469 428.2344,24.0781 L428.2344,25.1719 Q428.2344,26.4063 429.125,27.2344 Q430.0156,28.0469 431.6094,28.0469 Q432.5469,28.0469 433.2031,27.7969 Q433.5938,27.6406 434.0156,27.2031 Q434.2813,26.9375 434.4219,26.8594 Q434.5781,26.7813 434.7813,26.7813 Q435.1094,26.7813 435.3594,27.0469 Q435.625,27.2969 435.625,27.6406 Q435.625,27.9844 435.2813,28.3906 Q434.7813,28.9688 433.9844,29.2969 Q432.9063,29.75 431.6094,29.75 Q430.0938,29.75 428.8906,29.125 Q427.9063,28.625 427.2188,27.5625 Q426.5313,26.4844 426.5313,25.2031 L426.5313,24.0469 Q426.5313,22.7188 427.1406,21.5781 Q427.7656,20.4219 428.8594,19.8125 Q429.9531,19.1875 431.1875,19.1875 Q431.9219,19.1875 432.5625,19.3594 Q433.2188,19.5156 433.7656,19.875 Z "/><text fill="#000000" font-family="sans-serif" font-size="12" lengthAdjust="spacingAndGlyphs" textLength="67" x="445" y="28.9102">IPropertyDef</text><line style="stroke: #A80036; stroke-width: 1.5;" x1="417" x2="514" y1="40" y2="40"/><line style="stroke: #A80036; stroke-width: 1.5;" x1="417" x2="514" y1="48" y2="48"/><!--class IImplementation--><rect fill="#FEFECE" filter="url(#f1gjfj6ocgc8a9)" height="48" id="IImplementation" style="stroke: #A80036; stroke-width: 1.5;" width="121" x="6" y="376"/><ellipse cx="21" cy="392" fill="#ADD1B2" rx="11" ry="11" style="stroke: #A80036; stroke-width: 1.0;"/><path d="M23.7656,387.875 Q23.9219,387.6563 24.1094,387.5469 Q24.2969,387.4375 24.5156,387.4375 Q24.8906,387.4375 25.125,387.7031 Q25.3594,387.9531 25.3594,388.5625 L25.3594,390.0156 Q25.3594,390.625 25.125,390.8906 Q24.8906,391.1563 24.5156,391.1563 Q24.1719,391.1563 23.9688,390.9531 Q23.7656,390.7656 23.6563,390.25 Q23.6094,389.8906 23.4219,389.7031 Q23.0938,389.3281 22.4844,389.1094 Q21.875,388.8906 21.25,388.8906 Q20.4844,388.8906 19.8438,389.2188 Q19.2188,389.5469 18.7188,390.2969 Q18.2344,391.0469 18.2344,392.0781 L18.2344,393.1719 Q18.2344,394.4063 19.125,395.2344 Q20.0156,396.0469 21.6094,396.0469 Q22.5469,396.0469 23.2031,395.7969 Q23.5938,395.6406 24.0156,395.2031 Q24.2813,394.9375 24.4219,394.8594 Q24.5781,394.7813 24.7813,394.7813 Q25.1094,394.7813 25.3594,395.0469 Q25.625,395.2969 25.625,395.6406 Q25.625,395.9844 25.2813,396.3906 Q24.7813,396.9688 23.9844,397.2969 Q22.9063,397.75 21.6094,397.75 Q20.0938,397.75 18.8906,397.125 Q17.9063,396.625 17.2188,395.5625 Q16.5313,394.4844 16.5313,393.2031 L16.5313,392.0469 Q16.5313,390.7188 17.1406,389.5781 Q17.7656,388.4219 18.8594,387.8125 Q19.9531,387.1875 21.1875,387.1875 Q21.9219,387.1875 22.5625,387.3594 Q23.2188,387.5156 23.7656,387.875 Z "/><text fill="#000000" font-family="sans-serif" font-size="12" lengthAdjust="spacingAndGlyphs" textLength="89" x="35" y="396.9102">IImplementation</text><line style="stroke: #A80036; stroke-width: 1.5;" x1="7" x2="126" y1="408" y2="408"/><line style="stroke: #A80036; stroke-width: 1.5;" x1="7" x2="126" y1="416" y2="416"/><!--class PathIs--><rect fill="#FEFECE" filter="url(#f1gjfj6ocgc8a9)" height="48" id="PathIs" style="stroke: #A80036; stroke-width: 1.5;" width="67" x="162" y="376"/><ellipse cx="177" cy="392" fill="#ADD1B2" rx="11" ry="11" style="stroke: #A80036; stroke-width: 1.0;"/><path d="M179.7656,387.875 Q179.9219,387.6563 180.1094,387.5469 Q180.2969,387.4375 180.5156,387.4375 Q180.8906,387.4375 181.125,387.7031 Q181.3594,387.9531 181.3594,388.5625 L181.3594,390.0156 Q181.3594,390.625 181.125,390.8906 Q180.8906,391.1563 180.5156,391.1563 Q180.1719,391.1563 179.9688,390.9531 Q179.7656,390.7656 179.6563,390.25 Q179.6094,389.8906 179.4219,389.7031 Q179.0938,389.3281 178.4844,389.1094 Q177.875,388.8906 177.25,388.8906 Q176.4844,388.8906 175.8438,389.2188 Q175.2188,389.5469 174.7188,390.2969 Q174.2344,391.0469 174.2344,392.0781 L174.2344,393.1719 Q174.2344,394.4063 175.125,395.2344 Q176.0156,396.0469 177.6094,396.0469 Q178.5469,396.0469 179.2031,395.7969 Q179.5938,395.6406 180.0156,395.2031 Q180.2813,394.9375 180.4219,394.8594 Q180.5781,394.7813 180.7813,394.7813 Q181.1094,394.7813 181.3594,395.0469 Q181.625,395.2969 181.625,395.6406 Q181.625,395.9844 181.2813,396.3906 Q180.7813,396.9688 179.9844,397.2969 Q178.9063,397.75 177.6094,397.75 Q176.0938,397.75 174.8906,397.125 Q173.9063,396.625 173.2188,395.5625 Q172.5313,394.4844 172.5313,393.2031 L172.5313,392.0469 Q172.5313,390.7188 173.1406,389.5781 Q173.7656,388.4219 174.8594,387.8125 Q175.9531,387.1875 177.1875,387.1875 Q177.9219,387.1875 178.5625,387.3594 Q179.2188,387.5156 179.7656,387.875 Z "/><text fill="#000000" font-family="sans-serif" font-size="12" lengthAdjust="spacingAndGlyphs" textLength="35" x="191" y="396.9102">PathIs</text><line style="stroke: #A80036; stroke-width: 1.5;" x1="163" x2="228" y1="408" y2="408"/><line style="stroke: #A80036; stroke-width: 1.5;" x1="163" x2="228" y1="416" y2="416"/><!--class ConfigurationPersistenceActions--><rect fill="#FEFECE" filter="url(#f1gjfj6ocgc8a9)" height="48" id="ConfigurationPersistenceActions" style="stroke: #A80036; stroke-width: 1.5;" width="212" x="264.5" y="376"/><ellipse cx="279.5" cy="392" fill="#ADD1B2" rx="11" ry="11" style="stroke: #A80036; stroke-width: 1.0;"/><path d="M282.2656,387.875 Q282.4219,387.6563 282.6094,387.5469 Q282.7969,387.4375 283.0156,387.4375 Q283.3906,387.4375 283.625,387.7031 Q283.8594,387.9531 283.8594,388.5625 L283.8594,390.0156 Q283.8594,390.625 283.625,390.8906 Q283.3906,391.1563 283.0156,391.1563 Q282.6719,391.1563 282.4688,390.9531 Q282.2656,390.7656 282.1563,390.25 Q282.1094,389.8906 281.9219,389.7031 Q281.5938,389.3281 280.9844,389.1094 Q280.375,388.8906 279.75,388.8906 Q278.9844,388.8906 278.3438,389.2188 Q277.7188,389.5469 277.2188,390.2969 Q276.7344,391.0469 276.7344,392.0781 L276.7344,393.1719 Q276.7344,394.4063 277.625,395.2344 Q278.5156,396.0469 280.1094,396.0469 Q281.0469,396.0469 281.7031,395.7969 Q282.0938,395.6406 282.5156,395.2031 Q282.7813,394.9375 282.9219,394.8594 Q283.0781,394.7813 283.2813,394.7813 Q283.6094,394.7813 283.8594,395.0469 Q284.125,395.2969 284.125,395.6406 Q284.125,395.9844 283.7813,396.3906 Q283.2813,396.9688 282.4844,397.2969 Q281.4063,397.75 280.1094,397.75 Q278.5938,397.75 277.3906,397.125 Q276.4063,396.625 275.7188,395.5625 Q275.0313,394.4844 275.0313,393.2031 L275.0313,392.0469 Q275.0313,390.7188 275.6406,389.5781 Q276.2656,388.4219 277.3594,387.8125 Q278.4531,387.1875 279.6875,387.1875 Q280.4219,387.1875 281.0625,387.3594 Q281.7188,387.5156 282.2656,387.875 Z "/><text fill="#000000" font-family="sans-serif" font-size="12" lengthAdjust="spacingAndGlyphs" textLength="180" x="293.5" y="396.9102">ConfigurationPersistenceActions</text><line style="stroke: #A80036; stroke-width: 1.5;" x1="265.5" x2="475.5" y1="408" y2="408"/><line style="stroke: #A80036; stroke-width: 1.5;" x1="265.5" x2="475.5" y1="416" y2="416"/><!--class PropertyInfo--><rect fill="#FEFECE" filter="url(#f1gjfj6ocgc8a9)" height="48" id="PropertyInfo" style="stroke: #A80036; stroke-width: 1.5;" width="97" x="512" y="376"/><ellipse cx="527" cy="392" fill="#ADD1B2" rx="11" ry="11" style="stroke: #A80036; stroke-width: 1.0;"/><path d="M529.7656,387.875 Q529.9219,387.6563 530.1094,387.5469 Q530.2969,387.4375 530.5156,387.4375 Q530.8906,387.4375 531.125,387.7031 Q531.3594,387.9531 531.3594,388.5625 L531.3594,390.0156 Q531.3594,390.625 531.125,390.8906 Q530.8906,391.1563 530.5156,391.1563 Q530.1719,391.1563 529.9688,390.9531 Q529.7656,390.7656 529.6563,390.25 Q529.6094,389.8906 529.4219,389.7031 Q529.0938,389.3281 528.4844,389.1094 Q527.875,388.8906 527.25,388.8906 Q526.4844,388.8906 525.8438,389.2188 Q525.2188,389.5469 524.7188,390.2969 Q524.2344,391.0469 524.2344,392.0781 L524.2344,393.1719 Q524.2344,394.4063 525.125,395.2344 Q526.0156,396.0469 527.6094,396.0469 Q528.5469,396.0469 529.2031,395.7969 Q529.5938,395.6406 530.0156,395.2031 Q530.2813,394.9375 530.4219,394.8594 Q530.5781,394.7813 530.7813,394.7813 Q531.1094,394.7813 531.3594,395.0469 Q531.625,395.2969 531.625,395.6406 Q531.625,395.9844 531.2813,396.3906 Q530.7813,396.9688 529.9844,397.2969 Q528.9063,397.75 527.6094,397.75 Q526.0938,397.75 524.8906,397.125 Q523.9063,396.625 523.2188,395.5625 Q522.5313,394.4844 522.5313,393.2031 L522.5313,392.0469 Q522.5313,390.7188 523.1406,389.5781 Q523.7656,388.4219 524.8594,387.8125 Q525.9531,387.1875 527.1875,387.1875 Q527.9219,387.1875 528.5625,387.3594 Q529.2188,387.5156 529.7656,387.875 Z "/><text fill="#000000" font-family="sans-serif" font-size="12" lengthAdjust="spacingAndGlyphs" textLength="65" x="541" y="396.9102">PropertyInfo</text><line style="stroke: #A80036; stroke-width: 1.5;" x1="513" x2="608" y1="408" y2="408"/><line style="stroke: #A80036; stroke-width: 1.5;" x1="513" x2="608" y1="416" y2="416"/><!--class Type--><rect fill="#FEFECE" filter="url(#f1gjfj6ocgc8a9)" height="48" id="Type" style="stroke: #A80036; stroke-width: 1.5;" width="58" x="644.5" y="376"/><ellipse cx="659.5" cy="392" fill="#ADD1B2" rx="11" ry="11" style="stroke: #A80036; stroke-width: 1.0;"/><path d="M662.2656,387.875 Q662.4219,387.6563 662.6094,387.5469 Q662.7969,387.4375 663.0156,387.4375 Q663.3906,387.4375 663.625,387.7031 Q663.8594,387.9531 663.8594,388.5625 L663.8594,390.0156 Q663.8594,390.625 663.625,390.8906 Q663.3906,391.1563 663.0156,391.1563 Q662.6719,391.1563 662.4688,390.9531 Q662.2656,390.7656 662.1563,390.25 Q662.1094,389.8906 661.9219,389.7031 Q661.5938,389.3281 660.9844,389.1094 Q660.375,388.8906 659.75,388.8906 Q658.9844,388.8906 658.3438,389.2188 Q657.7188,389.5469 657.2188,390.2969 Q656.7344,391.0469 656.7344,392.0781 L656.7344,393.1719 Q656.7344,394.4063 657.625,395.2344 Q658.5156,396.0469 660.1094,396.0469 Q661.0469,396.0469 661.7031,395.7969 Q662.0938,395.6406 662.5156,395.2031 Q662.7813,394.9375 662.9219,394.8594 Q663.0781,394.7813 663.2813,394.7813 Q663.6094,394.7813 663.8594,395.0469 Q664.125,395.2969 664.125,395.6406 Q664.125,395.9844 663.7813,396.3906 Q663.2813,396.9688 662.4844,397.2969 Q661.4063,397.75 660.1094,397.75 Q658.5938,397.75 657.3906,397.125 Q656.4063,396.625 655.7188,395.5625 Q655.0313,394.4844 655.0313,393.2031 L655.0313,392.0469 Q655.0313,390.7188 655.6406,389.5781 Q656.2656,388.4219 657.3594,387.8125 Q658.4531,387.1875 659.6875,387.1875 Q660.4219,387.1875 661.0625,387.3594 Q661.7188,387.5156 662.2656,387.875 Z "/><text fill="#000000" font-family="sans-serif" font-size="12" lengthAdjust="spacingAndGlyphs" textLength="26" x="673.5" y="396.9102">Type</text><line style="stroke: #A80036; stroke-width: 1.5;" x1="645.5" x2="701.5" y1="408" y2="408"/><line style="stroke: #A80036; stroke-width: 1.5;" x1="645.5" x2="701.5" y1="416" y2="416"/><!--reverse link IPropertyDef to PropertyDef--><path d="M465.5,76.365 C465.5,88.41 465.5,102.006 465.5,115.855 " fill="none" id="IPropertyDef&lt;-PropertyDef" style="stroke: #A80036; stroke-width: 1.0;"/><polygon fill="none" points="458.5,76.05,465.5,56.05,472.5,76.05,458.5,76.05" style="stroke: #A80036; stroke-width: 1.0;"/><!--link PropertyDef to IImplementation--><path d="M248.195,316.122 C201.386,337.4731 155.895,358.2234 122.14,373.6204 " fill="none" id="PropertyDef-&gt;IImplementation" style="stroke: #A80036; stroke-width: 1.0;"/><polygon fill="#A80036" points="117.246,375.8527,127.0944,375.7583,121.7954,373.7783,123.7754,368.4793,117.246,375.8527" style="stroke: #A80036; stroke-width: 1.0;"/><text fill="#000000" font-family="sans-serif" font-size="13" lengthAdjust="spacingAndGlyphs" textLength="88" x="30.9747" y="365.1551">Implementation</text><!--link PropertyDef to PathIs--><path d="M318.254,316.255 C286.656,337.554 255.96,358.2452 233.168,373.6092 " fill="none" id="PropertyDef-&gt;PathIs" style="stroke: #A80036; stroke-width: 1.0;"/><polygon fill="#A80036" points="229.005,376.4149,238.7034,374.6998,233.1506,373.6196,234.2308,368.0668,229.005,376.4149" style="stroke: #A80036; stroke-width: 1.0;"/><text fill="#000000" font-family="sans-serif" font-size="13" lengthAdjust="spacingAndGlyphs" textLength="72" x="222.7273" y="365.1317">PathModifier</text><!--link PropertyDef to ConfigurationPersistenceActions--><path d="M413.691,316.255 C403.146,336.457 392.886,356.1124 385.014,371.1937 " fill="none" id="PropertyDef-&gt;ConfigurationPersistenceActions" style="stroke: #A80036; stroke-width: 1.0;"/><polygon fill="#A80036" points="382.65,375.7227,390.3612,369.596,384.9641,371.2905,383.2697,365.8934,382.65,375.7227" style="stroke: #A80036; stroke-width: 1.0;"/><text fill="#000000" font-family="sans-serif" font-size="13" lengthAdjust="spacingAndGlyphs" textLength="69" x="307.9228" y="364.9918">Persistence</text><!--link PropertyDef to PropertyInfo--><path d="M517.309,316.255 C527.854,336.457 538.114,356.1124 545.986,371.1937 " fill="none" id="PropertyDef-&gt;PropertyInfo" style="stroke: #A80036; stroke-width: 1.0;"/><polygon fill="#A80036" points="548.35,375.7227,547.7303,365.8934,546.0359,371.2905,540.6388,369.596,548.35,375.7227" style="stroke: #A80036; stroke-width: 1.0;"/><text fill="#000000" font-family="sans-serif" font-size="13" lengthAdjust="spacingAndGlyphs" textLength="69" x="475.9426" y="365.2053">PropertyInfo</text><!--link PropertyDef to Type--><path d="M566.231,316.255 C592.873,339.3371 619.8,361.7055 640.149,377.3532 " fill="none" id="PropertyDef-&gt;Type" style="stroke: #A80036; stroke-width: 1.0;"/><polygon fill="#A80036" points="644.129,380.3914,639.4027,371.7507,640.1548,377.3573,634.5482,378.1094,644.129,380.3914" style="stroke: #A80036; stroke-width: 1.0;"/><text fill="#000000" font-family="sans-serif" font-size="13" lengthAdjust="spacingAndGlyphs" textLength="28" x="608.3648" y="371.7632">Type</text><!--link PropertyDef to Type--><path d="M592.384,316.255 C615.624,336.8053 637.292,356.79 652.543,371.9696 " fill="none" id="PropertyDef-&gt;Type-1" style="stroke: #A80036; stroke-width: 1.0;"/><polygon fill="#A80036" points="656.28,375.7227,652.7643,366.5227,652.7521,372.1795,647.0953,372.1673,656.28,375.7227" style="stroke: #A80036; stroke-width: 1.0;"/><text fill="#000000" font-family="sans-serif" font-size="13" lengthAdjust="spacingAndGlyphs" textLength="89" x="663.2705" y="364.9918">UnderlyingType</text><!--
@startuml
class PropertyDef {
    + DefaultValue : object? <<get>>
    + ElementImplementation : IImplementation? <<get>>
    + HasDefaultValue : bool <<get>>
    + IsReadOnly : bool <<get>>
    + PathSection : string <<get>>
    + PropertyName : string <<get>>
    + {static} GetUnderlyingType(type:Type) : Type
    + CalculatePath(parent:IConfigurationParent?) : string
    + ConvertStringToValue(path:string, stringRepresentation:string?) : object?
    + ConvertValueToString(value:object?) : string?
    + CopyValue(implementation:IImplementation, value:TElement, parent:IConfigurationParent, configurationRoot:IConfigurationRoot) : TElement
}
IPropertyDef <|- - PropertyDef
PropertyDef - -> "Implementation" IImplementation
PropertyDef - -> "PathModifier" PathIs
PropertyDef - -> "Persistence" ConfigurationPersistenceActions
PropertyDef - -> "PropertyInfo" PropertyInfo
PropertyDef - -> "Type" Type
PropertyDef - -> "UnderlyingType" Type
@enduml

PlantUML version 1.2019.09(Mon Aug 26 17:19:51 BST 2019)
(GPL source distribution)
Java Runtime: OpenJDK Runtime Environment
JVM: OpenJDK 64-Bit Server VM
Java Version: 13.0.2+8
Operating System: Windows 10
OS Version: 10.0
Default Encoding: Cp1252
Language: en
Country: GB
--></g></svg>