<?xml version="1.0" encoding="UTF-8" standalone="no"?><svg xmlns="http://www.w3.org/2000/svg" xmlns:xlink="http://www.w3.org/1999/xlink" contentScriptType="application/ecmascript" contentStyleType="text/css" height="216px" preserveAspectRatio="none" style="width:380px;height:216px;" version="1.1" viewBox="0 0 380 216" width="380px" zoomAndPan="magnify"><defs><filter height="300%" id="fcjg9oibg1r86" width="300%" x="-1" y="-1"><feGaussianBlur result="blurOut" stdDeviation="2.0"/><feColorMatrix in="blurOut" result="blurOut2" type="matrix" values="0 0 0 0 0 0 0 0 0 0 0 0 0 0 0 0 0 0 .4 0"/><feOffset dx="4.0" dy="4.0" in="blurOut2" result="blurOut3"/><feBlend in="SourceGraphic" in2="blurOut3" mode="normal"/></filter></defs><g><!--class IConfigurationDictionary`1--><rect fill="#FEFECE" filter="url(#fcjg9oibg1r86)" height="89.5078" id="IConfigurationDictionary`1" style="stroke: #A80036; stroke-width: 1.5;" width="242" x="68.759" y="116"/><ellipse cx="87.809" cy="132" fill="#B4A7E5" rx="11" ry="11" style="stroke: #A80036; stroke-width: 1.0;"/><path d="M88.7621,128.6406 L88.7621,135.2969 L90.4809,135.2969 Q91.0903,135.2969 91.3559,135.5313 Q91.6215,135.7656 91.6215,136.1563 Q91.6215,136.5313 91.3559,136.7656 Q91.0903,137 90.4809,137 L85.3403,137 Q84.7309,137 84.4653,136.7656 Q84.1996,136.5313 84.1996,136.1406 Q84.1996,135.7656 84.4653,135.5313 Q84.7309,135.2969 85.3403,135.2969 L87.059,135.2969 L87.059,128.6406 L85.3403,128.6406 Q84.7309,128.6406 84.4653,128.4063 Q84.1996,128.1719 84.1996,127.7813 Q84.1996,127.4063 84.4653,127.1719 Q84.7309,126.9375 85.3403,126.9375 L90.4809,126.9375 Q91.0903,126.9375 91.3559,127.1719 Q91.6215,127.4063 91.6215,127.7813 Q91.6215,128.1719 91.3559,128.4063 Q91.0903,128.6406 90.4809,128.6406 L88.7621,128.6406 Z "/><text fill="#000000" font-family="sans-serif" font-size="12" font-style="italic" lengthAdjust="spacingAndGlyphs" textLength="144" x="102.709" y="136.9102">IConfigurationDictionary`1</text><rect fill="#FFFFFF" height="17.0938" style="stroke: #000000; stroke-width: 1.0; stroke-dasharray: 2.0,2.0;" width="55" x="258.759" y="113"/><text fill="#000000" font-family="sans-serif" font-size="12" font-style="italic" lengthAdjust="spacingAndGlyphs" textLength="53" x="259.759" y="126.457">TElement</text><line style="stroke: #A80036; stroke-width: 1.5;" x1="69.759" x2="309.759" y1="148" y2="148"/><line style="stroke: #A80036; stroke-width: 1.5;" x1="69.759" x2="309.759" y1="156" y2="156"/><text fill="#000000" font-family="sans-serif" font-size="11" lengthAdjust="spacingAndGlyphs" textLength="230" x="74.759" y="171.4189">AddCopy(key:string, value:TElement) : TElement</text><text fill="#000000" font-family="sans-serif" font-size="11" lengthAdjust="spacingAndGlyphs" textLength="150" x="74.759" y="185.2549">AddNew(key:string) : TElement</text><text fill="#000000" font-family="sans-serif" font-size="11" lengthAdjust="spacingAndGlyphs" textLength="162" x="74.759" y="199.0908">Contains(element:TElement) : bool</text><!--class IDictionary`2--><rect fill="#FEFECE" filter="url(#fcjg9oibg1r86)" height="48" id="IDictionary`2" style="stroke: #A80036; stroke-width: 1.5;" width="135" x="28.259" y="8"/><ellipse cx="43.259" cy="24" fill="#ADD1B2" rx="11" ry="11" style="stroke: #A80036; stroke-width: 1.0;"/><path d="M46.0246,19.875 Q46.1809,19.6563 46.3684,19.5469 Q46.5559,19.4375 46.7746,19.4375 Q47.1496,19.4375 47.384,19.7031 Q47.6184,19.9531 47.6184,20.5625 L47.6184,22.0156 Q47.6184,22.625 47.384,22.8906 Q47.1496,23.1563 46.7746,23.1563 Q46.4309,23.1563 46.2278,22.9531 Q46.0246,22.7656 45.9153,22.25 Q45.8684,21.8906 45.6809,21.7031 Q45.3528,21.3281 44.7434,21.1094 Q44.134,20.8906 43.509,20.8906 Q42.7434,20.8906 42.1028,21.2188 Q41.4778,21.5469 40.9778,22.2969 Q40.4934,23.0469 40.4934,24.0781 L40.4934,25.1719 Q40.4934,26.4063 41.384,27.2344 Q42.2746,28.0469 43.8684,28.0469 Q44.8059,28.0469 45.4621,27.7969 Q45.8528,27.6406 46.2746,27.2031 Q46.5403,26.9375 46.6809,26.8594 Q46.8371,26.7813 47.0403,26.7813 Q47.3684,26.7813 47.6184,27.0469 Q47.884,27.2969 47.884,27.6406 Q47.884,27.9844 47.5403,28.3906 Q47.0403,28.9688 46.2434,29.2969 Q45.1653,29.75 43.8684,29.75 Q42.3528,29.75 41.1496,29.125 Q40.1653,28.625 39.4778,27.5625 Q38.7903,26.4844 38.7903,25.2031 L38.7903,24.0469 Q38.7903,22.7188 39.3996,21.5781 Q40.0246,20.4219 41.1184,19.8125 Q42.2121,19.1875 43.4465,19.1875 Q44.1809,19.1875 44.8215,19.3594 Q45.4778,19.5156 46.0246,19.875 Z "/><text fill="#000000" font-family="sans-serif" font-size="12" lengthAdjust="spacingAndGlyphs" textLength="68" x="57.259" y="28.9102">IDictionary`2</text><rect fill="#FFFFFF" height="17.0938" style="stroke: #000000; stroke-width: 1.0; stroke-dasharray: 2.0,2.0;" width="33" x="133.259" y="5"/><text fill="#000000" font-family="sans-serif" font-size="12" font-style="italic" lengthAdjust="spacingAndGlyphs" textLength="31" x="134.259" y="18.457">T1,T2</text><line style="stroke: #A80036; stroke-width: 1.5;" x1="29.259" x2="162.259" y1="40" y2="40"/><line style="stroke: #A80036; stroke-width: 1.5;" x1="29.259" x2="162.259" y1="48" y2="48"/><!--class INotifyCollectionChanged--><rect fill="#FEFECE" filter="url(#fcjg9oibg1r86)" height="48" id="INotifyCollectionChanged" style="stroke: #A80036; stroke-width: 1.5;" width="171" x="198.259" y="8"/><ellipse cx="213.259" cy="24" fill="#ADD1B2" rx="11" ry="11" style="stroke: #A80036; stroke-width: 1.0;"/><path d="M216.0246,19.875 Q216.1809,19.6563 216.3684,19.5469 Q216.5559,19.4375 216.7746,19.4375 Q217.1496,19.4375 217.384,19.7031 Q217.6184,19.9531 217.6184,20.5625 L217.6184,22.0156 Q217.6184,22.625 217.384,22.8906 Q217.1496,23.1563 216.7746,23.1563 Q216.4309,23.1563 216.2278,22.9531 Q216.0246,22.7656 215.9153,22.25 Q215.8684,21.8906 215.6809,21.7031 Q215.3528,21.3281 214.7434,21.1094 Q214.134,20.8906 213.509,20.8906 Q212.7434,20.8906 212.1028,21.2188 Q211.4778,21.5469 210.9778,22.2969 Q210.4934,23.0469 210.4934,24.0781 L210.4934,25.1719 Q210.4934,26.4063 211.384,27.2344 Q212.2746,28.0469 213.8684,28.0469 Q214.8059,28.0469 215.4621,27.7969 Q215.8528,27.6406 216.2746,27.2031 Q216.5403,26.9375 216.6809,26.8594 Q216.8371,26.7813 217.0403,26.7813 Q217.3684,26.7813 217.6184,27.0469 Q217.884,27.2969 217.884,27.6406 Q217.884,27.9844 217.5403,28.3906 Q217.0403,28.9688 216.2434,29.2969 Q215.1653,29.75 213.8684,29.75 Q212.3528,29.75 211.1496,29.125 Q210.1653,28.625 209.4778,27.5625 Q208.7903,26.4844 208.7903,25.2031 L208.7903,24.0469 Q208.7903,22.7188 209.3996,21.5781 Q210.0246,20.4219 211.1184,19.8125 Q212.2121,19.1875 213.4465,19.1875 Q214.1809,19.1875 214.8215,19.3594 Q215.4778,19.5156 216.0246,19.875 Z "/><text fill="#000000" font-family="sans-serif" font-size="12" lengthAdjust="spacingAndGlyphs" textLength="139" x="227.259" y="28.9102">INotifyCollectionChanged</text><line style="stroke: #A80036; stroke-width: 1.5;" x1="199.259" x2="368.259" y1="40" y2="40"/><line style="stroke: #A80036; stroke-width: 1.5;" x1="199.259" x2="368.259" y1="48" y2="48"/><!--reverse link IDictionary`2 to IConfigurationDictionary`1--><path d="M124.997,72.502 C135.154,86.226 146.61,101.702 157.031,115.7821 " fill="none" id="IDictionary`2&lt;-IConfigurationDictionary`1" style="stroke: #A80036; stroke-width: 1.0;"/><polygon fill="none" points="119.272,76.534,113,56.294,130.525,68.205,119.272,76.534" style="stroke: #A80036; stroke-width: 1.0;"/><text fill="#000000" font-family="sans-serif" font-size="13" lengthAdjust="spacingAndGlyphs" textLength="107" x="-2.3849" y="77.2978">&lt;string,TElement&gt;</text><!--reverse link INotifyCollectionChanged to IConfigurationDictionary`1--><path d="M254.521,72.502 C244.364,86.226 232.908,101.702 222.487,115.7821 " fill="none" id="INotifyCollectionChanged&lt;-IConfigurationDictionary`1" style="stroke: #A80036; stroke-width: 1.0;"/><polygon fill="none" points="248.993,68.205,266.518,56.294,260.246,76.534,248.993,68.205" style="stroke: #A80036; stroke-width: 1.0;"/><!--
@startuml
interface "IConfigurationDictionary`1"<TElement> {
    AddCopy(key:string, value:TElement) : TElement
    AddNew(key:string) : TElement
    Contains(element:TElement) : bool
}
class "IDictionary`2"<T1,T2> {
}
"IDictionary`2" "<string,TElement>" <|- - "IConfigurationDictionary`1"
INotifyCollectionChanged <|- - "IConfigurationDictionary`1"
@enduml

PlantUML version 1.2019.09(Mon Aug 26 17:19:51 BST 2019)
(GPL source distribution)
Java Runtime: OpenJDK Runtime Environment
JVM: OpenJDK 64-Bit Server VM
Java Version: 13.0.2+8
Operating System: Windows 10
OS Version: 10.0
Default Encoding: Cp1252
Language: en
Country: GB
--></g></svg>