<?xml version="1.0" encoding="UTF-8" standalone="no"?><svg xmlns="http://www.w3.org/2000/svg" xmlns:xlink="http://www.w3.org/1999/xlink" contentScriptType="application/ecmascript" contentStyleType="text/css" height="244px" preserveAspectRatio="none" style="width:488px;height:244px;" version="1.1" viewBox="0 0 488 244" width="488px" zoomAndPan="magnify"><defs><filter height="300%" id="f1fp4jf8w8tpp2" width="300%" x="-1" y="-1"><feGaussianBlur result="blurOut" stdDeviation="2.0"/><feColorMatrix in="blurOut" result="blurOut2" type="matrix" values="0 0 0 0 0 0 0 0 0 0 0 0 0 0 0 0 0 0 .4 0"/><feOffset dx="4.0" dy="4.0" in="blurOut2" result="blurOut3"/><feBlend in="SourceGraphic" in2="blurOut3" mode="normal"/></filter></defs><g><!--class TypeMismatchException--><rect fill="#FEFECE" filter="url(#f1fp4jf8w8tpp2)" height="117.1797" id="TypeMismatchException" style="stroke: #A80036; stroke-width: 1.5;" width="471" x="6" y="116"/><ellipse cx="171.25" cy="132" fill="#ADD1B2" rx="11" ry="11" style="stroke: #A80036; stroke-width: 1.0;"/><path d="M174.0156,127.875 Q174.1719,127.6563 174.3594,127.5469 Q174.5469,127.4375 174.7656,127.4375 Q175.1406,127.4375 175.375,127.7031 Q175.6094,127.9531 175.6094,128.5625 L175.6094,130.0156 Q175.6094,130.625 175.375,130.8906 Q175.1406,131.1563 174.7656,131.1563 Q174.4219,131.1563 174.2188,130.9531 Q174.0156,130.7656 173.9063,130.25 Q173.8594,129.8906 173.6719,129.7031 Q173.3438,129.3281 172.7344,129.1094 Q172.125,128.8906 171.5,128.8906 Q170.7344,128.8906 170.0938,129.2188 Q169.4688,129.5469 168.9688,130.2969 Q168.4844,131.0469 168.4844,132.0781 L168.4844,133.1719 Q168.4844,134.4063 169.375,135.2344 Q170.2656,136.0469 171.8594,136.0469 Q172.7969,136.0469 173.4531,135.7969 Q173.8438,135.6406 174.2656,135.2031 Q174.5313,134.9375 174.6719,134.8594 Q174.8281,134.7813 175.0313,134.7813 Q175.3594,134.7813 175.6094,135.0469 Q175.875,135.2969 175.875,135.6406 Q175.875,135.9844 175.5313,136.3906 Q175.0313,136.9688 174.2344,137.2969 Q173.1563,137.75 171.8594,137.75 Q170.3438,137.75 169.1406,137.125 Q168.1563,136.625 167.4688,135.5625 Q166.7813,134.4844 166.7813,133.2031 L166.7813,132.0469 Q166.7813,130.7188 167.3906,129.5781 Q168.0156,128.4219 169.1094,127.8125 Q170.2031,127.1875 171.4375,127.1875 Q172.1719,127.1875 172.8125,127.3594 Q173.4688,127.5156 174.0156,127.875 Z "/><text fill="#000000" font-family="sans-serif" font-size="12" lengthAdjust="spacingAndGlyphs" textLength="132" x="191.75" y="136.9102">TypeMismatchException</text><line style="stroke: #A80036; stroke-width: 1.5;" x1="7" x2="476" y1="148" y2="148"/><line style="stroke: #A80036; stroke-width: 1.5;" x1="7" x2="476" y1="156" y2="156"/><ellipse cx="17" cy="167" fill="#84BE84" rx="3" ry="3" style="stroke: #038048; stroke-width: 1.0;"/><text fill="#000000" font-family="sans-serif" font-size="11" lengthAdjust="spacingAndGlyphs" textLength="124" x="26" y="171.4189">TypeMismatchException()</text><ellipse cx="17" cy="180.8359" fill="#84BE84" rx="3" ry="3" style="stroke: #038048; stroke-width: 1.0;"/><text fill="#000000" font-family="sans-serif" font-size="11" lengthAdjust="spacingAndGlyphs" textLength="198" x="26" y="185.2549">TypeMismatchException(message:string)</text><ellipse cx="17" cy="194.6719" fill="#84BE84" rx="3" ry="3" style="stroke: #038048; stroke-width: 1.0;"/><text fill="#000000" font-family="sans-serif" font-size="11" lengthAdjust="spacingAndGlyphs" textLength="318" x="26" y="199.0908">TypeMismatchException(configurationPath:string, message:string)</text><ellipse cx="17" cy="208.5078" fill="#84BE84" rx="3" ry="3" style="stroke: #038048; stroke-width: 1.0;"/><text fill="#000000" font-family="sans-serif" font-size="11" lengthAdjust="spacingAndGlyphs" textLength="325" x="26" y="212.9268">TypeMismatchException(message:string, innerException:Exception)</text><ellipse cx="17" cy="222.3438" fill="#84BE84" rx="3" ry="3" style="stroke: #038048; stroke-width: 1.0;"/><text fill="#000000" font-family="sans-serif" font-size="11" lengthAdjust="spacingAndGlyphs" textLength="445" x="26" y="226.7627">TypeMismatchException(configurationPath:string, message:string, innerException:Exception)</text><!--class ConfigurationException--><rect fill="#FEFECE" filter="url(#f1fp4jf8w8tpp2)" height="48" id="ConfigurationException" style="stroke: #A80036; stroke-width: 1.5;" width="159" x="162" y="8"/><ellipse cx="177" cy="24" fill="#ADD1B2" rx="11" ry="11" style="stroke: #A80036; stroke-width: 1.0;"/><path d="M179.7656,19.875 Q179.9219,19.6563 180.1094,19.5469 Q180.2969,19.4375 180.5156,19.4375 Q180.8906,19.4375 181.125,19.7031 Q181.3594,19.9531 181.3594,20.5625 L181.3594,22.0156 Q181.3594,22.625 181.125,22.8906 Q180.8906,23.1563 180.5156,23.1563 Q180.1719,23.1563 179.9688,22.9531 Q179.7656,22.7656 179.6563,22.25 Q179.6094,21.8906 179.4219,21.7031 Q179.0938,21.3281 178.4844,21.1094 Q177.875,20.8906 177.25,20.8906 Q176.4844,20.8906 175.8438,21.2188 Q175.2188,21.5469 174.7188,22.2969 Q174.2344,23.0469 174.2344,24.0781 L174.2344,25.1719 Q174.2344,26.4063 175.125,27.2344 Q176.0156,28.0469 177.6094,28.0469 Q178.5469,28.0469 179.2031,27.7969 Q179.5938,27.6406 180.0156,27.2031 Q180.2813,26.9375 180.4219,26.8594 Q180.5781,26.7813 180.7813,26.7813 Q181.1094,26.7813 181.3594,27.0469 Q181.625,27.2969 181.625,27.6406 Q181.625,27.9844 181.2813,28.3906 Q180.7813,28.9688 179.9844,29.2969 Q178.9063,29.75 177.6094,29.75 Q176.0938,29.75 174.8906,29.125 Q173.9063,28.625 173.2188,27.5625 Q172.5313,26.4844 172.5313,25.2031 L172.5313,24.0469 Q172.5313,22.7188 173.1406,21.5781 Q173.7656,20.4219 174.8594,19.8125 Q175.9531,19.1875 177.1875,19.1875 Q177.9219,19.1875 178.5625,19.3594 Q179.2188,19.5156 179.7656,19.875 Z "/><text fill="#000000" font-family="sans-serif" font-size="12" lengthAdjust="spacingAndGlyphs" textLength="127" x="191" y="28.9102">ConfigurationException</text><line style="stroke: #A80036; stroke-width: 1.5;" x1="163" x2="320" y1="40" y2="40"/><line style="stroke: #A80036; stroke-width: 1.5;" x1="163" x2="320" y1="48" y2="48"/><!--reverse link ConfigurationException to TypeMismatchException--><path d="M241.5,76.285 C241.5,88.829 241.5,102.726 241.5,115.995 " fill="none" id="ConfigurationException&lt;-TypeMismatchException" style="stroke: #A80036; stroke-width: 1.0;"/><polygon fill="none" points="234.5,76.201,241.5,56.201,248.5,76.201,234.5,76.201" style="stroke: #A80036; stroke-width: 1.0;"/><!--
@startuml
class TypeMismatchException {
    + TypeMismatchException()
    + TypeMismatchException(message:string)
    + TypeMismatchException(configurationPath:string, message:string)
    + TypeMismatchException(message:string, innerException:Exception)
    + TypeMismatchException(configurationPath:string, message:string, innerException:Exception)
}
ConfigurationException <|- - TypeMismatchException
@enduml

PlantUML version 1.2019.09(Mon Aug 26 17:19:51 BST 2019)
(GPL source distribution)
Java Runtime: OpenJDK Runtime Environment
JVM: OpenJDK 64-Bit Server VM
Java Version: 13.0.2+8
Operating System: Windows 10
OS Version: 10.0
Default Encoding: Cp1252
Language: en
Country: GB
--></g></svg>